<svg xmlns="http://www.w3.org/2000/svg" xmlns:xlink="http://www.w3.org/1999/xlink" width="165" height="137" version="1.1" viewBox="0 0 165 137" xml:space="preserve"><g><title>max-b</title><desc>Created with Sketch.</desc><g id="basketball" fill="none" fill-rule="evenodd" stroke="none" stroke-width="1"><g id="max-b" fill-rule="nonzero"><g id="scratch_bball_player04b" transform="translate(13.000000, 4.000000)"><path id="Shape" fill="#BE0A3C" d="M58.1638418,11.1206962 C51.7778531,19.6655696 45.3557627,35.3517722 65.0672881,43.4181646 C87.8354237,52.7286076 88.0520339,16.7029747 79.5400565,9.15094937 C75.3963842,5.47462025 72.4561017,5.04398734 67.9714689,5.27924051 C63.7555932,5.49455696 59.3070621,9.58955696 58.1638418,11.1206962 Z"/><path id="Shape" fill="#A0640A" d="M69.5759887,8.07835443 C61.019887,8.07835443 60.1775141,17.9829114 60.4783616,19.2189873 C61.3287571,22.691962 62.6043503,26.8467722 66.2425989,28.35 C69.2711299,29.6020253 73.3265537,28.7048734 75.5207345,26.296519 C77.4742373,24.1513291 79.7646893,17.9231013 79.0145763,15.0721519 C79.1710169,14.5258861 78.1280791,8.07835443 69.5759887,8.07835443 Z"/><path id="Shape" fill="#A0640A" d="M76.9166667,23.3458861 C80.6511864,23.1106329 82.0872316,21.3203165 81.8866667,18.1902532 C81.6018644,13.7403797 77.3177966,17.5443038 77.3177966,17.5443038 C77.3177966,17.5443038 76.5155367,22.4846203 76.9166667,23.3458861 Z"/><path id="Shape" fill="#A0640A" d="M61.970565,23.3458861 C58.2400565,23.1106329 56.8,21.3203165 57.000565,18.1902532 C57.2853672,13.7403797 61.569435,17.5283544 61.569435,17.5283544 C61.569435,17.5283544 62.3716949,22.4846203 61.970565,23.3458861 Z"/><path id="Shape" fill="#824600" d="M69.9650847,20.6823418 C70.0554015,20.6442656 70.1403516,20.5946723 70.2177966,20.5348101 C70.2439584,20.3897715 70.2613718,20.2433076 70.2699435,20.0962025 C70.3501695,18.5570886 70.3581921,17.336962 69.5037853,16.2364557 C68.5049718,16.065 68.2723164,19.390443 68.5210169,20.6903165 C68.9874732,20.8615108 69.5005709,20.8586773 69.9650847,20.6823418 Z"/><path id="Shape" fill="#000" d="M67.610452,23.5891139 L71.429209,23.4814557 C71.429209,23.4814557 70.7472881,24.7255063 69.6441808,24.6537342 C67.8551412,24.5381013 67.610452,23.5891139 67.610452,23.5891139 Z"/><path id="Shape" fill="#000" d="M74.6542938,17.2452532 C75.6330508,16.7348734 75.2479661,18.6806962 75.0554237,18.9956962 C74.1649153,18.9358861 74.3173446,17.8194304 74.6542938,17.2452532 Z"/><path id="Shape" fill="#000" d="M63.3785311,17.0618354 C64.3532768,16.555443 63.9681921,18.5012658 63.779661,18.8162658 C62.8771186,18.7405063 63.029548,17.6360127 63.3785311,17.0618354 Z"/><path id="Shape" fill="#A0001E" d="M69.6321469,10.2235443 L79.5360452,17.9031646 C79.5360452,17.9031646 80.6030508,11.9221519 76.3671186,9.19879747 C72.1311864,6.47544304 69.6321469,10.2235443 69.6321469,10.2235443 Z"/><path id="Shape" fill="#BE0A3C" d="M59.6239548,19.1033544 L76.5035028,8.44917722 C76.5035028,8.44917722 67.8471186,2.52 61.529322,8.505 C56.559322,13.2339873 59.6239548,19.1033544 59.6239548,19.1033544 Z"/><path id="Shape" fill="#005A5A" d="M66.5875706,53.5021519 L47.0003955,66.2616456 C47.0003955,66.2616456 46.1981356,69.2003165 47.2932203,71.6126582 C48.2719774,73.7498734 51.0036723,75.4524684 53.4625989,74.7108228 C61.7740113,72.2107595 64.0724859,81.2341139 77.7389831,75.0377848 C82.5525424,72.8487342 84.6303955,68.191519 90.8639548,69.7106962 C93.5555367,70.3686076 95.8379661,69.3757595 96.9210169,68.1157595 C97.7881686,67.0289063 98.2171645,65.6600538 98.1244068,64.2759494 L66.5875706,53.5021519 Z"/><rect id="Rectangle-path" width="25.885" height="11.966" x="57.839" y="57.422" fill="#000"/><polygon id="Shape" fill="#A0640A" points="78.654 99.241 85.549 92.602 85.513 67.103 74.494 67.558 75.441 92.977"/><polygon id="Shape" fill="#000" points="87.029 72.386 87.202 61.417 72.982 61.784 73.238 72.386"/><polygon id="Shape" fill="linen" points="75.537 97.096 76.13 113.667 85.738 114.504 85.641 97.179 80.443 95.222"/><polygon id="Shape" fill="#F0E6D2" points="85.641 97.179 85.549 92.602 75.316 92.881 75.525 97.179"/><polygon id="Shape" fill="#00A08C" points="91.847 124.78 85.212 123.923 76.207 124.545 76.275 125.737 92.308 125.972"/><path id="Shape" fill="#000" d="M90.6553672,123.491962 C89.4572265,123.42769 88.2646346,123.285168 87.0853107,123.065316 L85.8819209,110.557025 L75.8135593,110.557025 L76.2146893,124.54462 L91.8587571,124.779873 C91.7004372,124.441481 91.5663928,124.092383 91.4576271,123.73519 C91.2019662,123.619831 90.9322774,123.538067 90.6553672,123.491962 Z"/><polygon id="Shape" fill="#00A08C" points="78.325 117.435 82.765 117.447 82.38 112.706 78.144 112.622"/><polygon id="Shape" fill="#005A5A" points="87.254 113.54 85.136 113.54 85.136 112.762 87.113 112.762"/><polygon id="Shape" fill="#00A08C" points="87.599 115.358 85.136 115.358 85.136 114.576 87.458 114.576"/><polygon id="Shape" fill="#005A5A" points="87.948 117.172 85.136 117.172 85.136 116.391 87.807 116.391"/><polygon id="Shape" fill="#00A08C" points="88.297 118.986 85.136 118.986 85.136 118.205 88.156 118.205"/><polygon id="Shape" fill="#005A5A" points="88.646 120.801 85.136 120.801 85.136 120.023 88.505 120.023"/><polygon id="Shape" fill="#A0640A" points="63.768 99.241 56.872 92.602 56.908 67.103 67.927 67.558 66.981 92.977"/><polygon id="Shape" fill="#000" points="55.392 72.386 55.22 61.417 69.444 61.784 69.183 72.386"/><polygon id="Shape" fill="linen" points="66.884 97.096 66.291 113.667 56.684 114.504 56.776 97.179 61.979 95.222"/><polygon id="Shape" fill="#F0E6D2" points="56.776 97.179 56.872 92.602 67.105 92.881 66.896 97.179"/><polygon id="Shape" fill="#00A08C" points="50.574 124.78 57.209 123.923 66.215 124.545 66.146 125.737 50.117 125.972"/><path id="Shape" fill="#000" d="M51.7457627,123.491962 C52.9439034,123.42769 54.1364954,123.285168 55.3158192,123.065316 L56.519209,110.557025 L66.6036158,110.557025 L66.2024859,124.54462 L50.5584181,124.779873 C50.7167379,124.441481 50.8507823,124.092383 50.959548,123.73519 C51.2101197,123.621137 51.4743335,123.539398 51.7457627,123.491962 Z"/><polygon id="Shape" fill="#00A08C" points="64.097 117.435 59.656 117.447 60.041 112.706 64.281 112.622"/><polygon id="Shape" fill="#005A5A" points="55.167 113.54 57.285 113.54 57.285 112.762 55.308 112.762"/><polygon id="Shape" fill="#00A08C" points="54.822 115.358 57.285 115.358 57.285 114.576 54.959 114.576"/><polygon id="Shape" fill="#005A5A" points="54.473 117.172 57.285 117.172 57.285 116.391 54.614 116.391"/><polygon id="Shape" fill="#00A08C" points="54.124 118.986 57.285 118.986 57.285 118.205 54.265 118.205"/><polygon id="Shape" fill="#005A5A" points="53.779 120.801 57.285 120.801 57.285 120.023 53.916 120.023"/><path id="Shape" fill="#A0640A" d="M136.223729,9.14696203 C135.622034,7.81518987 141.314068,5.88531646 141.438418,4.81670886 C141.562768,3.74810127 135.698249,6.4714557 135.020339,6.16841772 C134.19,5.79759494 139.075763,3.70822785 138.94339,2.3764557 C138.94339,2.16113924 130.439435,5.67797468 119.424407,10.9851266 C103.022203,18.8840506 79.0667232,30.7224684 79.0667232,30.7224684 L85.039548,40.3718354 C85.039548,40.3718354 141.249887,10.546519 141.59887,9.14696203 C141.947853,7.74740506 136.825424,10.4787342 136.223729,9.14696203 Z"/><path id="Shape" fill="#824600" d="M130.242881,0.338924051 C131.141412,1.63481013 128.562147,3.83183544 129.392486,5.19151899 C130.222825,6.55120253 132.665706,5.39088608 132.665706,8.45316456 C132.665706,11.515443 130.956893,12.0896203 128.461864,12.6199367 C124.450565,13.4732278 124.939944,7.99063291 125.653955,6.45550633 C126.179435,5.27924051 128.802825,0.645949367 130.242881,0.338924051 Z"/><path id="Shape" fill="#005A5A" d="M121.490226,22.0539873 C120.286836,21.0292405 115.721977,12.588038 116.030847,11.0529114 C116.339718,9.51778481 119.777401,8.18601266 121.931469,7.95075949 C122.61339,8.89177215 127.146158,16.9900633 127.362768,18.7405063 C127.579379,20.4909494 122.685593,23.0787342 121.490226,22.0539873 Z"/><polygon id="Shape" fill="#00A08C" points="117.114 9.231 123.933 22.229 126.256 20.922 119.741 8.027"/><path id="Shape" fill="#A0640A" d="M5.40723164,10.3431646 C6.01293785,9.01139241 0.316892655,7.08151899 0.192542373,6.01291139 C0.0681920904,4.9443038 5.93672316,7.66765823 6.61062147,7.36462025 C7.44096045,6.99379747 2.55519774,4.90443038 2.68757062,3.57265823 C2.71163842,3.35734177 11.1915254,6.87417722 22.210565,12.1813291 C38.6087571,20.0802532 62.5642373,31.9186709 62.5642373,31.9186709 L56.599435,41.568038 C56.599435,41.568038 0.401129944,11.7427215 0.0481355932,10.3431646 C-0.304858757,8.94360759 4.81355932,11.6749367 5.40723164,10.3431646 Z"/><path id="Shape" fill="#824600" d="M11.3880791,1.53512658 C10.489548,2.83101266 13.0688136,5.02803797 12.2384746,6.37974684 C11.4081356,7.7314557 8.96926554,6.57911392 8.96926554,9.64139241 C8.96926554,12.7036709 10.6740678,13.2778481 13.1731073,13.8081646 C17.1844068,14.6614557 16.6950282,9.17886076 15.9810169,7.64373418 C15.4515254,6.47544304 12.8361582,1.8421519 11.3880791,1.53512658 Z"/><path id="Shape" fill="#005A5A" d="M20.1407345,23.2501899 C21.3441243,22.225443 25.9089831,13.7842405 25.600113,12.2491139 C25.2912429,10.7139873 21.8575706,9.38221519 19.6994915,9.14696203 C19.0175706,10.0879747 14.4848023,18.1862658 14.2681921,19.9367089 C14.0515819,21.6871519 18.9453672,24.2749367 20.1407345,23.2501899 Z"/><polygon id="Shape" fill="#00A08C" points="24.517 10.427 17.702 23.426 15.379 22.118 21.89 9.223"/><path id="Shape" fill="#A0640A" d="M76.4834463,31.2846835 C68.3124294,34.2273418 62.5562147,31.9186709 62.5562147,31.9186709 L61.7980791,37.2896203 L64.1647458,42.349557 L79.3234463,40.3558861 L76.4834463,31.2846835 Z"/><path id="Shape" fill="#00A08C" d="M80.0013559,28.4935443 L75.3602825,30.5350633 C75.3602825,30.5350633 77.9034463,37.9953797 70.679096,38.7011392 C63.4547458,39.4068987 64.7584181,31.6355696 64.7584181,31.6355696 L59.9007345,29.6418987 L47.0124294,66.2496835 C47.0124294,66.2496835 98.0281356,64.2201266 98.1364407,64.2560127 L80.0013559,28.4935443 Z"/></g></g></g></g></svg>