<svg xmlns="http://www.w3.org/2000/svg" xmlns:xlink="http://www.w3.org/1999/xlink" id="Layer_1" width="144" height="144" x="0" y="0" enable-background="new 0 0 144 144" version="1.1" viewBox="0 0 144 144" xml:space="preserve"><g><linearGradient id="SVGID_1_" x1="13.048" x2="133.048" y1="75.069" y2="75.069" gradientTransform="matrix(1 0 0 -1 0 144)" gradientUnits="userSpaceOnUse"><stop offset="0" style="stop-color:#fbb040"/><stop offset="1" style="stop-color:#f15a29"/></linearGradient><path fill="url(#SVGID_1_)" d="M106.902,42.787H39.191c-14.416,0-26.143,11.728-26.143,26.144c0,14.416,11.728,26.144,26.143,26.144	h67.711c14.416,0,26.146-11.729,26.146-26.144C133.047,54.514,121.318,42.787,106.902,42.787z"/><linearGradient id="SVGID_2_" x1="17.551" x2="128.544" y1="75.07" y2="75.07" gradientTransform="matrix(1 0 0 -1 0 144)" gradientUnits="userSpaceOnUse"><stop offset="0" style="stop-color:#ed7340"/><stop offset=".518" style="stop-color:#f4aa46"/><stop offset="1" style="stop-color:#f29746"/></linearGradient><path fill="url(#SVGID_2_)" d="M128.544,68.929c0,11.953-9.689,21.641-21.642,21.641H39.191c-11.952,0-21.64-9.688-21.64-21.641l0,0	c0-11.951,9.688-21.64,21.64-21.64h67.711C118.854,47.289,128.544,56.978,128.544,68.929L128.544,68.929z"/></g></svg>