<svg xmlns="http://www.w3.org/2000/svg" xmlns:xlink="http://www.w3.org/1999/xlink" id="Layer_1" width="480.24" height="360" x="0" y="0" enable-background="new 0 0 480.24 360" version="1.1" viewBox="0 0 480.24 360" xml:space="preserve"><g><defs><rect id="SVGID_1_" width="480.24" height="360" x="0"/></defs><clipPath id="SVGID_2_"><use overflow="visible" xlink:href="#SVGID_1_"/></clipPath><g clip-path="url(#SVGID_2_)"><polygon fill="#CBC39D" fill-rule="evenodd" points="235.885 -162.485 227.225 -162.485 239.133 174.251" clip-rule="evenodd"/><polygon fill="#CBC39D" fill-rule="evenodd" points="206.057 -160.829 197.428 -160.075 238.643 174.343" clip-rule="evenodd"/><polygon fill="#CBC39D" fill-rule="evenodd" points="176.485 -156.581 167.955 -155.077 238.158 174.478" clip-rule="evenodd"/><polygon fill="#CBC39D" fill-rule="evenodd" points="147.396 -149.771 139.029 -147.53 237.689 174.655" clip-rule="evenodd"/><polygon fill="#CBC39D" fill-rule="evenodd" points="119.01 -140.452 110.871 -137.489 237.238 174.872" clip-rule="evenodd"/><polygon fill="#CBC39D" fill-rule="evenodd" points="91.545 -128.694 83.695 -125.034 236.809 175.126" clip-rule="evenodd"/><polygon fill="#CBC39D" fill-rule="evenodd" points="65.209 -114.587 57.708 -110.257 236.4 175.417" clip-rule="evenodd"/><polygon fill="#CBC39D" fill-rule="evenodd" points="40.204 -98.239 33.108 -93.271 236.021 175.745" clip-rule="evenodd"/><polygon fill="#CBC39D" fill-rule="evenodd" points="16.717 -79.772 10.082 -74.204 235.67 176.103" clip-rule="evenodd"/><polygon fill="#CBC39D" fill-rule="evenodd" points="-5.07 -59.329 -11.195 -53.204 235.352 176.489" clip-rule="evenodd"/><polygon fill="#CBC39D" fill-rule="evenodd" points="-24.993 -37.065 -30.561 -30.429 235.068 176.903" clip-rule="evenodd"/><polygon fill="#CBC39D" fill-rule="evenodd" points="-42.9 -13.149 -47.869 -6.054 234.824 177.341" clip-rule="evenodd"/><polygon fill="#CBC39D" fill-rule="evenodd" points="-58.654 12.237 -62.985 19.739 234.617 177.796" clip-rule="evenodd"/><polygon fill="#CBC39D" fill-rule="evenodd" points="-72.136 38.899 -75.797 46.751 234.451 178.269" clip-rule="evenodd"/><polygon fill="#CBC39D" fill-rule="evenodd" points="-83.243 66.636 -86.205 74.776 234.326 178.755" clip-rule="evenodd"/><polygon fill="#CBC39D" fill-rule="evenodd" points="-91.89 95.235 -94.132 103.603 234.244 179.249" clip-rule="evenodd"/><polygon fill="#CBC39D" fill-rule="evenodd" points="-98.011 124.478 -99.515 133.009 234.207 179.749" clip-rule="evenodd"/><polygon fill="#CBC39D" fill-rule="evenodd" points="-101.561 154.146 -102.316 162.774 234.211 180.249" clip-rule="evenodd"/><polygon fill="#CBC39D" fill-rule="evenodd" points="-102.511 184.009 -102.51 192.671 234.262 180.747" clip-rule="evenodd"/><polygon fill="#CBC39D" fill-rule="evenodd" points="-100.855 213.841 -100.1 222.47 234.354 181.239" clip-rule="evenodd"/><polygon fill="#CBC39D" fill-rule="evenodd" points="-96.605 243.415 -95.1 251.946 234.488 181.724" clip-rule="evenodd"/><polygon fill="#CBC39D" fill-rule="evenodd" points="-89.793 272.507 -87.55 280.876 234.664 182.19" clip-rule="evenodd"/><polygon fill="#CBC39D" fill-rule="evenodd" points="-80.472 300.896 -77.509 309.034 234.881 182.644" clip-rule="evenodd"/><polygon fill="#CBC39D" fill-rule="evenodd" points="-68.712 328.362 -65.05 336.214 235.137 183.075" clip-rule="evenodd"/><polygon fill="#CBC39D" fill-rule="evenodd" points="-54.603 354.7 -50.271 362.204 235.428 183.481" clip-rule="evenodd"/><polygon fill="#CBC39D" fill-rule="evenodd" points="-38.251 379.71 -33.283 386.806 235.756 183.862" clip-rule="evenodd"/><polygon fill="#CBC39D" fill-rule="evenodd" points="-19.783 403.198 -14.213 409.833 236.113 184.212" clip-rule="evenodd"/><polygon fill="#CBC39D" fill-rule="evenodd" points=".663 424.987 6.79 431.112 236.5 184.53" clip-rule="evenodd"/><polygon fill="#CBC39D" fill-rule="evenodd" points="22.931 444.911 29.568 450.479 236.914 184.813" clip-rule="evenodd"/><polygon fill="#CBC39D" fill-rule="evenodd" points="46.85 462.819 53.948 467.788 237.352 185.06" clip-rule="evenodd"/><polygon fill="#CBC39D" fill-rule="evenodd" points="72.24 478.573 79.743 482.905 237.809 185.265" clip-rule="evenodd"/><polygon fill="#CBC39D" fill-rule="evenodd" points="98.905 492.058 106.758 495.718 238.279 185.433" clip-rule="evenodd"/><polygon fill="#CBC39D" fill-rule="evenodd" points="126.645 503.163 134.787 506.126 238.766 185.556" clip-rule="evenodd"/><polygon fill="#CBC39D" fill-rule="evenodd" points="155.248 511.812 163.617 514.052 239.26 185.638" clip-rule="evenodd"/><polygon fill="#CBC39D" fill-rule="evenodd" points="184.496 517.933 193.028 519.437 239.76 185.675" clip-rule="evenodd"/><polygon fill="#CBC39D" fill-rule="evenodd" points="222.797 522.235 240.262 185.671 214.166 521.479" clip-rule="evenodd"/><polygon fill="#CBC39D" fill-rule="evenodd" points="244.031 522.431 252.695 522.429 240.758 185.622" clip-rule="evenodd"/><polygon fill="#CBC39D" fill-rule="evenodd" points="273.867 520.772 282.498 520.017 241.252 185.528" clip-rule="evenodd"/><polygon fill="#CBC39D" fill-rule="evenodd" points="303.445 516.521 311.977 515.017 241.734 185.394" clip-rule="evenodd"/><polygon fill="#CBC39D" fill-rule="evenodd" points="332.541 509.708 340.908 507.464 242.203 185.218" clip-rule="evenodd"/><polygon fill="#CBC39D" fill-rule="evenodd" points="360.932 500.384 369.072 497.421 242.654 185.001" clip-rule="evenodd"/><polygon fill="#CBC39D" fill-rule="evenodd" points="388.4 488.622 396.252 484.96 243.086 184.745" clip-rule="evenodd"/><polygon fill="#CBC39D" fill-rule="evenodd" points="414.742 474.511 422.244 470.177 243.492 184.452" clip-rule="evenodd"/><polygon fill="#CBC39D" fill-rule="evenodd" points="439.752 458.157 446.848 453.187 243.873 184.126" clip-rule="evenodd"/><polygon fill="#CBC39D" fill-rule="evenodd" points="463.242 439.685 469.879 434.114 244.223 183.769" clip-rule="evenodd"/><polygon fill="#CBC39D" fill-rule="evenodd" points="485.033 419.235 491.158 413.108 244.541 183.382" clip-rule="evenodd"/><polygon fill="#CBC39D" fill-rule="evenodd" points="504.959 396.966 510.527 390.327 244.824 182.968" clip-rule="evenodd"/><polygon fill="#CBC39D" fill-rule="evenodd" points="522.867 373.042 527.836 365.944 245.07 182.53" clip-rule="evenodd"/><polygon fill="#CBC39D" fill-rule="evenodd" points="538.623 347.649 542.955 340.146 245.277 182.075" clip-rule="evenodd"/><polygon fill="#CBC39D" fill-rule="evenodd" points="552.107 320.981 555.768 313.128 245.443 181.603" clip-rule="evenodd"/><polygon fill="#CBC39D" fill-rule="evenodd" points="563.213 293.237 566.176 285.095 245.566 181.116" clip-rule="evenodd"/><polygon fill="#CBC39D" fill-rule="evenodd" points="571.861 264.632 574.102 256.263 245.648 180.622" clip-rule="evenodd"/><polygon fill="#CBC39D" fill-rule="evenodd" points="577.982 235.38 579.484 226.849 245.688 180.122" clip-rule="evenodd"/><polygon fill="#CBC39D" fill-rule="evenodd" points="581.529 205.708 582.283 197.075 245.682 179.62" clip-rule="evenodd"/><polygon fill="#CBC39D" fill-rule="evenodd" points="582.479 175.837 582.477 167.173 245.633 179.122" clip-rule="evenodd"/><polygon fill="#CBC39D" fill-rule="evenodd" points="580.82 145.999 580.064 137.366 245.541 178.63" clip-rule="evenodd"/><polygon fill="#CBC39D" fill-rule="evenodd" points="576.566 116.417 575.061 107.886 245.404 178.147" clip-rule="evenodd"/><polygon fill="#CBC39D" fill-rule="evenodd" points="569.752 87.319 567.508 78.95 245.229 177.679" clip-rule="evenodd"/><polygon fill="#CBC39D" fill-rule="evenodd" points="560.426 58.927 557.461 50.784 245.012 177.226" clip-rule="evenodd"/><polygon fill="#CBC39D" fill-rule="evenodd" points="548.662 31.454 544.998 23.601 244.756 176.796" clip-rule="evenodd"/><polygon fill="#CBC39D" fill-rule="evenodd" points="534.547 5.11 530.215 -2.392 244.465 176.388" clip-rule="evenodd"/><polygon fill="#CBC39D" fill-rule="evenodd" points="518.191 -19.901 513.221 -26.999 244.137 176.009" clip-rule="evenodd"/><polygon fill="#CBC39D" fill-rule="evenodd" points="499.717 -43.394 494.145 -50.03 243.779 175.657" clip-rule="evenodd"/><polygon fill="#CBC39D" fill-rule="evenodd" points="479.264 -65.187 473.137 -71.313 243.393 175.339" clip-rule="evenodd"/><polygon fill="#CBC39D" fill-rule="evenodd" points="456.99 -85.112 450.352 -90.683 242.979 175.056" clip-rule="evenodd"/><polygon fill="#CBC39D" fill-rule="evenodd" points="433.064 -103.024 425.965 -107.993 242.543 174.812" clip-rule="evenodd"/><polygon fill="#CBC39D" fill-rule="evenodd" points="407.668 -118.78 400.164 -123.112 242.086 174.603" clip-rule="evenodd"/><polygon fill="#CBC39D" fill-rule="evenodd" points="380.996 -132.263 373.143 -135.925 241.613 174.438" clip-rule="evenodd"/><polygon fill="#CBC39D" fill-rule="evenodd" points="353.25 -143.37 345.105 -146.333 241.127 174.313" clip-rule="evenodd"/><polygon fill="#CBC39D" fill-rule="evenodd" points="316.27 -154.259 240.633 174.231 324.641 -152.019" clip-rule="evenodd"/><polygon fill="#CBC39D" fill-rule="evenodd" points="295.387 -158.138 286.852 -159.642 240.133 174.194" clip-rule="evenodd"/><polygon fill="#CBC39D" fill-rule="evenodd" points="257.076 -162.44 239.631 174.2 265.709 -161.687" clip-rule="evenodd"/></g></g></svg>