<svg xmlns="http://www.w3.org/2000/svg" xmlns:xlink="http://www.w3.org/1999/xlink" width="165" height="137" version="1.1" viewBox="0 0 165 137" xml:space="preserve"><g><title>max-c</title><desc>Created with Sketch.</desc><g id="basketball" fill="none" fill-rule="evenodd" stroke="none" stroke-width="1"><g id="max-c" fill-rule="nonzero"><g id="scratch_bball_player04c" transform="translate(38.000000, 9.000000)"><path id="Shape" fill="#BE0A3C" d="M33.7467249,5.94617162 C27.350917,14.5040264 20.918952,30.2140594 40.660786,38.2927063 C63.4639301,47.6172937 63.6808734,11.5369307 55.1558079,3.97343234 C51.0057642,0.291518152 48.0609607,-0.139768977 43.5694323,0.0958415842 C39.3470742,0.311485149 34.8917031,4.41270627 33.7467249,5.94617162 Z"/><path id="Shape" fill="#A0640A" d="M45.1764192,2.89920792 C36.6071616,2.89920792 35.7634934,12.8188119 36.0648035,14.0567657 C36.9165066,17.5350165 38.1940611,21.6961386 41.8379039,23.2016502 C44.8710917,24.4555776 48.9327511,23.5570627 51.1303057,21.1450495 C53.0868122,18.9966007 55.380786,12.7589109 54.6295197,9.90363036 C54.7862009,9.35653465 53.7416594,2.89920792 45.1764192,2.89920792 Z"/><path id="Shape" fill="#A0640A" d="M52.5283843,18.189934 C56.2686463,17.9543234 57.7068996,16.1612871 57.5060262,13.0264686 C57.220786,8.56983498 52.930131,12.379538 52.930131,12.379538 C52.930131,12.379538 52.1266376,17.3273597 52.5283843,18.189934 Z"/><path id="Shape" fill="#A0640A" d="M37.5593013,18.189934 C33.8230568,17.9543234 32.380786,16.1612871 32.5816594,13.0264686 C32.8668996,8.56983498 37.1575546,12.3635644 37.1575546,12.3635644 C37.1575546,12.3635644 37.961048,17.3273597 37.5593013,18.189934 Z"/><path id="Shape" fill="#824600" d="M45.5661135,15.5223432 C45.6565692,15.4842092 45.7416499,15.4345405 45.819214,15.3745875 C45.845416,15.2293285 45.8628562,15.0826421 45.871441,14.9353135 C45.9517904,13.3938614 45.9598253,12.1718812 45.1041048,11.069703 C44.1037555,10.8979868 43.8707424,14.2284818 44.1198253,15.53033 C44.5869988,15.7017845 45.1008854,15.6989467 45.5661135,15.5223432 Z"/><path id="Shape" fill="#000" d="M42.2918777,18.449505 C42.561048,17.219538 47.0324891,17.3992409 47.8440175,18.34967 C48.6555459,19.300099 46.9682096,20.1307261 45.8634061,20.0588449 C44.0675983,19.9430363 42.0227074,19.6794719 42.2918777,18.449505 Z"/><path id="Shape" fill="#000" d="M50.2625328,12.080033 C51.2427948,11.5688779 50.8571179,13.5176568 50.6642795,13.8331353 C49.7724017,13.7732343 49.9250655,12.6550825 50.2625328,12.080033 Z"/><path id="Shape" fill="#000" d="M38.9694323,11.8963366 C39.9456769,11.3891749 39.56,13.3379538 39.371179,13.6534323 C38.4672489,13.5775578 38.6199127,12.4713861 38.9694323,11.8963366 Z"/><path id="Shape" fill="#A0001E" d="M45.2326638,5.04765677 L55.1517904,12.7389439 C55.1517904,12.7389439 56.2204367,6.74884488 51.9779913,4.02135314 C47.7355459,1.29386139 45.2326638,5.04765677 45.2326638,5.04765677 Z"/><path id="Shape" fill="#BE0A3C" d="M35.209083,13.9409571 L52.1145852,3.27059406 C52.1145852,3.27059406 43.4448908,-2.66759076 37.1173799,3.32650165 C32.139738,8.06267327 35.209083,13.9409571 35.209083,13.9409571 Z"/><path id="Shape" fill="#A0640A" d="M9.35266376,87.0760726 C7.99877729,86.5010231 6.16279476,92.2075908 5.09414847,92.3633333 C4.02550218,92.5190759 6.64489083,86.6168317 6.32751092,85.9459406 C5.92576419,85.1272937 3.91703057,90.0311881 2.58323144,89.9393399 C2.36628821,89.9393399 5.74497817,81.4134323 10.8752838,70.3437294 C18.5084716,53.8629703 26.9772926,36.399835 29.0824454,32.3105941 C31.1875983,28.2213531 33.851179,28.1374917 33.851179,28.1374917 L39.809083,35.5412541 C39.809083,35.5412541 10.8471616,92.0518482 9.4571179,92.4112541 C8.06707424,92.7706601 10.7065502,87.6511221 9.35266376,87.0760726 Z"/><path id="Shape" fill="#824600" d="M0.361572052,81.2976238 C1.68331878,82.1641914 3.84873362,79.5565017 5.23074236,80.3551815 C6.61275109,81.1538614 5.49991266,83.6058086 8.58532751,83.549901 C11.6707424,83.4939934 12.201048,81.7808251 12.699214,79.2849505 C13.5027074,75.2915512 7.96663755,75.8705941 6.43196507,76.6013861 C5.25886463,77.1564686 0.64279476,79.8679868 0.361572052,81.2976238 Z"/><path id="Shape" fill="#005A5A" d="M22.0679476,72.1607261 C21.0113537,70.9906601 12.4260262,66.6059076 10.8793013,66.9413531 C9.33257642,67.2767987 8.06707424,70.7231023 7.86620087,72.8755446 C8.83039301,73.5344554 17.0742358,77.9032343 18.8419214,78.0669637 C20.609607,78.2306931 23.1245415,73.3307921 22.0679476,72.1607261 Z"/><polygon id="Shape" fill="#00A08C" points="9.063 68.056 22.289 74.589 21.019 76.925 7.898 70.691"/><path id="Shape" fill="#A0640A" d="M83.2379039,86.2574257 C84.5676856,85.630462 86.6206114,91.2651485 87.6972926,91.3769637 C88.7739738,91.4887789 85.9255895,85.6943564 86.2188646,85.0114851 C86.5764192,84.1768647 88.7699563,89.0048845 90.1117904,88.8451485 C90.3247162,88.8171947 86.6246288,80.4590099 81.0684716,69.5769967 C72.8045415,53.399736 63.6728384,36.260066 61.4110044,32.2626733 C59.1491703,28.2652805 56.489607,28.2692739 56.489607,28.2692739 L50.8169432,35.8926733 C50.8169432,35.8926733 81.9241921,91.2771287 83.3383406,91.5846205 C84.7524891,91.8921122 81.9081223,86.8764026 83.2379039,86.2574257 Z"/><path id="Shape" fill="#824600" d="M92,80.1315512 C90.710393,81.050033 88.448559,78.5341914 87.0946725,79.3767987 C85.740786,80.2194059 86.9540611,82.6354125 83.8806987,82.6913201 C80.8073362,82.7472277 80.1886463,81.0620132 79.6061135,78.5861056 C78.6700437,74.6206601 84.2020961,74.9920462 85.7608734,75.6669307 C86.9460262,76.1820792 91.6625328,78.7019142 92,80.1315512 Z"/><path id="Shape" fill="#005A5A" d="M69.9561572,71.8292739 C70.968559,70.6312541 79.3851528,65.9110561 80.9358952,66.1866007 C82.4866376,66.4621452 83.8967686,69.8605281 84.1739738,72.0009901 C83.2379039,72.699835 75.1668122,77.3761056 73.4071616,77.5917492 C71.6475109,77.8073927 68.9477729,73.0352805 69.9561572,71.8292739 Z"/><polygon id="Shape" fill="#00A08C" points="82.796 67.233 69.828 74.261 71.186 76.549 84.057 69.821"/><path id="Shape" fill="#005A5A" d="M41.3799127,48.3920132 L21.7626201,61.1708911 C21.7626201,61.1708911 20.9591266,64.1140264 22.0558952,66.530033 C23.0361572,68.670495 25.7720524,70.3756766 28.2347598,69.6329043 C36.558952,67.1290429 38.8609607,76.1661056 52.5484716,69.960363 C57.3694323,67.7679868 59.4504803,63.1036964 65.6936245,64.6251815 C68.389345,65.2840924 70.6752838,64.289736 71.76,63.0278218 C72.6284849,61.9393174 73.0581406,60.5683854 72.9652402,59.1821782 L41.3799127,48.3920132 Z"/><rect id="Rectangle-path" width="25.925" height="11.984" x="32.618" y="52.318" fill="#000"/><polygon id="Shape" fill="#A0640A" points="53.464 94.2 60.37 87.551 60.334 62.013 49.298 62.469 50.246 87.927"/><polygon id="Shape" fill="#000" points="61.853 67.305 62.026 56.319 47.784 56.686 48.041 67.305"/><polygon id="Shape" fill="linen" points="50.343 92.052 50.937 108.648 60.559 109.487 60.463 92.136 55.256 90.175"/><polygon id="Shape" fill="#F0E6D2" points="60.463 92.136 60.37 87.551 50.122 87.831 50.331 92.136"/><polygon id="Shape" fill="#00A08C" points="66.678 119.778 60.033 118.919 51.014 119.542 51.082 120.736 67.14 120.972"/><path id="Shape" fill="#000" d="M65.4847162,118.488152 C64.2847332,118.423782 63.0903075,118.281043 61.9091703,118.060858 L60.7039301,105.533564 L50.6200873,105.533564 L51.0218341,119.542409 L66.6899563,119.77802 C66.531393,119.439114 66.3971425,119.089485 66.2882096,118.731749 C66.0321555,118.616215 65.7620521,118.534327 65.4847162,118.488152 Z"/><polygon id="Shape" fill="#00A08C" points="53.135 112.422 57.582 112.434 57.197 107.686 52.954 107.602"/><polygon id="Shape" fill="#005A5A" points="62.078 108.521 59.957 108.521 59.957 107.742 61.937 107.742"/><polygon id="Shape" fill="#00A08C" points="62.423 110.342 59.957 110.342 59.957 109.559 62.283 109.559"/><polygon id="Shape" fill="#005A5A" points="62.773 112.159 59.957 112.159 59.957 111.376 62.632 111.376"/><polygon id="Shape" fill="#00A08C" points="63.122 113.976 59.957 113.976 59.957 113.193 62.982 113.193"/><polygon id="Shape" fill="#005A5A" points="63.472 115.793 59.957 115.793 59.957 115.014 63.331 115.014"/><polygon id="Shape" fill="#A0640A" points="38.556 94.2 31.65 87.551 31.686 62.013 42.722 62.469 41.774 87.927"/><polygon id="Shape" fill="#000" points="30.167 67.305 29.994 56.319 44.24 56.686 43.979 67.305"/><polygon id="Shape" fill="linen" points="41.677 92.052 41.083 108.648 31.461 109.487 31.553 92.136 36.764 90.175"/><polygon id="Shape" fill="#F0E6D2" points="31.553 92.136 31.65 87.551 41.898 87.831 41.689 92.136"/><polygon id="Shape" fill="#00A08C" points="25.342 119.778 31.987 118.919 41.006 119.542 40.938 120.736 24.884 120.972"/><path id="Shape" fill="#000" d="M26.5152838,118.488152 C27.7152668,118.423782 28.9096925,118.281043 30.0908297,118.060858 L31.2960699,105.533564 L41.3959825,105.533564 L40.9942358,119.542409 L25.3261135,119.77802 C25.4846768,119.439114 25.6189273,119.089485 25.7278603,118.731749 C25.9788173,118.617523 26.2434373,118.53566 26.5152838,118.488152 Z"/><polygon id="Shape" fill="#00A08C" points="38.885 112.422 34.438 112.434 34.823 107.686 39.07 107.602"/><polygon id="Shape" fill="#005A5A" points="29.942 108.521 32.063 108.521 32.063 107.742 30.083 107.742"/><polygon id="Shape" fill="#00A08C" points="29.597 110.342 32.063 110.342 32.063 109.559 29.733 109.559"/><polygon id="Shape" fill="#005A5A" points="29.247 112.159 32.063 112.159 32.063 111.376 29.388 111.376"/><polygon id="Shape" fill="#00A08C" points="28.898 113.976 32.063 113.976 32.063 113.193 29.038 113.193"/><polygon id="Shape" fill="#005A5A" points="28.552 115.793 32.063 115.793 32.063 115.014 28.689 115.014"/><polygon id="Shape" fill="#A0640A" points="37.101 27.854 36.583 31.528 38.953 36.596 54.135 34.591 52.026 27.854"/><path id="Shape" fill="#00A08C" d="M56.8310917,27.3188449 L50.5517904,27.3188449 C50.780786,29.5870957 50.3268122,33.0933003 45.4777293,33.5685149 C39.7086463,34.1315842 39.371179,29.3035644 39.4515284,27.3188449 L33.6864629,27.3188449 L21.7746725,61.1589109 C21.7746725,61.1589109 72.868821,59.1262706 72.9772926,59.1622112 L56.8310917,27.3188449 Z"/></g></g></g></g></svg>