<svg xmlns="http://www.w3.org/2000/svg" xmlns:xlink="http://www.w3.org/1999/xlink" id="Layer_1" width="144" height="144" x="0" y="0" enable-background="new 0 0 144 144" version="1.1" viewBox="0 0 144 144" xml:space="preserve"><g><linearGradient id="SVGID_1_" x1="13.018" x2="133.018" y1="75.069" y2="75.069" gradientTransform="matrix(1 0 0 -1 0 144)" gradientUnits="userSpaceOnUse"><stop offset="0" style="stop-color:#27aae1"/><stop offset="1" style="stop-color:#115489"/></linearGradient><path fill="url(#SVGID_1_)" d="M106.874,42.787H39.161c-14.416,0-26.143,11.728-26.143,26.143c0,14.417,11.728,26.144,26.143,26.144	h67.713c14.415,0,26.144-11.728,26.144-26.144C133.018,54.515,121.289,42.787,106.874,42.787z"/><linearGradient id="SVGID_2_" x1="17.52" x2="128.514" y1="75.069" y2="75.069" gradientTransform="matrix(1 0 0 -1 0 144)" gradientUnits="userSpaceOnUse"><stop offset="0" style="stop-color:#2f7eba"/><stop offset=".506" style="stop-color:#3f9dd6"/><stop offset="1" style="stop-color:#3e97d1"/></linearGradient><path fill="url(#SVGID_2_)" d="M128.514,68.93c0,11.952-9.688,21.641-21.64,21.641H39.161c-11.952,0-21.641-9.689-21.641-21.641l0,0	c0-11.951,9.689-21.64,21.641-21.64h67.713C118.826,47.29,128.514,56.979,128.514,68.93L128.514,68.93z"/></g></svg>