<svg xmlns="http://www.w3.org/2000/svg" xmlns:xlink="http://www.w3.org/1999/xlink" width="165" height="137" version="1.1" viewBox="0 0 165 137" xml:space="preserve"><g><title>max-a</title><desc>Created with Sketch.</desc><g id="basketball" fill="none" fill-rule="evenodd" stroke="none" stroke-width="1"><g id="max-a" fill-rule="nonzero"><g id="scratch_bball_player04a" transform="translate(11.000000, 7.000000)"><path id="Shape" fill="#BE0A3C" d="M60.6315789,11.5748208 C54.2812188,20.1607818 47.8949584,35.9224104 67.4965097,44.0275896 C90.1376177,53.3828013 90.3530194,17.1839414 81.8885319,9.59560261 C77.7679778,5.90159609 74.8440997,5.46889251 70.3844875,5.70527687 C66.192133,5.92162866 61.7684211,10.0363192 60.6315789,11.5748208 Z"/><path id="Shape" fill="#A0640A" d="M71.9800554,8.51785016 C63.4716898,8.51785016 62.6340166,18.4700326 62.9331856,19.7120521 C63.7788366,23.2017264 65.047313,27.3765147 68.6652632,28.8869707 C71.6768975,30.1450163 75.7096953,29.2435505 77.8916343,26.8236156 C79.8342382,24.6681107 82.1119114,18.4099349 81.3659834,15.5452769 C81.5215512,14.9963844 80.4844321,8.51785016 71.9800554,8.51785016 Z"/><path id="Shape" fill="#A0640A" d="M79.2797784,23.8587948 C82.9934626,23.6224104 84.4214958,21.8234853 84.2220499,18.6783713 C83.9388366,14.207101 79.6786704,18.0132899 79.6786704,18.0132899 C79.6786704,18.0132899 78.8808864,22.9933876 79.2797784,23.8587948 Z"/><path id="Shape" fill="#A0640A" d="M64.4170637,23.8587948 C60.7073684,23.6224104 59.2753463,21.8234853 59.4747922,18.6783713 C59.7580055,14.207101 64.0181717,18.0132899 64.0181717,18.0132899 C64.0181717,18.0132899 64.8159557,22.9933876 64.4170637,23.8587948 Z"/><path id="Shape" fill="#824600" d="M72.3669806,21.182443 C72.4567935,21.1441837 72.5412696,21.0943519 72.6182825,21.034202 C72.6442984,20.8884659 72.6616146,20.7412977 72.6701385,20.5934853 C72.7499169,19.0469707 72.7578947,17.8209772 71.9082548,16.7151792 C70.9150139,16.542899 70.6836565,19.8843322 70.9309695,21.190456 C71.3948233,21.3624736 71.9050583,21.3596264 72.3669806,21.182443 Z"/><path id="Shape" fill="#000" d="M70.0254848,24.1031922 L73.8229363,23.9950163 C73.8229363,23.9950163 73.1448199,25.2450489 72.047867,25.1729316 C70.2688089,25.0567427 70.0254848,24.1031922 70.0254848,24.1031922 Z"/><path id="Shape" fill="#000" d="M77.0300277,17.7288274 C78.0033241,17.2159935 77.6203878,19.1711726 77.4289197,19.4876873 C76.5433795,19.4275896 76.6949584,18.3057655 77.0300277,17.7288274 Z"/><path id="Shape" fill="#000" d="M65.8171745,17.5445277 C66.786482,17.0357003 66.4035457,18.9908795 66.2160665,19.3073941 C65.3185596,19.2312704 65.4701385,18.1214658 65.8171745,17.5445277 Z"/><path id="Shape" fill="#A0001E" d="M72.0359003,10.673355 L81.8845429,18.3899023 C81.8845429,18.3899023 82.9455956,12.3801303 78.7332964,9.64368078 C74.5209972,6.90723127 72.0359003,10.673355 72.0359003,10.673355 Z"/><path id="Shape" fill="#BE0A3C" d="M62.0835457,19.5958632 L78.8689197,8.89045603 C78.8689197,8.89045603 70.260831,2.93276873 63.9782825,8.94654723 C59.0360111,13.6982736 62.0835457,19.5958632 62.0835457,19.5958632 Z"/><path id="Shape" fill="#005A5A" d="M69.0083102,54.1600651 L49.5304155,66.9809121 C49.5304155,66.9809121 48.7326316,69.9337134 49.8216066,72.3576547 C50.794903,74.5051466 53.5113573,76.2159283 55.9565651,75.4707166 C64.2216066,72.9586319 66.5072576,82.0253746 80.0975069,75.7992508 C84.8842105,73.5996743 86.9504709,68.9200651 93.1492521,70.4465472 C95.8258172,71.1076221 98.0955125,70.11 99.1725208,68.8439414 C100.034834,67.7518621 100.461437,66.3764275 100.369197,64.9856678 L69.0083102,54.1600651 Z"/><rect id="Rectangle-path" width="25.74" height="12.024" x="61.904" y="58.098" fill="#000"/><polygon id="Shape" fill="#A0640A" points="56.355 91.437 51.657 89.441 56.407 69.201 66.755 69.353 61.709 89.818"/><polygon id="Shape" fill="linen" points="50.591 93.252 45.486 111.449 55.043 110.608 60.687 93.252 56.244 91.946"/><polygon id="Shape" fill="#000" points="68.502 73.483 71.789 61.901 55.51 62.514 52.825 73.483"/><polygon id="Shape" fill="#00A08C" points="37.819 121.774 44.417 120.913 53.372 121.538 53.136 122.84 37.508 122.972"/><path id="Shape" fill="#000" d="M38.9996676,120.479902 C40.1897889,120.415158 41.3743897,120.271951 42.5458172,120.051205 L45.3380609,107.482769 L56.9617729,107.482769 L53.3717452,121.537622 L37.8149584,121.774007 C37.9722122,121.43391 38.1055038,121.083146 38.2138504,120.7243 C38.4646258,120.61026 38.7286119,120.528158 38.9996676,120.479902 Z"/><polygon id="Shape" fill="#00A08C" points="53.065 114.394 47.923 114.226 48.585 109.642 54.393 109.558"/><polygon id="Shape" fill="#005A5A" points="43.982 110.48 47.033 110.48 47.285 109.698 44.121 109.698"/><polygon id="Shape" fill="#00A08C" points="43.635 112.307 46.686 112.307 46.938 111.521 43.774 111.521"/><polygon id="Shape" fill="#005A5A" points="43.292 114.13 46.339 114.13 46.595 113.344 43.431 113.344"/><polygon id="Shape" fill="#00A08C" points="42.945 115.953 45.996 115.953 46.248 115.167 43.084 115.167"/><polygon id="Shape" fill="#005A5A" points="42.598 117.776 45.649 117.776 45.9 116.994 42.737 116.994"/><polygon id="Shape" fill="#F0E6D2" points="60.687 93.252 61.836 89.722 51.657 89.441 50.591 93.252"/><polygon id="Shape" fill="#A0640A" points="93.373 96.112 99.033 89.441 93.413 67.826 82.455 68.283 88.981 89.818"/><polygon id="Shape" fill="linen" points="90.273 93.957 95.65 110.608 105.204 111.449 100.321 94.041 93.955 92.074"/><polygon id="Shape" fill="#F0E6D2" points="100.321 94.041 99.033 89.441 88.857 89.722 90.261 94.041"/><polygon id="Shape" fill="#000" points="97.07 73.483 93.987 62.113 77.82 62.482 81.394 73.483"/><polygon id="Shape" fill="#00A08C" points="112.874 121.774 106.277 120.913 97.322 121.538 97.557 122.84 113.186 122.972"/><path id="Shape" fill="#000" d="M111.689751,120.479902 C110.498295,120.415322 109.312356,120.272114 108.139612,120.051205 L105.347368,107.482769 L93.7396122,107.482769 L97.3296399,121.537622 L112.886427,121.774007 C112.72899,121.433987 112.595693,121.08321 112.487535,120.7243 C112.2333,120.608386 111.965116,120.526229 111.689751,120.479902 Z"/><polygon id="Shape" fill="#00A08C" points="97.381 114.394 102.527 114.226 101.865 109.642 96.057 109.558"/><polygon id="Shape" fill="#005A5A" points="106.712 110.48 103.66 110.48 103.409 109.698 106.572 109.698"/><polygon id="Shape" fill="#00A08C" points="107.055 112.307 104.007 112.307 103.756 111.521 106.919 111.521"/><polygon id="Shape" fill="#005A5A" points="107.402 114.13 104.35 114.13 104.099 113.344 107.262 113.344"/><polygon id="Shape" fill="#00A08C" points="107.749 115.953 104.697 115.953 104.446 115.167 107.609 115.167"/><polygon id="Shape" fill="#005A5A" points="108.096 117.776 105.044 117.776 104.793 116.994 107.956 116.994"/><path id="Shape" fill="#A0640A" d="M138.255956,9.19094463 C137.657618,7.85276873 143.317895,5.91361564 143.441551,4.83986971 C143.565208,3.76612378 137.733407,6.50257329 137.05928,6.19807818 C136.233573,5.82547231 141.092078,3.72605863 140.960443,2.38788274 C140.960443,2.17153094 132.503934,5.70527687 121.55036,11.0379479 C105.239668,18.9748534 81.4178393,30.8701954 81.4178393,30.8701954 L87.3573407,40.5659609 C87.3573407,40.5659609 143.254072,10.5972313 143.601108,9.19094463 C143.948144,7.78465798 138.854294,10.5291205 138.255956,9.19094463 Z"/><path id="Shape" fill="#824600" d="M132.308476,0.340553746 C133.201994,1.64267101 130.637119,3.85026059 131.462825,5.21648208 C132.288532,6.58270358 134.717784,5.41680782 134.717784,8.49381107 C134.717784,11.5708143 133.018504,12.1477524 130.537396,12.6806189 C126.548476,13.538013 127.035125,8.02905537 127.745152,6.48654723 C128.267701,5.30462541 130.876454,0.649055375 132.308476,0.340553746 Z"/><path id="Shape" fill="#005A5A" d="M123.604654,22.1600326 C122.407978,21.1303583 117.868587,12.6485668 118.175734,11.1060586 C118.482881,9.56355049 121.901385,8.22537459 124.043435,7.98899023 C124.721551,8.93452769 129.22903,17.071759 129.444432,18.8306189 C129.659834,20.5894788 124.793352,23.1897068 123.604654,22.1600326 Z"/><polygon id="Shape" fill="#00A08C" points="119.253 9.275 126.034 22.336 128.343 21.022 121.865 8.065"/><path id="Shape" fill="#A0640A" d="M7.10426593,70.0098371 C6.4301385,68.7037134 1.4001108,71.9610098 0.48265928,71.4000977 C-0.434792244,70.8391857 5.32121884,67.9344625 5.50470914,67.2132899 C5.72808864,66.3318567 1.07301939,68.8559609 0.111689751,67.9184365 C-0.0438781163,67.7701954 7.9499169,63.3229642 18.9114681,58.0063192 C35.2341274,50.0934528 61.4852078,38.3102932 61.4852078,38.3102932 L61.7763989,49.7128339 C61.7763989,49.7128339 5.09783934,74.8176547 3.7934626,74.204658 C2.48908587,73.5916612 7.77839335,71.3159609 7.10426593,70.0098371 Z"/><path id="Shape" fill="#824600" d="M3.88919668,59.8332899 C4.34792244,61.3437459 7.6667036,60.6946906 8.21717452,62.193127 C8.76764543,63.6915635 6.35434903,64.8774919 8.75966759,66.7885993 C11.1649861,68.6997068 12.660831,67.7100977 14.6233795,66.1074919 C17.7586704,63.5112704 13.1634349,60.4623127 11.5239889,60.0576547 C10.2714681,59.733127 5.01806094,58.8957655 3.88919668,59.8332899 Z"/><path id="Shape" fill="#005A5A" d="M26.3268698,66.5081433 C26.2590582,64.9335831 22.4655956,56.0912052 21.0694737,55.3740391 C19.6733518,54.656873 16.5101385,56.5158958 14.9903601,58.0543974 C15.3094737,59.1762215 18.8516343,67.790228 20.1001662,69.0402606 C21.3486981,70.2902932 26.3867036,68.1107492 26.3268698,66.5081433 Z"/><polygon id="Shape" fill="#00A08C" points="16.183 56.396 22.725 69.445 25.306 68.083 18.628 55.182"/><polygon id="Shape" fill="#A0640A" points="79.591 31.479 83.364 42.806 66.986 49.633 65.291 37.08"/><path id="Shape" fill="#00A08C" d="M82.3472576,29.0312052 L77.7320776,31.0825407 C77.7320776,31.0825407 78.601662,39.6003909 72.8536288,41.9882736 C67.1055956,44.3761564 66.2160665,34.8566775 66.2160665,34.8566775 L61.5011634,36.7036808 L49.5344044,66.9528664 C49.5344044,66.9528664 100.265485,64.9135505 100.373186,64.9496091 L82.3472576,29.0312052 Z"/></g></g></g></g></svg>