<svg xmlns="http://www.w3.org/2000/svg" xmlns:xlink="http://www.w3.org/1999/xlink" id="Layer_1" width="55" height="55" x="0" y="0" enable-background="new 0 0 55 55" version="1.1" viewBox="0 0 55 55" xml:space="preserve"><g id="document-save" display="block"><g><g><g><path fill="#FFF" stroke="#010101" stroke-linecap="round" stroke-linejoin="round" stroke-width="3.5" d="M6.736,49.002 h24.52c2.225,0,3.439-1.447,3.439-3.441V18.281c0-1.73-1.732-3.441-3.439-3.441h-4.389"/></g></g><g><g><path fill="#FFF" stroke="#010101" stroke-linecap="round" stroke-linejoin="round" stroke-width="3.5" d="M26.867,38.592 c0,1.836-1.345,3.201-3.441,4.047l-16.69,6.363V14.84l16.69-8.599c2.228-0.394,3.441,0.84,3.441,2.834V38.592z"/></g></g><path fill="none" stroke="#010101" stroke-linecap="round" stroke-linejoin="round" stroke-width="2.25" d="M9.424,42.607 c0,0-1.351-0.543-2.702-0.543s-2.703,0.543-2.703,0.543"/><path fill="none" stroke="#010101" stroke-linecap="round" stroke-linejoin="round" stroke-width="2.25" d="M9.424,32.006 c0,0-1.239-0.543-2.815-0.543c-1.577,0-2.59,0.543-2.59,0.543"/><path fill="none" stroke="#010101" stroke-linecap="round" stroke-linejoin="round" stroke-width="2.25" d="M9.424,21.678 c0,0-1.125-0.544-2.927-0.544c-1.802,0-2.478,0.544-2.478,0.544"/><line x1="13.209" x2="13.209" y1="46.533" y2="11.505" fill="none" stroke="#010101" stroke-linecap="round" stroke-linejoin="round" stroke-width="2.25"/><g><line x1="41.17" x2="52.441" y1="16.188" y2="4.917" fill="none" stroke="#FFF" stroke-linecap="round" stroke-linejoin="round" stroke-width="3.5"/><polyline fill="none" stroke="#FFF" stroke-linecap="round" stroke-linejoin="round" stroke-width="3.5" points="51.562 15.306 41.17 16.188 42.053 5.794"/></g></g></g></svg>