<svg xmlns="http://www.w3.org/2000/svg" xmlns:svg="http://www.w3.org/2000/svg" id="Layer_1" width="55" height="55" version="1.1" viewBox="0 0 55 55" xml:space="preserve"><metadata id="metadata36"/><g id="document-save" style="fill:#f9f9f9;stroke:#000;display:block"><g id="g4" style="fill:#f9f9f9;stroke:#000"><g id="g3076" style="fill:#f9f9f9;stroke:#000"><path id="path10" d="m 6.736,49.002 h 24.52 c 2.225,0 3.439,-1.447 3.439,-3.441 v -27.28 c 0,-1.73 -1.732,-3.441 -3.439,-3.441 h -4.389" style="fill:#f9f9f9;stroke:#000;stroke-width:3.5;stroke-miterlimit:4;stroke-dasharray:none"/><g id="g3071" style="fill:#f9f9f9;stroke:#000"><path id="path16" d="m 26.867,38.592 c 0,1.836 -1.345,3.201 -3.441,4.047 L 6.736,49.002 V 14.84 l 16.69,-8.599 c 2.228,-0.394 3.441,0.84 3.441,2.834 v 29.517 z" style="fill:#f9f9f9;stroke:#000;stroke-width:3.5;stroke-linecap:round;stroke-linejoin:round;stroke-miterlimit:4;stroke-dasharray:none"/><line id="line24" x1="13.209" x2="13.209" y1="46.533" y2="11.505" style="fill:#000;stroke:#000;stroke-width:2.5;stroke-linecap:round;stroke-linejoin:round;stroke-miterlimit:4;stroke-dasharray:none"/></g><path id="path18" d="m 9.424,42.607 c 0,0 -1.351,-0.543 -2.702,-0.543 -1.351,0 -2.703,0.543 -2.703,0.543" style="fill:#f9f9f9;stroke:#000;stroke-width:2.5;stroke-linecap:round;stroke-linejoin:round;stroke-miterlimit:4;stroke-dasharray:none"/><path id="path20" d="m 9.424,32.006 c 0,0 -1.239,-0.543 -2.815,-0.543 -1.577,0 -2.59,0.543 -2.59,0.543" style="fill:#f9f9f9;stroke:#000;stroke-width:2.5;stroke-linecap:round;stroke-linejoin:round;stroke-miterlimit:4;stroke-dasharray:none"/><path id="path22" d="m 9.424,21.678 c 0,0 -1.125,-0.544 -2.927,-0.544 -1.802,0 -2.478,0.544 -2.478,0.544" style="fill:#f9f9f9;stroke:#000;stroke-width:2.5;stroke-linecap:round;stroke-linejoin:round;stroke-miterlimit:4;stroke-dasharray:none"/></g><g id="g26" style="fill:#f9f9f9;stroke:#000"><line id="line28" x1="52.441" x2="41.17" y1="4.917" y2="16.188" style="fill:none;stroke:#fff;stroke-width:3.5;stroke-linecap:round;stroke-linejoin:round"/><polyline id="polyline30" points="51.562 15.306 41.17 16.188 42.053 5.794" transform="matrix(-1,0,0,-1,93.611,21.105)" style="fill:none;stroke:#fff;stroke-width:3.5;stroke-linecap:round;stroke-linejoin:round"/></g></g></g></svg>