<svg xmlns="http://www.w3.org/2000/svg" id="insert-image.svg" width="55" height="55"><defs><mask id="Mask" width="55" height="55" x="0" y="0" maskUnits="userSpaceOnUse"><rect width="55" height="55" x="0" y="0" fill="#fff"/><line x1="35" x2="35" y1="4" y2="26" stroke="#000" stroke-width="10"/><line x1="24" x2="46" y1="15" y2="15" stroke="#000" stroke-width="10"/><polyline points="17.7 38.7 26.3 31 21 38.7" style="fill:#000;stroke:none;stroke-width:0"/></mask></defs><g transform="translate(2,2)"><rect style="opacity:1;fill:#000;fill-opacity:0;stroke:#fff;stroke-width:2.89933752999999994;stroke-linecap:butt;stroke-linejoin:miter;stroke-miterlimit:4;stroke-dasharray:none;stroke-dashoffset:0;stroke-opacity:1" id="rect3161" width="37.15" height="28.059" x="7.02" y="12.648"/><polyline style="fill:#fff;stroke:#fff;stroke-width:3;stroke-opacity:1" id="polyline23" points="13 39.7 27.6 29.6 34.3 33.6 34.3 39.7" mask="url(#Mask)" transform="matrix(0.9827085,0,0,0.9742491,10.040979,0.9463818)"/><polyline style="fill:none;stroke:#fff;stroke-width:2.5;stroke-opacity:1" id="polyline21" points="5 35 13.7 32.3 20.3 34.1" mask="url(#Mask)" transform="translate(3.3549781,4.1125541)"/></g><line x1="28.376" x2="28.376" y1="30.664" y2="5.712" fill="none" stroke="#000" stroke-linecap="round" stroke-linejoin="round" stroke-width="7"/><polyline fill="none" stroke="#000" stroke-linecap="round" stroke-linejoin="round" stroke-width="7" points="36.098 21.51 28.376 30.664 20.653 21.51"/><line x1="28.376" x2="28.376" y1="30.664" y2="5.712" fill="none" stroke="#FFF" stroke-linecap="round" stroke-linejoin="round" stroke-width="3.5"/><polyline fill="none" stroke="#FFF" stroke-linecap="round" stroke-linejoin="round" stroke-width="3.5" points="36.098 21.51 28.376 30.664 20.653 21.51"/></svg>