<svg xmlns="http://www.w3.org/2000/svg" width="50" height="50"><defs><mask id="Mask" width="50" height="50" x="0" y="0" maskUnits="userSpaceOnUse"><path d="M33 5 C15,0 15,50 33,45 C-5,55 -5,-5 33 5 z" style="fill:#fff;stroke:none;stroke-width:3.5"/><circle cx="20" cy="33" r="4" style="fill:none;stroke:#000;stroke-width:1.5"/><circle cx="20" cy="19" r="3" style="fill:none;stroke:#000;stroke-width:1.5"/></mask><marker id="Triangle" fill="#FFF" stroke="#FFF" markerHeight="3.5" markerUnits="strokeWidth" markerWidth="3.5" orient="auto" refX="0" refY="5" viewBox="0 0 10 10"><path d="M 0 0 L 10 5 L 0 10 z"/></marker></defs><path d="M33 5 C15,0 15,50 33,45 C-5,55 -5,-5 33 5 z" mask="url(#Mask)" style="fill:#fff;stroke:none;stroke-width:3.5"/><circle cx="27" cy="12" r="2" style="fill:none;stroke:#fff;stroke-width:1"/><circle cx="26" cy="26" r="2.5" style="fill:none;stroke:#fff;stroke-width:1.25"/><path fill="none" stroke="#FFF" stroke-width="3" d="M36 10 C52,10 52,40 36,40"/><path fill="#FFF" stroke="#FFF" stroke-width="2.5" d="M 36 40 l0 3 l-6 -3 l6 -3 z"/></svg>