<svg xmlns="http://www.w3.org/2000/svg" xmlns:svg="http://www.w3.org/2000/svg" id="svg2" width="55" height="55" version="1.1"><title id="title4">QR Code</title><desc id="desc6">QR Code</desc><path id="path11" d="m 4.5000006,4.5000006 2.2380952,0 0,2.2380952 -2.2380952,0 z m 2.2380952,0 2.2380952,0 0,2.2380952 -2.2380952,0 z m 2.2380952,0 2.238095,0 0,2.2380952 -2.238095,0 z m 2.238095,0 2.238095,0 0,2.2380952 -2.238095,0 z m 2.238095,0 2.238096,0 0,2.2380952 -2.238096,0 z m 2.238096,0 2.238095,0 0,2.2380952 -2.238095,0 z m 2.238095,0 2.238095,0 0,2.2380952 -2.238095,0 z m 8.952381,0 2.238095,0 0,2.2380952 -2.238095,0 z m 2.238095,0 2.238095,0 0,2.2380952 -2.238095,0 z m 2.238095,0 2.238095,0 0,2.2380952 -2.238095,0 z m 4.47619,0 2.238096,0 0,2.2380952 -2.238096,0 z m 2.238096,0 2.238095,0 0,2.2380952 -2.238095,0 z m 2.238095,0 2.238095,0 0,2.2380952 -2.238095,0 z m 2.238095,0 2.238095,0 0,2.2380952 -2.238095,0 z m 2.238095,0 2.238095,0 0,2.2380952 -2.238095,0 z m 2.238095,0 2.238096,0 0,2.2380952 -2.238096,0 z m 2.238096,0 2.238095,0 0,2.2380952 -2.238095,0 z m -44.7619044,2.2380952 2.2380952,0 0,2.2380952 -2.2380952,0 z m 13.4285714,0 2.238095,0 0,2.2380952 -2.238095,0 z m 4.47619,0 2.238095,0 0,2.2380952 -2.238095,0 z m 2.238095,0 2.238096,0 0,2.2380952 -2.238096,0 z m 2.238096,0 2.238095,0 0,2.2380952 -2.238095,0 z m 4.47619,0 2.238095,0 0,2.2380952 -2.238095,0 z m 4.47619,0 2.238096,0 0,2.2380952 -2.238096,0 z m 13.428572,0 2.238095,0 0,2.2380952 -2.238095,0 z M 4.5000006,8.976191 l 2.2380952,0 0,2.238095 -2.2380952,0 z m 4.4761904,0 2.238095,0 0,2.238095 -2.238095,0 z m 2.238095,0 2.238095,0 0,2.238095 -2.238095,0 z m 2.238095,0 2.238096,0 0,2.238095 -2.238096,0 z m 4.476191,0 2.238095,0 0,2.238095 -2.238095,0 z m 8.952381,0 2.238095,0 0,2.238095 -2.238095,0 z m 2.238095,0 2.238095,0 0,2.238095 -2.238095,0 z m 2.238095,0 2.238095,0 0,2.238095 -2.238095,0 z m 4.47619,0 2.238096,0 0,2.238095 -2.238096,0 z m 4.476191,0 2.238095,0 0,2.238095 -2.238095,0 z m 2.238095,0 2.238095,0 0,2.238095 -2.238095,0 z m 2.238095,0 2.238095,0 0,2.238095 -2.238095,0 z m 4.476191,0 2.238095,0 0,2.238095 -2.238095,0 z m -44.7619044,2.238095 2.2380952,0 0,2.238095 -2.2380952,0 z m 4.4761904,0 2.238095,0 0,2.238095 -2.238095,0 z m 2.238095,0 2.238095,0 0,2.238095 -2.238095,0 z m 2.238095,0 2.238096,0 0,2.238095 -2.238096,0 z m 4.476191,0 2.238095,0 0,2.238095 -2.238095,0 z m 4.47619,0 2.238095,0 0,2.238095 -2.238095,0 z m 2.238095,0 2.238096,0 0,2.238095 -2.238096,0 z m 6.714286,0 2.238095,0 0,2.238095 -2.238095,0 z m 4.47619,0 2.238096,0 0,2.238095 -2.238096,0 z m 4.476191,0 2.238095,0 0,2.238095 -2.238095,0 z m 2.238095,0 2.238095,0 0,2.238095 -2.238095,0 z m 2.238095,0 2.238095,0 0,2.238095 -2.238095,0 z m 4.476191,0 2.238095,0 0,2.238095 -2.238095,0 z m -44.7619044,2.238095 2.2380952,0 0,2.238096 -2.2380952,0 z m 4.4761904,0 2.238095,0 0,2.238096 -2.238095,0 z m 2.238095,0 2.238095,0 0,2.238096 -2.238095,0 z m 2.238095,0 2.238096,0 0,2.238096 -2.238096,0 z m 4.476191,0 2.238095,0 0,2.238096 -2.238095,0 z m 6.714285,0 2.238096,0 0,2.238096 -2.238096,0 z m 6.714286,0 2.238095,0 0,2.238096 -2.238095,0 z m 4.47619,0 2.238096,0 0,2.238096 -2.238096,0 z m 4.476191,0 2.238095,0 0,2.238096 -2.238095,0 z m 2.238095,0 2.238095,0 0,2.238096 -2.238095,0 z m 2.238095,0 2.238095,0 0,2.238096 -2.238095,0 z m 4.476191,0 2.238095,0 0,2.238096 -2.238095,0 z m -44.7619044,2.238096 2.2380952,0 0,2.238095 -2.2380952,0 z m 13.4285714,0 2.238095,0 0,2.238095 -2.238095,0 z m 4.47619,0 2.238095,0 0,2.238095 -2.238095,0 z m 6.714286,0 2.238095,0 0,2.238095 -2.238095,0 z m 6.714285,0 2.238096,0 0,2.238095 -2.238096,0 z m 13.428572,0 2.238095,0 0,2.238095 -2.238095,0 z m -44.7619044,2.238095 2.2380952,0 0,2.238095 -2.2380952,0 z m 2.2380952,0 2.2380952,0 0,2.238095 -2.2380952,0 z m 2.2380952,0 2.238095,0 0,2.238095 -2.238095,0 z m 2.238095,0 2.238095,0 0,2.238095 -2.238095,0 z m 2.238095,0 2.238096,0 0,2.238095 -2.238096,0 z m 2.238096,0 2.238095,0 0,2.238095 -2.238095,0 z m 2.238095,0 2.238095,0 0,2.238095 -2.238095,0 z m 4.47619,0 2.238095,0 0,2.238095 -2.238095,0 z m 4.476191,0 2.238095,0 0,2.238095 -2.238095,0 z m 4.47619,0 2.238095,0 0,2.238095 -2.238095,0 z m 4.47619,0 2.238096,0 0,2.238095 -2.238096,0 z m 2.238096,0 2.238095,0 0,2.238095 -2.238095,0 z m 2.238095,0 2.238095,0 0,2.238095 -2.238095,0 z m 2.238095,0 2.238095,0 0,2.238095 -2.238095,0 z m 2.238095,0 2.238095,0 0,2.238095 -2.238095,0 z m 2.238095,0 2.238096,0 0,2.238095 -2.238096,0 z m 2.238096,0 2.238095,0 0,2.238095 -2.238095,0 z m -24.619048,2.238095 2.238096,0 0,2.238095 -2.238096,0 z m -20.1428564,2.238095 2.2380952,0 0,2.238095 -2.2380952,0 z m 2.2380952,0 2.2380952,0 0,2.238095 -2.2380952,0 z m 2.2380952,0 2.238095,0 0,2.238095 -2.238095,0 z m 2.238095,0 2.238095,0 0,2.238095 -2.238095,0 z m 2.238095,0 2.238096,0 0,2.238095 -2.238096,0 z m 4.476191,0 2.238095,0 0,2.238095 -2.238095,0 z m 2.238095,0 2.238095,0 0,2.238095 -2.238095,0 z m 2.238095,0 2.238095,0 0,2.238095 -2.238095,0 z m 6.714286,0 2.238095,0 0,2.238095 -2.238095,0 z m 4.47619,0 2.238095,0 0,2.238095 -2.238095,0 z m 4.476191,0 2.238095,0 0,2.238095 -2.238095,0 z m 4.47619,0 2.238095,0 0,2.238095 -2.238095,0 z m 4.47619,0 2.238096,0 0,2.238095 -2.238096,0 z m -42.5238084,2.238095 2.2380952,0 0,2.238096 -2.2380952,0 z m 2.2380952,0 2.2380952,0 0,2.238096 -2.2380952,0 z m 6.7142852,0 2.238096,0 0,2.238096 -2.238096,0 z m 6.714286,0 2.238095,0 0,2.238096 -2.238095,0 z m 4.47619,0 2.238096,0 0,2.238096 -2.238096,0 z m 4.476191,0 2.238095,0 0,2.238096 -2.238095,0 z m 2.238095,0 2.238095,0 0,2.238096 -2.238095,0 z m 2.238095,0 2.238095,0 0,2.238096 -2.238095,0 z m 2.238095,0 2.238096,0 0,2.238096 -2.238096,0 z m 2.238096,0 2.238095,0 0,2.238096 -2.238095,0 z m 6.714285,0 2.238095,0 0,2.238096 -2.238095,0 z m 2.238095,0 2.238096,0 0,2.238096 -2.238096,0 z m -35.809523,2.238096 2.238095,0 0,2.238095 -2.238095,0 z m 4.476191,0 2.238095,0 0,2.238095 -2.238095,0 z m 2.238095,0 2.238095,0 0,2.238095 -2.238095,0 z m 6.714285,0 2.238096,0 0,2.238095 -2.238096,0 z m 2.238096,0 2.238095,0 0,2.238095 -2.238095,0 z m 4.47619,0 2.238095,0 0,2.238095 -2.238095,0 z m 4.47619,0 2.238096,0 0,2.238095 -2.238096,0 z m 2.238096,0 2.238095,0 0,2.238095 -2.238095,0 z m 8.95238,0 2.238096,0 0,2.238095 -2.238096,0 z m -35.809523,2.238095 2.238095,0 0,2.238095 -2.238095,0 z m 2.238095,0 2.238096,0 0,2.238095 -2.238096,0 z m 6.714286,0 2.238095,0 0,2.238095 -2.238095,0 z m 8.952381,0 2.238095,0 0,2.238095 -2.238095,0 z m 2.238095,0 2.238095,0 0,2.238095 -2.238095,0 z m 2.238095,0 2.238095,0 0,2.238095 -2.238095,0 z m 2.238095,0 2.238096,0 0,2.238095 -2.238096,0 z m 8.952381,0 2.238095,0 0,2.238095 -2.238095,0 z m 2.238095,0 2.238096,0 0,2.238095 -2.238096,0 z m -42.5238084,2.238095 2.2380952,0 0,2.238095 -2.2380952,0 z m 2.2380952,0 2.2380952,0 0,2.238095 -2.2380952,0 z m 2.2380952,0 2.238095,0 0,2.238095 -2.238095,0 z m 4.47619,0 2.238096,0 0,2.238095 -2.238096,0 z m 4.476191,0 2.238095,0 0,2.238095 -2.238095,0 z m 6.714285,0 2.238096,0 0,2.238095 -2.238096,0 z m 2.238096,0 2.238095,0 0,2.238095 -2.238095,0 z m 4.47619,0 2.238095,0 0,2.238095 -2.238095,0 z m -8.952381,2.238095 2.238095,0 0,2.238095 -2.238095,0 z m 2.238095,0 2.238096,0 0,2.238095 -2.238096,0 z m 2.238096,0 2.238095,0 0,2.238095 -2.238095,0 z m 4.47619,0 2.238095,0 0,2.238095 -2.238095,0 z m 6.714286,0 2.238095,0 0,2.238095 -2.238095,0 z m 2.238095,0 2.238095,0 0,2.238095 -2.238095,0 z m 4.47619,0 2.238095,0 0,2.238095 -2.238095,0 z m 2.238095,0 2.238096,0 0,2.238095 -2.238096,0 z m -42.5238084,2.238095 2.2380952,0 0,2.238096 -2.2380952,0 z m 2.2380952,0 2.2380952,0 0,2.238096 -2.2380952,0 z m 2.2380952,0 2.238095,0 0,2.238096 -2.238095,0 z m 2.238095,0 2.238095,0 0,2.238096 -2.238095,0 z m 2.238095,0 2.238096,0 0,2.238096 -2.238096,0 z m 2.238096,0 2.238095,0 0,2.238096 -2.238095,0 z m 2.238095,0 2.238095,0 0,2.238096 -2.238095,0 z m 4.47619,0 2.238095,0 0,2.238096 -2.238095,0 z m 4.476191,0 2.238095,0 0,2.238096 -2.238095,0 z m 2.238095,0 2.238095,0 0,2.238096 -2.238095,0 z m 4.47619,0 2.238095,0 0,2.238096 -2.238095,0 z m 11.190476,0 2.238095,0 0,2.238096 -2.238095,0 z m 2.238095,0 2.238096,0 0,2.238096 -2.238096,0 z m -42.5238084,2.238096 2.2380952,0 0,2.238095 -2.2380952,0 z m 13.4285714,0 2.238095,0 0,2.238095 -2.238095,0 z m 6.714285,0 2.238096,0 0,2.238095 -2.238096,0 z m 13.428572,0 2.238095,0 0,2.238095 -2.238095,0 z m 4.47619,0 2.238095,0 0,2.238095 -2.238095,0 z m 2.238095,0 2.238095,0 0,2.238095 -2.238095,0 z m 2.238095,0 2.238096,0 0,2.238095 -2.238096,0 z m 2.238096,0 2.238095,0 0,2.238095 -2.238095,0 z m -44.7619044,2.238095 2.2380952,0 0,2.238095 -2.2380952,0 z m 4.4761904,0 2.238095,0 0,2.238095 -2.238095,0 z m 2.238095,0 2.238095,0 0,2.238095 -2.238095,0 z m 2.238095,0 2.238096,0 0,2.238095 -2.238096,0 z m 4.476191,0 2.238095,0 0,2.238095 -2.238095,0 z m 4.47619,0 2.238095,0 0,2.238095 -2.238095,0 z m 2.238095,0 2.238096,0 0,2.238095 -2.238096,0 z m 2.238096,0 2.238095,0 0,2.238095 -2.238095,0 z m 2.238095,0 2.238095,0 0,2.238095 -2.238095,0 z m 4.47619,0 2.238095,0 0,2.238095 -2.238095,0 z m 11.190476,0 2.238095,0 0,2.238095 -2.238095,0 z m 2.238095,0 2.238096,0 0,2.238095 -2.238096,0 z m -42.5238084,2.238095 2.2380952,0 0,2.238095 -2.2380952,0 z m 4.4761904,0 2.238095,0 0,2.238095 -2.238095,0 z m 2.238095,0 2.238095,0 0,2.238095 -2.238095,0 z m 2.238095,0 2.238096,0 0,2.238095 -2.238096,0 z m 4.476191,0 2.238095,0 0,2.238095 -2.238095,0 z m 4.47619,0 2.238095,0 0,2.238095 -2.238095,0 z m 2.238095,0 2.238096,0 0,2.238095 -2.238096,0 z m 2.238096,0 2.238095,0 0,2.238095 -2.238095,0 z m 2.238095,0 2.238095,0 0,2.238095 -2.238095,0 z m 2.238095,0 2.238095,0 0,2.238095 -2.238095,0 z m 2.238095,0 2.238095,0 0,2.238095 -2.238095,0 z m 2.238095,0 2.238096,0 0,2.238095 -2.238096,0 z m 2.238096,0 2.238095,0 0,2.238095 -2.238095,0 z m 2.238095,0 2.238095,0 0,2.238095 -2.238095,0 z m 4.47619,0 2.238095,0 0,2.238095 -2.238095,0 z m -40.2857134,2.238095 2.2380952,0 0,2.238095 -2.2380952,0 z m 4.4761904,0 2.238095,0 0,2.238095 -2.238095,0 z m 2.238095,0 2.238095,0 0,2.238095 -2.238095,0 z m 2.238095,0 2.238096,0 0,2.238095 -2.238096,0 z m 4.476191,0 2.238095,0 0,2.238095 -2.238095,0 z m 4.47619,0 2.238095,0 0,2.238095 -2.238095,0 z m 8.952381,0 2.238095,0 0,2.238095 -2.238095,0 z m 4.47619,0 2.238096,0 0,2.238095 -2.238096,0 z m 6.714286,0 2.238095,0 0,2.238095 -2.238095,0 z m -38.0476184,2.238095 2.2380952,0 0,2.238096 -2.2380952,0 z m 13.4285714,0 2.238095,0 0,2.238096 -2.238095,0 z m 4.47619,0 2.238095,0 0,2.238096 -2.238095,0 z m 2.238095,0 2.238096,0 0,2.238096 -2.238096,0 z m 2.238096,0 2.238095,0 0,2.238096 -2.238095,0 z m 2.238095,0 2.238095,0 0,2.238096 -2.238095,0 z m 2.238095,0 2.238095,0 0,2.238096 -2.238095,0 z m 2.238095,0 2.238095,0 0,2.238096 -2.238095,0 z m 2.238095,0 2.238096,0 0,2.238096 -2.238096,0 z m 4.476191,0 2.238095,0 0,2.238096 -2.238095,0 z m 2.238095,0 2.238095,0 0,2.238096 -2.238095,0 z m 2.238095,0 2.238095,0 0,2.238096 -2.238095,0 z m -40.2857134,2.238096 2.2380952,0 0,2.238095 -2.2380952,0 z m 2.2380952,0 2.2380952,0 0,2.238095 -2.2380952,0 z m 2.2380952,0 2.238095,0 0,2.238095 -2.238095,0 z m 2.238095,0 2.238095,0 0,2.238095 -2.238095,0 z m 2.238095,0 2.238096,0 0,2.238095 -2.238096,0 z m 2.238096,0 2.238095,0 0,2.238095 -2.238095,0 z m 2.238095,0 2.238095,0 0,2.238095 -2.238095,0 z m 4.47619,0 2.238095,0 0,2.238095 -2.238095,0 z m 8.952381,0 2.238095,0 0,2.238095 -2.238095,0 z m 8.952381,0 2.238095,0 0,2.238095 -2.238095,0 z m 6.714285,0 2.238096,0 0,2.238095 -2.238096,0 z" style="fill:#000"/><rect style="fill:#fff;fill-opacity:1;stroke:#000;stroke-width:.69556707;stroke-opacity:1" id="rect3346" width="6.024" height="6.024" x="9.316" y="9.318"/><rect id="rect3348" width="6.037" height="6.053" x="40.648" y="9.286" style="fill:#fff;fill-opacity:1;stroke:#000;stroke-width:.69799268;stroke-opacity:1"/><rect style="fill:#fff;fill-opacity:1;stroke:#000;stroke-width:.69879359;stroke-opacity:1" id="rect3350" width="6.083" height="6.021" x="9.27" y="40.65"/></svg>