<svg xmlns="http://www.w3.org/2000/svg" xmlns:svg="http://www.w3.org/2000/svg" id="svg2" width="52pt" height="52pt" x="0" y="0" version="1.1" viewBox="0 0 65 65" xml:space="preserve"><metadata id="metadata16"/><polygon id="polygon4" points="68.649 17.192 69.353 18.153 69.476 18.891 69.833 19.338 69.722 19.584 70.057 20.098 70.303 20.746 70.593 21.014 70.928 21.863 71.599 23.137 71.599 23.785 71.778 24.344 72.448 24.769 73.007 25.462 73.253 26.065 73.61 26.646 73.454 26.803 73.61 27.361 73.476 27.652 73.61 28.479 73.722 29.373 75.108 30.49 75.599 31.25 75.845 32.211 75.957 32.926 76.248 33.575 76.426 33.955 76.643 33.65 76.883 33.801 77.034 34.255 77.564 34.255 77.88 34.533 78.17 34.621 78.485 35.05 78.763 35.442 79.23 35.77 79.773 36.287 80.025 36.704 80.303 36.704 80.682 37.209 80.682 37.714 80.24 38.004 79.899 38.269 80 38.395 80.29 38.256 80.593 38.395 80.896 38.647 81.098 39.039 81.363 39.342 81.628 39.43 81.931 39.695 82.209 39.695 82.587 39.594 83.054 39.43 83.395 39.253 83.912 39.241 84.493 39.304 84.796 39.14 85.111 38.849 86.323 38.824 86.74 38.635 87.901 38.559 88.671 38.319 89.554 37.979 89.819 38.143 89.819 38.357 89.655 38.61 89.68 39.114 89.743 39.493 89.819 39.695 89.453 39.771 89.352 40.856 88.961 41.361 88.645 42.055 88.191 42.648 87.648 43.683 87.32 44.541 86.916 45.261 86.146 46.359 85.49 47.28 84.947 47.785 84.241 48.555 83.458 49.135 82.915 49.476 82.209 49.943 81.199 50.776 80.391 51.533 79.735 52.228 79.192 52.808 78.751 53.477 78.473 53.931 77.854 54.222 77.791 54.487 77.413 54.777 76.996 55.029 76.87 55.635 76.554 56.355 76.05 57.188 75.709 57.768 75.469 58.412 75.431 59.321 75.722 59.598 76.113 59.926 76.088 60.507 75.936 60.621 75.961 61.151 76.125 61.277 75.999 61.554 76.037 61.946 76.214 62.211 76.34 62.653 76.479 63.132 76.706 63.612 77.211 63.94 77.4 64.52 77.173 65.063 77.198 65.505 77.324 66.073 77.413 66.653 77.4 67.423 77.337 67.739 77.451 68.029 77.4 68.408 77.488 69.165 77.451 70.061 77.072 70.553 76.554 71.045 75.873 71.74 75.381 72.03 74.661 72.118 74.03 72.547 73.45 72.863 72.781 73.797 72.478 74.201 71.91 74.34 71.304 74.996 71.014 75.273 70.724 75.273 70.61 75.715 70.61 76.308 71.052 76.725 71.153 77.28 71.317 77.848 71.367 78.378 71.62 78.378 71.632 78.896 71.557 79.615 71.367 80.233 71.456 80.625 71.393 80.953 71.102 81.357 70.585 81.597 69.777 81.899 68.894 82.303 68.363 82.732 68.199 83.124 68.326 83.477 68.528 83.477 68.54 83.969 68.401 84.764 68.199 85.724 67.997 86.342 67.48 86.91 67.064 87.188 66.71 87.591 66.193 88.387 65.89 89.144 65.486 89.762 64.956 90.507 64.35 90.822 63.946 91.39 63.164 92.122 62.507 92.716 61.876 93.246 61.271 93.523 60.804 93.523 60.362 93.599 60.059 93.738 59.958 93.965 59.693 93.902 59.491 93.839 59.289 93.965 59.175 94.23 58.822 94.154 58.368 94.016 57.888 93.927 56.979 94.066 56.487 93.952 56.058 94.028 55.78 94.382 55.023 94.508 54.165 94.571 53.635 95 53.218 94.937 52.852 94.697 52.714 94.495 52.234 94.432 52.158 94.066 51.83 93.889 51.742 93.422 51.401 92.943 51.313 92.602 51.224 92.211 51.502 92.148 51.628 91.756 51.603 91.201 51.464 90.671 51.224 90.242 50.782 89.598 50.492 89.018 50.278 88.374 50.063 87.781 49.849 87.087 49.571 86.683 49.142 86.329 48.561 85.749 48.334 85.244 48.094 84.802 47.955 84.26 47.779 83.452 47.526 82.404 47.64 81.937 47.438 81.445 47.186 80.7 47.186 79.363 47.299 78.946 47.085 78.542 46.605 77.772 46.226 77.078 45.822 76.283 45.494 75.501 45.04 74.605 44.573 73.923 44.22 73.393 43.992 72.711 44.056 72.055 44.068 71.134 43.992 70.616 44.245 70.326 44.586 69.329 44.788 68.294 44.914 67.663 45.608 66.729 46.024 66.59 46.302 65.984 46.416 65.164 46.39 64.483 46.062 63.915 45.696 63.031 45.646 62.64 45.482 62.413 45.873 61.958 45.911 61.592 45.671 61.125 45.229 60.28 45.229 59.8 44.699 59.081 44.548 58.525 44.459 57.92 44.157 57.364 43.904 56.973 43.197 56.292 42.781 55.812 42.516 55.471 41.998 55.13 41.632 54.638 41.266 54.146 41.102 53.578 40.9 52.909 41.191 52.291 41.165 51.546 41.456 51.66 41.456 51.369 41.216 51.155 41.544 51.092 41.367 50.612 41.569 49.931 41.746 49.11 41.885 48.366 41.62 47.533 41.531 47.217 41.241 47.141 41.064 47.217 40.749 46.902 40.572 46.447 40.294 46.599 40.168 46.359 39.979 46.472 39.562 46.51 38.919 46.548 38.338 46.637 37.783 46.813 37.366 46.864 37.013 46.561 36.685 45.993 36.319 45.248 35.764 44.617 35.259 44.163 34.804 44.226 33.782 44.403 32.861 44.491 31.99 44.642 31.46 44.706 31.17 45.122 30.501 45.059 29.718 45.438 28.999 45.841 28.532 45.867 27.989 46.296 27.535 46.018 27.042 45.93 26.588 45.627 26.361 45.627 26.008 45.804 25.515 45.74 24.733 45.841 24.013 45.854 23.395 46.069 22.6 46.308 22.057 46.536 21.489 46.813 20.984 46.573 20.353 46.22 19.432 45.665 18.624 44.933 17.779 44.34 17.11 43.885 16.706 43.469 15.987 43.216 15.179 42.295 15.128 41.752 14.762 40.869 14.497 40.313 13.765 39.935 13.298 39.556 13.185 39.001 12.983 38.963 12.793 39.127 12.427 38.597 12.427 38.244 12.528 37.827 12.15 37.941 11.443 37.903 11.254 37.448 10.837 37.247 10.837 36.136 11.14 36.3 11.708 36.174 11.721 35.858 11.14 35.858 10.837 35.581 10.661 34.899 10.181 34.483 10.56 34.142 11.001 33.485 11.14 32.968 11.367 31.82 11.645 31.088 11.721 30.28 11.557 29.523 11.216 28.992 11.228 28.652 11.468 28.058 11.443 27.541 10.85 26.973 10.572 26.456 10.635 25.686 10.862 25.307 11.254 25.206 11.355 24.537 11.632 24.108 11.986 23.515 12.011 23.149 12.503 22.631 13.071 22.026 13.311 20.688 13.551 20.221 14.295 19.767 14.699 19.388 14.926 18.58 15.267 17.949 16.188 17.836 16.958 17.545 17.312 17.066 17.804 16.7 18.435 16.233 18.839 15.614 19.142 14.844 18.952 13.948 18.978 13.216 19.281 12.775 19.672 12.055 19.748 11.613 20.164 11.109 20.606 10.654 21.338 10.364 22.158 9.922 22.6 9.354 22.941 8.647 23.269 7.852 23.471 7.272 23.685 7.171 23.976 7.234 24.228 7.6 24.645 7.903 25.036 8.105 25.578 8.092 26.639 8.016 26.942 8.067 27.169 8.244 27.56 8.231 28.292 8.143 28.847 7.878 29.213 7.36 29.63 7.171 30.324 7.171 30.564 6.868 31.043 6.477 31.586 6.237 32.356 6.098 33.202 6.01 33.58 6.01 33.833 5.745 34.628 5.745 34.905 5.593 35.372 5.682 35.965 5.669 36.432 5.871 36.559 5.997 36.874 5.808 37.594 5.593 37.934 5.492 38.326 5.568 38.742 5.492 39.032 5.429 39.323 5.568 39.878 5.581 40.181 5.732 40.711 5.429 41.254 5.139 41.62 5 41.986 5.151 42.162 5.53 42.352 5.909 42.629 5.694 43.096 5.442 43.172 5.618 43.046 5.858 42.768 6.149 42.541 6.388 42.554 6.994 42.819 7.146 43.071 7.436 43.084 7.89 43.084 8.244 42.743 8.685 42.453 9.051 41.986 9.354 41.843 9.56 41.859 9.796 42.074 10.187 42.478 10.263 42.819 10.124 42.831 10.326 42.857 10.465 43.058 10.414 43.26 10.301 43.286 10.566 43.324 10.78 43.69 10.818 44.005 10.97 44.358 11.197 44.788 11.399 45.406 11.399 46.088 11.411 46.668 11.576 47.11 11.866 47.842 12.017 48.145 12.308 48.246 12.888 48.523 13.279 49.066 13.519 49.95 13.633 50.795 13.898 51.489 14.239 51.969 14.655 52.486 14.945 52.928 14.794 53.546 14.213 53.812 13.772 53.597 13.027 53.61 12.434 54.013 11.979 54.531 11.664 55.25 11.449 55.73 11.298 56.475 11.424 57.068 11.651 57.131 12.093 57.371 12.27 58.002 12.345 58.292 12.573 59.327 12.598 59.466 12.775 59.554 13.115 60.072 13.128 60.311 13.052 60.715 13.128 61.561 13.229 62.192 13.57 62.684 13.557 62.785 13.759 63.517 13.822 64.287 14.138 64.792 13.847 65.41 13.418 65.675 13.241 66.117 13.342 66.432 13.077 66.963 13.241 67.48 13.178 67.556 13.544 67.96 13.595 68.225 13.759 68.78 13.696 69.537 13.582 69.891 13.532 70.079 13.438 70.817 15.896 70.448 16.969 70.448 17.885 69.878 18.153 68.939 17.17 68.939 16.544 68.515 16.164 68.336 15.628 68.045 15.516 67.889 15.796 68.202 16.187 68.224 16.656" transform="matrix(0.66666667,0,0,0.66666667,-1.3418076,-1.0790957)" style="fill:#fff"/><polygon id="polygon6" points="86.55 67.915 87.005 67.663 87.093 67.297 87.207 66.956 87.118 66.515 87.371 66.313 87.371 66.136 87.585 66.136 87.711 66.3 87.875 66.376 88.014 66.691 88.254 67.032 88.418 67.726 88.595 68.395 88.683 69.026 88.835 69.619 88.936 69.834 88.784 70.364 88.671 70.503 88.305 69.998 88.141 69.897 88.052 70.086 88.014 70.515 88.027 70.881 88.204 71.083 88.229 71.285 88.141 71.664 87.913 71.942 87.699 72.27 87.775 72.497 87.812 72.753 87.77 73.107 87.552 73.78 87.257 74.647 86.853 75.841 86.618 76.464 86.256 77.785 86.02 78.458 85.869 79.106 85.692 79.897 85.473 80.621 85.238 81.226 84.859 81.891 84.447 81.967 84.001 82.16 83.345 82.505 83.126 82.573 82.604 82.43 82.116 82.194 81.544 81.824 81.401 81.369 81.157 81.125 81.157 79.804 80.804 79.173 80.711 78.87 80.627 78.172 80.972 77.297 81.409 76.708 81.805 76.052 82.141 75.404 82.133 74.882 81.889 74.487 81.594 73.578 81.451 72.451 82.17 71.033 83.355 70.742 84.07 70.407 84.785 69.781 84.964 70.049 85.5 69.178 85.634 69.423 85.858 69.066 85.858 68.663 86.081 68.529 86.081 68.082 85.97 67.837 86.283 67.971" transform="matrix(0.66666667,0,0,0.66666667,-1.3418076,-1.0790957)" style="fill:#fff"/></svg>