<svg xmlns="http://www.w3.org/2000/svg" xmlns:svg="http://www.w3.org/2000/svg" id="svg2" width="52pt" height="52pt" x="0" y="0" version="1.1" viewBox="0 0 65 65" xml:space="preserve"><metadata id="metadata78"/><polygon id="polygon4" points="77.984 40.187 78.179 40.786 77.79 40.543" transform="matrix(0.66666667,0,0,0.66666667,0.24717547,-0.60139861)" style="fill:#fff"/><polygon id="polygon6" points="80.494 37.256 80.899 37.742 80.494 37.645" transform="matrix(0.66666667,0,0,0.66666667,0.24717547,-0.60139861)" style="fill:#fff"/><polygon id="polygon8" points="79.441 35.686 79.798 35.888 79.441 36.091" transform="matrix(0.66666667,0,0,0.66666667,0.24717547,-0.60139861)" style="fill:#fff"/><polygon id="polygon10" points="78.308 33.614 78.179 33.614 78.454 34.31 78.778 34.213" transform="matrix(0.66666667,0,0,0.66666667,0.24717547,-0.60139861)" style="fill:#fff"/><polygon id="polygon12" points="77.515 32.351 77.79 32.092 77.984 32.934 77.288 32.675 77.288 31.898" transform="matrix(0.66666667,0,0,0.66666667,0.24717547,-0.60139861)" style="fill:#fff"/><polygon id="polygon14" points="93.208 35.888 92.755 35.438 92.237 35.567 91.719 35.888 91.568 36.452 92.237 36.625 92.755 36.776 93.467 36.323" transform="matrix(0.66666667,0,0,0.66666667,0.24717547,-0.60139861)" style="fill:#fff"/><polygon id="polygon16" points="95 33.862 94.043 34.203 93.338 34.31 93.467 34.92 93.942 34.596 94.504 34.596" transform="matrix(0.66666667,0,0,0.66666667,0.24717547,-0.60139861)" style="fill:#fff"/><polygon id="polygon18" points="61.826 20.152 61.442 19.823 61.15 19.616 61.003 19.006 60.881 18.75 61.04 18.606 61.369 19.104 61.54 19.169 61.832 19.604 62.308 20.152 62.552 20.238 62.771 20.713 62.417 20.92 61.826 20.53" transform="matrix(0.66666667,0,0,0.66666667,0.24717547,-0.60139861)" style="fill:#fff"/><polygon id="polygon20" points="63.539 20.811 64.161 21.384 64.356 21.384 64.209 20.92 63.795 20.811" transform="matrix(0.66666667,0,0,0.66666667,0.24717547,-0.60139861)" style="fill:#fff"/><polygon id="polygon22" points="64.453 22.627 64.734 22.517 65.014 22.517 65.258 23.102 64.929 22.846 64.429 22.846 64.075 22.408 64.356 22.225" transform="matrix(0.66666667,0,0,0.66666667,0.24717547,-0.60139861)" style="fill:#fff"/><polygon id="polygon24" points="67.05 22.603 67.537 22.81 67.647 23.102 67.793 23.005 68.025 23.212 68.074 23.102 67.574 22.505 66.477 21.993 66.306 21.993" transform="matrix(0.66666667,0,0,0.66666667,0.24717547,-0.60139861)" style="fill:#fff"/><polygon id="polygon26" points="68.537 24.943 68.939 25.053 69.317 24.906 68.768 24.431 68.293 24.346 67.866 24.468 67.793 24.553 68.074 24.882" transform="matrix(0.66666667,0,0,0.66666667,0.24717547,-0.60139861)" style="fill:#fff"/><polygon id="polygon28" points="70.975 26.308 71.255 26.235 71.072 25.906 70.707 25.772 70.268 25.699 70.39 26.016 70.755 26.077" transform="matrix(0.66666667,0,0,0.66666667,0.24717547,-0.60139861)" style="fill:#fff"/><polygon id="polygon30" points="70.073 24.626 70.268 24.419 69.841 24.151 69.451 23.639 69.39 23.212 69.219 22.956 69.049 23.017 69.232 23.407 69.244 23.791 69.488 24.114" transform="matrix(0.66666667,0,0,0.66666667,0.24717547,-0.60139861)" style="fill:#fff"/><polygon id="polygon32" points="28.265 11.871 28.687 12.211 29.447 11.968 29.026 11.611 28.589 11.611" transform="matrix(0.66666667,0,0,0.66666667,0.24717547,-0.60139861)" style="fill:#fff"/><polygon id="polygon34" points="35.89 12.874 35.696 12.777 35.534 12.777 35.761 13.182 36.166 13.182 36.247 12.98" transform="matrix(0.66666667,0,0,0.66666667,0.24717547,-0.60139861)" style="fill:#fff"/><polygon id="polygon36" points="35.534 13.813 36.036 14.04 36.587 14.121 36.587 13.894 36.06 13.894" transform="matrix(0.66666667,0,0,0.66666667,0.24717547,-0.60139861)" style="fill:#fff"/><polygon id="polygon38" points="34.142 19.723 33.899 19.286 33.705 19.169 33.494 19.723 33.268 19.966 33.268 20.807 33.753 20.629" transform="matrix(0.66666667,0,0,0.66666667,0.24717547,-0.60139861)" style="fill:#fff"/><polygon id="polygon40" points="28.566 27.67 29.094 27.751 29.663 27.288 29.598 27.028 29.045 27.028 28.525 27.166 28.029 27.247 27.907 27.389 27.876 27.607" transform="matrix(0.66666667,0,0,0.66666667,0.24717547,-0.60139861)" style="fill:#fff"/><polygon id="polygon42" points="36.465 30.636 36.587 30.526 36.928 30.746 37.111 31.075 36.709 31.075" transform="matrix(0.66666667,0,0,0.66666667,0.24717547,-0.60139861)" style="fill:#fff"/><polygon id="polygon44" points="50.332 14.429 50.51 14.25 51.012 14.339 51.012 14.542 50.494 14.542" transform="matrix(0.66666667,0,0,0.66666667,0.24717547,-0.60139861)" style="fill:#fff"/><polygon id="polygon46" points="43.273 30.683 43.435 31.039 43.37 32.011 43.273 32.982 43.111 34.018 42.625 34.941 42.447 35.589 42.334 35.751 41.249 35.994 40.747 35.621 40.116 35.362 39.873 34.876 39.258 34.698 38.691 34.407 38.157 33.824 37.542 33.533 36.765 33.403 35.032 31.817 35.68 30.861 35.826 30.343 35.648 29.793 36.198 29.42 36.489 29.048 37.056 28.384 36.279 28.093 36.279 28.384 36.149 28.546 35.793 28.562 35.729 28.206 34.903 28.158 34.725 28.287 34.498 28.222 34.255 28.012 34.012 27.947 33.43 28.125 33.3 27.834 32.863 27.721 32.199 27.672 31.956 27.559 31.649 27.202 31.341 27.267 31.179 27.073 30.985 26.911 30.758 26.927 30.629 27.105 30.839 27.089 31.001 27.186 31.195 27.445 31.357 27.753 31.357 28.077 30.904 28.271 30.256 28.384 29.722 28.255 29.107 28.174 28.913 28.66 28.508 28.53 27.86 29.922 27.86 30.117 27.536 30.149 26.954 31.315 27.455 31.784 27.326 32.383 27.067 32.108 26.873 32.124 26.484 32.173 26.112 31.898 25.173 32.318 25.173 32.108 25.27 31.881 25.173 31.655 24.234 30.635 23.489 30.408 23.278 30.797 22.696 30.942 22.485 30.716 22.323 31.541 21.611 31.574 21.287 31.8 21.562 32.399 21.417 32.399 21.287 32.286 20.801 32.318 20.688 32.658 20.235 32.853 20.397 33.29 20.445 33.646 20.235 34.116 20.121 34.261 19.603 33.84 19.28 33.97 18.956 34.553 19.522 35.103 19.409 35.265 19.231 35.233 19.037 35.67 18.632 35.055 18.454 34.682 18.308 34.504 18.001 34.342 17.515 34.876 17.223 35.33 17.321 35.994 17.434 36.512 16.916 37.03 16.511 37.434 16.203 38.114 15.847 38.535 15.2 38.875 13.629 39.345 13.127 39.151 12.464 39.604 11.33 40.041 10.666 40.284 9.97 40.057 9.161 40.592 8.691 40.834 8.27 41.304 7.752 41.563 7.056 41.871 6.797 42.324 6.603 42.858 6.311 42.777 6.311 42.389 6.311 41.838 6.101 42.032 5.745 42.971 5.955 43.295 5.826 43.878 5.745 44.558 5.47 44.833 5.34 45.351 5.518 45.983 5.729 46.468 6.02 47.051 6.376 47.942 6.457 48.347 6.295 48.67 6.133 48.395 5.907 48.249 5.89 48.444 5.988 48.67 5.858 48.897 5.55 48.8 5.437 48.411 5 48.298 5.194 48.606 5.631 49.075 6.004 49.787 6.295 50.386 6.376 51.083 6.91 51.86 7.056 52.524 7.412 53.09 7.493 54.272 7.768 55.098 7.947 55.632 8.497 56.701 8.578 57.85 8.384 58.32 8.384 59.178 8.189 59.841 7.477 60.117 7.461 60.602 7.639 60.958 8.238 61.137 8.643 61.477 8.902 61.833 9.404 61.995 9.695 62.157 10.488 62.157 11.006 62.286 11.427 62.173 12.026 61.914 12.561 61.396 12.755 61.153 13.386 61.169 13.662 60.602 14.115 60.408 15.151 60.279 16.317 60.165 17.11 60.246 17.191 60.602 17.596 60.311 18.405 60.295 18.567 60.473 18.891 60.424 19.312 60.068 19.587 59.615 19.83 59.016 20.348 58.692 20.769 58.562 21.53 58.19 22.453 57.672 22.809 57.656 23.586 57.688 24.12 57.688 24.865 57.445 25.804 57.024 26.371 56.668 27.488 56.652 28.265 56.522 28.751 56.668 29.495 56.555 30.046 56.765 30.613 57.073 30.888 57.332 31.568 57.154 31.924 57.542 32.685 57.445 33.122 58.028 33.462 58.141 33.608 58.465 33.332 58.692 33.624 59.064 34.061 59.178 34.304 59.777 34.725 60.23 35.016 60.78 35.21 61.493 35.259 61.93 35.648 62.124 35.696 61.914 35.599 61.8 35.648 61.525 36.004 61.104 36.376 60.554 36.878 60.165 37.59 59.631 37.639 59.339 38.157 58.789 38.27 58.077 38.416 58.546 38.562 59.226 38.303 59.275 38.4 59.534 38.562 59.744 37.93 60.473 37.801 61.978 37.186 62.076 37.072 62.286 37.25 62.464 37.639 62.464 38.173 62.351 38.335 61.638 38.627 60.813 38.821 60.926 39.031 61.412 39.323 61.817 39.128 62.675 38.805 63.128 38.934 63.209 39.258 63.128 39.598 62.917 39.744 63.209 40.246 63.452 40.537 63.678 40.845 64.213 41.071 64.909 40.845 65.508 41.104 66.01 41.427 66.334 41.719 66.852 42.124 67.094 42.172 67.208 42.625 67.208 42.82 67.386 43.063 67.791 43.451 67.791 43.791 67.613 44.261 67.694 44.73 67.888 45.135 68.163 45.685 68.293 46.123 68.503 46.592 68.114 46.948 67.872 47.207 67.289 47.563 67.078 47.79 66.916 48.081 67.256 47.871 68.034 48.162 67.872 48.486 67.515 48.681 67.58 48.761 68.114 48.956 68.325 49.539 68.6 49.927 68.406 50.461 68.325 50.963 67.807 51.514 67.208 51.643 66.949 52.437 66.868 53.036 66.722 53.894 66.835 54.622 66.398 54.622 65.119 54.93 64.035 55.189 62.998 55.545 62.383 55.804 61.671 55.885 61.039 56.274 60.618 56.371 59.76 56.711 59.55 57.099 58.902 57.099 58.665 57.968 58.023 58.098 57.803 58.001 57.503 58.561 56.706 58.838 55.78 58.838 55.357 58.756 55.024 58.959 54.342 59.285 53.196 59.512 52.399 59.577 52.107 59.496 51.31 59.252 50.725 58.951 50.189 58.846 49.929 58.951 49.612 58.878 49.173 58.862 47.767 59.228 46.743 59.163 46.329 59.025 46.353 59.016 46.759 58.732 47.474 58.602 47.149 58.09 46.637 58.066 46.32 57.619 46.036 57.367 45.646 57.155 45.207 56.928 44.939 56.424 44.817 56.164 44.313 55.766 44.394 55.709 43.029 55.205 42.826 54.709 42.525 54.652 42.606 54.734 42.956 54.083 42.306 54.018 41.745 53.832 41.168 53.702 40.794 53.238 40.583 53.011 40.055 52.702 39.624 52.157 39.12 51.142 38.787 51.223 38.616 51.337 38.568 51.223 38.454 50.76 38.259 50.191 38.064 49.768 37.609 49.443 36.91 49.37 36.503 49.467 35.999 49.451 35.626 49.134 34.976 48.825 34.626 48.549 34.13 48.476 33.448 48.33 32.854 48.248 32.676 48.354 32.472 48.411 32.115 47.964 31.79 47.403 31.4 47.346 31.067 46.883 31.294 46.623 31.538 46.241 31.164 46.062 30.392 46.014 29.904 46.087 29.758 45.77 29.051 45.64 28.572 45.396 28.45 45.485 28.043 45.038 27.499 44.99 26.703 44.624 26.182 44.536 26.182 44.115 26.976 43.904 27.801 43.484 28.627 43.743 28.773 43.694 29.08 43.484 29.21 43.484 29.679 43.597 30.019 43.273 30.489" transform="matrix(0.66666667,0,0,0.66666667,0.24717547,-0.60139861)" style="fill:#fff"/><polygon id="polygon48" points="92.332 68.974 92.393 68.571 92.941 67.84 93.149 66.658 92.478 66.499 91.856 67.145 91.344 67.243 90.333 66.792 89.906 66.499 89.662 65.89 89.626 65.378 89.236 64.987 89.223 65.975 88.967 65.89 88.126 64.987 88.102 64.536 88.193 64.39 87.913 63.921 87.761 63.628 87.864 63.415 87.681 63.08 87.596 62.799 87.492 62.592 86.999 62.275 86.365 62.196 85.81 61.58 85.682 61.477 85.646 61.66 86.109 62.257 86.158 62.793 86.505 63.269 86.987 63.939 87.175 64.171 87.505 64.213 87.572 64.439 87.45 64.628 87.7 65.097 87.95 65.445 88.132 65.371 88.26 65.67 88.126 65.786 88.279 66.584 88.358 67.121 88.285 67.614 88.071 68.005 87.98 68.675 87.602 69.029 86.95 69.321 86.907 69.473 87.035 69.766 87.401 69.9 87.736 70.034 87.992 70.302 88.498 70.455 88.809 71.052 88.791 71.723 88.126 72.935 88.553 73.265 88.906 73.472 89.735 72.935 90.199 71.985 90.954 70.948 91.284 70.095 91.028 69.547 91.393 69.23 91.832 68.974" transform="matrix(0.66666667,0,0,0.66666667,0.24717547,-0.60139861)" style="fill:#fff"/><polygon id="polygon50" points="37.785 63.209 36.975 63.209 36.587 63.581 36.781 63.84 37.914 63.711 38.206 63.452" transform="matrix(0.66666667,0,0,0.66666667,0.24717547,-0.60139861)" style="fill:#fff"/><polygon id="polygon52" points="52.453 70.721 52.291 71.191 51.87 70.559 52.048 70.252" transform="matrix(0.66666667,0,0,0.66666667,0.24717547,-0.60139861)" style="fill:#fff"/><polygon id="polygon54" points="52.161 72.162 52.388 72.761 52.388 74.008 52.016 74.542 51.87 75.351 51.87 75.772 51.319 75.869 50.915 76.647 50.72 76.647 50.656 76.938 50.316 77.181 50.057 77.116 49.377 76.792 48.842 76.209 48.551 75.659 48.308 74.72 48.308 74.072 47.92 73.619 47.515 72.631 47.596 71.951 48.26 72.065 48.988 72.486 49.539 72.664 50.219 72.761 50.494 72.534 51.465 72.518 51.643 72.356 51.87 72.356 51.951 72.081" transform="matrix(0.66666667,0,0,0.66666667,0.24717547,-0.60139861)" style="fill:#fff"/><polygon id="polygon56" points="46.797 70.084 46.473 70.084 46.473 70.883 46.689 70.883" transform="matrix(0.66666667,0,0,0.66666667,0.24717547,-0.60139861)" style="fill:#fff"/><polygon id="polygon58" points="86.754 72.416 86.56 72.718 85.89 72.869 85.826 72.264 85.416 72.178 85.286 71.854 85.113 71.854 84.746 72.157 84.487 73.106 84.12 73.776 83.538 74.736 83.3 75.373 82.739 75.934 82.264 76.15 81.573 76.949 80.602 77.51 79.933 77.963 79.435 78.104 79.215 78.616 78.984 78.677 78.716 79.14 77.911 79.847 77.484 80.432 77.192 81.249 77.302 81.456 77.192 81.724 77.277 81.956 77.558 82.163 78.033 82.163 78.301 82.054 78.508 82.102 78.801 82.456 79.313 82.456 79.764 82.956 80.032 82.761 80.386 82.883 80.91 82.956 81.227 82.809 81.763 82.041 82.592 81.408 82.799 80.42 83.238 79.408 83.348 78.86 83.713 78.263 84.823 77.653 84.969 77.47 85.408 77.592 85.603 77.641 85.934 77.618 85.416 77.1 85.502 76.495 86.106 75.848 86.495 75.287 87.25 74.099 87.25 73.516 87.164 73.236 87.445 72.869 87.078 72.739" transform="matrix(0.66666667,0,0,0.66666667,0.24717547,-0.60139861)" style="fill:#fff"/><polygon id="polygon60" points="79.264 83.736 79.264 83.87 78.386 84.187 78.545 83.73 78.716 83.273 79.045 83.273 79.045 83.675" transform="matrix(0.66666667,0,0,0.66666667,0.24717547,-0.60139861)" style="fill:#fff"/><polygon id="polygon62" points="33.222 12.777 33.222 13.167 33.478 13.509 33.222 14.118 33.381 14.46 33.381 14.959 33.71 15.435 33.917 15.435 33.917 15.081 34.051 15.069 34.112 15.593 34.356 15.947 34.526 16.215 35.221 16.215 35.806 15.532 36.282 15.02 36.367 14.752 37.452 14.521 37.806 13.85 38.415 13.631 39.5 14.13 40.89 14.825 41.511 14.911 42.206 15.008 42.877 15.289 44.242 15.849 45.071 16.215 45.729 16.3 46.473 16.654 46.948 16.824 47.558 17.178 48.179 17.519 48.545 17.702 49.021 18.275 49.021 19.043 49.923 19.275 50.63 19.579 51.519 20.067 51.812 20.506 51.678 20.628 51.312 20.628 50.752 20.286 50.556 20.628 50.727 21.14 50.959 21.652 51.459 22.054 52.056 22.566 52.3 22.944 52.3 23.334 52.738 23.87 53.08 23.956 53.787 23.956 53.787 24.212 53.714 24.516 54.153 24.699 54.725 25.309 54.957 25.431 55.432 25.431 55.286 25.662 55.335 25.943 54.994 26.182 54.725 25.857 54.372 25.662 53.616 25.504 53.372 25.382 51.885 25.26 51.312 24.797 50.654 24.199 49.874 23.09 49.289 22.408 48.63 22.212 47.85 22.042 47.229 21.822 46.887 22.164 46.729 22.152 46.424 21.956 46.18 22.566 46.107 23.151 45.29 22.859 45.205 23.054 45.705 23.395 45.79 23.748 45.193 24.078 44.717 24.236 44.181 24.065 43.462 23.968 42.889 24.029 42.353 23.627 41.816 23.163 41.304 22.59 40.585 22.505 39.975 22.615 39.756 22.968 39.354 22.944 39.244 22.822 39.037 22.932 38.72 23.054 38.293 22.871 38.22 22.627 38.549 22.066 38.903 21.737 39.366 21.688 39.768 21.749 39.78 21.554 39.439 21.274 39.695 20.872 39.561 20.762 39.134 20.152 38.781 19.323 38.622 19.019 38.184 18.75 38.025 18.58 36.733 18.056 35.66 17.617 34.917 17.519 34.49 17.422 34.1 16.873 33.649 16.885 33.503 17.007 33.307 16.898 33.149 16.69 32.978 16.642 32.649 16.312 32.344 16.861 31.918 17.117 31.662 17.02 31.406 16.568 31.528 16.069 31.138 15.666 30.894 15.557 30.467 15.569 30.467 15.325 30.906 15.203 31.272 15.313 31.442 15.435 31.735 15.203 32.162 14.947 32.491 15.081 32.954 14.996 32.991 14.716 32.661 14.496 32.32 14.63 31.979 14.508 31.369 14.594 30.809 14.606 30.528 14.325 30.406 13.838 29.98 13.679 29.504 13.545 29.078 13.533 28.895 13.18 28.687 12.875 28.956 12.875 29.212 13.289 29.492 12.997 29.492 12.716 30.199 12.631 30.687 12.156 31.552 12.29 32.162 12.509 32.795 12.631" transform="matrix(0.66666667,0,0,0.66666667,0.24717547,-0.60139861)" style="fill:#fff"/><polygon id="polygon64" points="57.277 17.278 56.889 17.424 56.986 17.845 57.018 18.266 56.516 18.363 55.998 19.059 55.092 19.169 54.881 18.767 54.655 18.784 54.622 19.091 53.716 19.075 52.615 19.169 52.76 19.431 53.311 19.706 54.023 19.933 54.914 19.933 55.642 19.933 56.225 19.706 56.678 19.091 57.504 18.8 57.504 18.476 57.844 17.99 57.536 17.407" transform="matrix(0.66666667,0,0,0.66666667,0.24717547,-0.60139861)" style="fill:#fff"/><polygon id="polygon66" points="58.35 17.479 58.366 17.186 57.844 16.585 57.489 16.203 56.773 15.805 56.156 15.471 55.904 15.349 55.904 15.154 56.651 15.569 57.383 15.943 57.96 16.471 58.488 16.942 58.756 17.21 58.846 17.666 58.748 17.804 58.439 17.804" transform="matrix(0.66666667,0,0,0.66666667,0.24717547,-0.60139861)" style="fill:#fff"/><polygon id="polygon68" points="77.515 42.162 77.612 42.55 77.159 42.405 76.722 42.34 76.543 42.065 76.171 41.871 75.961 41.692 75.572 41.611 75.281 41.385 74.892 40.996 74.763 40.705 74.374 40.446 73.807 39.701 73.888 39.442 74.601 39.928 74.86 40.187 75.281 40.381 75.523 40.802 75.912 41.11 76.284 41.352 76.705 41.579 77.062 41.935" transform="matrix(0.66666667,0,0,0.66666667,0.24717547,-0.60139861)" style="fill:#fff"/></svg>