<svg xmlns="http://www.w3.org/2000/svg" xmlns:svg="http://www.w3.org/2000/svg" id="svg2" width="52pt" height="52pt" x="0" y="0" version="1.1" viewBox="0 0 65 65" xml:space="preserve"><metadata id="metadata60"/><path id="path4" d="m 14.888645,41.320561 c -0.107925,-0.02149 -0.215849,-0.04299 -0.323773,-0.06448 l -0.268935,0 -0.06403,0.140869 -0.192097,0 -0.08964,0.166478 -0.179288,0 0.192097,-0.307347 0.345773,-0.461024 0.537862,-0.409803 0.409803,0 0.320156,-0.294545 -0.243317,0 -0.153677,0.102449 -0.256126,-0.166479 -0.307347,0 -0.02561,-0.140869 -0.525061,0 -0.07684,-0.268934 0.320156,-0.204898 0.281736,-0.08964 0.08324,-0.409803 -0.05763,-0.307347 -0.332965,0.08964 0,-0.08964 0.204898,-0.192096 -0.08965,-0.140869 0.06403,-0.243324 0.211303,0.217707 0.377788,-0.03842 0.03842,-0.102449 0.281737,0.128059 -0.05123,-0.345766 0.166031,-0.491916 -0.274811,-0.39051 -0.163919,-0.265171 0.07714,-0.342304 -0.09643,-0.07713 -0.221778,0.134992 -0.231418,-0.03857 -0.192852,0.115705 -0.163918,-0.125352 -0.202485,0 0.02411,-0.192845 0.212132,-0.294097 0.07714,-0.265165 -0.149459,-0.255524 0.120526,-0.188025 -0.125352,-0.08679 -0.163919,0.192852 -0.115706,-0.149452 -0.101245,0.02411 -0.07232,0.593008 -0.08678,-0.05786 0.04339,-0.568902 0.03375,-0.154272 0,-0.332663 0.245878,-0.342304 -0.03375,-0.110886 -0.183205,0.168739 -0.149459,0.154278 0,0.154279 -0.183205,0.04821 -0.149459,-0.03375 0.06267,-0.134993 -0.0096,-0.101245 0.245878,-0.255525 0.08678,-0.284451 0.03375,-0.202491 -0.05785,-0.154279 -0.04821,-0.212131 0.115706,-0.245885 -0.07714,-0.106065 0.07232,-0.07714 0.241058,-0.05786 0.0048,-0.265165 -0.07232,-0.09642 0.06268,-0.07714 0.149458,0 0.01929,-0.327837 0.29409,0 0.44837,0 0.08678,-0.0675 0.130172,-0.04821 0.216952,0 0.04821,0.216951 -0.168738,0.144632 -0.496582,0.544795 0.07714,0.07232 -0.05785,0.0916 -0.05785,0.09643 0.02411,0.197664 0.154279,-0.09643 0.327837,-0.110886 0.37605,-0.01447 0.515882,0.02895 0.130172,0.188032 -0.183205,0.255524 -0.01447,0.226591 c 0,0 -0.115705,0.250705 -0.115705,0.274811 0,0.02411 -0.183205,0.241065 -0.183205,0.241065 l -0.144632,0.178378 -0.183205,0.0048 -0.02411,0.115712 0.08196,0.06267 0.07232,-0.01446 0.0675,0.04821 0.01447,0.09643 -0.178385,-0.01447 -0.05785,0.07232 -0.163919,0.183205 0.101246,0.07714 0.279631,0.05303 0.284451,-0.01929 0.188025,0.168745 0.14169,0.257617 0.142754,0.137712 0.04821,0.356771 0.178385,0.376056 0.101246,0.285354 0.202491,0.201582 0.250705,0.09643 0.168738,0.207311 0.02893,0.568902 0.115706,0.134992 0.101246,0.110886 0.05785,0.221778 -0.159099,0.212131 0.08678,0.115712 0.298918,-0.01929 0.173565,-0.110886 0.308557,0.08196 0.159099,0.173558 0,0.323024 -0.05785,0.241058 -0.207312,0.265164 -0.207311,0.250704 -0.298911,0.192845 0.04339,0.149459 0.279631,0.0916 0.231418,-0.05785 0.05785,0.06749 -0.05303,0.125346 -0.641221,0.385696 -0.134992,-0.02411 -0.106066,-0.06749 -0.535149,0.0916 -0.245877,-0.08196 -0.110886,0.06749 -0.101246,0.05785 -0.154278,-0.03857 -0.279631,0.110886 -0.404977,-0.101246 -0.255524,0.08196 -0.188025,0.183212 c -0.04181,0.07713 -0.08359,0.154265 -0.125372,0.231405 z" style="fill:#fff"/><polygon id="polygon6" points="22.548 58.145 22.031 58.145 21.839 58.145 21.456 58.26 20.9 58.816 20.211 59.18 19.521 59.18 19.521 58.952 19.187 59.009 19.341 58.769 19.033 58.798 18.899 58.596 19.187 58.298 19.024 58.192 19.129 58.125 19.37 58.086 19.322 57.884 19.456 57.692 19.793 57.567 19.745 57.423 19.293 57.528 19.341 57.394 19.543 57.201 19.552 56.99 19.774 56.836 19.734 56.64 19.437 56.605 19.302 56.48 18.973 56.461 19.045 56.151 18.951 55.992 19.29 55.87 19.615 55.639 19.55 55.372 19.269 55.43 19.262 55.206 19.305 55.04 19.153 54.874 19.435 54.752 19.824 54.838 20.033 54.961 20.423 54.896 20.798 54.536 20.949 54.247 20.74 54.11 20.581 54.081 20.762 53.836 20.704 53.605 21.007 53.36 21.418 53.194 21.519 53.324 21.605 53.194 21.735 53.108 21.908 53.108 22.103 53.309 22.759 53.241 23.065 54.007 23.41 54.257 23.41 54.563 22.759 55.233 22.663 55.368 22.759 55.981 22.874 56.728 22.759 57.494 22.548 57.915" transform="matrix(0.66850952,0,0,0.66850952,-1.9556956,0.45167241)" style="fill:#fff"/><polygon id="polygon8" points="22.478 49.48 22.673 49.473 22.723 49.74 23.055 49.855 23.264 49.668 23.055 49.588 22.911 49.552 22.867 49.17 22.759 49.17 22.788 48.939 22.622 48.939 22.565 49.206 22.442 49.35" transform="matrix(0.66850952,0,0,0.66850952,-1.9556956,0.45167241)" style="fill:#fff"/><polygon id="polygon10" points="22.817 47.612 22.572 47.958 22.586 48.341 22.269 48.499 22.024 48.153 22.298 47.735 22.615 47.497" transform="matrix(0.66850952,0,0,0.66850952,-1.9556956,0.45167241)" style="fill:#fff"/><polygon id="polygon12" points="12.203 36.403 12.51 36.575 12.759 36.403 13.449 35.732 14.253 35.521 14.655 35.1 14.655 34.813 15.192 34.525 15.441 34.2 15.077 33.893 15.537 33.893 15.537 33.625 15.422 33.318 15.537 32.849 15.389 32.59 14.956 32.417 14.812 32.215 14.394 32.215 14.422 31.595 14.192 31.422 14.177 31.018 13.744 31.191 13.528 30.873 13.312 30.441 12.908 30.542 12.879 31.205 12.417 31.378 12.143 31.248 11.941 31.696 11.667 31.696 11.393 31.321 11.207 31.321 11.207 31.623 11.336 32.071 11.278 32.273 11.076 31.883 10.816 31.681 10.571 31.176 10.038 31.667 10.095 32.215 9.836 32.301 9.259 31.364 9.042 31.465 9.201 31.998 9.172 32.633 8.624 32.532 8.292 33.398 8.177 33.023 8.062 32.575 7.845 32.273 8.162 31.898 7.961 31.623 7.686 31.494 7.023 30.527 6.547 30.585 6.403 30.772 6.533 30.888 6.792 30.772 7.023 30.974 6.634 31.133 6.691 31.248 7.023 31.407 7.138 31.898 6.893 31.652 6.735 31.623 6.648 31.724 6.273 31.191 6.057 31.292 5.97 31.566 5.761 31.595 6.049 31.898 5.761 31.941 5.992 32.107 6.28 32.265 6.114 32.511 5.573 32.186 5.653 32.489 5.573 32.662 5.242 32.511 5.148 32.734 5.646 32.972 6.093 32.734 6.576 32.59 6.836 32.561 6.98 32.431 7.196 32.612 7.658 32.871 7.549 33.087 7.009 33.426 7.42 33.636 7.686 33.441 7.694 33.816 7.47 33.968 6.857 33.968 6.316 34.133 5.797 34.191 5.761 34.472 5.985 34.342 6.396 34.306 7.124 34.357 7.297 34.652 7.29 35.035 7.723 34.746 7.643 35.121 7.737 35.222 8.076 35.33 7.723 35.669 7.694 35.965 7.311 36.217 7.001 36.282 6.828 36.232 6.792 36.362 6.878 36.498 7.568 36.498 8.2 36.403 9.349 37.207 9.656 37.207 10.154 37.495 10.69 37.495 11.131 37.341 11.629 36.786 12.031 36.69" transform="matrix(0.66850952,0,0,0.66850952,-1.9556956,0.45167241)" style="fill:#fff"/><path id="path14" d="m 56.86399,40.87189 0.384192,-0.08965 0.153671,-0.461024 -0.473833,-0.230509 -0.06404,-0.153677 -0.332958,0 0.07684,-0.179287 -0.358575,-0.204898 -1.13549,-0.75557 -0.187825,-0.375649 0,-0.375655 0.5464,-1.229403 0.03415,-0.631775 -0.375656,-0.44395 -0.751297,0 -1.10988,0.290273 -0.512252,-0.221971 -0.2732,-0.512253 -0.307347,-0.287693 0.09714,-0.722458 1.764217,-1.691576 0.0169,-0.371779 -0.239053,-0.546399 -1.209835,0.08534 -0.454981,-0.787103 0.332965,-0.601893 0.777423,-0.51625 0.842121,-2.090275 0.458444,-2.851534 1.146608,-1.741655 2.771319,-1.314777 1.53675,-1.212329 1.173689,-1.671561 0.29514,-1.107019 -0.600582,-0.943775 -1.058652,-0.648848 -0.751298,-0.614702 -0.853753,-0.375648 -0.973283,-0.140876 -0.217707,-0.166478 -0.256126,0.07684 -0.02561,0.179288 -0.230762,0.07814 -0.045,0.250704 0.257129,0.398552 -0.02571,0.26356 0.231418,0.17999 -0.01286,0.334268 -0.276416,0.28927 -0.398552,0.03214 -0.08356,0.102851 0.154271,0.276415 -0.224986,0.257129 -0.250705,-0.03857 -0.167141,-0.160703 0.03857,-0.231418 0.03214,-0.212131 0.134992,-0.045 -0.17999,-0.334269 -0.01929,-0.147847 -0.257136,0.07714 -0.359979,0.199276 -0.237842,0.122137 -0.115712,0.257129 -0.192852,0.212131 -0.224987,-0.05143 -0.115712,-0.109282 -0.38569,0 -0.122137,-0.05785 -0.269984,0.160703 -0.186421,0.07714 -0.212131,0.36641 -0.02571,0.276415 -0.250704,-0.224987 -0.06428,0 -0.231418,0.411408 -0.06428,-0.10285 0.05143,-0.212132 -0.527113,-0.05143 0,-0.154279 0.26356,-0.160703 0.186414,-0.01286 -0.03857,-0.141423 -0.07071,-0.147848 0.03214,-0.26356 0.05785,-0.160703 -0.07071,-0.05785 -0.09,-0.115705 -0.192851,0.03214 -0.584973,0.456404 0.109281,0.186421 0.06428,0.237849 -0.269984,0.147848 -0.07071,-0.07071 0.07071,-0.08999 -0.03214,-0.115706 -0.218556,-0.07714 -0.218562,0.06428 -0.115699,0.134965 -0.462836,0.154279 -0.308557,0.334268 -0.231418,0.199276 -0.392121,0.231418 -0.10285,0.07714 -0.173566,-0.0064 -0.03214,0.128567 0.109288,0.102851 -0.16714,0.045 -0.494978,0.160703 -0.05785,0.507833 -0.05785,0.289271 -0.03214,0.314982 -0.347123,0.07071 -0.282847,0.09 -0.430694,-0.045 -0.244273,-0.122137 -0.07714,-0.302126 -0.147855,-0.179989 -0.224986,-0.09643 -0.05786,-0.327837 0.26356,-0.244273 0,-0.224987 0.218556,-0.109282 0.533544,-0.03857 0.09,-0.08357 -0.05785,-0.167134 -0.06428,-0.269984 -0.186421,-0.3407 -0.237842,-0.192851 -0.314989,-0.160703 -0.372841,-0.0064 -0.372841,0.0064 -0.218556,-0.07714 -0.224993,-0.167135 -0.03213,0.05143 0.12213,0.173565 0.173565,0.134992 0.224993,0.186421 0.03857,0.250704 0,0.392121 -0.03857,0.359979 -0.141423,0.411408 -0.07714,0.327837 -0.03214,0.18642 0.045,0.08357 0.244273,0.10285 0.134992,0.244273 0.05143,0.237842 -0.05785,0.09643 -0.0064,0.07071 0.09642,0.08999 -0.09642,0.147848 -0.109282,0.28284 -0.122136,0.263559 0.01929,0.109282 0.05143,0.122136 -0.07071,0.17999 -0.07714,-0.147848 -0.192845,-0.141423 -0.134992,-0.07071 0.03857,-0.07714 -0.08356,-0.07071 -0.08357,-0.03214 0,-0.115705 -0.160703,0 -0.115712,0.03857 -0.334268,-0.218562 -0.212132,0.250704 -0.302126,0.385697 -0.26356,0.115705 -0.218556,0.06428 -0.128567,0.17999 -0.109282,0.192845 -0.212131,0.128567 -0.173558,0.154279 -0.045,0.18642 0.07071,0.257129 0.231418,0.36641 0.231418,0.517474 -0.0096,0.221778 -0.163925,0.04821 -0.183205,-0.250704 -0.125352,0.106066 -0.0096,0.202491 -0.221771,-0.07714 -0.279631,-0.183205 -0.241058,-0.09642 -0.221778,0.04821 -0.106065,0.09643 -0.04821,-0.134992 0.08678,-0.115706 -0.183212,-0.07714 -0.154272,-0.06749 0,-0.173565 -0.44355,-0.192852 -0.106065,0.05785 0,0.241058 -0.221778,0.03857 0.04821,0.192852 0.163918,0.250704 0.125352,0.250705 0.183212,0.144632 0.202485,-0.125352 0.115706,0.03857 0.139812,0.216951 -0.0675,0.130172 0.110893,0.260345 -0.0916,0.144632 -0.27481,0.236237 -0.269985,-0.0675 -0.313377,-0.178385 -0.298911,-0.0675 -0.03375,-0.269985 -0.332664,-0.274811 -0.163918,0.115706 -0.376057,-0.37605 0.04339,-0.486942 -0.125352,-0.173559 -0.04821,-0.36641 -0.144632,-0.221778 0.154279,-0.327844 0.07714,-0.163918 -0.07714,-0.154279 0.04821,-0.115705 0.106066,0.07714 -0.0096,-0.192845 -0.134992,-0.178385 -0.245884,-0.236238 -0.298911,-0.144639 -0.154279,-0.101245 0,-0.197672 -0.134992,-0.0675 -0.04821,-0.202492 -0.197665,-0.168738 -0.144632,-0.0675 -0.08196,-0.163918 -0.120525,-0.115706 0.05303,-0.130172 -0.05303,-0.115706 -0.125353,-0.115705 0,-0.120533 0.134992,0.02893 0.0675,0.03857 0.159098,0.134992 0.154279,0.241058 0.226591,0.188025 0.106066,0.08678 0.04821,-0.139812 0.159099,0.159098 0.197664,0.05785 0.188032,0.05785 0.06267,0.188025 0.197665,-0.120532 0.207311,0.159098 0.255525,0.188025 0.274811,0.08196 0.318197,0.04821 0.303737,0.07714 0.274811,0.08196 0.255524,0.149459 0.188032,0.09643 0.39051,-0.03857 0.327844,-0.05303 0.265164,-0.134992 0.241058,-0.110885 0.279631,-0.221779 0.207311,-0.255524 0.163919,-0.221771 0.120532,-0.183205 0.05303,-0.250705 0.05785,-0.265164 -0.154279,-0.173565 -0.07232,-0.36641 0.0096,-0.289271 -0.241064,-0.245884 -0.274805,-0.149459 -0.08196,-0.125352 -0.342303,-0.159099 -0.472476,-0.482116 -0.294091,0 -0.09643,-0.183205 -0.424263,-0.496582 -0.376056,-0.35677 -0.38569,-0.284451 -0.520689,-0.260344 -0.231418,-0.07232 -0.226591,0.04339 -0.279631,-0.07714 -0.226591,-0.08678 -0.274811,0.07232 -0.03857,0.212132 -0.178386,0.168738 -0.05789,-0.05783 0.115706,-0.178385 0,-0.38087 -0.231418,-0.09161 -0.36641,-0.07232 -0.274811,-0.207312 -0.03857,-0.134992 0.106065,-0.134992 0.159099,0.168739 0.236238,0.101245 0.154278,-0.05785 0.03375,-0.139812 -0.08196,-0.139812 -0.236238,0 -0.115706,-0.101245 -0.149459,-0.159099 -0.139812,0.03375 0,0.231418 -0.115705,0.03375 0,0.08196 0.02893,0.125352 -0.168738,0.01447 -0.110886,-0.144632 -0.216952,-0.08678 -0.26999,-0.03857 -0.188025,-0.149458 -0.07232,0.04339 -0.0916,0.245878 -0.178385,-0.115706 0.03375,-0.106066 -0.03375,-0.134992 -0.154279,-0.09161 -0.192851,-0.149459 -0.245885,-0.08196 -0.226591,-0.110885 0.02893,-0.159099 0.221778,0.07714 0.265165,0.05785 0.28445,0.07714 0.192845,-0.02893 0.183205,-0.183205 0.221778,-0.134992 0.178385,0 0.02893,-0.163919 -0.07232,-0.159098 -0.101246,0.05303 -0.05303,-0.115706 -0.04821,-0.130172 -0.313377,0.08678 -0.06267,-0.08678 0.130172,-0.159099 -0.173565,-0.139812 -0.144632,0.134992 -0.01929,-0.188025 -0.216959,0.07232 -0.0916,-0.03857 0.05303,-0.120533 -0.202491,-0.236238 -0.149452,0.125353 -0.163919,0.216951 0,0.318197 0.03374,0.106059 -0.115706,0.01929 -0.231418,-0.04339 -0.05785,-0.110886 0.130173,-0.130172 0.07232,-0.134992 -0.154279,0.07714 -0.149458,0.02893 0.04821,-0.115706 0.09642,-0.06267 -0.04339,-0.08678 0.08678,-0.101246 0.139812,-0.05303 0.08196,-0.05303 0.02411,-0.125352 -0.178385,-0.07232 -0.05303,-0.192852 -0.202491,0.08678 -0.106066,-0.125352 -0.06749,0.06267 0.06267,0.188025 -0.178385,-0.03857 -0.08196,0.07714 0.168738,0.202492 0.05303,0.106066 -0.284451,0.245877 0,0.274811 -0.159098,0.178385 -0.226598,0.130173 -0.02893,-0.250705 0,-0.298911 -0.03857,-0.144638 0.163919,-0.163919 -0.163919,-0.159098 -0.154272,0.289277 -0.07714,0.231418 -0.134992,0.192845 -0.192845,0.212131 -0.03857,0.356771 -0.212132,0.318197 -0.188025,-0.09643 0.05303,-0.351944 0.144632,-0.327837 -0.09643,-0.139812 0.188025,-0.178385 0.101246,-0.202491 0.168738,-0.159099 -0.04821,-0.08678 -0.134993,-0.110886 -0.05303,0.154279 -0.159099,-0.09643 -0.241058,-0.115706 -0.09643,0.274804 -0.163918,-0.0675 -0.03375,0.110886 0.231418,0.130172 -0.06267,0.192852 -0.110886,-0.08678 -0.110886,0.106066 0.03857,0.236238 -0.173559,-0.02411 0.02411,-0.202492 -0.09161,-0.188025 -0.101246,-0.08678 -0.04821,0.07714 0.03857,0.207312 0.05785,0.110885 0.02893,0.125352 -0.125352,0.188025 -0.188025,0.221772 -0.02893,0.294091 0.115705,0.212131 c 0,0 -0.178385,0.106066 -0.192851,0.110886 -0.01446,0.0048 -0.207312,-0.178385 -0.207312,-0.178385 l -0.110886,-0.192845 0.06749,-0.106066 -0.231418,-0.0675 0.02893,0.139813 -0.05785,0.08678 -0.125352,-0.130172 -0.03375,-0.192845 -0.134992,-0.03375 -0.09643,0.139812 -0.168738,-0.06267 -0.192845,0.06267 0.09642,0.221778 0.192852,0.04821 0.183205,0.110886 -0.04339,0.168738 0.03375,0.144639 -0.202491,-0.08196 -0.221779,-0.168739 -0.06267,0.197672 -0.08196,0.02411 -0.05785,0.120533 -0.110886,-0.04821 0.04821,-0.154279 -0.08196,-0.192851 -0.03375,0.202491 -0.03375,0.202492 -0.05303,0.159098 -0.07714,0.173565 0.06749,0.139812 -0.110885,0.03857 -0.115706,0.05785 -0.02893,-0.144632 0.04339,-0.29409 -0.01447,-0.178386 0.05785,-0.245884 -0.08678,0.0048 -0.130172,0.323017 -0.110886,0.188025 0.03857,0.178385 -0.106066,-0.03375 -0.07232,-0.144639 0.03375,-0.154279 -0.134992,0.01447 -0.265164,0.07232 -0.02411,-0.120539 0.197664,-0.144638 0.178386,-0.178385 -0.02893,-0.130173 -0.120525,-0.0048 -0.07232,0.05303 -0.07232,-0.106065 -0.250705,0.212131 0.07232,0.149459 -0.106066,0 -0.101246,0.183205 -0.168738,0.221771 -0.04821,0.08678 0.03375,0.05785 0.188025,0.0096 0.110886,-0.0675 0.01447,-0.168739 0.08196,-0.02893 0.04339,0.183205 0.06749,0.159098 0.03375,0.159099 0.192851,0.115706 0.02411,0.231417 -0.09642,0.09643 -0.07714,-0.05785 0.02893,-0.139812 -0.115706,-0.144632 -0.163918,-0.226598 -0.168739,0.09643 0.106066,0.269984 -0.139812,0.02411 -0.07714,-0.241058 -0.08678,0 -0.09643,0.09643 -0.05785,-0.149459 -0.274805,-0.192845 -0.139812,0.144639 0.02893,0.139812 -0.216952,0.125352 0,0.130172 -0.05785,0.08196 0.03857,0.106065 -0.03857,0.05303 0,0.08678 0.216958,-0.120532 0.101245,-0.08196 0.221778,0.02893 0.130173,-0.149458 0.106065,0.216951 -0.245878,0.08678 -0.149458,0.110886 -0.05785,0.255524 0.03375,0.154279 -0.197665,0.197665 -0.318197,0.09643 -0.154278,-0.04339 0,-0.202492 -0.168739,-0.08678 0,0.207311 -0.168738,0.0675 -0.02893,-0.178385 -0.07232,-0.09161 0.05785,-0.183205 -0.216952,0.09643 0,0.236238 -0.134992,0 -0.08678,-0.342304 -0.08196,0.04339 -0.115706,0.212131 -0.144679,0.01447 -0.173565,0.183205 0.05785,0.120532 0.207311,-0.149459 0.139813,-0.02893 -0.106066,0.192851 0.178385,-0.02893 0.134992,-0.110886 0.110886,0.02893 0,0.125352 -0.183205,0.163919 -0.02893,0.09643 -0.178378,0.01446 -0.163919,0.0916 -0.168738,0.115706 -0.250705,0.03375 -0.139812,0.06267 -0.173558,0.188025 -0.154279,0.09161 -0.183205,0.0675 -0.101246,0.284451 0.298911,-0.183205 0.178385,-0.159098 0.250705,-0.236238 0.183205,-0.0048 0.01929,0.09643 0.188025,-0.125353 0.197665,-0.144632 0.260344,-0.149458 0.139812,0.154278 0.154279,-0.144638 0.197665,-0.188025 0.101246,-0.07232 0.08678,0.192845 0.294091,-0.03375 0.308557,-0.139812 0.231418,0.04821 0.06749,0.197665 -0.260345,0.0048 -0.274811,0.149459 -0.168738,-0.139812 -0.323017,0.168739 0.212131,0.207311 -0.09161,0.289271 -0.05785,0.125352 -0.0916,-0.120532 -0.07714,-0.35677 -0.159099,0.163918 -0.250704,0.01447 -0.04821,0.159098 0.183205,-0.03375 0.144632,0.04821 0.08678,0.139812 -0.178385,-0.0048 -0.192851,0.106066 -0.09642,0.01929 -0.07714,-0.168738 -0.110885,0.149458 -0.06749,0.149459 0.120525,0.0916 0.183205,-0.0916 0.163919,0.01447 0.01447,0.163918 -0.192852,0.03857 -0.03375,0.06267 0.192845,0.236238 -0.120526,0.01929 -0.212132,-0.183205 -0.188025,0.159098 -0.02411,0.188025 0.101246,0.144632 0.241058,-0.01929 0.115705,0.0675 0.106066,0.110886 -0.04821,0.173565 -0.144632,-0.139812 -0.178385,-0.05303 -0.212131,0.0048 -0.159099,0.08678 -0.212131,0.163919 -0.173559,0.250704 -0.0048,0.101246 0.0916,0.07232 -0.05785,0.110886 -0.327843,0.03857 -0.101246,0.36641 -0.03857,0.115706 0.09642,0.110885 0.188025,0.07232 -0.03857,0.03857 -0.183205,0.0096 -0.02411,0.197665 -0.250704,0.101246 0.125352,0.134992 -0.02893,0.05303 -0.149458,-0.02893 -0.03375,0.04821 0.03375,0.231418 -0.236238,0.216958 0,0.125352 0.207311,0.149452 -0.04821,0.106066 -0.29409,-0.04821 -0.04339,0.0916 0.04339,0.178385 0.260344,0.197665 -0.01929,0.207311 -0.241057,-0.216958 -0.289271,0.294091 -0.220167,0.07392 -0.03857,0.07071 0.173558,0.154279 -0.045,0.10285 -0.372841,0.302126 -0.160703,0.147848 -0.26356,0.334268 -0.128568,0.257129 0,0.2057 -0.257129,0.109281 0,0.17999 0.199276,-0.09643 -0.07071,0.2057 0.06428,0.07071 0.05785,0.09643 0.192851,-0.167134 0.186421,-0.08356 0.199276,-0.205701 -0.045,-0.192851 0.192852,-0.141424 0.109281,-0.02571 0.06428,0.160703 -0.237842,0.09643 0.06428,0.05785 0.160703,-0.02571 -0.0064,0.17999 -0.218556,0.109281 -0.115706,0.09 -0.01929,0.302126 -0.430694,-0.05785 0,0.167134 -0.205701,-0.0064 0,-0.173565 -0.231418,-0.186421 -0.167134,0.257129 -0.122136,0.08357 -0.173565,-0.05143 -0.160703,0.05143 -0.06428,0.147848 -0.218563,0.01286 -0.05785,0.404977 -0.179989,0.02571 -0.08357,-0.154279 -0.321412,0.141416 -0.05785,0.282847 0.26356,-0.03214 -0.06428,0.347123 -0.353555,-0.104608 -0.186414,0.06604 0.276416,0.167134 -0.276416,0.09 -0.314988,0.173565 0,0.199276 -0.128561,-0.112497 -0.122137,-0.163918 -0.045,0.08356 0,0.160703 -0.218563,-0.08035 -0.09643,0.06754 0.250704,0.244274 -0.08999,0 -0.128568,-0.08356 -0.122137,0.289271 0.192845,0.269991 -0.09,0.257128 0.08356,0.321413 0.340699,0 0.372841,-0.07071 -0.03857,0.154278 -0.353554,0.102851 -0.424263,0.09642 0.05785,0.160703 -0.10285,0.134992 -0.0064,0.07714 0.122137,0.115706 -0.154278,0.10285 0.05785,0.334268 0.167134,-0.045 0.186421,0.18642 0.045,0.122137 -0.154278,0.06428 -0.128561,0.276415 0.08356,0.03214 0.218563,-0.250704 0.141423,-0.134992 0.06428,-0.192845 0.09643,-0.218563 0.359979,-0.122137 -0.0064,0.167135 -0.340699,0.128567 -0.05143,0.244274 -0.17999,0.212131 0.05143,0.186421 -0.167134,0.199276 -0.07714,0.10285 -0.05785,-0.08357 -0.09643,0.01929 -0.045,0.231418 0.09643,0.122137 0.237849,-0.08356 0.08356,-0.2057 0.154278,0.122136 -0.01929,0.26356 -0.09642,0.03857 0,0.224994 0.07714,0.186421 -0.134992,-0.0064 -0.109281,-0.09642 -0.06428,0.07071 -0.01286,0.308557 0.26356,0.231418 0.128561,0.122137 0.257129,0.10285 0.01286,0.237849 0.147847,0.01929 0.501402,-0.03214 0.250705,-0.03214 0.494978,-0.372842 0.539975,-0.617114 0.154278,-0.231418 0.160703,0.128568 0.224987,-0.224987 0.01929,-0.218563 -0.07071,-0.212131 0.122136,-0.10285 0.167134,0.115705 0.06428,0.379266 0.218563,0.128568 -0.0064,0.26356 0.08999,0.488546 0.154279,0.314982 -0.07714,0.147848 0.218556,0.302126 0.05143,0.359979 0.257129,0.494978 0.173558,0.404976 0.237849,0.327844 -0.08356,0.257128 -0.05143,0.314982 0.205701,0.353555 -0.0064,0.392121 0.327844,0.03857 0.462836,-0.08356 -0.03214,-0.340699 0.154279,-0.289271 0.212131,-0.07714 0.147848,-0.160703 0.520688,0.07714 0.237843,-0.392121 0.173565,-0.475691 0.134992,-0.674967 0.115706,-0.687823 -0.08357,-0.771393 0.462836,-0.212132 0.134992,-0.250704 0.237843,0.122137 0.276415,-0.289271 0.09643,-0.26356 0.231418,-0.314982 -0.01286,-0.475691 -0.09643,-0.28284 -0.482115,-0.456404 -0.257129,0.05143 -0.03857,-0.154279 -0.295702,-0.295701 0.03214,-1.105662 0.173558,-0.18642 0.06428,-0.584973 0.07714,-0.05785 -0.160703,-0.199276 0.109282,-0.147847 0.167134,0.07714 0.08999,-0.207458 0.02571,-0.377508 0.327844,-0.0064 -0.01929,-0.327844 0.456404,-0.295702 0.07071,-0.173565 0.604252,-0.347123 0.06428,-0.173559 0.212131,-0.05143 0.186421,-0.379266 0.05785,-0.224993 0.334268,-0.28284 -0.03857,-0.212132 -0.212132,-0.212131 0.08356,-0.141423 -0.07071,-0.205701 0.263559,-0.353554 0.0064,-0.475692 0.289271,-0.03857 0.218555,-0.212131 0,-0.437119 0.186421,0.07071 0.250704,0 0.08999,0.128567 0.134992,-0.134992 0.475692,0.06428 0.263559,0.02571 0.3407,0.212131 0.192851,0.417839 0.141424,0.475691 -0.08357,0.347124 -0.154278,-0.07714 -0.26356,0.07714 -0.167134,0.321413 -0.359979,0.604252 -0.347124,0.46926 -0.154279,0.205701 -0.199276,-0.05785 -0.06428,0.05785 -0.045,0.269984 -0.192845,0.109281 0.045,0.398552 -0.507834,0.03857 -0.01286,0.359986 -0.257129,0.17999 -0.09,0.269984 0.07714,0.250704 0.167134,0.257129 -0.09643,0.44355 0.2057,0.347123 -0.03857,0.572111 -0.08357,0.302126 -0.09,0.707109 0.05785,0.045 0.147847,-0.08999 0.17999,0.192851 0.18642,0.05785 -0.01286,0.244273 0.179989,0.08356 0.02571,0.167134 0.26356,0.03214 0.05143,0.231418 0.302127,-0.115706 0.417838,-0.167134 0.359979,-0.05143 0.359986,-0.269984 0.417838,-0.07714 0.392121,-0.18642 0.411408,-0.08356 0.334268,0.08356 0.321413,-0.10285 0.385696,-0.237849 0.06428,0.08356 -0.237849,0.218563 0.311773,0.321413 0.176774,0.154278 0.475691,-0.08356 0.128561,0.231418 0.03857,0.231418 -0.212132,-0.06428 -0.398552,-0.05143 -0.147847,0.192852 -0.250705,0.01929 -0.115706,0.173559 -0.224986,0.045 -0.06428,0.257129 -0.372841,0 -0.514251,-0.07713 -0.392121,-0.128561 -0.257129,0.07071 -0.347124,0.08999 -0.199276,-0.01929 -0.372841,0.224986 -0.314982,0.09643 -0.08999,0.289271 -0.06428,0.269991 0.128568,0.282846 0.01929,0.205701 0.231418,0.08356 0.173558,-0.147847 0.212132,0.122137 -0.115706,0.18642 -0.07071,0.539975 0.05143,0.424263 -0.045,0.321413 -0.295702,0.231418 -0.314988,-0.03857 -0.17999,-0.192852 -0.045,-0.28284 -0.128561,-0.045 -0.26356,-0.36641 -0.231418,0.109281 -0.327844,0.199276 -0.08356,0.173565 -0.05143,0.372835 -0.218555,0.212131 -0.05787,0.417832 0.09643,0.745675 0.134992,0.771387 -0.045,0.321413 -0.321413,-0.01929 -0.218556,-0.05785 -0.28927,0.05785 0.0064,0.167134 0.141423,0.05143 -0.0064,0.07071 -0.134992,0.05143 -0.186421,0.224987 -0.147847,0.147848 -0.244274,-0.07071 -0.314988,-0.02571 -0.154279,-0.507834 -0.141423,-0.01929 -0.430694,0.05143 -0.379265,0.218563 -0.257129,0.02571 -0.289271,0.347123 -0.295702,0.07714 -0.398552,0.115705 -0.334268,0.17999 0.045,0.134992 -0.045,0.10285 -0.154279,-0.01929 -0.179989,-0.167134 -0.10285,-0.173558 -0.09643,-0.109281 -0.115706,0.02571 -0.147847,-0.109282 0.09643,-0.179989 0.154278,-0.03214 0.01286,-0.167134 -0.282847,-0.05785 -0.045,0.17999 -0.09643,0.10285 -0.192852,-0.03857 -0.179989,0.07714 -0.199276,0.147848 -0.321413,0.06428 -0.173565,0.205701 -0.353555,-0.03857 0,-0.205701 0.244274,-0.295702 -0.07714,-0.08999 -0.109281,0.03214 -0.08356,0.160703 -0.154279,-0.05143 -0.269984,-0.07071 -0.17999,-0.09 -0.01286,-0.237849 -0.212132,-0.122137 -0.0064,-0.09642 0.186421,-0.05143 -0.01286,-0.08356 -0.212131,-0.05785 0.05785,-0.167134 0.10285,-0.045 -0.06428,-0.179969 0.045,-0.115706 0.134993,0.09643 0.08356,0.179989 0.134992,0.128568 0.167134,0.07071 0.115706,0.0064 0.05143,-0.122137 0.045,-0.109281 -0.08999,-0.147848 -0.167134,-0.154278 -0.134992,-0.02571 -0.154279,0.03214 -0.07714,0.0064 -0.08357,-0.115706 0.134992,-0.160703 0.01286,-0.173565 0.115706,-0.05142 0.045,-0.269991 0.045,-0.07714 0.122136,-0.05143 0.08356,0.05143 0.09643,0.03214 0.05143,-0.09643 0.05143,-0.122137 -0.08357,-0.134992 -0.141423,-0.03857 -0.160703,0.045 -0.045,-0.167134 -0.03214,-0.276416 0.128561,-0.237842 0.10285,-0.199276 -0.02571,-0.462836 -0.237849,0.115706 -0.160703,0.109281 -0.134992,0.269984 -0.10285,0.10285 -0.302126,0.05785 -0.289271,0.09 -0.186421,0.173565 -0.01285,0.109281 0.08356,0.09 0.115705,-0.05785 0.109281,0.154279 0,0.147848 -0.109281,-0.0064 -0.224987,-0.07714 0.01929,0.379265 -0.07714,0.231418 -0.0064,0.404977 0.07714,0.167134 0.167134,0.192845 0.109281,0.224993 0.02571,0.469261 0.128561,0.2057 -0.08356,0.289271 0.128561,0.282846 -0.01929,0.173558 0.218562,0.128568 -0.09643,0.05142 -0.173559,-0.07714 -0.141423,0.02571 -0.07071,0.173558 0.0064,0.122137 -0.192845,0.01286 -0.134992,0.122137 -0.05143,-0.257129 -0.539976,0.115706 -0.122136,0.276415 -0.141424,-0.109281 -0.250704,0.03214 -0.36641,0.03857 -0.218556,0.28927 -0.0064,0.147848 0.09643,0.115706 0.10285,0.05143 -0.08357,0.231418 -0.334268,0.295702 -0.08996,-0.08356 0.07071,-0.237842 0.045,-0.141423 -0.115706,-0.160703 -0.147847,0.045 -0.09,0.167134 -0.06428,0.334268 -0.06428,0.26356 -0.160703,0.199276 -0.250704,0.2057 0.167134,0.122137 0.05785,0.08999 -0.08356,0.05143 -0.257136,-0.05142 -0.147847,0.160703 -0.276415,0.160703 -0.269985,0.173565 -0.411407,0.10285 -0.128568,0.09643 -0.05303,0.276415 0,0.321413 -0.19124,0.236438 -0.308558,0.194256 -0.282839,0.109281 -0.134992,0.045 -0.05785,0.160703 0.109281,0.10285 -0.05143,0.09 -0.160703,0.06428 -0.392121,-0.03214 -0.250705,-0.07071 -0.179989,-0.10285 -0.173565,-0.192845 -0.134993,0.0064 -0.045,0.147848 0.109281,0.167134 0.141424,0.353554 0.045,0.314982 -0.134992,0.08356 -0.186421,0 -0.282037,0 -0.283649,0.03214 -0.10285,-0.115706 -0.122137,-0.122137 -0.295702,0.09 -0.250704,0.07714 -0.218563,0 -0.257128,0.102851 -0.05143,0.167134 0.09643,0.03214 0.224987,-0.03214 0.02571,0.179989 -0.173565,0.154279 0.115705,0.167134 0.186421,-0.03214 0.250704,0.03214 0.186421,0.109281 0.109281,0.09 0.353555,-0.03214 0.160703,0.186414 0.01286,0.147847 0.154279,0.109288 0.09643,0.237842 -0.115706,0.141424 0.173565,0.192851 0.167134,0.147848 0.231418,0.115705 0.128561,0.173565 0.01286,0.392121 0.192851,0.224994 0.01286,0.160703 -0.154279,-0.05785 -0.08357,0.05785 -0.03857,0.340699 0.02571,0.327837 -0.07714,0.173565 -0.06428,0.462836 c 0,0 -0.07714,0.321413 -0.08356,0.340699 -0.0064,0.01929 -0.321413,0.218556 -0.321413,0.218556 l -0.36641,-0.05785 -0.790673,-0.02571 -0.2057,-0.045 -0.359979,0.01286 -0.321413,-0.09642 -0.385697,-0.09 -0.649256,0.06428 -0.289271,0.03214 -0.359979,-0.17999 -0.160703,0 -0.231418,0.353555 -0.276415,0.03214 -0.308557,0.173565 0.08357,0.186421 0.03214,0.192845 0.192852,0 -0.03857,0.437125 -0.045,0.321413 0.160703,0.392121 -0.08357,0.55283 -0.045,0.334268 -0.07071,0.392121 -0.18642,0.417832 -0.06428,0.08357 -0.07714,0.347124 0.199276,0.06428 -0.01929,0.160703 0.141423,0.03857 0.10285,-0.122136 0.02571,0.340699 -0.045,0.36641 -0.045,0.424263 0.0064,0.134992 0.205701,0 0.404976,-0.045 0.269984,0.045 0.289271,-0.05785 0.411408,0.115712 0.10285,0.347124 0.167134,0.308557 0.314982,0.128561 0.167134,-0.205707 0.250704,-0.179989 0.173565,-0.02571 0.212132,-0.160703 0.347123,0.0064 0.347124,-0.01286 0.347123,-0.01929 0.314982,-0.01929 0.17999,-0.192852 0.212131,-0.327837 0.237842,-0.147848 0.224987,0.02571 0.09643,-0.257128 0.167134,-0.314989 0.340699,-0.36641 -0.327844,-0.462836 0.186421,-0.353548 0.398552,-0.71354 0.289271,-0.392121 0.302126,-0.141416 0.28284,-0.05143 0.282846,-0.205707 0.430694,-0.224994 0.167134,-0.192845 -0.01285,-0.340699 -0.128568,-0.411414 0.07714,-0.263553 0.417832,-0.392121 0.591397,-0.05143 0.045,0.2057 0.327844,-0.01286 0.404976,0.212124 0.482116,-0.05785 0.559255,-0.494977 0.424263,-0.134992 0.212132,-0.276416 0.334268,-0.231418 0.276415,0.134992 0.584966,0.327837 0.09,0.398552 0.141416,0.302127 0.02571,0.173558 0.244273,0.224994 0.186421,0.237842 0.26356,0.122137 0.179989,0.218562 0.218563,0.263553 0.289271,0.244274 0.321412,0.167134 0.424263,0.10285 0.09643,0.192852 0.218562,0.147847 0.134993,0.09643 0.276415,0.03214 -0.03857,0.302119 0.2057,0.128568 0.302127,0.147848 0.115705,0.340699 0.167134,0.36641 0.03214,0.276415 -0.141423,0.134993 -0.07714,0.173558 -0.109282,0.302126 0.08356,0.07714 0.147848,0.0064 0.192851,-0.26356 0.09,-0.263553 0.05142,-0.186421 0.167134,-0.128561 0.154278,-0.03214 0,-0.179989 -0.07714,-0.212132 -0.18642,-0.07071 -0.141424,-0.09642 0,-0.167141 0.347124,-0.565679 0.08356,-0.01929 0.09643,0.08357 0.160703,0.134992 0.212132,0.0064 0.09,0.10285 0.05143,0.147848 0.141423,0.10285 0.07071,-0.01285 0.045,-0.154272 -0.05143,-0.173565 -0.186421,-0.173566 -0.302126,-0.224993 -0.295702,-0.212125 -0.488547,-0.192852 -0.372841,-0.205707 0.02571,-0.160703 0.160703,-0.109281 -0.05143,-0.06428 -0.179989,-0.045 -0.160703,0.05785 -0.289271,-0.05785 -0.282846,-0.199276 -0.334268,-0.353555 -0.218556,-0.404983 -0.045,-0.237842 -0.167135,-0.282847 -0.160703,-0.09642 -0.224986,-0.218562 -0.269985,-0.128561 -0.09643,-0.244274 -0.167053,-0.154231 0.06428,-0.212132 0.141423,-0.154279 -0.07071,-0.212131 -0.07714,-0.173565 0.06428,-0.173559 0.199276,-0.08999 0.05785,0.05143 0.244273,-0.134992 0.237849,-0.09642 0.250705,0.05785 -0.07714,0.2057 -0.045,0.173565 0.109281,0.218556 0.10285,0.160703 0.160703,-0.128561 0.05785,-0.250704 0.09643,-0.160703 0.128568,0.199276 0.154278,0.10285 0.102851,0.141423 -0.0064,0.257129 0.06428,0.212131 0.128561,0.269984 0.192852,0.237849 0.173565,0.218556 0.141417,0.160703 0.36641,-0.0064 0.295702,0.212131 0.192845,0.199276 -0.125353,0.0675 0.154279,0.125352 0.36641,0.06749 0.347124,0.241064 0.241057,0.134992 0.192845,0.308558 0.279631,0.144632 -0.04821,0.327837 -0.01929,0.327843 0.04821,0.173566 -0.173565,0.35677 0.05785,0.173558 0.221778,0.07714 0.192845,0.221771 -0.178385,0.130172 0.125353,0.269991 0.173565,0.279624 0.260344,0.07232 0.115706,0.197664 0.178385,0.0916 0.07232,0.231418 0.197665,0 0.284451,-0.04821 0.429083,0.0675 0.327843,0.106065 0.0096,0.144632 -0.168738,0.08196 -0.245878,-0.139812 -0.226598,-0.01929 -0.125352,-0.120525 -0.130172,0.06267 -0.05786,0.09642 -0.154278,-0.01446 -0.178386,0.183205 0.168739,0.183205 0.202485,0.202491 -0.08196,0.134992 0.130172,0.337484 0.159098,-0.139812 0.0916,-0.0048 0.08678,0.207311 0.06267,0.197665 0.0916,-0.05303 0.06267,-0.192851 0.134993,-0.0048 0.130172,0.221771 0.01446,-0.154278 -0.06267,-0.226592 -0.06749,-0.197665 -0.0916,-0.178385 0.07714,-0.0675 0.139812,0.05785 0.149459,0.08196 0.02411,-0.0916 -0.130172,-0.183212 -0.07232,-0.106066 0.139812,-0.09642 0.149459,-0.01929 0.154278,0.0675 0.106066,0.06749 0.08678,-0.01929 0.02411,-0.192851 0.120525,-0.144632 -0.0096,-0.202485 -0.09643,-0.0675 -0.197665,-0.0675 -0.168739,-0.188025 -0.120525,-0.04821 -0.07714,0.04821 0.08196,0.106066 0.183206,0.173565 -0.0096,0.106066 -0.115706,0.0048 -0.04821,-0.0916 -0.144632,-0.09643 -0.130172,-0.134992 0.06749,-0.120533 -0.06267,-0.125352 0.03375,-0.149459 -0.03375,-0.06749 0.110885,0.0916 0.110886,-0.02411 -0.07714,-0.149452 -0.197665,-0.202484 -0.07714,-0.197665 -0.09642,-0.149459 -0.04821,-0.178385 0.05303,-0.168739 0.115706,-0.05786 0.139812,-0.03375 0.07714,0.134993 0.159099,0.159098 0.168739,0.03857 0.106065,-0.0675 0.07714,-0.106059 -0.03375,-0.178385 0.09643,-0.120532 0.197665,-0.07232 0.216951,-0.05303 0.231418,-0.02893 0.154279,-0.0675 0.173558,0.07714 0.197665,0.06267 0.226598,0.04821 0.154279,-0.139812 0.0096,-0.236238 0.159098,-0.05785 -0.120525,-0.303737 0.385696,-0.351944 0.578542,0.08196 -0.06267,-0.212131 -0.197665,-0.178385 0.05303,-0.139812 0.226611,-0.347124 0.04339,-0.323017 0.188025,-0.106066 0.154279,0.0048 0.01929,-0.491755 0.0096,-0.327844 0.250705,-0.221771 0.168738,-0.212132 0.212131,0 0.06267,-0.313377 0.05785,-0.221771 -0.154279,-0.0916 0.05785,-0.139812 0.08678,-0.115712 0.06749,0.09161 0.274811,-0.183212 0.106066,-0.173558 -0.207312,-0.221778 0.03857,-0.110886 0.207311,0.139812 0.101246,0.05785 0.06267,-0.202485 0.02411,-0.130179 0.163919,-0.03375 0.298917,0.0096 0.178385,-0.02411 0.04339,-0.168745 0.144639,0.06268 0.04821,0.110886 0.173565,0.0916 -0.07714,0.154279 -0.134992,0.04821 0.110885,0.139812 0.178385,0.06268 0.154279,-0.02411 0.192845,-0.03857 0.188025,0.03857 0.207311,0.03857 0.0064,0.208916 -0.154279,0.07071 -0.224987,0.08357 -0.26356,0.231417 0.147848,0.05143 0.173558,0.109281 0.05143,0.147848 0.192852,-0.01929 0.03857,0.186421 -0.045,0.218556 0.07071,0.154278 0.07071,0.10285 0.147848,-0.01929 0.192851,-0.07714 0.128561,-0.141424 0.05143,-0.109281 0.147847,-0.0064 0.205701,-0.05142 0.10285,-0.08357 0.07714,-0.109281 0.173565,-0.05143 0.154279,0.06428 0.199276,-0.0064 0.115712,0 0.02571,-0.179989 -0.109281,-0.186414 -0.199276,0.115705 -0.199276,0.05785 -0.109281,0.05786 -0.173566,-0.03857 -0.122136,-0.257129 -0.07714,-0.134992 -0.224986,-0.147848 0.01929,-0.231418 0.141423,-0.141423 0.289271,-0.167134 0.045,-0.237849 0.147848,0.128568 0.160703,-0.09643 0.302126,-0.05785 0.321413,-0.09 0.26356,-0.09642 0.257129,-0.154272 0.250704,-0.09643 0.244273,0.01929 0.359979,-0.109281 0.250705,-0.05785 0.08358,0.147848 -0.147848,0.224993 -0.34713,0.115713 -0.03214,0.134992 -0.17999,-0.03857 -0.26356,0.09 0.07714,0.192852 0.212131,0.08357 -0.05786,0.321413 -0.173559,0.01929 -0.07714,0.257129 -0.154272,0.26356 -0.10285,0.05143 -0.289271,-0.045 -0.115712,0.186421 0.06428,0.03857 0.128561,-0.10285 0.08357,0.179989 0.10285,0.244274 0.269984,0.10285 0.282847,0.186414 0.218556,0.09 0.282846,0.147847 0.218556,0.244274 0.218556,0.257135 0.173565,0.160703 0.237842,-0.109288 0.739251,0.276415 0.64925,0.03214 0.758538,0.359979 0.10285,0.186414 0.28284,0.01929 0.115712,-0.154279 0.398552,0.03214 0.514258,0.263553 -0.115706,0.199283 0.488547,0.244267 0.385696,0.205707 0.173559,0.28927 0.411414,0.05143 0.411407,-0.44355 -0.269984,-0.404983 -0.411414,-0.584965 0.0064,-0.417839 0.115706,-0.424263 -0.154272,-0.045 -0.26356,-0.372841 -0.276416,-0.01929 0.122137,-0.289271 0.597828,-0.83567 0.141423,-0.07714 0.01929,0.115712 0.05785,-0.07714 0.09642,-0.147855 0.160703,0.134993 0.154278,-0.07071 0.08357,-0.237849 0.134992,-0.321412 -0.35677,-0.276416 0.327844,-0.154278 -0.520689,-0.877452 -0.462829,-0.183206 -0.04821,0.173559 -0.212132,-0.125352 0.04821,-0.433903 -0.424263,-0.134992 0.289271,-0.829246 0.0096,-0.655681 0.395336,-0.530329 0.520689,0.578542 0.35677,-0.134992 -0.192852,-0.588182 0.559262,-0.27963 -0.0096,-0.241058 0.829245,-0.539969 0,-0.192851 0.424263,0.154278 0.0096,0.163919 0.202485,0.01929 0.08678,-0.163918 0.395336,-0.173559 0.07714,0.337484 0.511042,-0.03857 0.72318,0.626754 0.03857,0.385697 0.144632,-0.106066 -0.04821,-0.424263 0.713534,0.530329 0.491756,-0.578542 0.173565,0.09643 0.192851,-0.134992 0.298911,0.260344 0.163925,-0.269984 0.424263,0 0.260344,0.414623 0.356771,0.04821 0.04821,0.202485 0.356771,-0.36641 0.337483,0.212131 0.233524,-0.08227 z" style="fill:#fff"/><polygon id="polygon16" points="75.745 23.376 76.167 22.725 76.876 22.725 77.68 23.386 77.335 24.047 76.655 24.66 76.205 24.66 75.86 24.449 75.63 24.047" transform="matrix(0.66850952,0,0,0.66850952,-1.9556956,0.45167241)" style="fill:#fff"/><polygon id="polygon18" points="85.822 21.01 85.553 20.618 86.013 20.809 85.822 20.33 86.224 19.947 86.741 20.752 87.028 20.963 87.641 21.652 87.373 22.074 86.856 22.074 86.732 21.671 86.339 21.556 86.128 21.499" transform="matrix(0.66850952,0,0,0.66850952,-1.9556956,0.45167241)" style="fill:#fff"/><polygon id="polygon20" points="39.996 52.346 39.678 52.288 39.553 52.413 39.669 52.98 40.207 53.249 40.534 53.413 40.89 52.98 40.707 52.778 41.169 52.413 40.851 51.855 40.486 51.961 40.486 52.249" transform="matrix(0.66850952,0,0,0.66850952,-1.9556956,0.45167241)" style="fill:#fff"/><polygon id="polygon22" points="40.601 53.826 40.486 54.278 39.755 54.038 39.755 53.788 40.14 53.898 40.409 53.769 40.659 53.519 40.851 53.605" transform="matrix(0.66850952,0,0,0.66850952,-1.9556956,0.45167241)" style="fill:#fff"/><polygon id="polygon24" points="37.203 72.589 37.203 72.244 37.586 71.976 37.988 71.746 37.988 72.283 38.103 72.474 37.969 72.589 37.988 73.03 37.758 73.547 37.432 73.375" transform="matrix(0.66850952,0,0,0.66850952,-1.9556956,0.45167241)" style="fill:#fff"/><polygon id="polygon26" points="37.107 75.846 37.203 75.539 36.819 74.409 37.203 74.371 37.873 73.911 38.103 74.103 38.333 74.716 38.103 74.888 38.218 75.329 38.199 75.961 38.007 76.382 37.567 76.382 37.394 76.612 37.107 76.401" transform="matrix(0.66850952,0,0,0.66850952,-1.9556956,0.45167241)" style="fill:#fff"/><polygon id="polygon28" points="43.428 78.595 43.543 78.106 43.85 77.608 43.218 77.742 42.796 77.896 42.528 77.819 42.241 77.876 41.992 77.857 41.647 77.608 41.015 77.857 41.015 78.164 41.302 78.432 41.647 78.432 42.087 78.777 42.432 78.949 42.796 79.045 43.007 79.332 43.409 79.332 43.658 78.987" transform="matrix(0.66850952,0,0,0.66850952,-1.9556956,0.45167241)" style="fill:#fff"/><polygon id="polygon30" points="47.063 49.22 47.236 48.586 47.121 48.47 46.703 48.73 46.472 49.22 46.602 49.869 46.962 49.639" transform="matrix(0.66850952,0,0,0.66850952,-1.9556956,0.45167241)" style="fill:#fff"/><polygon id="polygon32" points="51.333 47.446 51.217 47.201 50.539 47.201 50.251 47.475 50.15 47.735 50.453 47.98 51.044 47.735" transform="matrix(0.66850952,0,0,0.66850952,-1.9556956,0.45167241)" style="fill:#fff"/><polygon id="polygon34" points="51.246 46.624 50.849 46.884 50.453 46.624 50.871 46.393" transform="matrix(0.66850952,0,0,0.66850952,-1.9556956,0.45167241)" style="fill:#fff"/><polygon id="polygon36" points="47.885 43.999 48.058 44.36 48.477 44.179 48.347 43.739 48.001 43.84" transform="matrix(0.66850952,0,0,0.66850952,-1.9556956,0.45167241)" style="fill:#fff"/><polygon id="polygon38" points="52.535 81.068 52.438 80.972 52.169 80.876 51.861 80.972 51.861 81.183 52.506 81.241 52.919 81.539 53.958 81.491 54.381 81.299 54.198 81.255 53.842 81.328 53.756 81.145 52.948 81.01" transform="matrix(0.66850952,0,0,0.66850952,-1.9556956,0.45167241)" style="fill:#fff"/><polygon id="polygon40" points="31.861 75.712 32.101 75.702 32.043 75.943 31.861 76.116 31.495 76.029 31.476 75.923 31.207 75.875 31.774 75.452" transform="matrix(0.66850952,0,0,0.66850952,-1.9556956,0.45167241)" style="fill:#fff"/><polygon id="polygon42" points="44.525 23.359 44.265 23.791 44.034 24.037 43.919 24.224 43.847 24.037 44.049 23.604 44.452 23.157" transform="matrix(0.66850952,0,0,0.66850952,-1.9556956,0.45167241)" style="fill:#fff"/><polygon id="polygon44" points="48.736 20.719 48.953 20.532 49.097 20.719 48.917 21.08 48.736 20.979" transform="matrix(0.66850952,0,0,0.66850952,-1.9556956,0.45167241)" style="fill:#fff"/><polygon id="polygon46" points="50.828 19.385 50.611 19.19 50.28 19.392 50.525 19.839 50.77 19.71 51.116 19.616 51.304 19.392 51.52 18.931 51.232 19.104 51.044 19.032 50.9 19.133 50.972 19.306" transform="matrix(0.66850952,0,0,0.66850952,-1.9556956,0.45167241)" style="fill:#fff"/><polygon id="polygon48" points="53.568 18.094 53.698 18.397 53.972 18.246 54.059 17.95 53.727 17.95" transform="matrix(0.66850952,0,0,0.66850952,-1.9556956,0.45167241)" style="fill:#fff"/><polygon id="polygon50" points="51.65 19.479 51.289 19.695 51.174 19.984 51.174 20.33 51.304 20.33 51.736 19.839" transform="matrix(0.66850952,0,0,0.66850952,-1.9556956,0.45167241)" style="fill:#fff"/></svg>