<svg xmlns="http://www.w3.org/2000/svg" xmlns:svg="http://www.w3.org/2000/svg" id="svg2" width="52pt" height="52pt" x="0" y="0" version="1.1" viewBox="0 0 65 65" xml:space="preserve"><metadata id="metadata24"/><polygon id="polygon4" points="37.93 6.553 38.208 6.439 38.208 6.259 38.747 6.259 39.417 6.161 39.973 5.801 40.431 5.49 40.431 5.098 41.003 5 41.347 5.131 41.543 5.441 41.118 5.752 40.627 5.834 40.693 6.193 40.872 6.815 40.872 7.207 40.578 7.616 40.431 8.041 40.66 8.466 40.987 8.777 41.445 8.76 41.674 8.499 41.674 7.877 41.232 7.174 41.232 6.815 41.674 6.471 42.066 6.357 42.589 6.177 42.883 5.997 42.883 5.785 42.605 5.638 42.622 5.343 42.883 5.294 43.096 5.605 43.308 5.948 43.537 6.063 44.077 6.03 44.404 6.259 44.649 6.553 44.862 7.044 45.09 7.207 45.679 7.125 46.415 7.044 47.199 7.076 47.494 7.371 47.968 7.599 48.491 7.714 49.129 7.518 49.962 7.125 50.633 6.995 51.254 6.847 51.532 6.896 51.532 7.027 51.058 7.158 50.96 7.289 51.205 7.55 51.532 7.698 51.875 7.877 52.257 7.877 52.464 7.877 52.742 8.155 53.101 8.351 53.199 8.891 53.297 9.349 54.033 9.349 54.458 9.61 54.883 9.921 55.194 10.215 55.472 10.33 55.733 10.673 55.832 11.049 56.42 11.409 56.731 11.883 57.172 12.21 57.712 12.357 58.169 12.553 58.644 12.422 59.396 12.422 59.87 12.226 60.589 12.439 61.357 12.733 62.126 12.945 62.714 13.322 63.336 13.779 63.548 14.139 63.859 14.27 64.153 14.695 64.153 15.234 64.3 15.643 64.431 16.117 64.676 16.738 64.938 17.016 65.248 17.016 65.461 17.49 65.461 18.112 65.281 18.488 65.003 18.717 65.003 18.226 64.807 18.422 64.513 18.798 63.99 19.027 63.712 19.403 63.417 19.861 63.45 20.09 63.744 19.779 64.055 19.763 64.153 20.09 64.333 19.763 64.578 19.567 64.823 19.174 65.265 18.782 65.772 18.684 65.543 18.945 65.87 19.191 66.082 18.962 66.556 19.256 67.096 19.403 67.096 19.779 66.932 20.286 66.605 20.629 66.311 20.777 66.213 21.038 66.687 20.956 67.096 20.597 67.456 20.041 67.717 19.747 68.093 19.714 68.24 19.91 68.518 19.747 68.731 19.91 69.221 20.074 69.728 20.172 70.13 20.297 70.409 20.593 70.926 20.724 71.254 20.88 71.369 21.298 71.821 21.66 71.657 21.906 71.878 22.062 72.247 22.012 72.879 21.791 73.167 21.733 73.626 22.062 74.192 22.177 74.988 22.324 75.308 22.398 75.694 22.283 76.777 22.291 77.147 22.562 77.656 22.858 78.287 23.26 78.862 23.76 79.371 24.286 80.158 24.712 81.069 24.778 81.718 24.704 81.89 25.114 82.169 25.672 82.235 26.427 82.62 26.665 82.686 27.248 82.391 27.823 82.284 28.52 81.931 29.3 81.578 29.792 81.053 30.457 80.191 31.212 79.789 31.663 79.551 32.18 79.124 32.943 78.813 33.444 78.566 33.731 78.263 33.387 78.058 33.501 78.14 33.813 77.894 34.117 77.902 34.642 77.77 35.405 77.795 36.111 77.811 36.587 77.902 37.12 77.762 37.687 77.573 38.376 77.549 39.271 77.368 39.591 77.04 39.985 76.991 40.641 76.925 41.33 76.794 41.741 76.474 42.217 76.31 42.578 75.784 43.103 75.538 43.546 75.44 43.907 75.571 44.367 75.391 44.629 74.931 44.752 74.512 45.122 74.398 45.483 73.864 45.483 72.781 45.54 72.001 45.631 71.501 45.754 71.172 46.09 70.713 46.41 70.385 46.648 70.155 46.541 69.851 46.714 69.096 47.091 68.358 47.699 67.742 48.175 67.422 48.692 66.905 48.692 66.872 49.118 66.946 49.496 66.823 49.877 66.872 50.505 66.995 50.842 67.053 51.112 66.93 51.474 66.856 52.212 66.774 52.631 66.528 52.819 66.052 53.115 65.649 53.665 65.42 54.165 65.215 54.863 64.919 55.47 64.484 56.127 64.016 56.652 63.491 57.128 62.941 57.464 62.695 57.875 62.588 58.4 62.367 58.556 62.096 58.843 61.801 59.368 61.489 59.795 61.21 60.312 60.742 60.689 60.225 60.911 59.897 61.108 59.626 61.026 59.142 60.895 58.682 60.936 58.313 61.108 57.829 60.821 57.345 60.517 56.466 60.378 56.171 60.156 55.867 60.23 55.835 60.665 56.146 60.911 56.54 61.19 56.967 61.444 57.312 61.846 57.172 62.134 57.033 62.437 57.148 62.798 57.418 63.127 57.812 63.332 57.821 63.849 57.55 64.432 57.074 65.006 56.869 65.457 56.425 65.909 55.621 66.368 54.636 66.508 53.66 66.762 52.782 66.877 51.895 66.754 51.584 66.573 51.452 66.705 51.575 66.877 51.477 67.296 51.731 67.665 51.469 68.264 51.329 68.871 51.444 69.528 51.346 69.799 50.738 69.971 49.832 70.045 49.401 69.848 48.826 69.478 48.4 69.528 48.227 70.135 48.359 70.595 48.416 71.711 48.908 71.842 49.146 72.055 49.483 71.973 49.688 71.629 49.901 71.588 50.016 72.055 50 72.425 49.832 72.671 49.557 72.581 49.376 72.318 49.056 72.269 48.884 72.162 48.605 72.31 48.523 72.581 48.711 72.794 49.081 72.95 48.793 73.13 48.457 73.344 48.121 73.976 48.079 74.427 48.121 75.001 47.743 75.568 47.628 76.035 47.16 76.117 46.643 76.397 46.102 76.561 45.831 76.914 45.601 77.406 45.453 77.898 45.585 78.465 45.962 78.867 46.348 79.252 46.627 79.482 47.349 79.589 47.636 80.016 47.48 80.623 47.234 81.173 46.602 81.764 45.929 82.305 45.544 82.781 45.371 83.979 44.969 84.546 44.321 84.874 43.771 85.547 43.574 86.31 43.812 86.482 43.927 87.114 44.075 87.648 44.37 88.189 44.584 88.657 44.444 88.731 44.058 88.485 43.623 88.419 43.32 88.846 42.967 88.846 42.507 89.133 41.949 89.453 41.769 90.003 41.769 90.832 41.654 91.349 41.465 91.472 41.104 91.472 40.702 91.217 40.103 90.864 39.405 90.421 39.627 90.167 39.282 90.036 39.052 89.658 39.167 89.305 38.765 89.223 38.708 89.002 38.552 89.002 38.478 89.182 38.322 89.182 38.388 88.961 38.462 88.714 38.347 88.632 38.035 88.78 38.256 88.37 38.273 88.197 37.862 87.713 37.904 87.582 38.273 87.779 38.125 87.492 38.297 87.303 38.445 87.057 38.314 86.696 38.388 86.458 37.994 86.261 37.838 86.523 37.37 87.065 37.05 87.057 36.993 86.843 37.395 86.531 37.616 86.441 37.477 86.244 37.255 86.269 37.198 86.08 37.304 85.809 37.846 85.653 37.936 85.407 37.583 85.268 37.772 85.087 37.649 84.874 37.969 84.48 38.462 84.513 38.552 84.266 38.084 83.996 37.936 83.741 37.83 84.102 37.583 84.414 37.386 84.332 37.247 84.004 36.878 84.086 36.648 83.873 36.812 83.577 36.697 83.265 36.984 83.109 36.623 82.74 36.623 81.632 36.763 81.23 37.009 81.353 37.107 81.517 37.14 81.156 37.149 80.877 37.304 80.771 37.46 81.05 37.592 81.501 37.69 82.018 37.789 82.33 38.051 82.248 37.977 81.944 37.805 81.378 37.674 81.058 37.821 80.926 38.248 81.082 38.773 81.123 38.823 80.91 38.626 80.771 38.068 80.746 37.805 80.738 37.567 80.467 37.961 79.966 38.256 79.622 38.084 79.195 37.912 78.908 37.304 78.883 37.025 78.661 36.812 78.744 36.919 79.096 36.5 79.047 36.574 78.596 36.968 78.3 37.395 77.939 37.386 77.701 37.272 77.554 37.797 77.406 37.789 76.799 38.1 77.151 38.248 77.127 38.183 76.692 38.125 76.487 38.33 76.355 38.141 76.093 37.928 75.715 38.207 75.502 37.945 75.354 37.961 75.141 38.133 75.297 38.24 75.141 38.158 74.911 37.92 74.911 37.92 74.525 38.355 74.698 38.642 74.977 38.741 75.486 38.519 75.814 38.421 76.068 38.552 76.249 38.535 76.848 38.437 77.16 38.519 77.431 38.79 77.554 38.905 77.168 39.044 76.741 39.126 76.536 39.003 76.241 39.249 75.994 39.217 75.715 39.036 75.535 39.315 75.239 39.504 75.01 39.438 74.788 39.258 74.558 39.676 74.148 39.619 73.885 39.43 73.639 39.651 73.098 39.75 72.794 39.66 72.285 39.955 71.891 40.045 71.514 39.75 71.341 39.898 70.898 39.578 70.627 39.389 70.767 39.102 71.013 38.855 71.136 38.847 71.399 38.995 71.842 38.732 72.211 38.7 72.671 38.782 72.917 38.732 73.163 38.511 73.516 37.928 73.221 38.207 72.507 38.232 71.661 38.379 71.153 38.741 70.98 38.675 70.693 38.503 69.979 38.511 69.503 38.642 68.822 38.749 68.568 39.02 68.174 39.258 67.632 39.175 66.811 38.913 66.229 38.946 65.334 38.782 65.006 38.913 64.448 39.29 64.317 39.372 63.718 39.717 63.028 39.939 62.339 40.111 61.896 40.48 61.165 40.62 60.14 41.03 59.524 41.038 58.679 41.268 58.145 41.244 57.095 41.12 56.816 40.997 55.979 41.047 54.912 41.408 54.559 41.408 53.796 41.235 53.492 41.276 53.066 41.564 52.179 41.867 51.293 42.007 50.784 42.105 49.315 42.351 48.716 42.278 48.236 42.195 47.822 42.343 47.329 42.343 46.665 42.187 46.394 42.195 45.975 42.606 45.532 42.598 44.728 42.704 44.318 42.811 43.284 42.671 42.496 42.721 41.519 42.565 41.06 42.524 40.157 42.212 39.943 41.358 39.254 41.194 38.819 40.423 38.45 39.52 37.875 38.363 37.416 38.215 37.112 37.682 36.973 37.124 36.595 36.558 35.922 36.139 35.635 35.803 34.88 35.885 34.33 35.573 33.879 35.105 32.984 34.637 32.123 34.153 31.425 33.792 30.637 33.357 29.505 32.922 28.643 32.413 28.003 32.028 27.281 31.855 26.854 31.338 26.403 30.698 26.165 30.436 25.845 30.641 25.476 30.345 24.942 30.214 24.368 30.419 23.728 31.1 23.079 31.609 22.71 31.757 22.25 31.683 21.939 31.199 21.914 30.715 21.668 30.698 21.184 30.838 20.371 31.125 19.436 31.601 18.795 31.658 18.221 31.954 17.958 32.446 17.802 32.84 17.597 32.791 17.162 33.185 17.023 33.103 16.473 33.439 16.12 33.759 16.235 34.104 16.079 34.391 15.39 34.687 14.955 34.555 14.339 34.621 13.773 34.449 12.797 34.646 12.386 34.506 12.115 34.563 11.738 34.481 11.352 33.941 10.755 34.693 9.807 34.595 9.349 34.889 9.676 35.036 10.052 35.281 10.052 35.199 9.431 35.723 8.94 36.082 8.482 36.605 8.204 36.605 7.665 36.753 6.946 37.407 6.553" transform="matrix(0.66666667,0,0,0.66666667,-3.1977015,-0.59952005)" style="fill:#fff"/><polygon id="polygon6" points="45.728 91.747 46.464 92.335 46.856 92.744 47.461 93.055 47.837 93.153 48.229 93.022 48.229 93.3 47.772 93.676 47.412 93.545 46.627 93.807 46.186 94.035 45.859 94.395 45.744 94.15 45.156 94.15 44.976 93.774 44.453 93.856 44.633 94.215 44.535 94.395 44.911 94.542 44.992 95 44.6 94.608 44.257 94.673 43.979 94.281 43.733 94.33 43.488 94.559 43.03 94.264 42.981 93.905 43.243 93.545 42.802 93.431 42.393 93.496 42.148 93.954 41.837 93.741 42.115 93.512 41.919 93.251 41.723 92.989 41.396 92.891 40.872 92.956 40.627 92.793 40.627 92.662 40.954 92.793 41.232 92.629 41.396 92.45 41.367 92.227 41.088 92.177 40.776 92.333 40.627 92.153 40.267 91.808 39.972 91.882 39.693 91.857 39.528 91.587 39.413 91.332 39.118 91.086 38.814 90.988 38.749 90.717 38.749 90.397 37.674 89.806 37.674 89.609 38.224 89.847 38.962 90.274 39.372 90.651 39.75 90.963 40.095 91.119 40.259 91.357 40.431 91.677 40.841 91.693 41.301 91.808 41.621 92.016 41.703 92.309 41.523 92.58 41.81 92.645 42.081 92.506 42.154 92.35 41.941 92.219 41.916 91.636 42.146 91.299 42.343 91.127 42.376 91.529 42.409 91.94 42.483 92.177 42.36 92.383 42.458 92.514 42.86 92.424 42.952 92.752 43.246 92.67 43.681 92.67 43.845 92.777 43.968 92.621 43.829 92.424 43.361 92.227 42.952 91.981 42.737 91.472 42.952 91.226 43.418 91.037 43.599 90.807 43.394 90.594 43.065 90.528 42.639 90.725 42.393 90.569 42.475 89.965 42.72 89.883 42.556 89.638 43.178 89.556 43.537 89.033 43.717 89.278 44.273 89.147 44.731 89.899 44.338 90.144 44.584 90.471 44.911 90.569 45.287 91.289" transform="matrix(0.66666667,0,0,0.66666667,-3.1977015,-0.59952005)" style="fill:#fff"/><polygon id="polygon8" points="36.943 84.496 36.878 84.595 36.878 85.104 36.73 85.653 36.952 85.752 37.157 85.12 37.378 84.857" transform="matrix(0.66666667,0,0,0.66666667,-3.1977015,-0.59952005)" style="fill:#fff"/><polygon id="polygon10" points="37.263 88.279 37.124 87.894 37.378 87.689 37.592 87.791 37.731 88.082 37.608 88.329 37.575 88.616" transform="matrix(0.66666667,0,0,0.66666667,-3.1977015,-0.59952005)" style="fill:#fff"/><polygon id="polygon12" points="53.986 87.446 53.783 87.508 53.524 87.508 53.611 87.754 53.672 87.902 53.081 88.16 53.475 88.407 53.918 88.025 54.312 87.902 54.731 87.25 54.891 87.003 54.509 87.077 54.238 87.003 53.986 87.2 53.746 87.003 53.5 87.003 53.5 87.151 53.746 87.225" transform="matrix(0.66666667,0,0,0.66666667,-3.1977015,-0.59952005)" style="fill:#fff"/><polygon id="polygon14" points="55.186 87.262 55.309 87.446 55.075 87.607 54.731 87.779 54.583 88.148 54.657 88.407 55.186 88.407 55.494 88 55.371 87.705 55.679 87.705 55.949 87.791 56.22 87.582 56.282 87.188 56.45 87.09 56.27 86.893 55.974 87.003 55.679 86.806" transform="matrix(0.66666667,0,0,0.66666667,-3.1977015,-0.59952005)" style="fill:#fff"/></svg>