<svg xmlns="http://www.w3.org/2000/svg" xmlns:svg="http://www.w3.org/2000/svg" id="svg5353" width="54" height="53.009" version="1.1" style="display:inline"><title id="title6157">Grenouille</title><metadata id="metadata5358"/><g id="layer2" transform="translate(-235.87927,-292.26402)" style="display:inline"><path style="fill:#fff;stroke:#666;stroke-linecap:butt;stroke-linejoin:miter;stroke-miterlimit:4;stroke-opacity:1;stroke-dasharray:none;stroke-width:1.6000000000000001" id="path5905" d="m 250.56221,328.8478 c -0.94896,-1.97305 -4.04116,-5.43311 -6.86046,-2.36916 -2.81929,3.06395 1.21723,10.50101 4.34496,10.47016 3.12773,-0.0309 3.46446,-6.12796 2.5155,-8.101 z"/><path id="path5907" d="m 275.4496,328.8478 c 0.94895,-1.97305 4.04116,-5.43311 6.86046,-2.36916 2.8193,3.06395 -1.21723,10.50101 -4.34496,10.47016 -3.12773,-0.0309 -3.46446,-6.12796 -2.5155,-8.101 z" style="fill:#fff;stroke:#666;stroke-linecap:butt;stroke-linejoin:miter;stroke-miterlimit:4;stroke-opacity:1;stroke-dasharray:none;stroke-width:1.6000000000000001"/><path style="fill:#fff;stroke:#666;stroke-linecap:round;stroke-linejoin:round;stroke-miterlimit:4;stroke-opacity:1;stroke-dasharray:none;stroke-width:1.6000000000000001" id="path5885-9" d="m 277.92931,332.20291 c 1.82215,-0.7889 3.69727,0.47142 5.03151,2.24424 1.64266,0.23292 3.74574,1.14097 2.94405,2.71703 -1.23323,1.99524 -2.72843,-0.24822 -4.15042,-0.53485 0.53377,1.02413 1.4351,2.86063 0.0561,3.55448 -1.37895,0.69385 -2.00005,-1.44308 -2.86031,-2.14012 0.0454,0.88516 0.61205,3.7115 -2.1729,3.40784 -2.07103,-0.43274 -1.37951,-2.6891 -0.49682,-3.75733 0.40493,-0.59965 1.33774,-1.56964 1.16022,-2.07956 -0.6867,-1.5844 -1.33363,-2.62284 0.48853,-3.41173 z"/><path id="path6071" d="m 247.82922,332.20291 c -1.82215,-0.7889 -3.69727,0.47142 -5.03151,2.24424 -1.64266,0.23292 -3.74574,1.14097 -2.94405,2.71703 1.23323,1.99524 2.72843,-0.24822 4.15042,-0.53485 -0.53377,1.02413 -1.4351,2.86063 -0.0561,3.55448 1.37895,0.69385 2.00005,-1.44308 2.86031,-2.14012 -0.0454,0.88516 -0.61205,3.7115 2.1729,3.40784 2.07103,-0.43274 1.37951,-2.6891 0.49682,-3.75733 -0.40493,-0.59965 -1.33774,-1.56964 -1.16023,-2.07956 0.68671,-1.5844 1.33364,-2.62284 -0.48852,-3.41173 z" style="fill:#fff;stroke:#666;stroke-linecap:round;stroke-linejoin:round;stroke-miterlimit:4;stroke-opacity:1;stroke-dasharray:none;stroke-width:1.6000000000000001"/><path id="path5998" d="m 249.41811,324.75938 c -1.164,1.11174 -4.17023,3.36848 -2.79417,7.24203 1.37607,3.87355 10.12141,7.55063 16.08072,7.81227 5.95931,0.26163 14.75927,-3.56981 16.08072,-7.81227 1.32145,-4.24246 -2.38168,-5.22268 -4.33381,-6.50072 -4.80332,-2.76065 -20.50506,-3.6778 -25.03346,-0.74131 z" style="fill:#fff;fill-opacity:1;stroke:#666;stroke-width:1.59666705;stroke-linecap:butt;stroke-linejoin:miter;stroke-miterlimit:4;stroke-opacity:1;stroke-dasharray:none"/><path style="fill:#fff;stroke:#666;stroke-linecap:butt;stroke-linejoin:miter;stroke-miterlimit:4;stroke-opacity:1;stroke-dasharray:none;stroke-width:1.6000000000000001" id="path5883" d="m 249.41811,324.75938 c -1.164,1.11174 -4.17023,3.36848 -2.79417,7.24203 1.37607,3.87355 10.12141,7.55063 16.08072,7.81227 5.95931,0.26163 14.75927,-3.56981 16.08072,-7.81227 1.32145,-4.24246 -2.38168,-5.22268 -4.33381,-6.50072 -4.80332,-2.76065 -20.50506,-3.6778 -25.03346,-0.74131 z"/><path style="fill:none;stroke:#666;stroke-width:.97396696;stroke-miterlimit:4;stroke-opacity:1;stroke-dasharray:none" id="path5952" d="m 263.16798,329.60774 c -5.12191,0 -9.27564,3.30434 -9.27564,7.3796 0,0.23795 0.0172,0.47633 0.0449,0.70852 2.87352,1.19741 6.09874,1.99845 8.7667,2.11558 2.95451,0.12972 6.6063,-0.74672 9.69975,-2.18044 0.0229,-0.21147 0.0349,-0.42748 0.0349,-0.64366 0,-4.07526 -4.14874,-7.3796 -9.27065,-7.3796 z"/><path style="fill:#fff;stroke:#666;stroke-linecap:butt;stroke-linejoin:miter;stroke-miterlimit:4;stroke-opacity:1;stroke-dasharray:none;stroke-width:1.6000000000000001" id="path5373" d="m 251.58502,311.52986 c -3.11901,2.19736 -7.9832,2.86416 -7.07096,7.86929 0.91225,5.00512 11.51657,8.60838 18.36167,8.72464 6.8451,0.11626 17.52068,-3.69889 18.81787,-8.72464 1.29718,-5.02577 -3.01922,-5.5146 -6.15858,-7.86929 -3.13936,-2.35469 -8.35303,-4.95702 -12.65929,-4.84703 -4.30625,0.11 -8.17171,2.64967 -11.29071,4.84703 z"/><path style="fill:#fff;stroke:#666;stroke-linecap:round;stroke-linejoin:round;stroke-miterlimit:4;stroke-opacity:1;stroke-dasharray:none;stroke-dashoffset:0;stroke-width:5.24690388" id="path5928" d="m 266.1752,248.02821 c 0,21.33937 -18.2035,38.63834 -40.65864,38.63834 -22.45515,0 -40.65865,-17.29897 -40.65865,-38.63834 0,-21.33936 18.2035,-38.63833 40.65865,-38.63833 22.45514,0 40.65864,17.29897 40.65864,38.63833 z" transform="matrix(0.1596667,0,0,0.22749897,220.9062,248.42637)"/><path style="fill:#fff;stroke:#666;stroke-linecap:round;stroke-linejoin:round;stroke-miterlimit:4;stroke-opacity:1;stroke-dasharray:none;stroke-dashoffset:0;stroke-width:7.0565973" id="path5930" d="m 345.47216,240.19954 c 0,29.56827 -17.18591,53.53808 -38.3858,53.53808 -21.19988,0 -38.38579,-23.96981 -38.38579,-53.53808 0,-29.56827 17.18591,-53.53808 38.38579,-53.53808 21.19989,0 38.3858,23.96981 38.3858,53.53808 z" transform="matrix(0.1596667,0,0,0.12577519,220.9062,277.02039)"/><path style="fill:#000;fill-opacity:1;stroke:none;display:inline" id="path5954" d="m 247.48737,305.6069 c 0,5.99734 -3.05276,10.85914 -6.81853,10.85914 -3.76577,0 -6.81853,-4.8618 -6.81853,-10.85914 0,-5.99733 3.05276,-10.85914 6.81853,-10.85914 3.76577,0 6.81853,4.86181 6.81853,10.85914 z" transform="matrix(0.1596667,0,0,0.1596667,222.35779,267.71032)"/><path style="fill:#000;fill-opacity:1;stroke:none;display:inline" id="path5954-1" d="m 247.48737,305.6069 c 0,5.99734 -3.05276,10.85914 -6.81853,10.85914 -3.76577,0 -6.81853,-4.8618 -6.81853,-10.85914 0,-5.99733 3.05276,-10.85914 6.81853,-10.85914 3.76577,0 6.81853,4.86181 6.81853,10.85914 z" transform="matrix(0.1596667,0,0,0.1596667,225.94644,267.58936)"/><path style="fill:#000;fill-opacity:1;stroke:none;display:inline" id="path5954-0" d="m 247.48737,305.6069 c 0,5.99734 -3.05276,10.85914 -6.81853,10.85914 -3.76577,0 -6.81853,-4.8618 -6.81853,-10.85914 0,-5.99733 3.05276,-10.85914 6.81853,-10.85914 3.76577,0 6.81853,4.86181 6.81853,10.85914 z" transform="matrix(0.1596667,0,0,0.1596667,215.71946,255.49976)"/><path style="fill:#000;fill-opacity:1;stroke:none;display:inline" id="path5954-9" d="m 247.48737,305.6069 c 0,5.99734 -3.05276,10.85914 -6.81853,10.85914 -3.76577,0 -6.81853,-4.8618 -6.81853,-10.85914 0,-5.99733 3.05276,-10.85914 6.81853,-10.85914 3.76577,0 6.81853,4.86181 6.81853,10.85914 z" transform="matrix(0.1596667,0,0,0.1596667,228.56122,257.21047)"/><path style="fill:#fff;fill-opacity:1;stroke:#666;stroke-miterlimit:4;stroke-opacity:1;stroke-dasharray:none;display:inline;stroke-width:4.4192488" id="path3845-4-8" d="m 37.142858,99.692024 a 9.2857141,12.857142 0 1 1 -18.571429,0 9.2857141,12.857142 0 1 1 18.571429,0 z" transform="matrix(-0.17474584,-0.14428385,-0.14662917,0.17195079,264.53357,285.79636)"/><path style="fill:#fff;fill-opacity:1;stroke:#666;stroke-miterlimit:4;stroke-opacity:1;stroke-dasharray:none;display:inline;stroke-width:4.22103883" id="path3845-4" d="m 37.142858,99.692024 a 9.2857141,12.857142 0 1 1 -18.571429,0 9.2857141,12.857142 0 1 1 18.571429,0 z" transform="matrix(0.1743726,-0.15849097,0.14631599,0.18888218,219.46852,284.44549)"/><path style="fill:#000;fill-opacity:1;stroke-miterlimit:4;stroke-opacity:1;stroke-dasharray:none" id="path3841" d="m 43.571429,49.692024 a 13.214286,12.142858 0 1 1 -26.428571,0 13.214286,12.142858 0 1 1 26.428571,0 z" transform="matrix(0.24552981,0,0,0.2812673,234.32738,286.93029)"/></g></svg>