<svg xmlns="http://www.w3.org/2000/svg" xmlns:svg="http://www.w3.org/2000/svg" style="overflow:visible" id="Layer_1" width="200" height="200" enable-background="new 0 0 582.892 202.236" overflow="visible" version="1.1" viewBox="0 0 200 200" xml:space="preserve"><metadata id="metadata5109"/><path id="path5011" d="m 151.6166,161.48246 -21.12948,0 0,-13.36062 c -1.85627,1.2719 -4.35423,3.03651 -7.51677,5.30528 -3.16255,2.26879 -6.22197,4.07923 -9.18972,5.41987 -3.49484,1.71878 -7.50532,3.1511 -12.03143,4.3084 -4.526123,1.15732 -9.831402,1.73024 -15.927326,1.73024 -11.217876,0 -20.716975,-3.72402 -28.508757,-11.17205 -7.791781,-7.44801 -11.687673,-16.95857 -11.687673,-28.50874 0,-9.46473 2.016696,-17.119 6.073007,-22.96284 4.044851,-5.855294 9.808478,-10.450152 17.313798,-13.807492 7.57407,-3.345892 16.672122,-5.626129 27.282697,-6.817813 10.622034,-1.191684 22.011794,-2.085447 34.192174,-2.681289 l 0,-3.265674 c 0,-4.801113 -0.83646,-8.788672 -2.49794,-11.93976 -1.67295,-3.151089 -4.05631,-5.637583 -7.17303,-7.436569 -2.96775,-1.718775 -6.53135,-2.887542 -10.67933,-3.494843 -4.14797,-0.595842 -8.49075,-0.905222 -13.016863,-0.905222 -5.488621,0 -11.618921,0.733344 -18.36798,2.200032 -6.749059,1.466689 -13.715828,3.59797 -20.911768,6.393846 l -1.111475,0 0,-21.335734 c 4.090686,-1.122933 10.014732,-2.348993 17.749222,-3.689638 7.734489,-1.340645 15.365852,-2.005238 22.882631,-2.005238 8.788673,0 16.431493,0.721886 22.939933,2.177116 6.50843,1.455229 12.15746,3.930266 16.91274,7.436569 4.68653,3.426092 8.26158,7.871991 10.71371,13.31478 2.46357,5.442789 3.68963,12.191848 3.68963,20.258634 l 0,84.838755 z m -21.12948,-30.75463 0,-34.776552 c -6.38237,0.378136 -13.8877,0.939597 -22.52742,1.672945 -8.639703,0.7448 -15.491894,1.8219 -20.533636,3.242757 -6.004255,1.71877 -10.862661,4.37715 -14.575215,7.99804 -3.712556,3.62088 -5.557374,8.59387 -5.557374,14.91897 0,7.16155 2.154197,12.54705 6.451136,16.15648 4.308398,3.60943 10.862661,5.41987 19.697168,5.41987 7.344901,0 14.059581,-1.43232 20.144061,-4.29694 6.08446,-2.86463 11.71058,-6.31363 16.90128,-10.33557 z"/></svg>