<svg xmlns="http://www.w3.org/2000/svg" xmlns:svg="http://www.w3.org/2000/svg" id="svg51" width="55" height="55" x="0" y="0" enable-background="new 0 0 55 55" version="1.1" viewBox="0 0 55 55" xml:space="preserve"><metadata id="metadata57"/><g id="g138" transform="translate(-0.28740524,-1.290368)"><path id="path44" d="m 50.769789,31.497368 c 0,5.988 -2.838,14.88 -11.185,14.88 -9.285,0 -10.143,-7.743 -11.083,-10.954 -0.799,-3.549 -1.914,-5.913 -3.455,-6.055 -2.642,-0.243 -1.051465,6.877001 -1.818191,9.295243 0,0 -6.822173,6.118172 -8.347868,5.786071 C 10.242693,44.203844 8.2160352,41.961723 6.6170732,40.349739 4.9716783,38.690945 4.3616784,35.232884 5.1428011,34.293366 c 2.2260556,-2.677451 5.2540419,-4.234837 7.3532559,-4.057989 2.144854,0.180694 4.168588,3.947156 4.168588,3.947156 0,-5.574 1.565144,-12.445165 6.871144,-12.445165 5.305,0 9.455,5.333 10.612,11.707 0.469,2.963 2.22,5.441 5.438,4.878 2.613,-0.457 5.306,-2.995 5.306,-8.361 0,-4.252 -0.219,-13.3 -4.079,-14.745 -2.486,-0.929 -5.205,0.168 -5.205,1.562 l -0.16,-0.027 c -0.158,-1.42 0.16,-5.548 5.465,-5.548 6.802,-10e-4 9.857,9.144 9.857,20.294 z" style="fill:#fff;stroke:#010101;stroke-width:3.5;stroke-linecap:round;stroke-linejoin:round"/><path id="path46" d="m 9.1900615,40.835423 c 3.2169725,0.277326 5.8791245,-2.641899 3.5786445,-0.206952" style="fill:none;stroke:#010101;stroke-width:3;stroke-linecap:round"/><circle id="circle48" cx="35.121" cy="12.275" r="1.676" transform="matrix(0,1,1,0,0,0)" style="fill:#010101"/></g></svg>