<svg xmlns="http://www.w3.org/2000/svg" xmlns:svg="http://www.w3.org/2000/svg" id="svg2" x="0" y="0" enable-background="new 0 0 100 81.09" version="1.1" viewBox="0 0 100 101.363" xml:space="preserve"><metadata id="metadata14"/><path id="path4" d="m 50.429502,42.668553 c -9.312,0.01 -16.845,7.544 -16.858,16.859 0.014,9.308 7.546,16.836 16.858,16.854 9.306,-0.019 16.839,-7.547 16.859,-16.854 -0.02,-9.315 -7.553,-16.849 -16.859,-16.859 z m 45.042,-13.975 -17.204,0 -1.332,-15.327 c 0,-1.447 -1.178,-2.629 -2.635,-2.629 l -47.742,0 c -1.457,0 -2.631,1.182 -2.631,2.629 l -1.333,15.326 -2.964,0 0,-3.429 c 0,-1.2 -0.974,-2.17 -2.174,-2.17 l -9.7299999,0 c -1.2,0 -2.174,0.971 -2.174,2.17 l 0,3.429 -0.165,0 c -2.735,0.001 -4.95799997,2.215 -4.95799997,4.951 l 0,53.227 c 0,2.741 2.22199997,4.958 4.95799997,4.958 l 90.0839999,0 c 2.738,0 4.957998,-2.217 4.957998,-4.958 l 0,-53.227 c 0,-2.736 -2.219998,-4.95 -4.957998,-4.95 z m -82.857,20.836 c -3.3999999,0 -6.1569999,-2.758 -6.1569999,-6.162 0,-3.401 2.756,-6.158 6.1569999,-6.158 3.405,0 6.157,2.757 6.157,6.158 0,3.404 -2.752,6.162 -6.157,6.162 z m 24.965,-31.999 25.697,0 c 1.584,0 2.864,1.287 2.864,2.862 0,1.583 -1.282,2.866 -2.864,2.866 l -25.697,0 c -1.575,0 -2.859,-1.284 -2.859,-2.866 0,-1.574 1.284,-2.862 2.859,-2.862 z m 12.85,66.486 c -13.532,0 -24.49,-10.961 -24.497,-24.489 0.006,-13.536 10.965,-24.498 24.497,-24.498 13.528,0 24.489,10.962 24.493,24.497 -0.004,13.529 -10.965,24.49 -24.493,24.49 z" style="fill:none;stroke:#fff;stroke-width:5"/><ellipse style="fill:none" id="path4142" cx="50.298" cy="59.638" rx="16.486" ry="16.808"/></svg>