<svg xmlns="http://www.w3.org/2000/svg" xmlns:svg="http://www.w3.org/2000/svg" id="svg2" width="56" height="56" version="1.1" viewBox="0 0 42 42"><metadata id="metadata10"/><path id="path4" d="m 30.52846,15.745038 0,-2.175006 -4.21518,2.436254 0,-1.301483 c 0,-1.23895 -1.004946,-2.243938 -2.243937,-2.243938 l -2.279185,0 0,-0.722855 c 0,-0.234007 -0.190731,-0.424759 -0.424759,-0.424759 l -2.558077,0 c -0.234007,0 -0.424759,0.190731 -0.424759,0.424759 l 0,0.722855 -2.279184,0 c -1.238951,0 -2.243939,1.004947 -2.243939,2.243938 l 0,0.681207 c -4.9397988,0.572187 -8.6744978,3.098217 -8.6744978,6.1211 0,3.391511 4.697712,6.156387 10.5254348,6.239681 l 0,2.566078 6.844078,-3.957296 -6.844078,-3.955696 0,2.522789 c -4.305039,-0.06572 -8.1324698,-1.703757 -8.1324698,-4.204102 0,-2.133317 2.7872788,-3.878762 6.2798918,-4.394898 l 0,2.941148 c 0,1.238949 1.004947,2.243937 2.243938,2.243937 l 7.965882,0 c 1.23895,0 2.243938,-1.003346 2.243938,-2.243937 l 0,-3.018083 4.21518,2.436254 0,-1.261395 c 2.42181,0.690808 4.106446,2.000292 4.106446,3.692848 0,2.553275 -3.827472,3.603069 -8.241614,3.603069 l 0,3.034085 c 5.951229,0 10.793372,-2.800081 10.793372,-6.242964 0.0016,-2.594922 -2.751992,-4.822858 -6.656562,-5.763714 z m -10.44214,4.135168 c -1.599578,0 -2.89626,-1.296682 -2.89626,-2.89626 0,-1.599576 1.296682,-2.896259 2.89626,-2.896259 1.599576,0 2.896259,1.296683 2.896259,2.896259 0,1.599578 -1.296683,2.89626 -2.896259,2.89626 z"/></svg>