<svg xmlns="http://www.w3.org/2000/svg" id="svg2" width="55" height="55" version="1.1" viewBox="0 0 55 55" xml:space="preserve"><g id="g3163" transform="matrix(0.62485603,0,0,0.62485603,-161.38656,-55.425805)" style="fill:#fff;stroke-width:4.80110598;stroke-miterlimit:10;stroke-dasharray:none"><path id="path3122" d="m 322.03881,132.46119 0,0 12.99865,5.73039 -1.4888,5.55628 -14.12236,-1.53667 -1.94963,2.78436 6.27413,12.74511 -4.71199,3.29937 -9.83061,-10.25483 -3.28325,0.87974 -3.38614,13.79625 -5.73039,-0.50134 -0.93901,-14.17465 -3.0806,-1.43651 -11.46199,8.39197 -4.06748,-4.06748 8.39197,-11.46199 -1.43651,-3.0806 -14.17465,-0.93901 -0.50134,-5.73039 13.79625,-3.38614 0.87974,-3.28325 -10.25483,-9.83061 3.29937,-4.71199 12.74511,6.27413 2.78436,-1.94963 -1.53667,-14.12236 5.55628,-1.488804 5.73039,12.998654 3.38614,0.29625 7.90052,-11.8061 5.21334,2.43101 -3.96564,13.64098 2.4035,2.4035 13.64098,-3.96564 2.43101,5.21334 -11.8061,7.90052 z" style="fill:#fff;fill-opacity:.8;stroke:none"/><path id="path3124" d="m 322.03881,132.46119 0,0 12.99865,5.73039 -1.4888,5.55628 -14.12236,-1.53667 -1.94963,2.78436 6.27413,12.74511 -4.71199,3.29937 -9.83061,-10.25483 -3.28325,0.87974 -3.38614,13.79625 -5.73039,-0.50134 -0.93901,-14.17465 -3.0806,-1.43651 -11.46199,8.39197 -4.06748,-4.06748 8.39197,-11.46199 -1.43651,-3.0806 -14.17465,-0.93901 -0.50134,-5.73039 13.79625,-3.38614 0.87974,-3.28325 -10.25483,-9.83061 3.29937,-4.71199 12.74511,6.27413 2.78436,-1.94963 -1.53667,-14.12236 5.55628,-1.488804 5.73039,12.998654 3.38614,0.29625 7.90052,-11.8061 5.21334,2.43101 -3.96564,13.64098 2.4035,2.4035 13.64098,-3.96564 2.43101,5.21334 -11.8061,7.90052 z" style="fill:#fff;stroke:#010101;stroke-width:4.80110598;stroke-linecap:butt;stroke-linejoin:miter;stroke-miterlimit:10;stroke-dasharray:none"/><path id="path3126" d="m 311.53881,132.46119 0,0 a 9,9 0 1 0 -18,0 l 0,0 a 9,9 0 0 0 18,0 m 0,0 z" style="fill:#fff;stroke:#010101;stroke-width:4.80110598;stroke-linecap:butt;stroke-linejoin:miter;stroke-miterlimit:10;stroke-dasharray:none"/><path id="path3128" d="m 311.53881,132.46119 10.5,0 z" style="fill:#fff;stroke:#010101;stroke-width:4.80110598;stroke-linecap:butt;stroke-linejoin:miter;stroke-miterlimit:10;stroke-dasharray:none"/></g></svg>