<svg xmlns="http://www.w3.org/2000/svg" xmlns:xlink="http://www.w3.org/1999/xlink" width="55" height="55" x="0" y="0" enable-background="new 0 0 55 55" version="1.1" viewBox="0 0 55 55" xml:space="preserve"><g id="base-10" display="block"><defs><mask id="Mask" width="55" height="55" x="0" y="0" maskUnits="userSpaceOnUse"><path fill="#fff" stroke="#fff" stroke-width="3.5" d="M 3 3 L 53 3 L 53 53 L 3 53 z"/><text x="12" y="44" fill="#000" stroke="none" font-family="Bitstream Vera Sans" font-size="16" font-weight="bold">8</text></mask></defs><path fill="none" stroke="#FFF" stroke-width="3.5" d="M 3 12 Q 3 3 12 3 L 43 3 Q 53 3 53 12 L 53 43 Q 53 53 43 53 L 12 53 Q 3 53 3 43 z"/><path fill="#FFF" stroke="#FFF" stroke-width="3.5" d="M 3 43 Q 3 52 12 52 L 26.5 52 L 26.5 27.4 L 3 27.5 z" mask="url(#Mask)"/><text x="35" y="22" fill="#FFF" stroke="none" font-family="Bitstream Vera Sans" font-size="16" font-weight="bold">2</text><text x="29" y="44" fill="#FFF" stroke="none" font-family="Bitstream Vera Sans" font-size="16" font-weight="bold" letter-spacing="-1">16</text><text x="6" y="22" fill="#FFF" stroke="none" font-family="Bitstream Vera Sans" font-size="16" font-weight="bold" letter-spacing="-1">10</text></g></svg>