<svg xmlns="http://www.w3.org/2000/svg" xmlns:xlink="http://www.w3.org/1999/xlink" width="55" height="55" x="0" y="0" enable-background="new 0 0 55 55" version="1.1" viewBox="0 0 55 55" xml:space="preserve"><g id="stock-xo_1_" display="block"><defs><mask id="Mask" width="55" height="55" x="0" y="0" maskUnits="userSpaceOnUse"><path fill="#fff" stroke="#fff" stroke-width="3.5" d="M3 3 L 53 3 L 53 53 L 3 53 z"/><line x1="15" x2="15" y1="8" y2="49" stroke="#000" stroke-width="2"/><line x1="7" x2="48" y1="42" y2="42" stroke="#000" stroke-width="2"/><path fill="#000" stroke="#000" stroke-width="2" d="M44 42 l0 3 l6 -3 l-6 -3 z"/><path fill="#000" stroke="#000" stroke-width="2" d="M15 12 l-3 0 l3 -6 l3 6 z"/><path fill="none" stroke="#000" stroke-width="2" d="M15 26 C21,13 27,13 30,26 34,39 40,39 46,26"/></mask></defs><path fill="#FFF" stroke="#FFF" stroke-width="3.5" d="M 3 12 Q 3 3 12 3 L 43 3 Q 53 3 53 12 L 53 43 Q 53 53 43 53 L 12 53 Q 3 53 3 43 z" mask="url(#Mask)"/></g></svg>