<svg xmlns="http://www.w3.org/2000/svg" xmlns:svg="http://www.w3.org/2000/svg" id="svg2" width="55pt" height="55pt" version="1.1" viewBox="0 0 55 55"><g id="g4184" transform="matrix(0.5460182,0,0,0.5460182,-4.3777492,-0.10220363)"><rect style="opacity:1;fill:#282828;fill-opacity:1;stroke:#282828;stroke-width:.80752903;stroke-opacity:0" id="rect4164" width="22.026" height="22.026" x="70.131" y="63.563"/><rect style="opacity:1;fill:#282828;fill-opacity:1;stroke:#282828;stroke-width:.80752903;stroke-opacity:0" id="rect4162" width="22.026" height="22.026" x="46.731" y="40.682"/><rect id="rect4160" width="22.026" height="22.026" x="23.543" y="40.682" style="opacity:1;fill:#282828;fill-opacity:1;stroke:#282828;stroke-width:.80752903;stroke-opacity:0"/><rect style="opacity:1;fill:#282828;fill-opacity:1;stroke:#282828;stroke-width:.80752903;stroke-opacity:0" id="rect4158" width="22.026" height="22.026" x="46.614" y="63.68"/><rect id="rect4156" width="22.026" height="22.026" x="70.036" y="16.858" style="opacity:1;fill:#282828;fill-opacity:1;stroke:#282828;stroke-width:.80752903;stroke-opacity:0"/><rect id="rect4166" width="72.097" height="1.97" x="21.79" y="85.562" style="opacity:1;fill:#fff;fill-opacity:1;stroke:#fff;stroke-width:1.16040957;stroke-opacity:0"/><rect style="opacity:1;fill:#fff;fill-opacity:1;stroke:#fff;stroke-width:1.15382874;stroke-opacity:0" id="rect4170" width="71.044" height="1.977" x="22.635" y="61.618"/><rect id="rect4172" width="70.623" height="1.979" x="22.633" y="38.735" style="opacity:1;fill:#fff;fill-opacity:1;stroke:#fff;stroke-width:1.15117598;stroke-opacity:0"/><rect style="opacity:1;fill:#fff;fill-opacity:1;stroke:#fff;stroke-width:1.15382874;stroke-opacity:0" id="rect4174" width="71.044" height="1.977" x="15.537" y="-70.268" transform="matrix(0,1,-1,0,0,0)"/><rect id="rect4176" width="70.413" height="1.981" x="16.594" y="-47.177" transform="matrix(0,1,-1,0,0,0)" style="opacity:1;fill:#fff;fill-opacity:1;stroke:#fff;stroke-width:1.14984524;stroke-opacity:0"/><rect style="opacity:1;fill:#fff;fill-opacity:1;stroke:#fff;stroke-width:1.14717472;stroke-opacity:0" id="rect4178" width="69.992" height="1.983" x="16.593" y="-23.873" transform="matrix(0,1,-1,0,0,0)"/><rect id="rect4180" width="70.834" height="1.978" x="15.96" y="-93.786" transform="matrix(0,1,-1,0,0,0)" style="opacity:1;fill:#fff;fill-opacity:1;stroke:#fff;stroke-width:1.15250385;stroke-opacity:0"/><rect style="opacity:1;fill:#fff;fill-opacity:1;stroke:#fff;stroke-width:1.16040969;stroke-opacity:0" id="rect4182" width="72.097" height="1.97" x="21.79" y="15.011"/></g></svg>