<svg xmlns="http://www.w3.org/2000/svg" xmlns:svg="http://www.w3.org/2000/svg" xmlns:xlink="http://www.w3.org/1999/xlink" id="Layer_1" width="55" height="55" x="0" y="0" enable-background="new 0 0 55 55" version="1.1" viewBox="0 0 55 55" xml:space="preserve"><metadata id="metadata14783"/><g id="preferences-system" display="block"><path id="path14771" fill="#fff" d="M51.103,50.895c-2.343,2.343-6.143,2.343-8.485,0L19.813,28.091c-2.343-2.343-2.343-6.143,0-8.485l0,0 c2.343-2.343,6.143-2.343,8.485,0l22.804,22.804C53.445,44.752,53.445,48.552,51.103,50.895L51.103,50.895z"/><g id="g14773"><g id="g14775"><path id="path14777" fill="#fff" d="M17.813,2.254c-0.804,0-1.587,0.081-2.358,0.2l10.557,10.558L13.22,25.804L2.662,15.246 c-0.119,0.771-0.2,1.555-0.2,2.36c0,8.479,6.873,15.352,15.351,15.352s15.351-6.873,15.351-15.352 C33.164,9.127,26.291,2.254,17.813,2.254z"/></g></g></g><g id="g14946" transform="matrix(0.06821282,0,0,0.06821282,42.532595,35.128702)"><g id="g14915" style="fill:#a4c639"><use id="use14917" width="100%" height="100%" x="0" y="0" xlink:href="#b" style="stroke:#fff;stroke-width:14.39999962"/><use id="use14919" width="100%" height="100%" x="0" y="0" transform="scale(-1,1)" xlink:href="#a"/><g id="a" style="stroke:#fff;stroke-width:7.19999981"><rect id="rect14922" width="13" height="86" x="14" y="-86" rx="6.5" transform="matrix(0.87461971,0.48480962,-0.48480962,0.87461971,0,0)"/><rect id="c" width="48" height="133" x="-143" y="41" rx="24"/><use id="use14925" width="100%" height="100%" x="85" y="97" xlink:href="#c"/></g><g id="b"><ellipse id="ellipse14928" cx="0" cy="41" rx="91" ry="84"/><rect id="rect14930" width="182" height="182" x="-91" y="20" rx="22"/></g></g><g id="g14932" style="fill:#fff;stroke:#fff;stroke-width:7.19999981"><path id="path14934" d="m -95,44.5 190,0"/><circle id="circle14936" cx="-42" cy="0" r="4"/><circle id="circle14938" cx="42" cy="0" r="4"/></g></g></svg>