<svg xmlns="http://www.w3.org/2000/svg" xmlns:svg="http://www.w3.org/2000/svg" id="Layer_1" width="55" height="55" x="0" y="0" enable-background="new 0 0 55 55" version="1.1" viewBox="0 0 55 55" xml:space="preserve"><g id="activity-journal" display="block" transform="matrix(0.81,0,0,0.81,4.8235471,-3.1648305)" style="display:block"><path id="path4" d="M 45.866,44.669 C 45.866,47.18 44.338,49 41.534,49 l -29.457,0 0,-43 29.458,0 c 2.15,0 4.332,2.154 4.332,4.33 l -10e-4,34.339 0,0 z" style="fill:#fff;stroke:#666;stroke-width:3.5;stroke-linecap:round;stroke-linejoin:round"/><line id="line6" x1="21.341" x2="21.341" y1="6.121" y2="48.881" style="fill:none;stroke:#666;stroke-width:3.5;stroke-linecap:round;stroke-linejoin:round"/><path id="path8" d="m 7.384,14.464 c 0,0 2.084,0.695 4.17,0.695 2.086,0 4.173,-0.695 4.173,-0.695" style="fill:none;stroke:#666;stroke-width:3.5;stroke-linecap:round;stroke-linejoin:round"/><path id="path10" d="m 7.384,28.021 c 0,0 1.912,0.695 4.345,0.695 2.433,0 3.999,-0.695 3.999,-0.695" style="fill:none;stroke:#666;stroke-width:3.5;stroke-linecap:round;stroke-linejoin:round"/><path id="path12" d="m 7.384,41.232 c 0,0 1.736,0.695 4.518,0.695 2.781,0 3.825,-0.695 3.825,-0.695" style="fill:none;stroke:#666;stroke-width:3.5;stroke-linecap:round;stroke-linejoin:round"/></g><g id="g4317" transform="translate(13.499311,-19.027601)"><line id="line4273" x1="13.928" x2="13.928" y1="58.685" y2="70.849" style="fill:none;stroke:#fff;stroke-width:2.98670006;stroke-linecap:round;stroke-linejoin:round"/><polyline id="polyline4275" points="11.583 12.083 16.713 6 21.843 12.083" transform="translate(-2.7851698,52.685173)" style="fill:none;stroke:#fff;stroke-width:2.98670006;stroke-linecap:round;stroke-linejoin:round"/></g></svg>