<svg xmlns="http://www.w3.org/2000/svg" xmlns:svg="http://www.w3.org/2000/svg" id="svg2" width="22" height="22" x="0" y="0" enable-background="new 0 0 55.125 55" version="1.1" viewBox="0 0 22 22" xml:space="preserve"><g id="dialog-ok" display="block" transform="matrix(0.48888889,0,0,0.48888889,-2.4444445,-2.4444444)" style="fill:#000;display:block"><path id="path5" d="M 27.498,5 C 15.071,5 5,15.071 5,27.498 5,39.923 15.071,50 27.498,50 39.927,50 50,39.923 50,27.498 50,15.071 39.927,5 27.498,5 z M 41.419,19.886 24.706,40.208 13.789,29.29 c -1.258,-1.254 -1.258,-3.292 -0.003,-4.546 1.254,-1.255 3.292,-1.255 4.547,0 L 24.241,30.648 36.452,15.8 c 1.127,-1.368 3.153,-1.568 4.525,-0.438 1.37,1.127 1.569,3.153 0.442,4.524 z" display="inline" style="fill:#000;display:inline"/></g></svg>