<svg xmlns="http://www.w3.org/2000/svg" xmlns:svg="http://www.w3.org/2000/svg" id="svg2" width="55pt" height="55pt" version="1.1" viewBox="0 0 55 55"><metadata id="metadata10"/><path id="path4" d="m 22.625984,22.432363 c -1.59412,-3.68456 -5.28088,-6.2689 -9.5689,-6.2689 -5.7211001,0 -10.3961001,4.675 -10.3961001,10.3939 0,5.775 4.675,10.3939 10.3939001,10.3939 4.23456,0 7.80945,-2.53088 9.45945,-6.1061 l 3.90588,0 3.90588,-2.75 3.90588,2.75 1.15588,0 3.90588,-2.75 3.90588,2.75 4.73088,0 4.18088,-4.23456 -4.18088,-4.23456 -25.3044,0.0022 z m -12.8711,6.6 c -1.31912,0 -2.3654401,-1.04412 -2.3654401,-2.36544 0,-1.31912 1.0441201,-2.36544 2.3654401,-2.36544 1.31912,0 2.36544,1.04412 2.36544,2.36544 0.05586,1.321265 -1.04412,2.36544 -2.36544,2.36544 z m 37.1811,-4.34412 -23.65,0 c -0.05586,-0.165429 -0.05586,-0.384571 -0.109571,-0.55 l 23.75945,0 z" style="fill:#fff"/></svg>