<svg xmlns="http://www.w3.org/2000/svg" xmlns:xlink="http://www.w3.org/1999/xlink" id="Layer_1" width="55" height="55" x="0" y="0" enable-background="new 0 0 55 55" version="1.1" viewBox="0 0 55 55" xml:space="preserve"><g id="network-wireless-040" display="block"><path fill="#010101" stroke="#010101" stroke-linecap="round" stroke-linejoin="round" stroke-width="3.5" d="M46.375,27.498c0,10.494-8.507,19.002-19,19.002s-19-8.508-19-19.002 c0-10.49,8.507-18.998,19-18.998S46.375,17.003,46.375,27.498z" display="inline"/><g display="inline"><g><defs><rect id="SVGID_17_" width="40" height="16" x="7.375" y="31.5"/></defs><clipPath id="SVGID_18_"><use overflow="visible" xlink:href="#SVGID_17_"/></clipPath><path fill="#fff" d="M46.375,27.498c0,10.494-8.507,19.002-19,19.002s-19-8.508-19-19.002 c0-10.49,8.507-18.998,19-18.998S46.375,17.003,46.375,27.498z" clip-path="url(#SVGID_18_)"/></g></g><path fill="none" stroke="#010101" stroke-linecap="round" stroke-linejoin="round" stroke-width="3.5" d="M46.375,27.498c0,10.494-8.507,19.002-19,19.002s-19-8.508-19-19.002c0-10.49,8.507-18.998,19-18.998S46.375,17.003,46.375,27.498z" display="inline"/></g></svg>