<svg xmlns="http://www.w3.org/2000/svg" xmlns:svg="http://www.w3.org/2000/svg" xmlns:xlink="http://www.w3.org/1999/xlink" id="Layer_1" width="55" height="55" x="0" y="0" enable-background="new 0 0 55 55" version="1.1" viewBox="0 0 55 55" xml:space="preserve"><metadata id="metadata12381"/><g id="network-wireless-100" display="block"><g id="g12363" display="inline"><g id="g12365"><defs id="defs12367"><rect id="SVGID_11_" width="45" height="45" x="4.875" y="5"/></defs><clipPath id="SVGID_12_"><use id="use12371" fill="#010101" overflow="visible" xlink:href="#SVGID_11_"/></clipPath><path id="path12373" fill="#fff" stroke="#010101" d="M46.375,27.498c0,10.494-8.507,19.002-19,19.002s-19-8.508-19-19.002 c0-10.49,8.507-18.998,19-18.998S46.375,17.003,46.375,27.498z" clip-path="url(#SVGID_12_)"/></g></g><path id="path12375" stroke="#010101" stroke-linecap="round" stroke-linejoin="round" stroke-width="3.5" d="M46.375,27.498c0,10.494-8.507,19.002-19,19.002s-19-8.508-19-19.002c0-10.49,8.507-18.998,19-18.998S46.375,17.003,46.375,27.498z" display="inline"/></g><g id="g16775" transform="translate(33.0002,31)"><g style="display:inline" id="layer9" transform="translate(-361.0002,-177)"><path style="color:#bebebe;display:inline;overflow:visible;visibility:visible;fill:#bebebe;fill-opacity:1;fill-rule:nonzero;stroke:none;stroke-width:2;marker:none" id="path4215" d="m 364,184 c -0.554,0 -1,0.446 -1,1 l 0,0.53125 0,5.46875 12,0 0,-5.46875 L 375,185 c 0,-0.554 -0.446,-1 -1,-1 l -10,0 z"/><path style="color:#bebebe;font-style:normal;font-variant:normal;font-weight:400;font-stretch:normal;font-size:medium;line-height:normal;font-family:Sans;-inkscape-font-specification:Sans;text-indent:0;text-align:start;text-decoration:none;text-decoration-line:none;letter-spacing:normal;word-spacing:normal;text-transform:none;direction:ltr;block-progression:tb;writing-mode:lr-tb;baseline-shift:baseline;text-anchor:start;display:inline;overflow:visible;visibility:visible;fill:#bebebe;fill-opacity:1;stroke:none;stroke-width:2;marker:none;enable-background:accumulate" id="rect4217" d="m 368,178 c -1.6447,0 -3,1.3553 -3,3 l 0,7 c 0,1.6447 1.3553,3 3,3 l 2,0 c 1.6447,0 3,-1.3553 3,-3 l 0,-7 c 0,-1.6447 -1.3553,-3 -3,-3 l -2,0 z m 0,2 2,0 c 0.5713,0 1,0.4287 1,1 l 0,7 c 0,0.5713 -0.4287,1 -1,1 l -2,0 c -0.5713,0 -1,-0.4287 -1,-1 l 0,-7 c 0,-0.5713 0.4287,-1 1,-1 z"/></g></g></svg>