<svg xmlns="http://www.w3.org/2000/svg" xmlns:xlink="http://www.w3.org/1999/xlink" id="Layer_1" width="55" height="55" x="0" y="0" enable-background="new 0 0 55 55" version="1.1" viewBox="0 0 55 55" xml:space="preserve"><g id="network-wireless-connected-100" display="block"><g><g><defs><rect id="SVGID_1_" width="41.5" height="41.5" x="6.625" y="6.75"/></defs><clipPath id="SVGID_2_"><use overflow="visible" xlink:href="#SVGID_1_"/></clipPath><path fill="#fff" d="M46.375,27.498c0,10.494-8.507,19.002-19,19.002s-19-8.508-19-19.002 c0-10.49,8.507-18.998,19-18.998S46.375,17.003,46.375,27.498z" clip-path="url(#SVGID_2_)"/></g></g><path fill="none" stroke="#010101" stroke-linecap="round" stroke-linejoin="round" stroke-width="3.5" d="M46.375,27.498 c0,10.494-8.507,19.002-19,19.002s-19-8.508-19-19.002c0-10.49,8.507-18.998,19-18.998S46.375,17.003,46.375,27.498z"/><g><path fill="none" stroke="#010101" stroke-linecap="round" stroke-width="3.5" d="M9.471,45.697 c-9.958-9.958-9.959-26.104,0-36.062"/><path fill="none" stroke="#010101" stroke-linecap="round" stroke-width="3.5" d="M45.533,9.635 c9.959,9.958,9.958,26.104,0,36.062"/></g></g></svg>