<svg xmlns="http://www.w3.org/2000/svg" xmlns:svg="http://www.w3.org/2000/svg" id="svg6314" width="100.002" height="100.004" version="1.0"><metadata id="metadata6319"/><g id="layer1" transform="translate(-70.329532,-115.26482)"><g style="fill:#fff;stroke:gray" id="g6359" transform="matrix(0.30369126,0,0,0.30369187,50.048643,57.867202)"><path style="fill:#fff;stroke:gray;stroke-width:20.62502098;stroke-linecap:round;stroke-linejoin:round;stroke-miterlimit:4;stroke-opacity:1;stroke-dasharray:none;stroke-dashoffset:0" id="path2307" d="M 382.60403,134.2677 A 51.220825,51.220825 0 0 1 331.38321,185.48853 51.220825,51.220825 0 0 1 280.16238,134.2677 51.220825,51.220825 0 0 1 331.38321,83.046875 51.220825,51.220825 0 0 1 382.60403,134.2677 Z" transform="matrix(0.969697,0,0,0.969697,-90.879133,125.06999)"/><path style="fill:#fff;stroke:gray;stroke-width:20.00002098;stroke-linecap:round;stroke-linejoin:miter;stroke-miterlimit:4;stroke-opacity:1;stroke-dasharray:none;stroke-dashoffset:0" id="path5343" d="m 290.55846,302.47333 -58.81513,59.20058 -59.39461,-59.40024 c -25.19828,-24.48771 -62.7038,13.33148 -38.1941,37.98719 l 60.04451,58.9817 -59.73639,59.42563 c -24.83976,24.97559 12.91592,63.26505 37.66786,37.75282 l 59.95799,-59.28294 58.75912,59.21065 c 24.50656,25.09065 62.43116,-13.00322 37.87956,-37.85772 l -59.24184,-59.02842 58.87574,-59.14782 c 25.1689,-25.18348 -13.0489,-62.75154 -37.80271,-37.84143 z"/></g><path id="rect3894" d="m 153.19395,185.55736 c -1.12058,0 -2.04026,0.91968 -2.04026,2.04026 l 0,4.679 -3.31883,-3.31883 c -0.79321,-0.79152 -2.06484,-0.7932 -2.85636,0 -0.79153,0.79322 -0.79318,2.09205 0,2.88357 l 3.34602,3.31883 -4.7334,0 c -1.12058,0 -2.04026,0.91968 -2.04026,2.04026 0,1.12058 0.91968,2.01306 2.04026,2.01306 l 4.7062,0 -3.31882,3.31882 c -0.79152,0.79321 -0.79318,2.09205 0,2.88357 0.79321,0.79152 2.09204,0.76601 2.88357,-0.0272 l 3.29162,-3.31882 0,4.7334 c 0,1.12058 0.91968,2.01306 2.04026,2.01306 1.12058,0 2.01306,-0.89248 2.01306,-2.01306 l 0,-4.76061 3.37323,3.34603 c 0.79321,0.79152 2.06484,0.79321 2.85636,0 0.79152,-0.79321 0.79322,-2.06484 0,-2.85636 l -3.34603,-3.31883 4.70621,0 c 1.12057,0 2.01305,-0.89248 2.01305,-2.01306 0,-1.12058 -0.89248,-2.04026 -2.01305,-2.04026 l -4.73341,0 3.34603,-3.37323 c 0.79152,-0.79321 0.79321,-2.03764 0,-2.82916 -0.79322,-0.79152 -2.06484,-0.82042 -2.85637,-0.0272 l -3.34602,3.37323 0,-4.7062 c 0,-1.12058 -0.89248,-2.04026 -2.01306,-2.04026 z" style="fill:#fff;fill-opacity:1;stroke:gray;stroke-width:1.74102712;stroke-linecap:round;stroke-linejoin:round;stroke-miterlimit:4;stroke-dasharray:none;stroke-opacity:1"/></g></svg>