<svg xmlns="http://www.w3.org/2000/svg" xmlns:xlink="http://www.w3.org/1999/xlink" id="Layer_1" width="55" height="55" x="0" y="0" enable-background="new 0 0 55 55" version="1.1" viewBox="0 0 55 55" xml:space="preserve"><g id="preferences-system" display="block"><path fill="#fff" d="M51.103,50.895c-2.343,2.343-6.143,2.343-8.485,0L19.813,28.091c-2.343-2.343-2.343-6.143,0-8.485l0,0 c2.343-2.343,6.143-2.343,8.485,0l22.804,22.804C53.445,44.752,53.445,48.552,51.103,50.895L51.103,50.895z"/><g><g><path fill="#fff" d="M17.813,2.254c-0.804,0-1.587,0.081-2.358,0.2l10.557,10.558L13.22,25.804L2.662,15.246 c-0.119,0.771-0.2,1.555-0.2,2.36c0,8.479,6.873,15.352,15.351,15.352s15.351-6.873,15.351-15.352 C33.164,9.127,26.291,2.254,17.813,2.254z"/></g></g></g></svg>