<svg xmlns="http://www.w3.org/2000/svg" xmlns:svg="http://www.w3.org/2000/svg" id="svg2" width="55pt" height="55pt" version="1.1" viewBox="0 0 55 55"><metadata id="metadata10"/><path id="path4" d="m 22.638173,21.554299 c 0,2.8281 -2.12305,5.123 -4.7422,5.123 -2.61915,0 -4.7422,-2.2949 -4.7422,-5.123 0.002,-2.8301 9.4845,-2.8301 9.4845,0 z m 9.2345,0 c 0,2.8281 2.12305,5.123 4.7422,5.123 2.61915,0 4.7422,-2.2949 4.7422,-5.123 -0.002,-2.8301 -9.4845,-2.8301 -9.4845,0 z m 20.383,-14.4239999 c 0,41.3964999 -25,44.8439999 -25,44.8439999 0,0 -25.0000001,-3.7129 -25.0000001,-44.8439999 l 25.0000001,-5.156 z m -5.59,16.1874999 0,-5.367 c 0,0 -7.0175,-3.41795 -10.1795,-3.41795 -4.3379,0 -9.2305,3.41795 -9.2305,3.41795 0,0 -4.5664,-3.41795 -9.2285,-3.41795 -3.13085,0 -10.1795001,3.41795 -10.1795001,3.41795 l 0,5.367 c 0,5.498 4.5586001,9.2735 10.1795001,9.2735 4.08595,0 6.121,-5.0685 9.2285,-5.0685 3.1094,0 5.1445,5.0685 9.2305,5.0685 5.621,0 10.1795,-3.77345 10.1795,-9.2735 z" style="fill:#fff"/></svg>