<svg xmlns="http://www.w3.org/2000/svg" xmlns:xlink="http://www.w3.org/1999/xlink" width="55.125" height="55" x="0" y="0" enable-background="new 0 0 55.125 55" version="1.1" viewBox="0 0 55.125 55" xml:space="preserve"><g id="system-shutdown" display="block"><g display="inline"><path fill="none" stroke="#4C4D4F" stroke-width="2.25" d="M41.385,17.53"/><path fill="none" stroke="#4C4D4F" stroke-width="2.25" d="M14.884,17.53"/><path fill="#FFF" d="M27.499,5C15.071,5,5,15.076,5,27.501C5,39.925,15.071,50,27.499,50C39.927,50,49.998,39.925,50,27.501 C50,15.077,39.929,5,27.499,5z M25.625,10.999c0-1.035,0.84-1.875,1.874-1.875s1.874,0.84,1.874,1.875v10.99 c0,1.035-0.84,1.874-1.874,1.874s-1.874-0.839-1.874-1.874V10.999z M27.501,41.096c-7.576,0-13.712-6.14-13.716-13.712 c0-4.761,2.432-8.962,6.115-11.415c0.861-0.573,2.024-0.343,2.6,0.521c0.573,0.86,0.339,2.023-0.522,2.596 c-2.681,1.793-4.441,4.833-4.441,8.297c0.01,5.5,4.458,9.95,9.964,9.96c5.499-0.01,9.95-4.46,9.959-9.96 c0-3.468-1.763-6.506-4.448-8.3c-0.861-0.577-1.092-1.737-0.521-2.597c0.572-0.864,1.738-1.097,2.599-0.524 c3.688,2.452,6.12,6.657,6.12,11.421C41.211,34.956,35.071,41.096,27.501,41.096z"/></g></g></svg>