<svg xmlns="http://www.w3.org/2000/svg" width="55" height="55"><defs><mask id="Mask" width="55" height="55" x="0" y="0" maskUnits="userSpaceOnUse"><rect width="55" height="55" x="0" y="0" fill="#FFF" stroke="none"/><line x1="11" x2="16" y1="19" y2="19" stroke="#000" stroke-width="2.5"/><line x1="18" x2="22" y1="19" y2="19" stroke="#000" stroke-width="2.5"/><line x1="11" x2="13" y1="24" y2="24" stroke="#000" stroke-width="2.5"/><line x1="15" x2="18" y1="24" y2="24" stroke="#000" stroke-width="2.5"/><line x1="11" x2="14" y1="29" y2="29" stroke="#000" stroke-width="2.5"/><path fill="#000" stroke="#000" stroke-width="3" d="M 17 35 l 2 -6 l 19 -19 l 4 3 l -19 19 z"/></mask></defs><rect width="25" height="27" x="8" y="14" mask="url(#Mask)" style="fill:#fff;stroke:#fff;stroke-width:3.5"/><path fill="#FFF" stroke="none" d="M 17 35 l 1 -5 l 4 3 z"/><path fill="#FFF" stroke="none" d="M 17 35 m 2 -6 l 19 -19 l 4 3 l -19 19 z"/><path fill="#FFF" stroke="none" d="M 46 17 l 7 7 l -14 0 z"/><path fill="#FFF" stroke="none" d="M 46 38 l 7 -7 l -14 0 z"/></svg>