<svg xmlns="http://www.w3.org/2000/svg" xmlns:svg="http://www.w3.org/2000/svg" id="svg2" width="300" height="300" version="1.1"><metadata id="metadata7"/><path id="path3001" d="m -48,117.5 a 123,116.5 0 1 1 -246,0 123,116.5 0 1 1 246,0 z" transform="matrix(0.9473704,0,0,1.000228,311.50034,34.973213)" style="fill:#000;fill-opacity:1;fill-rule:nonzero;stroke:#000;stroke-width:2;stroke-linecap:square;stroke-linejoin:round;stroke-miterlimit:4;stroke-opacity:1;stroke-dasharray:none;stroke-dashoffset:0"/><path id="path3822" d="m 97.54603,50.87999 -93.31235,0" style="fill:none;stroke:#000;stroke-width:8.4673624;stroke-linecap:square;stroke-linejoin:miter;stroke-miterlimit:4;stroke-opacity:1;stroke-dasharray:none"/><path id="path3824" d="m 50.57614,90.66061 c 0,0 -10.4078,-6.86417 -16.29568,-8.62712 C 27.82335,80.1001 4.23368,80.11635 4.23368,80.11635" style="fill:none;stroke:#000;stroke-width:8.4673624;stroke-linecap:square;stroke-linejoin:miter;stroke-miterlimit:4;stroke-opacity:1;stroke-dasharray:none"/><path id="path3820-3" d="m 73.745603,144.15196 c -6.981137,-0.6094 -11.943714,-8.76601 -14.378538,-15.33711 -2.555831,-6.89769 -1.277573,-15.03924 0.958565,-22.0471 3.933538,-12.32733 11.237689,-24.20107 21.088525,-32.59135 6.643865,-5.6588 15.42386,-8.74846 23.964235,-10.54427 6.87907,-1.44648 15.16733,-3.78858 21.08853,0 3.85358,2.46565 6.20891,7.90946 5.75141,12.4614 -0.59437,5.91368 -6.7942,9.76748 -10.54426,14.37854 -5.42462,6.67011 -11.81364,12.51432 -17.25425,19.17139 -6.794002,8.31306 -11.602397,18.2672 -19.171389,25.88137 -3.378952,3.39913 -6.728141,9.04392 -11.502828,8.62713 z" style="fill:#fff;fill-opacity:1;stroke:#000;stroke-width:.84673625px;stroke-linecap:butt;stroke-linejoin:miter;stroke-opacity:1"/><path id="path3822-7" d="m 200.45381,50.69145 95.31235,0" style="fill:none;stroke:#000;stroke-width:8.4673624;stroke-linecap:square;stroke-linejoin:miter;stroke-miterlimit:4;stroke-opacity:1;stroke-dasharray:none"/><path id="path3824-7" d="m 249.4237,90.47207 c 0,0 10.4078,-6.86417 16.29568,-8.62712 6.45711,-1.93339 30.04678,-1.91714 30.04678,-1.91714" style="fill:none;stroke:#000;stroke-width:8.4673624;stroke-linecap:square;stroke-linejoin:miter;stroke-miterlimit:4;stroke-opacity:1;stroke-dasharray:none"/></svg>