<svg xmlns="http://www.w3.org/2000/svg" xmlns:svg="http://www.w3.org/2000/svg" id="svg2" width="55" height="55" version="1.1"><metadata id="metadata18"/><g id="g3026" transform="matrix(1.1617464,0,0,1.1617464,-2.9659577,-5.0973562)"><path id="path3050-5" d="m 46.898443,21.903355 a 8.6731412,8.6120624 0 0 1 -17.346282,0 8.6731412,8.6120624 0 1 1 17.346282,0 z" style="fill:#fff;fill-opacity:1;fill-rule:nonzero;stroke:#000;stroke-width:2.00000024;stroke-linecap:round;stroke-miterlimit:4;stroke-opacity:1;stroke-dasharray:none"/><path id="path3820-9" d="m 33.041751,17.577533 -5.24237,-4.679409" style="fill:#fff;stroke:#fff;stroke-width:2;stroke-linecap:round;stroke-linejoin:miter;stroke-miterlimit:4;stroke-opacity:1;stroke-dasharray:none"/><path id="path3824-8" d="M 35.537938,15.723966 31.734926,9.3555712" style="fill:#fff;stroke:#fff;stroke-width:2;stroke-linecap:round;stroke-linejoin:miter;stroke-miterlimit:4;stroke-opacity:1;stroke-dasharray:none"/><path id="path3828-1" d="M 38.311611,14.789196 38.267793,8.2933322" style="fill:#fff;stroke:#fff;stroke-width:2;stroke-linecap:round;stroke-linejoin:miter;stroke-miterlimit:4;stroke-opacity:1;stroke-dasharray:none"/><path id="path3832-9" d="m 41.411936,15.346839 3.12312,-5.3910497" style="fill:#fff;stroke:#fff;stroke-width:2;stroke-linecap:round;stroke-linejoin:miter;stroke-miterlimit:4;stroke-opacity:1;stroke-dasharray:none"/><path id="path3836-5" d="M 44.173728,17.269417 48.895534,13.78517" style="fill:#fff;stroke:#fff;stroke-width:2;stroke-linecap:round;stroke-linejoin:miter;stroke-miterlimit:4;stroke-opacity:1;stroke-dasharray:none"/><path id="path3050" d="m 22.864546,21.903355 a 8.6731413,8.6120624 0 0 1 -17.3462825,0 8.6731413,8.6120624 0 1 1 17.3462825,0 z" style="fill:#fff;fill-opacity:1;fill-rule:nonzero;stroke:#000;stroke-width:2.00000024;stroke-linecap:round;stroke-miterlimit:4;stroke-opacity:1;stroke-dasharray:none"/><path id="path3820" d="M 8.2004814,17.02512 3.5530165,13.620509" style="fill:#fff;stroke:#fff;stroke-width:2;stroke-linecap:round;stroke-linejoin:miter;stroke-miterlimit:4;stroke-opacity:1;stroke-dasharray:none"/><path id="path3824" d="M 11.121602,15.129061 8.0834676,9.483051" style="fill:#fff;stroke:#fff;stroke-width:2;stroke-linecap:round;stroke-linejoin:miter;stroke-miterlimit:4;stroke-opacity:1;stroke-dasharray:none"/><path id="path3828" d="M 14.320208,14.534236 14.191402,8.420812" style="fill:#fff;stroke:#fff;stroke-width:2;stroke-linecap:round;stroke-linejoin:miter;stroke-miterlimit:4;stroke-opacity:1;stroke-dasharray:none"/><path id="path3832" d="M 17.250559,15.474319 20.671132,8.9784442" style="fill:#fff;stroke:#fff;stroke-width:2;stroke-linecap:round;stroke-linejoin:miter;stroke-miterlimit:4;stroke-opacity:1;stroke-dasharray:none"/><path id="path3836" d="m 20.012351,17.43939 5.146738,-4.249126" style="fill:#fff;stroke:#fff;stroke-width:2;stroke-linecap:round;stroke-linejoin:miter;stroke-miterlimit:4;stroke-opacity:1;stroke-dasharray:none"/><circle id="circle8" cx="17" cy="15" r="2" transform="translate(0,5)" style="fill:#fff;stroke:#000;stroke-width:3.5"/><circle id="circle10" cx="41" cy="15" r="2" transform="translate(0,5)" style="fill:#fff;stroke:#000;stroke-width:3.5"/></g></svg>