<svg xmlns="http://www.w3.org/2000/svg" xmlns:svg="http://www.w3.org/2000/svg" id="svg2" width="55" height="55" version="1.1"><metadata id="metadata18"/><rect id="rect4789" width="44.498" height="44.498" x="5.251" y="5.251" ry="0" style="fill:silver;fill-opacity:1;fill-rule:nonzero;stroke:silver;stroke-width:10.50204277;stroke-linecap:square;stroke-linejoin:round;stroke-miterlimit:4;stroke-opacity:1;stroke-dasharray:none;stroke-dashoffset:0"/><path id="path3820-9" d="M 35.420178,15.323279 29.329873,9.8869929" style="fill:#fff;stroke:#000;stroke-width:2.32349277;stroke-linecap:round;stroke-linejoin:miter;stroke-miterlimit:4;stroke-opacity:1;stroke-dasharray:none"/><path id="path3824-8" d="M 38.320114,13.169905 33.901978,5.771445" style="fill:#fff;stroke:#000;stroke-width:2.32349277;stroke-linecap:round;stroke-linejoin:miter;stroke-miterlimit:4;stroke-opacity:1;stroke-dasharray:none"/><path id="path3828-1" d="M 41.542418,12.083939 41.491513,4.5373926" style="fill:#fff;stroke:#000;stroke-width:2.32349277;stroke-linecap:round;stroke-linejoin:miter;stroke-miterlimit:4;stroke-opacity:1;stroke-dasharray:none"/><path id="path3832-9" d="M 45.14421,12.731779 48.772483,6.4687462" style="fill:#fff;stroke:#000;stroke-width:2.32349277;stroke-linecap:round;stroke-linejoin:miter;stroke-miterlimit:4;stroke-opacity:1;stroke-dasharray:none"/><path id="path3836-5" d="m 48.352712,14.965327 5.485541,-4.047812" style="fill:#fff;stroke:#000;stroke-width:2.32349277;stroke-linecap:round;stroke-linejoin:miter;stroke-miterlimit:4;stroke-opacity:1;stroke-dasharray:none"/><path id="path3050-5" d="m 51.51814,20.348788 a 10.075991,10.005032 0 0 1 -20.151981,0 10.075991,10.005032 0 1 1 20.151981,0 z" style="fill:#fff;fill-opacity:1;fill-rule:nonzero;stroke:#000;stroke-width:2.323493;stroke-linecap:round;stroke-miterlimit:4;stroke-opacity:1;stroke-dasharray:none"/><path id="path3820" d="M 6.560922,14.681516 1.1617464,10.726221" style="fill:#fff;stroke:#000;stroke-width:2.32349277;stroke-linecap:round;stroke-linejoin:miter;stroke-miterlimit:4;stroke-opacity:1;stroke-dasharray:none"/><path id="path3824" d="M 9.9545234,12.478776 6.4249817,5.9195442" style="fill:#fff;stroke:#000;stroke-width:2.32349277;stroke-linecap:round;stroke-linejoin:miter;stroke-miterlimit:4;stroke-opacity:1;stroke-dasharray:none"/><path id="path3828" d="M 13.670492,11.78774 13.520852,4.6854918" style="fill:#fff;stroke:#000;stroke-width:2.32349277;stroke-linecap:round;stroke-linejoin:miter;stroke-miterlimit:4;stroke-opacity:1;stroke-dasharray:none"/><path id="path3832" d="M 17.074817,12.879878 21.048655,5.333319" style="fill:#fff;stroke:#000;stroke-width:2.32349277;stroke-linecap:round;stroke-linejoin:miter;stroke-miterlimit:4;stroke-opacity:1;stroke-dasharray:none"/><path id="path3836" d="m 20.283319,15.162792 5.979204,-4.936406" style="fill:#fff;stroke:#000;stroke-width:2.32349277;stroke-linecap:round;stroke-linejoin:miter;stroke-miterlimit:4;stroke-opacity:1;stroke-dasharray:none"/><path id="path3050" d="m 23.596846,20.348788 a 10.075991,10.005032 0 0 1 -20.1519809,0 10.075991,10.005032 0 1 1 20.1519809,0 z" style="fill:#fff;fill-opacity:1;fill-rule:nonzero;stroke:#000;stroke-width:2.323493;stroke-linecap:round;stroke-miterlimit:4;stroke-opacity:1;stroke-dasharray:none"/><circle id="circle8" cx="17" cy="15" r="2" transform="matrix(1.1617464,0,0,1.1617464,-2.9659577,0.7113758)" style="fill:#fff;stroke:#000;stroke-width:3.5;stroke-opacity:1"/><circle id="circle10" cx="41" cy="15" r="2" transform="matrix(1.1617464,0,0,1.1617464,-2.9659577,0.7113758)" style="fill:#fff;stroke:#000;stroke-width:3.5;stroke-opacity:1"/></svg>