<svg xmlns="http://www.w3.org/2000/svg" xmlns:svg="http://www.w3.org/2000/svg" id="svg2" width="55" height="55" version="1.1" viewBox="0 0 55 55" xml:space="preserve"><metadata id="metadata17"/><g id="g5" style="stroke-width:2;stroke-miterlimit:4;stroke-dasharray:none"><path id="path7" d="m 48.143,36.983 c 0,3.3 -2.7,6 -6,6 H 12.705 c -3.3,0 -6,-2.7 -6,-6 v -18.77 c 0,-3.3 2.7,-6 6,-6 h 29.438 c 3.3,0 6,2.7 6,6 v 18.77 z" style="fill:#fff;stroke-width:2;stroke-miterlimit:4;stroke-dasharray:none"/><path id="path9" d="m 48.143,36.983 c 0,3.3 -2.7,6 -6,6 H 12.705 c -3.3,0 -6,-2.7 -6,-6 v -18.77 c 0,-3.3 2.7,-6 6,-6 h 29.438 c 3.3,0 6,2.7 6,6 v 18.77 z" style="fill:none;stroke:#010101;stroke-width:2;stroke-linejoin:round;stroke-miterlimit:4;stroke-dasharray:none"/></g><path id="path11" d="m 8.1625442,36.926067 c 5.0590008,0 6.2884768,0.152546 7.3571518,0 0.824413,-4.892167 1.195867,-8.102016 2.105976,-11.018468 0.884819,3.149769 1.385387,7.783854 2.097265,11.018468 1.450713,-0.03181 1.32398,0.08926 2.315206,0 1.892773,-9.953271 1.602345,-15.607024 3.413688,-19.145652 2.189496,3.6164 2.130974,11.990623 3.600559,19.145652 3.373727,-0.09269 17.160161,0 17.160161,0" style="fill:#fff;stroke:#010101;stroke-width:2;stroke-linejoin:round;stroke-miterlimit:4;stroke-dasharray:none"/></svg>