<svg xmlns="http://www.w3.org/2000/svg" xmlns:svg="http://www.w3.org/2000/svg" id="Layer_1" width="55" height="55" version="1.0" viewBox="0 0 50 50" xml:space="preserve"><metadata id="metadata29"/><path id="path3190" d="M 16.723374,46.806292 C 16.855649,43.252225 16.987924,39.723192 17.120199,35.827457 C 18.481703,31.220865 14.052534,27.950574 12.887395,23.658144 C 11.742257,15.774242 14.12395,9.9649462 24.924432,9.1078802 C 31.587506,10.578246 39.012306,11.18182 35.770993,23.922695 C 33.371992,27.717361 29.197982,29.558066 29.421786,35.166081 C 29.131102,39.169447 28.433422,43.376312 27.437659,47.732218 C 24.508943,48.617185 22.012584,50.3051 16.723374,46.806292 z" style="fill:#fff;fill-opacity:1;fill-rule:evenodd;stroke:#000;stroke-width:1.81818182;stroke-linecap:butt;stroke-linejoin:miter;stroke-miterlimit:4;stroke-dasharray:none;stroke-opacity:1"/><path id="path3198" d="M 16.975898,44.822165 C 17.216398,44.902332 17.456899,44.982498 17.697399,45.062665 C 18.795738,45.428778 19.981952,45.513553 21.064402,45.784166 C 21.980159,46.013105 23.234291,45.784166 24.190905,45.784166 C 25.361118,45.784166 26.304322,45.626976 27.437659,45.303165 C 27.697639,45.228885 27.902688,45.22566 28.159159,45.182915" style="fill:#fff;fill-opacity:1;fill-rule:evenodd;stroke:#000;stroke-width:1.81818182;stroke-linecap:butt;stroke-linejoin:miter;stroke-miterlimit:4;stroke-dasharray:none;stroke-opacity:1"/><path id="path3208" d="M 17.133479,42.262299 C 17.446278,42.340499 18.01959,42.784415 18.493954,42.942537 C 19.169057,43.167571 19.817619,43.326596 20.492151,43.495229 C 21.270392,43.689789 22.112653,43.581905 22.872982,43.835348 C 23.350903,43.994655 24.015112,43.920378 24.531061,43.920378 C 25.193603,43.920378 25.919587,43.489619 26.529258,43.367685 C 27.078211,43.257894 27.52687,42.992633 28.059792,42.814992 C 28.4145,42.696756 28.384141,42.500073 28.655,42.432359" style="fill:#fff;fill-opacity:1;fill-rule:evenodd;stroke:#000;stroke-width:1.81818182;stroke-linecap:butt;stroke-linejoin:miter;stroke-miterlimit:4;stroke-dasharray:none;stroke-opacity:1"/><path id="path3212" d="M 17.04845,39.243746 C 17.281316,39.156421 18.824413,39.738142 19.174191,39.796439 C 21.305683,40.151687 23.560017,40.051528 25.721476,40.051528 C 26.543207,40.051528 28.142494,40.244009 28.867574,39.881468" style="fill:#fff;fill-opacity:1;fill-rule:evenodd;stroke:#000;stroke-width:1.81818182;stroke-linecap:butt;stroke-linejoin:miter;stroke-miterlimit:4;stroke-dasharray:none;stroke-opacity:1"/><path id="path3214" d="M 16.835875,36.480281 C 17.629072,36.480281 19.916025,37.250319 21.257418,37.585667 C 22.381947,37.866799 23.7113,37.415608 24.828665,37.415608 C 25.529754,37.415608 26.609622,37.21247 27.294525,37.075489 C 27.935027,36.947389 28.643047,36.97219 29.250208,36.8204" style="fill:#fff;fill-opacity:1;fill-rule:evenodd;stroke:#000;stroke-width:1.81818182;stroke-linecap:butt;stroke-linejoin:miter;stroke-miterlimit:4;stroke-dasharray:none;stroke-opacity:1"/><path id="path3224" d="M 18.536469,13.607299 C 18.431764,14.02612 17.651319,13.812211 17.346053,14.117477 C 15.831697,15.631833 15.846313,16.88531 15.390371,18.709079" style="fill:#fff;fill-opacity:1;fill-rule:evenodd;stroke:#000;stroke-width:1.81818182;stroke-linecap:butt;stroke-linejoin:miter;stroke-miterlimit:4;stroke-dasharray:none;stroke-opacity:1"/><path id="path3232" d="M 30.440623,14.202506 C 31.28182,15.6045 32.362472,14.492321 33.246603,18.028842 C 33.50682,19.069712 33.181971,20.263448 32.906484,21.08991" style="fill:#fff;fill-opacity:1;fill-rule:evenodd;stroke:#000;stroke-width:1.81818182;stroke-linecap:butt;stroke-linejoin:miter;stroke-miterlimit:4;stroke-dasharray:none;stroke-opacity:1"/><path id="path3238" d="M 19.726884,35.885074 C 19.736112,34.55356 19.556825,33.306212 19.556825,31.973709 C 19.556825,30.810705 19.488084,29.690611 19.301736,28.572522 C 19.167181,27.765193 19.046647,26.926717 19.046647,26.106661 C 19.046647,25.440348 18.706528,24.823394 18.706528,24.150979" style="fill:#fff;fill-opacity:1;fill-rule:evenodd;stroke:#000;stroke-width:1.81818182;stroke-linecap:butt;stroke-linejoin:miter;stroke-miterlimit:4;stroke-dasharray:none;stroke-opacity:1"/><path id="path3252" d="M 26.274169,34.09945 C 26.274169,34.042764 26.274169,33.986078 26.274169,33.929391 C 26.274169,32.646146 27.391115,30.652024 27.719674,29.337789 C 27.77636,29.111043 27.833047,28.884297 27.889733,28.657551 C 28.108768,27.781413 28.43707,27.052701 28.82506,26.27672 C 29.050142,25.826556 29.032745,25.360951 29.165178,24.831216 C 29.283218,24.359058 29.420267,24.188534 29.420267,23.72583" style="fill:#fff;fill-opacity:1;fill-rule:evenodd;stroke:#000;stroke-width:1.81818182;stroke-linecap:butt;stroke-linejoin:miter;stroke-miterlimit:4;stroke-dasharray:none;stroke-opacity:1"/><path id="path3258" d="M 20.662211,24.576127 C 22.797072,25.109842 24.88686,23.067902 25.338843,21.25997 C 25.569635,20.336803 25.260119,19.624725 24.318487,19.389317 C 23.614169,19.213237 23.492585,19.692489 23.38316,20.239614 C 23.190462,21.203106 23.569982,22.268338 23.893338,23.130623 C 24.189988,23.921688 24.21253,24.294549 24.998724,24.491097 C 25.602008,24.641918 26.15078,24.498609 26.614288,24.150979" style="fill:#fff;fill-opacity:1;fill-rule:evenodd;stroke:#000;stroke-width:1.81818182;stroke-linecap:butt;stroke-linejoin:miter;stroke-miterlimit:4;stroke-dasharray:none;stroke-opacity:1"/><path id="path3268" d="M 13.264629,29.762937 C 10.707218,28.739973 7.3550018,30.448514 5.1017805,31.293472" style="fill:#fff;fill-opacity:1;fill-rule:evenodd;stroke:#000;stroke-width:1.81818182;stroke-linecap:butt;stroke-linejoin:miter;stroke-miterlimit:4;stroke-dasharray:none;stroke-opacity:1"/><path id="path3270" d="M 9.0131455,23.640801 C 7.534669,23.04941 5.5299153,22.960563 3.911365,22.960563" style="fill:#fff;fill-opacity:1;fill-rule:evenodd;stroke:#000;stroke-width:1.81818182;stroke-linecap:butt;stroke-linejoin:miter;stroke-miterlimit:4;stroke-dasharray:none;stroke-opacity:1"/><path id="path3272" d="M 9.8634423,17.858783 C 7.4097472,16.877305 4.8810938,14.092164 2.5508902,12.927062" style="fill:#fff;fill-opacity:1;fill-rule:evenodd;stroke:#000;stroke-width:1.81818182;stroke-linecap:butt;stroke-linejoin:miter;stroke-miterlimit:4;stroke-dasharray:none;stroke-opacity:1"/><path id="path3276" d="M 15.64546,9.0156967 C 15.577739,8.9886084 14.270342,4.936068 14.114926,4.5941536" style="fill:#fff;fill-opacity:1;fill-rule:evenodd;stroke:#000;stroke-width:1.81818182;stroke-linecap:butt;stroke-linejoin:miter;stroke-miterlimit:4;stroke-dasharray:none;stroke-opacity:1"/><path id="path3278" d="M 20.067003,7.4851625 C 19.434985,7.2323553 20.407122,3.0721788 20.407122,1.873204" style="fill:#fff;fill-opacity:1;fill-rule:evenodd;stroke:#000;stroke-width:1.81818182;stroke-linecap:butt;stroke-linejoin:miter;stroke-miterlimit:4;stroke-dasharray:none;stroke-opacity:1"/><path id="path3280" d="M 27.379555,8.3354593 C 27.158812,8.2471618 28.229852,3.6895085 28.229852,2.7235007" style="fill:#fff;fill-opacity:1;fill-rule:evenodd;stroke:#000;stroke-width:1.81818182;stroke-linecap:butt;stroke-linejoin:miter;stroke-miterlimit:4;stroke-dasharray:none;stroke-opacity:1"/><path id="path3282" d="M 33.161573,9.5258747 C 32.98088,9.4535975 35.089459,5.8216307 35.372345,5.4444503" style="fill:#fff;fill-opacity:1;fill-rule:evenodd;stroke:#000;stroke-width:1.81818182;stroke-linecap:butt;stroke-linejoin:miter;stroke-miterlimit:4;stroke-dasharray:none;stroke-opacity:1"/><path id="path3284" d="M 37.072938,11.736646 C 35.91726,11.274375 39.824038,9.6778439 42.344778,8.1653999" style="fill:#fff;fill-opacity:1;fill-rule:evenodd;stroke:#000;stroke-width:1.81818182;stroke-linecap:butt;stroke-linejoin:miter;stroke-miterlimit:4;stroke-dasharray:none;stroke-opacity:1"/><path id="path3286" d="M 39.11365,16.498308 C 37.874839,16.002784 41.690775,15.648011 43.025016,15.648011" style="fill:#fff;fill-opacity:1;fill-rule:evenodd;stroke:#000;stroke-width:1.81818182;stroke-linecap:butt;stroke-linejoin:miter;stroke-miterlimit:4;stroke-dasharray:none;stroke-opacity:1"/><path id="path3290" d="M 37.242998,26.871928 C 38.346419,27.239736 38.801386,28.600377 39.623829,29.422819" style="fill:#fff;fill-opacity:1;fill-rule:evenodd;stroke:#000;stroke-width:1.81818182;stroke-linecap:butt;stroke-linejoin:miter;stroke-miterlimit:4;stroke-dasharray:none;stroke-opacity:1"/><path id="path3292" d="M 34.01187,30.443175 C 35.488246,30.9353 37.740219,33.713713 38.603472,34.864718" style="fill:#fff;fill-opacity:1;fill-rule:evenodd;stroke:#000;stroke-width:1.81818182;stroke-linecap:butt;stroke-linejoin:miter;stroke-miterlimit:4;stroke-dasharray:none;stroke-opacity:1"/><path id="path3294" d="M 11.223917,11.566587 C 10.939233,10.903218 8.5659634,8.8015698 7.8227301,7.3151032" style="fill:#fff;fill-opacity:1;fill-rule:evenodd;stroke:#000;stroke-width:1.81818182;stroke-linecap:butt;stroke-linejoin:miter;stroke-miterlimit:4;stroke-dasharray:none;stroke-opacity:1"/><path id="path3296" d="M 37.923235,21.089911 C 38.834054,20.372818 40.830076,21.430029 42.514837,21.430029" style="fill:#fff;fill-opacity:1;fill-rule:evenodd;stroke:#000;stroke-width:1.81818182;stroke-linecap:butt;stroke-linejoin:miter;stroke-miterlimit:4;stroke-dasharray:none;stroke-opacity:1"/></svg>