<svg xmlns="http://www.w3.org/2000/svg" xmlns:svg="http://www.w3.org/2000/svg" id="svg2" width="55" height="55" version="1.1"><metadata id="metadata18"/><g id="layer1-6" transform="matrix(-0.0925916,0,0,0.0925916,54.999998,-64.225776)" style="stroke:#fff;stroke-opacity:1"><path id="path3050-4" d="m 4.221987,818.14744 0,32.50132 c 0,0 15.43321,6.07134 20.074349,12.42698 20.144546,27.58623 2.706611,73.4101 24.853957,99.41583 20.454142,24.01754 55.509537,35.21531 86.988847,37.28094 29.39338,1.92879 60.82856,-7.17372 85.07701,-23.89804 16.31556,-11.25294 30.13344,-28.68026 35.36909,-47.79607 6.39204,-23.33787 6.57785,-45.81419 22.94211,-59.26713 C 283.77642,865.31816 295,865.86218 295,865.86218 l 0,-30.50816 c 0,0 -27.60771,-6.26 -41.28253,-9.55921 -21.71145,-5.23814 -42.9884,-12.48265 -65.00265,-16.25067 -16.71978,-2.8618 -33.70419,-4.44612 -50.66384,-4.7796 -23.29114,-0.45798 -46.606389,1.46439 -69.782259,3.82368 -21.474409,2.18608 -64.046734,9.55922 -64.046734,9.55922 z" style="fill:#000;fill-opacity:1;stroke:#fff;stroke-width:8.44397259;stroke-linecap:butt;stroke-linejoin:miter;stroke-miterlimit:4;stroke-opacity:1;stroke-dasharray:none"/><path id="path3820-5" d="m 55.471701,108.67924 a 20.377359,3.3962292 0 1 1 -40.754719,0 20.377359,3.3962292 0 1 1 40.754719,0 z" transform="matrix(0.84273125,-0.05301633,0.05301633,0.84273125,4.2542086,746.58312)" style="fill:#fff;fill-opacity:1;fill-rule:nonzero;stroke:#fff;stroke-width:10;stroke-linecap:round;stroke-linejoin:round;stroke-miterlimit:4;stroke-opacity:1;stroke-dasharray:none;stroke-dashoffset:0"/></g><g id="layer1" transform="matrix(0.0925916,0,0,0.0925916,-6.540799e-8,-64.225776)" style="stroke:#fff;stroke-opacity:1"><path id="path3050" d="m 4.221987,818.14744 0,32.50132 c 0,0 15.43321,6.07134 20.074349,12.42698 20.144546,27.58623 2.706611,73.4101 24.853957,99.41583 20.454142,24.01754 55.509537,35.21531 86.988847,37.28094 29.39338,1.92879 60.82856,-7.17372 85.07701,-23.89804 16.31556,-11.25294 30.13344,-28.68026 35.36909,-47.79607 6.39204,-23.33787 6.57785,-45.81419 22.94211,-59.26713 C 283.77642,865.31816 295,865.86218 295,865.86218 l 0,-30.50816 c 0,0 -27.60771,-6.26 -41.28253,-9.55921 -21.71145,-5.23814 -42.9884,-12.48265 -65.00265,-16.25067 -16.71978,-2.8618 -33.70419,-4.44612 -50.66384,-4.7796 -23.29114,-0.45798 -46.606389,1.46439 -69.782259,3.82368 -21.474409,2.18608 -64.046734,9.55922 -64.046734,9.55922 z" style="fill:#000;fill-opacity:1;stroke:#fff;stroke-width:8.44397259;stroke-linecap:butt;stroke-linejoin:miter;stroke-miterlimit:4;stroke-opacity:1;stroke-dasharray:none"/><path id="path3820" d="m 55.471701,108.67924 a 20.377359,3.3962285 0 1 1 -40.754719,0 20.377359,3.3962285 0 1 1 40.754719,0 z" transform="matrix(0.84273125,-0.05301633,0.05301633,0.84273125,4.2542086,746.58312)" style="fill:#fff;fill-opacity:1;fill-rule:nonzero;stroke:#fff;stroke-width:10;stroke-linecap:round;stroke-linejoin:round;stroke-miterlimit:4;stroke-opacity:1;stroke-dasharray:none;stroke-dashoffset:0"/></g><circle id="circle8" cx="17" cy="15" r="2" transform="matrix(0.8,0,0,0.8,32.357843,8.5809876)" style="fill:#fff;stroke:#fff;stroke-width:3.5;stroke-opacity:1"/><circle id="circle10" cx="41" cy="15" r="2" transform="matrix(0.8,0,0,0.8,-14.348029,8.5809879)" style="fill:#fff;stroke:#fff;stroke-width:3.5;stroke-opacity:1"/></svg>