<svg xmlns="http://www.w3.org/2000/svg" xmlns:svg="http://www.w3.org/2000/svg" id="svg2" width="55" height="55" x="0" y="0" enable-background="new 0 0 55 55" version="1.1" viewBox="0 0 55 55" xml:space="preserve"><metadata id="metadata17"/><g id="g5" style="stroke-width:2;stroke-miterlimit:4;stroke-dasharray:none"><path style="fill:#fff;stroke-width:2;stroke-miterlimit:4;stroke-dasharray:none" id="path7" d="m 48.143,36.983 c 0,3.3 -2.7,6 -6,6 H 12.705 c -3.3,0 -6,-2.7 -6,-6 v -18.77 c 0,-3.3 2.7,-6 6,-6 h 29.438 c 3.3,0 6,2.7 6,6 v 18.77 z"/><path style="fill:none;stroke:#010101;stroke-width:2;stroke-linejoin:round;stroke-miterlimit:4;stroke-dasharray:none" id="path9" d="m 48.143,36.983 c 0,3.3 -2.7,6 -6,6 H 12.705 c -3.3,0 -6,-2.7 -6,-6 v -18.77 c 0,-3.3 2.7,-6 6,-6 h 29.438 c 3.3,0 6,2.7 6,6 v 18.77 z"/></g><path style="fill:#fff;stroke:#010101;stroke-width:2;stroke-linejoin:round;stroke-miterlimit:4;stroke-dasharray:none" id="path11" d="m 8.007,27.598 c 10.118,0 6.243,9.431 11.213,9.431 4.375,0 2.154,-19.154 6.279,-19.154 4.875,0 1.719,19.154 6.719,19.154 4.406,0 1.781,-11.529 5.156,-11.529 3.375,0 2,4.875 4.25,4.875 2.375,0 0.25,-3.375 5.75,-3.375"/></svg>