<svg xmlns="http://www.w3.org/2000/svg" xmlns:svg="http://www.w3.org/2000/svg" id="svg2" width="99" height="99" x="0" y="0" enable-background="new 0 0 99.556 83.32" version="1.1" viewBox="0 0 99 80" xml:space="preserve"><metadata id="metadata162"/><rect style="fill:#fff;fill-opacity:1;stroke:#fff;stroke-opacity:1" id="rect4290" width="94.553" height="78.95" x="3.433" y="1.812"/><path id="path4" d="m 95.969,83.32 -90.851,0 c -1.978,0 -3.586,-1.649 -3.586,-3.676 l 0,-75.968 C 1.532,1.649 3.14,0 5.118,0 L 95.97,0 c 1.978,0 3.586,1.649 3.586,3.676 l 0,75.969 c 0,2.026 -1.608,3.675 -3.587,3.675 z M 5.118,2.451 C 4.458,2.451 3.922,3 3.922,3.676 l 0,75.969 c 0,0.676 0.536,1.225 1.195,1.225 l 90.852,0 c 0.659,0 1.195,-0.549 1.195,-1.225 l 0,-75.969 C 97.164,3 96.628,2.451 95.969,2.451 l -90.851,0 z" style="fill:#000"/><path id="path6" d="M 3.982,11.334 C 1.786,11.334 0,9.548 0,7.352 0,5.156 1.786,3.37 3.982,3.37 c 2.196,0 3.982,1.786 3.982,3.982 l -0.612,0 c 0,-1.858 -1.511,-3.37 -3.37,-3.37 -1.858,0 -3.37,1.511 -3.37,3.37 0,1.859 1.511,3.37 3.37,3.37 l 0,0.612 z" style="fill:#000"/><path id="path8" d="m 7.658,6.127 c -0.677,0 -1.225,0.548 -1.225,1.225 0,0.677 0.548,1.225 1.225,1.225 0.677,0 1.225,-0.548 1.225,-1.225 0,-0.677 -0.548,-1.225 -1.225,-1.225 l 0,0 z" style="fill:#000"/><path id="path10" d="M 3.982,13.785 C 1.786,13.785 0,11.998 0,9.802 0,7.606 1.786,5.82 3.982,5.82 c 2.196,0 3.982,1.786 3.982,3.982 l -0.612,0 c 0,-1.858 -1.511,-3.37 -3.37,-3.37 -1.858,0 -3.37,1.511 -3.37,3.37 0,1.859 1.511,3.37 3.37,3.37 l 0,0.613 z" style="fill:#000"/><path id="path12" d="m 7.658,8.577 c -0.677,0 -1.225,0.548 -1.225,1.225 0,0.677 0.548,1.225 1.225,1.225 0.677,0 1.225,-0.548 1.225,-1.225 0,-0.677 -0.548,-1.225 -1.225,-1.225 l 0,0 z" style="fill:#000"/><path id="path14" d="M 3.982,16.235 C 1.786,16.235 0,14.449 0,12.253 0,10.057 1.786,8.271 3.982,8.271 c 2.196,0 3.982,1.786 3.982,3.982 l -0.612,0 c 0,-1.858 -1.511,-3.37 -3.37,-3.37 -1.858,0 -3.37,1.511 -3.37,3.37 0,1.859 1.511,3.37 3.37,3.37 l 0,0.612 z" style="fill:#000"/><path id="path16" d="m 7.658,11.028 c -0.677,0 -1.225,0.548 -1.225,1.225 0,0.677 0.548,1.225 1.225,1.225 0.677,0 1.225,-0.548 1.225,-1.225 0,-0.677 -0.548,-1.225 -1.225,-1.225 l 0,0 z" style="fill:#000"/><path id="path18" d="M 3.982,18.686 C 1.786,18.686 0,16.899 0,14.704 c 0,-2.195 1.786,-3.982 3.982,-3.982 2.196,0 3.982,1.786 3.982,3.982 l -0.612,0 c 0,-1.858 -1.511,-3.37 -3.37,-3.37 -1.858,0 -3.37,1.511 -3.37,3.37 0,1.859 1.511,3.37 3.37,3.37 l 0,0.612 z" style="fill:#000"/><path id="path20" d="m 7.658,13.478 c -0.677,0 -1.225,0.548 -1.225,1.225 0,0.677 0.548,1.225 1.225,1.225 0.677,0 1.225,-0.548 1.225,-1.225 0,-0.677 -0.548,-1.225 -1.225,-1.225 l 0,0 z" style="fill:#000"/><path id="path22" d="M 3.982,21.136 C 1.786,21.136 0,19.35 0,17.154 c 0,-2.196 1.786,-3.982 3.982,-3.982 2.196,0 3.982,1.786 3.982,3.982 l -0.612,0 c 0,-1.858 -1.511,-3.37 -3.37,-3.37 -1.858,0 -3.37,1.511 -3.37,3.37 0,1.859 1.511,3.37 3.37,3.37 l 0,0.612 z" style="fill:#000"/><path id="path24" d="m 7.658,15.929 c -0.677,0 -1.225,0.548 -1.225,1.225 0,0.677 0.548,1.225 1.225,1.225 0.677,0 1.225,-0.548 1.225,-1.225 0,-0.677 -0.548,-1.225 -1.225,-1.225 l 0,0 z" style="fill:#000"/><path id="path26" d="M 3.982,23.587 C 1.786,23.587 0,21.801 0,19.605 c 0,-2.196 1.786,-3.982 3.982,-3.982 2.196,0 3.982,1.786 3.982,3.982 l -0.612,0 c 0,-1.858 -1.511,-3.37 -3.37,-3.37 -1.858,0 -3.37,1.511 -3.37,3.37 0,1.858 1.511,3.37 3.37,3.37 l 0,0.612 z" style="fill:#000"/><path id="path28" d="m 7.658,18.379 c -0.677,0 -1.225,0.548 -1.225,1.225 0,0.677 0.548,1.225 1.225,1.225 0.677,0 1.225,-0.548 1.225,-1.225 0,-0.677 -0.548,-1.225 -1.225,-1.225 l 0,0 z" style="fill:#000"/><path id="path30" d="M 3.982,26.038 C 1.786,26.038 0,24.251 0,22.055 c 0,-2.196 1.786,-3.982 3.982,-3.982 2.196,0 3.982,1.786 3.982,3.982 l -0.612,0 c 0,-1.858 -1.511,-3.37 -3.37,-3.37 -1.858,0 -3.37,1.511 -3.37,3.37 0,1.859 1.511,3.37 3.37,3.37 l 0,0.613 z" style="fill:#000"/><path id="path32" d="m 7.658,20.83 c -0.677,0 -1.225,0.548 -1.225,1.225 0,0.677 0.548,1.225 1.225,1.225 0.677,0 1.225,-0.548 1.225,-1.225 0,-0.677 -0.548,-1.225 -1.225,-1.225 l 0,0 z" style="fill:#000"/><path id="path34" d="M 3.982,28.488 C 1.786,28.488 0,26.702 0,24.506 0,22.31 1.786,20.524 3.982,20.524 c 2.196,0 3.982,1.786 3.982,3.982 l -0.612,0 c 0,-1.858 -1.511,-3.37 -3.37,-3.37 -1.858,0 -3.37,1.511 -3.37,3.37 0,1.859 1.511,3.37 3.37,3.37 l 0,0.612 z" style="fill:#000"/><path id="path36" d="m 7.658,23.281 c -0.677,0 -1.225,0.548 -1.225,1.225 0,0.677 0.548,1.225 1.225,1.225 0.677,0 1.225,-0.548 1.225,-1.225 0,-0.677 -0.548,-1.225 -1.225,-1.225 l 0,0 z" style="fill:#000"/><path id="path38" d="M 3.982,30.939 C 1.786,30.939 0,29.152 0,26.957 c 0,-2.195 1.786,-3.982 3.982,-3.982 2.196,0 3.982,1.786 3.982,3.982 l -0.612,0 c 0,-1.858 -1.511,-3.37 -3.37,-3.37 -1.858,0 -3.37,1.511 -3.37,3.37 0,1.859 1.511,3.37 3.37,3.37 l 0,0.612 z" style="fill:#000"/><path id="path40" d="m 7.658,25.731 c -0.677,0 -1.225,0.548 -1.225,1.225 0,0.677 0.548,1.225 1.225,1.225 0.677,0 1.225,-0.548 1.225,-1.225 0,-0.677 -0.548,-1.225 -1.225,-1.225 l 0,0 z" style="fill:#000"/><path id="path42" d="M 3.982,33.389 C 1.786,33.389 0,31.603 0,29.407 c 0,-2.196 1.786,-3.982 3.982,-3.982 2.196,0 3.982,1.786 3.982,3.982 l -0.612,0 c 0,-1.858 -1.511,-3.37 -3.37,-3.37 -1.858,0 -3.37,1.511 -3.37,3.37 0,1.859 1.511,3.37 3.37,3.37 l 0,0.612 z" style="fill:#000"/><path id="path44" d="m 7.658,28.182 c -0.677,0 -1.225,0.548 -1.225,1.225 0,0.677 0.548,1.225 1.225,1.225 0.677,0 1.225,-0.548 1.225,-1.225 0,-0.677 -0.548,-1.225 -1.225,-1.225 l 0,0 z" style="fill:#000"/><path id="path46" d="M 3.982,35.84 C 1.786,35.84 0,34.054 0,31.858 c 0,-2.196 1.786,-3.982 3.982,-3.982 2.196,0 3.982,1.786 3.982,3.982 l -0.612,0 c 0,-1.858 -1.511,-3.37 -3.37,-3.37 -1.858,0 -3.37,1.511 -3.37,3.37 0,1.858 1.511,3.37 3.37,3.37 l 0,0.612 z" style="fill:#000"/><path id="path48" d="m 7.658,30.632 c -0.677,0 -1.225,0.548 -1.225,1.225 0,0.677 0.548,1.225 1.225,1.225 0.677,0 1.225,-0.548 1.225,-1.225 0,-0.677 -0.548,-1.225 -1.225,-1.225 l 0,0 z" style="fill:#000"/><path id="path50" d="M 3.982,38.291 C 1.786,38.291 0,36.504 0,34.308 c 0,-2.196 1.786,-3.982 3.982,-3.982 2.196,0 3.982,1.786 3.982,3.982 l -0.612,0 c 0,-1.858 -1.511,-3.37 -3.37,-3.37 -1.858,0 -3.37,1.511 -3.37,3.37 0,1.858 1.511,3.37 3.37,3.37 l 0,0.613 z" style="fill:#000"/><path id="path52" d="m 7.658,33.083 c -0.677,0 -1.225,0.548 -1.225,1.225 0,0.677 0.548,1.225 1.225,1.225 0.677,0 1.225,-0.548 1.225,-1.225 0,-0.677 -0.548,-1.225 -1.225,-1.225 l 0,0 z" style="fill:#000"/><path id="path54" d="M 3.982,40.741 C 1.786,40.741 0,38.955 0,36.759 c 0,-2.196 1.786,-3.982 3.982,-3.982 2.196,0 3.982,1.786 3.982,3.982 l -0.612,0 c 0,-1.858 -1.511,-3.37 -3.37,-3.37 -1.858,0 -3.37,1.511 -3.37,3.37 0,1.858 1.511,3.37 3.37,3.37 l 0,0.612 z" style="fill:#000"/><path id="path56" d="m 7.658,35.534 c -0.677,0 -1.225,0.548 -1.225,1.225 0,0.677 0.548,1.225 1.225,1.225 0.677,0 1.225,-0.548 1.225,-1.225 0,-0.677 -0.548,-1.225 -1.225,-1.225 l 0,0 z" style="fill:#000"/><path id="path58" d="M 3.982,43.192 C 1.786,43.192 0,41.405 0,39.21 c 0,-2.196 1.786,-3.982 3.982,-3.982 2.196,0 3.982,1.786 3.982,3.982 l -0.612,0 c 0,-1.858 -1.511,-3.37 -3.37,-3.37 -1.858,0 -3.37,1.511 -3.37,3.37 0,1.858 1.511,3.37 3.37,3.37 l 0,0.612 z" style="fill:#000"/><path id="path60" d="m 7.658,37.984 c -0.677,0 -1.225,0.548 -1.225,1.225 0,0.677 0.548,1.225 1.225,1.225 0.677,0 1.225,-0.548 1.225,-1.225 0,-0.677 -0.548,-1.225 -1.225,-1.225 l 0,0 z" style="fill:#000"/><path id="path62" d="M 3.982,45.642 C 1.786,45.642 0,43.856 0,41.66 c 0,-2.196 1.786,-3.982 3.982,-3.982 2.196,0 3.982,1.786 3.982,3.982 l -0.612,0 c 0,-1.858 -1.511,-3.37 -3.37,-3.37 -1.858,0 -3.37,1.511 -3.37,3.37 0,1.858 1.511,3.37 3.37,3.37 l 0,0.612 z" style="fill:#000"/><path id="path64" d="m 7.658,40.435 c -0.677,0 -1.225,0.548 -1.225,1.225 0,0.677 0.548,1.225 1.225,1.225 0.677,0 1.225,-0.548 1.225,-1.225 0,-0.677 -0.548,-1.225 -1.225,-1.225 l 0,0 z" style="fill:#000"/><path id="path66" d="M 3.982,48.093 C 1.786,48.093 0,46.307 0,44.111 c 0,-2.196 1.786,-3.982 3.982,-3.982 2.196,0 3.982,1.786 3.982,3.982 l -0.612,0 c 0,-1.858 -1.511,-3.37 -3.37,-3.37 -1.858,0 -3.37,1.511 -3.37,3.37 0,1.858 1.511,3.37 3.37,3.37 l 0,0.612 z" style="fill:#000"/><path id="path68" d="m 7.658,42.886 c -0.677,0 -1.225,0.548 -1.225,1.225 0,0.677 0.548,1.225 1.225,1.225 0.677,0 1.225,-0.548 1.225,-1.225 0,-0.677 -0.548,-1.225 -1.225,-1.225 l 0,0 z" style="fill:#000"/><path id="path70" d="M 3.982,50.544 C 1.786,50.544 0,48.757 0,46.561 c 0,-2.196 1.786,-3.982 3.982,-3.982 2.196,0 3.982,1.786 3.982,3.982 l -0.612,0 c 0,-1.858 -1.511,-3.37 -3.37,-3.37 -1.858,0 -3.37,1.511 -3.37,3.37 0,1.858 1.511,3.37 3.37,3.37 l 0,0.613 z" style="fill:#000"/><path id="path72" d="m 7.658,45.336 c -0.677,0 -1.225,0.548 -1.225,1.225 0,0.677 0.548,1.225 1.225,1.225 0.677,0 1.225,-0.548 1.225,-1.225 0,-0.677 -0.548,-1.225 -1.225,-1.225 l 0,0 z" style="fill:#000"/><path id="path74" d="M 3.982,52.994 C 1.786,52.994 0,51.208 0,49.012 0,46.816 1.786,45.03 3.982,45.03 c 2.196,0 3.982,1.786 3.982,3.982 l -0.612,0 c 0,-1.858 -1.511,-3.37 -3.37,-3.37 -1.858,0 -3.37,1.511 -3.37,3.37 0,1.858 1.511,3.37 3.37,3.37 l 0,0.612 z" style="fill:#000"/><path id="path76" d="m 7.658,47.787 c -0.677,0 -1.225,0.548 -1.225,1.225 0,0.677 0.548,1.225 1.225,1.225 0.677,0 1.225,-0.548 1.225,-1.225 0,-0.677 -0.548,-1.225 -1.225,-1.225 l 0,0 z" style="fill:#000"/><path id="path78" d="M 3.982,55.445 C 1.786,55.445 0,53.658 0,51.463 c 0,-2.195 1.786,-3.982 3.982,-3.982 2.196,0 3.982,1.786 3.982,3.982 l -0.612,0 c 0,-1.858 -1.511,-3.37 -3.37,-3.37 -1.858,0 -3.37,1.511 -3.37,3.37 0,1.859 1.511,3.37 3.37,3.37 l 0,0.612 z" style="fill:#000"/><path id="path80" d="m 7.658,50.237 c -0.677,0 -1.225,0.548 -1.225,1.225 0,0.677 0.548,1.225 1.225,1.225 0.677,0 1.225,-0.548 1.225,-1.225 0,-0.677 -0.548,-1.225 -1.225,-1.225 l 0,0 z" style="fill:#000"/><path id="path82" d="M 3.982,57.895 C 1.786,57.895 0,56.109 0,53.913 c 0,-2.196 1.786,-3.982 3.982,-3.982 2.196,0 3.982,1.786 3.982,3.982 l -0.612,0 c 0,-1.858 -1.511,-3.37 -3.37,-3.37 -1.858,0 -3.37,1.511 -3.37,3.37 0,1.859 1.511,3.37 3.37,3.37 l 0,0.612 z" style="fill:#000"/><path id="path84" d="m 7.658,52.688 c -0.677,0 -1.225,0.548 -1.225,1.225 0,0.677 0.548,1.225 1.225,1.225 0.677,0 1.225,-0.548 1.225,-1.225 0,-0.677 -0.548,-1.225 -1.225,-1.225 l 0,0 z" style="fill:#000"/><path id="path86" d="M 3.982,60.346 C 1.786,60.346 0,58.56 0,56.364 c 0,-2.196 1.786,-3.982 3.982,-3.982 2.196,0 3.982,1.786 3.982,3.982 l -0.612,0 c 0,-1.858 -1.511,-3.37 -3.37,-3.37 -1.858,0 -3.37,1.511 -3.37,3.37 0,1.858 1.511,3.37 3.37,3.37 l 0,0.612 z" style="fill:#000"/><path id="path88" d="m 7.658,55.139 c -0.677,0 -1.225,0.548 -1.225,1.225 0,0.677 0.548,1.225 1.225,1.225 0.677,0 1.225,-0.548 1.225,-1.225 0,-0.677 -0.548,-1.225 -1.225,-1.225 l 0,0 z" style="fill:#000"/><path id="path90" d="M 3.982,62.797 C 1.786,62.797 0,61.01 0,58.814 c 0,-2.196 1.786,-3.982 3.982,-3.982 2.196,0 3.982,1.786 3.982,3.982 l -0.612,0 c 0,-1.858 -1.511,-3.37 -3.37,-3.37 -1.858,0 -3.37,1.511 -3.37,3.37 0,1.858 1.511,3.37 3.37,3.37 l 0,0.613 z" style="fill:#000"/><path id="path92" d="m 7.658,57.589 c -0.677,0 -1.225,0.548 -1.225,1.225 0,0.677 0.548,1.225 1.225,1.225 0.677,0 1.225,-0.548 1.225,-1.225 0,-0.677 -0.548,-1.225 -1.225,-1.225 l 0,0 z" style="fill:#000"/><path id="path94" d="M 3.982,65.247 C 1.786,65.247 0,63.461 0,61.265 c 0,-2.196 1.786,-3.982 3.982,-3.982 2.196,0 3.982,1.786 3.982,3.982 l -0.612,0 c 0,-1.858 -1.511,-3.37 -3.37,-3.37 -1.858,0 -3.37,1.511 -3.37,3.37 0,1.858 1.511,3.37 3.37,3.37 l 0,0.612 z" style="fill:#000"/><path id="path96" d="m 7.658,60.04 c -0.677,0 -1.225,0.548 -1.225,1.225 0,0.677 0.548,1.225 1.225,1.225 0.677,0 1.225,-0.548 1.225,-1.225 0,-0.677 -0.548,-1.225 -1.225,-1.225 l 0,0 z" style="fill:#000"/><path id="path98" d="M 3.982,67.698 C 1.786,67.698 0,65.911 0,63.716 0,61.52 1.786,59.734 3.982,59.734 c 2.196,0 3.982,1.786 3.982,3.982 l -0.612,0 c 0,-1.858 -1.511,-3.37 -3.37,-3.37 -1.858,0 -3.37,1.511 -3.37,3.37 0,1.858 1.511,3.37 3.37,3.37 l 0,0.612 z" style="fill:#000"/><path id="path100" d="m 7.658,62.49 c -0.677,0 -1.225,0.548 -1.225,1.225 0,0.677 0.548,1.225 1.225,1.225 0.677,0 1.225,-0.548 1.225,-1.225 0,-0.677 -0.548,-1.225 -1.225,-1.225 l 0,0 z" style="fill:#000"/><path id="path102" d="M 3.982,70.148 C 1.786,70.148 0,68.362 0,66.166 0,63.97 1.786,62.184 3.982,62.184 c 2.196,0 3.982,1.786 3.982,3.982 l -0.612,0 c 0,-1.858 -1.511,-3.37 -3.37,-3.37 -1.858,0 -3.37,1.511 -3.37,3.37 0,1.859 1.511,3.37 3.37,3.37 l 0,0.612 z" style="fill:#000"/><path id="path104" d="m 7.658,64.941 c -0.677,0 -1.225,0.548 -1.225,1.225 0,0.677 0.548,1.225 1.225,1.225 0.677,0 1.225,-0.548 1.225,-1.225 0,-0.677 -0.548,-1.225 -1.225,-1.225 l 0,0 z" style="fill:#000"/><path id="path106" d="M 3.982,72.599 C 1.786,72.599 0,70.813 0,68.617 c 0,-2.196 1.786,-3.982 3.982,-3.982 2.196,0 3.982,1.786 3.982,3.982 l -0.612,0 c 0,-1.858 -1.511,-3.37 -3.37,-3.37 -1.858,0 -3.37,1.511 -3.37,3.37 0,1.858 1.511,3.37 3.37,3.37 l 0,0.612 z" style="fill:#000"/><path id="path108" d="m 7.658,67.392 c -0.677,0 -1.225,0.548 -1.225,1.225 0,0.677 0.548,1.225 1.225,1.225 0.677,0 1.225,-0.548 1.225,-1.225 0,-0.677 -0.548,-1.225 -1.225,-1.225 l 0,0 z" style="fill:#000"/><path id="path110" d="M 3.982,75.05 C 1.786,75.05 0,73.263 0,71.067 c 0,-2.196 1.786,-3.982 3.982,-3.982 2.196,0 3.982,1.786 3.982,3.982 l -0.612,0 c 0,-1.858 -1.511,-3.37 -3.37,-3.37 -1.858,0 -3.37,1.511 -3.37,3.37 0,1.858 1.511,3.37 3.37,3.37 l 0,0.613 z" style="fill:#000"/><path id="path112" d="m 7.658,69.842 c -0.677,0 -1.225,0.548 -1.225,1.225 0,0.677 0.548,1.225 1.225,1.225 0.677,0 1.225,-0.548 1.225,-1.225 0,-0.677 -0.548,-1.225 -1.225,-1.225 l 0,0 z" style="fill:#000"/><path id="path114" d="M 3.982,77.5 C 1.786,77.5 0,75.714 0,73.518 c 0,-2.196 1.786,-3.982 3.982,-3.982 2.196,0 3.982,1.786 3.982,3.982 l -0.612,0 c 0,-1.858 -1.511,-3.37 -3.37,-3.37 -1.858,0 -3.37,1.511 -3.37,3.37 0,1.858 1.511,3.37 3.37,3.37 l 0,0.612 z" style="fill:#000"/><path id="path116" d="m 7.658,72.293 c -0.677,0 -1.225,0.548 -1.225,1.225 0,0.677 0.548,1.225 1.225,1.225 0.677,0 1.225,-0.548 1.225,-1.225 0,-0.677 -0.548,-1.225 -1.225,-1.225 l 0,0 z" style="fill:#000"/><path id="path118" d="M 3.982,79.951 C 1.786,79.951 0,78.164 0,75.969 c 0,-2.196 1.786,-3.982 3.982,-3.982 2.196,0 3.982,1.786 3.982,3.982 l -0.612,0 c 0,-1.858 -1.511,-3.37 -3.37,-3.37 -1.858,0 -3.37,1.511 -3.37,3.37 0,1.858 1.511,3.37 3.37,3.37 l 0,0.612 z" style="fill:#000"/><path id="path120" d="m 7.658,74.743 c -0.677,0 -1.225,0.548 -1.225,1.225 0,0.677 0.548,1.225 1.225,1.225 0.677,0 1.225,-0.548 1.225,-1.225 0,-0.677 -0.548,-1.225 -1.225,-1.225 l 0,0 z" style="fill:#000"/><path id="path122" d="M 3.982,82.401 C 1.786,82.401 0,80.615 0,78.419 c 0,-2.196 1.786,-3.982 3.982,-3.982 2.196,0 3.982,1.786 3.982,3.982 l -0.612,0 c 0,-1.858 -1.511,-3.37 -3.37,-3.37 -1.858,0 -3.37,1.511 -3.37,3.37 0,1.858 1.511,3.37 3.37,3.37 l 0,0.612 z" style="fill:#000"/><path id="path124" d="m 7.658,77.194 c -0.677,0 -1.225,0.548 -1.225,1.225 0,0.677 0.548,1.225 1.225,1.225 0.677,0 1.225,-0.548 1.225,-1.225 0,-0.677 -0.548,-1.225 -1.225,-1.225 l 0,0 z" style="fill:#000"/><path id="path126" d="M 71.895,68.386 77.343,65.36 55.107,25.334 49.659,28.361 71.895,68.386 Z M 51.196,28.558 54.464,26.743 75.648,64.876 72.38,66.69 51.196,28.558 Z" style="fill:#000"/><polygon id="polygon128" points="49.491 23.661 49.042 20.833 51.207 22.709" style="fill:#000"/><path id="path130" d="m 54.893,25.079 -6.734,-5.836 1.398,8.8 0.029,0.183 5.447,-3.026 -0.14,-0.121 z m -4.806,2.331 -0.549,-3.456 1.892,-1.052 2.646,2.293 -3.989,2.215 z" style="fill:#000"/><rect id="rect132" width=".613" height="44.09" x="62.153" y="24.939" transform="matrix(0.874,-0.4859,0.4859,0.874,-14.9613,36.2725)" style="fill:#000"/><rect id="rect134" width=".612" height="44.089" x="63.866" y="23.988" transform="matrix(0.8736,-0.4866,0.4866,0.8736,-14.2899,37.046)" style="fill:#000"/><path id="path136" d="m 72.015,68.601 3.372,6.069 c 0.836,1.505 2.732,2.047 4.237,1.211 1.505,-0.837 2.047,-2.732 1.211,-4.237 l -3.372,-6.07 -5.448,3.027 z" style="fill:#000"/><path id="path138" d="m 87.408,20.217 c -3.711,0 -5.588,-1.273 -7.405,-2.503 -1.819,-1.234 -3.538,-2.398 -7.06,-2.398 -3.519,0 -5.237,1.164 -7.055,2.398 -1.815,1.23 -3.693,2.503 -7.401,2.503 -3.711,0 -5.589,-1.272 -7.406,-2.503 -1.82,-1.234 -3.538,-2.398 -7.062,-2.398 -3.525,0 -5.246,1.164 -7.067,2.398 -1.819,1.23 -3.697,2.503 -7.412,2.503 -3.715,0 -5.593,-1.273 -7.412,-2.503 -1.821,-1.234 -3.542,-2.398 -7.067,-2.398 l 0,-0.613 c 3.714,0 5.593,1.273 7.412,2.503 1.821,1.234 3.541,2.398 7.067,2.398 3.525,0 5.246,-1.164 7.067,-2.398 1.819,-1.23 3.697,-2.503 7.412,-2.503 3.712,0 5.59,1.273 7.407,2.503 1.82,1.234 3.538,2.398 7.061,2.398 3.52,0 5.239,-1.164 7.056,-2.398 1.815,-1.23 3.693,-2.503 7.4,-2.503 3.711,0 5.588,1.273 7.404,2.503 1.819,1.234 3.538,2.398 7.06,2.398 l 0,0.613 z" style="fill:#000"/><path id="path140" d="m 79.07,36.812 c -1.816,-1.23 -3.694,-2.503 -7.404,-2.503 -3.707,0 -5.584,1.273 -7.4,2.503 -0.671,0.456 -1.331,0.901 -2.07,1.283 l 0.297,0.534 c 0.773,-0.4 1.45,-0.857 2.118,-1.309 1.818,-1.234 3.536,-2.398 7.055,-2.398 3.522,0 5.241,1.164 7.06,2.398 1.816,1.23 3.694,2.503 7.404,2.503 l 0,-0.613 c -3.522,0 -5.241,-1.165 -7.06,-2.398 z" style="fill:#000"/><path id="path142" d="m 55.632,39.112 c -2.495,-0.295 -3.961,-1.268 -5.483,-2.3 -1.816,-1.23 -3.695,-2.503 -7.407,-2.503 -3.714,0 -5.593,1.273 -7.412,2.503 -1.821,1.234 -3.542,2.398 -7.067,2.398 -3.526,0 -5.246,-1.164 -7.067,-2.398 -1.819,-1.23 -3.697,-2.503 -7.412,-2.503 l 0,0.613 c 3.525,0 5.246,1.164 7.067,2.398 1.819,1.23 3.697,2.503 7.412,2.503 3.715,0 5.593,-1.273 7.412,-2.503 1.821,-1.234 3.542,-2.398 7.067,-2.398 3.524,0 5.242,1.164 7.062,2.398 1.606,1.089 3.267,2.205 6.194,2.451 l -0.366,-0.659 z" style="fill:#000"/><path id="path144" d="m 88.633,60.959 -1.225,0 c -4.084,0 -6.212,-1.441 -8.088,-2.711 -1.734,-1.176 -3.228,-2.19 -6.377,-2.19 -0.462,0 -0.882,0.027 -1.28,0.069 l -0.805,0.083 -1.592,-2.865 1.799,-0.226 c 0.582,-0.073 1.192,-0.124 1.879,-0.124 4.084,0 6.212,1.441 8.088,2.711 1.734,1.176 3.228,2.19 6.377,2.19 l 1.225,0 0,3.063 z" style="fill:#000"/><path id="path146" d="m 58.488,60.959 c -4.089,0 -6.216,-1.442 -8.094,-2.714 -1.73,-1.174 -3.226,-2.187 -6.374,-2.187 -3.151,0 -4.648,1.014 -6.38,2.187 -1.885,1.274 -4.012,2.714 -8.098,2.714 -4.086,0 -6.214,-1.439 -8.093,-2.71 -1.738,-1.177 -3.236,-2.191 -6.386,-2.191 l -1.225,0 0,-3.063 1.225,0 c 4.086,0 6.214,1.439 8.092,2.71 1.739,1.177 3.236,2.191 6.386,2.191 3.15,0 4.648,-1.014 6.38,-2.187 1.885,-1.274 4.012,-2.714 8.098,-2.714 4.086,0 6.214,1.441 8.091,2.713 1.734,1.175 3.23,2.189 6.377,2.189 3.145,0 4.665,-1.031 6.275,-2.124 l 1.108,-0.753 1.496,2.69 -0.93,0.63 c -1.725,1.166 -3.871,2.619 -7.948,2.619 z" style="fill:#000"/><path id="path148" d="m 92.259,35.865 -0.001,0 -10e-4,0 c -2.125,0 -3.854,-1.729 -3.854,-3.854 0,-0.169 -0.137,-0.306 -0.306,-0.306 l -0.051,0 0,-2.246 -1.327,1.327 0,0.919 c -0.169,0 -0.306,0.138 -0.306,0.306 0,2.125 -1.729,3.854 -3.854,3.854 l -10e-4,0 -0.001,0 c -0.169,0 -0.306,0.137 -0.306,0.306 l 0,2.119 c 0,0.169 0.138,0.306 0.306,0.306 0.168,0 0.306,-0.138 0.306,-0.306 l 0,-1.844 c 2.216,-0.152 3.979,-1.915 4.132,-4.13 l 0.413,0 0.002,0 0.413,0 c 0.153,2.215 1.916,3.977 4.132,4.13 l 0,1.844 c 0,0.169 0.137,0.306 0.306,0.306 0.169,0 0.306,-0.138 0.306,-0.306 l 0,-2.119 c -0.002,-0.168 -0.139,-0.306 -0.308,-0.306 z" style="fill:#000"/><rect id="rect150" width="10.338" height="24.939" x="82.239" y="38.164" style="fill:#000"/><path id="path152" d="m 82.382,63.286 0,2.137 c 0,0.98 0.739,1.777 1.649,1.777 l 6.754,0 c 0.909,0 1.649,-0.797 1.649,-1.777 l 0,-2.137 -10.052,0 z m 8.239,3.301 -0.613,0 0,-2.689 0.613,0 0,2.689 z m -4.289,-2.688 0.613,0 0,2.689 -0.613,0 0,-2.689 z m -0.612,2.688 -0.613,0 0,-2.689 0.613,0 0,2.689 z m 1.837,-2.688 0.613,0 0,2.689 -0.613,0 0,-2.689 z m 1.226,0 0.613,0 0,2.689 -0.613,0 0,-2.689 z m -5.788,0 0.274,0 0,2.299 c -0.166,-0.207 -0.274,-0.474 -0.274,-0.774 l 0,-1.525 z m 0.887,2.655 0,-2.655 0.613,0 0,2.689 -0.463,0 c -0.053,-10e-4 -0.099,-0.026 -0.15,-0.034 z m 7.939,-1.131 c 0,0.459 -0.243,0.85 -0.588,1.039 l 0,-2.563 0.588,0 0,1.524 z" style="fill:#000"/></svg>