<svg xmlns="http://www.w3.org/2000/svg" xmlns:svg="http://www.w3.org/2000/svg" id="svg2" width="70.672" height="70.676" x="0" y="0" version="1.1" viewBox="0 0 70.672 70.676"><metadata id="metadata18"/><g id="g4" transform="translate(-2.382812,-2.761719)"><path style="fill:#fff;fill-rule:evenodd;stroke:#000;stroke-width:1px;stroke-linecap:butt;stroke-linejoin:miter;stroke-opacity:1" id="path4177" d="m 10.393121,15.380247 -0.4213424,45.645465 2.6685044,2.106714 2.387609,3.51119 46.066808,0.140447 0.702238,-3.932532 4.63477,-1.404476 0.140448,-47.611732 -4.494323,0 L 61.235148,9.9027909 15.73013,9.3410006 13.202073,14.256666 Z"/><path style="fill:#000;fill-opacity:1;fill-rule:nonzero;stroke:none" id="path6" d="m 68.1875,15.625 4.867188,0 0,-12.863281 -12.859376,0 0,4.871093 -44.953124,0 0,-4.871093 -12.859376,0 0,12.863281 4.867188,0 0,44.949219 -4.867188,0 0,12.863281 12.859376,0 0,-4.867188 44.953124,0 0,4.867188 12.859376,0 0,-12.863281 -4.867188,0 z m -4.871094,-4.867188 0,-4.871093 6.613282,0 0,6.613281 -6.609376,0 0,-1.742188 z M 5.507812,12.5 l 0,-6.613281 6.609376,0 0,6.613281 z m 6.609376,57.8125 -6.609376,0 0,-6.613281 6.609376,0 z m 3.125,-4.867188 0,-4.871093 -4.867188,0 0,-44.949219 4.867188,0 0,-4.867188 44.953124,0 0,4.867188 4.867188,0 0,44.949219 -4.867188,0 0,4.871093 z m 54.6875,-1.746093 0,6.613281 -6.609376,0 0,-6.613281 z m 0,0"/><path style="fill:#000;fill-opacity:1;fill-rule:nonzero;stroke:none" id="path8" d="m 44.390625,43.601562 -15.382813,0 -2.695312,6.269532 c -0.664062,1.542968 -0.992188,2.695312 -0.992188,3.457031 0,0.605469 0.285157,1.136719 0.863282,1.59375 0.574218,0.460937 1.820312,0.757813 3.734375,0.894531 l 0,1.082032 -12.507813,0 0,-1.082032 c 1.660156,-0.292968 2.734375,-0.675781 3.222656,-1.140625 0.996094,-0.941406 2.097657,-2.84375 3.308594,-5.714843 l 13.972656,-32.691407 1.027344,0 13.828125,33.042969 c 1.113281,2.65625 2.121094,4.382812 3.03125,5.171875 0.90625,0.792969 2.171875,1.238281 3.792969,1.335937 l 0,1.082032 -15.671875,0 0,-1.082032 c 1.582031,-0.07812 2.648437,-0.34375 3.210937,-0.789062 0.554688,-0.453125 0.832032,-1 0.832032,-1.644531 0,-0.859375 -0.390625,-2.214844 -1.171875,-4.070313 z M 43.570312,41.433594 36.832031,25.382812 29.917969,41.433594 Z m 0,0"/></g><rect style="fill:#fff;fill-opacity:1;stroke:#fff;stroke-width:1.00755906;stroke-opacity:1" id="rect4146" width="5.802" height="5.653" x="3.53" y="3.648"/><rect style="fill:#fff;fill-opacity:1;stroke:#fff;stroke-width:1.00755906;stroke-opacity:1" id="rect4146-2" width="5.802" height="5.653" x="61.429" y="3.612"/><rect style="fill:#fff;fill-opacity:1;stroke:#fff;stroke-width:1.00755906;stroke-opacity:1" id="rect4146-27" width="5.802" height="5.653" x="61.429" y="61.477"/><rect style="fill:#fff;fill-opacity:1;stroke:#fff;stroke-width:1.00755906;stroke-opacity:1" id="rect4146-27-7" width="5.802" height="5.653" x="3.564" y="61.477"/></svg>