<svg xmlns="http://www.w3.org/2000/svg" xmlns:svg="http://www.w3.org/2000/svg" id="svg2" x="0" y="0" enable-background="new 0 0 100 100" version="1.1" viewBox="0 0 100 125" xml:space="preserve"><metadata id="metadata22"/><rect id="rect4" width="10" height="77.546" x="30.312" y="26.455" fill="#000" transform="matrix(-0.7072 -0.7071 0.7071 -0.7072 14.1629 136.3214)" style="stroke:#000;fill:#fff"/><rect id="rect6" width="11.166" height="10" x="63.865" y="26.091" fill="#000" transform="matrix(0.7071 -0.7071 0.7071 0.7071 -1.6433 58.216)" style="fill:#fff;stroke:#000"/><polygon id="polygon8" fill="#000" points="41.438 33.689 44.266 28.518 49.438 25.689 44.266 22.861 41.438 17.689 38.609 22.861 33.438 25.689 38.609 28.518" style="fill:#fff;stroke:#000"/><polygon id="polygon10" fill="#000" points="54.437 17.356 56.205 14.124 59.438 12.355 56.205 10.588 54.437 7.355 52.669 10.588 49.437 12.355 52.669 14.124" style="fill:#fff;stroke:#000"/><polygon id="polygon12" fill="#000" points="87.148 42.767 84.437 37.811 81.726 42.767 76.77 45.478 81.726 48.188 84.437 53.145 87.148 48.188 92.104 45.478" style="stroke:#000;fill:#fff"/></svg>