<svg xmlns="http://www.w3.org/2000/svg" xmlns:svg="http://www.w3.org/2000/svg" id="svg3502" width="100" height="100.002" version="1.0"><metadata id="metadata3507"/><g id="layer1" transform="translate(-242.99184,-395.33992)"><path style="fill:#4d4d4d" id="path3693" d="m 267.17729,470.18927 c -6.866,-4.28028 -12.86127,-8.27937 -13.32284,-8.88686 -0.64925,-0.85453 -0.84385,-6.11507 -0.85976,-23.24089 -0.0197,-21.28907 0.029,-22.18581 1.27208,-23.42898 1.25048,-1.25048 2.15439,-1.29262 27.71249,-1.29262 23.77491,0 26.50864,0.10688 27.30688,1.06762 0.69253,0.83352 0.95789,5.40158 1.2102,20.8328 l 0.32315,19.76517 10.27242,6.47408 c 11.47808,7.23392 12.93829,8.85012 11.38469,12.60082 -1.58677,3.8308 -2.03114,3.89117 -28.6406,3.89117 l -24.17508,0 -12.48363,-7.78231 z m 33.94744,-33.90511 0,-14.21897 -18.66485,-0.17164 c -13.23171,-0.1216 -18.92282,0.0424 -19.55107,0.56389 -0.69615,0.57775 -0.88623,3.47971 -0.88623,13.52983 0,7.0369 0.17818,13.25867 0.39595,13.82618 0.35236,0.91822 2.50541,1.013 19.55108,0.86076 l 19.15512,-0.17108 0,-14.21897 z"/></g></svg>