<svg xmlns="http://www.w3.org/2000/svg" xmlns:svg="http://www.w3.org/2000/svg" id="svg2" width="55" height="55" contentScriptType="text/ecmascript" contentStyleType="text/css" preserveAspectRatio="xMidYMid meet" version="1.1" zoomAndPan="magnify"><metadata id="metadata20"/><path style="fill:none;stroke:#fff;stroke-width:2;stroke-miterlimit:4;stroke-opacity:1;stroke-dasharray:none" id="path3003" d="m 55.864431,29.210077 a 18.044706,18.209497 0 1 1 -36.089412,0 18.044706,18.209497 0 1 1 36.089412,0 z" transform="translate(-9.7227182,-1.6479183)"/><path style="fill:#fff;fill-opacity:1;stroke:#fff;stroke-width:2;stroke-miterlimit:4;stroke-opacity:1;stroke-dasharray:none" id="path3005" d="m 24.883566,22.536009 a 2.6366694,3.1310449 0 1 1 -5.273339,0 2.6366694,3.1310449 0 1 1 5.273339,0 z" transform="matrix(0.56269359,0,0,0.47384723,8.9384985,14.15322)"/><path style="fill:#fff;fill-opacity:1;stroke:#fff;stroke-width:2;stroke-miterlimit:4;stroke-opacity:1;stroke-dasharray:none" id="path3005-1" d="m 24.883566,22.536009 a 2.6366694,3.1310449 0 1 1 -5.273339,0 2.6366694,3.1310449 0 1 1 5.273339,0 z" transform="matrix(0.56269359,0,0,0.47384723,20.803511,14.15322)"/><rect style="fill:#fff;fill-opacity:1;stroke:none" id="rect3031" width="12.524" height="2.142" x="21.423" y="34.918"/></svg>