<svg xmlns="http://www.w3.org/2000/svg" xmlns:svg="http://www.w3.org/2000/svg" id="svg2" width="55" height="55" contentScriptType="text/ecmascript" contentStyleType="text/css" preserveAspectRatio="xMidYMid meet" version="1.1" zoomAndPan="magnify"><metadata id="metadata20"/><path style="fill:none;stroke:#fff;stroke-width:2;stroke-miterlimit:4;stroke-opacity:1;stroke-dasharray:none" id="path3003" d="m 55.864431,29.210077 a 18.044706,18.209497 0 1 1 -36.089412,0 18.044706,18.209497 0 1 1 36.089412,0 z" transform="translate(-9.7227182,-1.6479183)"/><path style="fill:#fff;fill-opacity:1;stroke:#fff;stroke-width:2;stroke-miterlimit:4;stroke-opacity:1;stroke-dasharray:none" id="path3005" d="m 24.883566,22.536009 a 2.6366694,3.1310449 0 1 1 -5.273339,0 2.6366694,3.1310449 0 1 1 5.273339,0 z" transform="translate(-0.4943755,0.16479183)"/><path style="fill:#fff;fill-opacity:1;stroke:#fff;stroke-width:2;stroke-miterlimit:4;stroke-opacity:1;stroke-dasharray:none" id="path3005-1" d="m 24.883566,22.536009 a 2.6366694,3.1310449 0 1 1 -5.273339,0 2.6366694,3.1310449 0 1 1 5.273339,0 z" transform="translate(11.370637,0.16479183)"/><path style="fill:#fff;stroke:none;stroke-width:2;stroke-miterlimit:4;stroke-opacity:1;stroke-dasharray:none" id="path3029" d="m 32.299199,40.580715 a 6.1796937,3.5430245 0 1 1 -12.359388,0 l 6.179694,0 z" transform="matrix(1.2576079,0,0,1.5265392,-5.0806727,-28.89178)"/></svg>