<svg xmlns="http://www.w3.org/2000/svg" xmlns:svg="http://www.w3.org/2000/svg" id="svg2" width="55" height="55" contentScriptType="text/ecmascript" contentStyleType="text/css" preserveAspectRatio="xMidYMid meet" version="1.1" zoomAndPan="magnify"><metadata id="metadata20"/><rect style="fill:#fff" id="rect3004-4" width="3.472" height="39.08" x="7.822" y="9.258"/><rect style="fill:#fff" id="rect3004-4-0" width="3.472" height="39.08" x="14.776" y="9.258"/><rect style="fill:#fff" id="rect3004-4-9" width="3.472" height="39.08" x="21.73" y="9.258"/><rect style="fill:#fff" id="rect3004-4-4" width="3.472" height="39.08" x="28.685" y="9.258"/><rect style="fill:#fff" id="rect3004-4-8" width="3.472" height="39.08" x="35.639" y="9.258"/><rect style="fill:#fff" id="rect3004-4-82" width="3.472" height="39.08" x="42.593" y="9.258"/><path id="rect3894" d="m 39.23406,29.19842 c -1.120579,0 -2.040262,0.919683 -2.040262,2.040262 l 0,4.678998 -3.318825,-3.318825 c -0.793214,-0.791525 -2.064841,-0.793209 -2.856365,0 -0.791524,0.793215 -0.793181,2.092046 0,2.883568 l 3.346027,3.318825 -4.733402,0 c -1.120579,0 -2.040263,0.919683 -2.040263,2.040263 0,1.120577 0.919684,2.013056 2.040263,2.013056 l 4.7062,0 -3.318825,3.318824 c -0.791523,0.793212 -0.793181,2.092045 0,2.883568 0.793214,0.791522 2.092046,0.766009 2.883567,-0.02721 l 3.291623,-3.318822 0,4.733405 c 0,1.120578 0.919683,2.013057 2.040262,2.013057 1.120579,0 2.013058,-0.892479 2.013058,-2.013057 l 0,-4.760608 3.37323,3.346025 c 0.793212,0.791524 2.064842,0.793214 2.856362,0 0.791524,-0.793211 0.793218,-2.064841 0,-2.856362 l -3.346025,-3.318824 4.706201,0 c 1.120579,0 2.013058,-0.89248 2.013058,-2.013058 0,-1.12058 -0.892479,-2.040264 -2.013058,-2.040264 l -4.733403,0 3.346025,-3.37323 c 0.791523,-0.793212 0.793216,-2.037637 0,-2.829162 -0.793213,-0.791521 -2.064842,-0.82042 -2.856364,-0.0272 l -3.346026,3.37323 0,-4.706199 c 0,-1.120579 -0.892479,-2.040264 -2.013058,-2.040264 z" style="fill:#fff;fill-opacity:1;stroke:#282828;stroke-width:1.74102712;stroke-linecap:round;stroke-linejoin:round;stroke-miterlimit:4;stroke-opacity:1;stroke-dasharray:none"/></svg>