<svg xmlns="http://www.w3.org/2000/svg" xmlns:svg="http://www.w3.org/2000/svg" id="svg6314" width="180" height="196.951" version="1.0"><metadata id="metadata6319"/><g id="layer1" transform="translate(-30.331344,-66.793923)"><g id="g6359" transform="matrix(0.60738565,0,0,0.60738687,-20.234914,-50.011128)" style="fill:none;stroke:green"><path id="path2307" d="m 382.60403,134.2677 c 0,28.28848 -22.93234,51.22083 -51.22082,51.22083 -28.28848,0 -51.22083,-22.93235 -51.22083,-51.22083 0,-28.28848 22.93235,-51.220825 51.22083,-51.220825 28.28848,0 51.22082,22.932345 51.22082,51.220825 z" transform="matrix(0.969697,0,0,0.969697,-90.879133,125.06999)" style="fill:none;stroke:green;stroke-width:20.62502098;stroke-linecap:round;stroke-linejoin:round;stroke-miterlimit:4;stroke-opacity:1;stroke-dasharray:none;stroke-dashoffset:0"/><path id="path5343" d="m 290.55846,302.47333 -58.81513,59.20058 -59.39461,-59.40024 c -25.19828,-24.48771 -62.7038,13.33148 -38.1941,37.98719 l 60.04451,58.9817 -59.73639,59.42563 c -24.83976,24.97559 12.91592,63.26505 37.66786,37.75282 l 59.95799,-59.28294 58.75912,59.21065 c 24.50656,25.09065 62.43116,-13.00322 37.87956,-37.85772 l -59.24184,-59.02842 58.87574,-59.14782 c 25.1689,-25.18348 -13.0489,-62.75154 -37.80271,-37.84143 z" style="fill:none;stroke:green;stroke-width:20.00002098;stroke-linecap:round;stroke-linejoin:miter;stroke-miterlimit:4;stroke-opacity:1;stroke-dasharray:none;stroke-dashoffset:0"/></g><path style="fill:none;fill-opacity:1;stroke:green;stroke-width:2;stroke-miterlimit:4;stroke-opacity:1;stroke-dasharray:none" id="path2985" d="m 56.554055,22.824537 c 0,3.050627 -3.085605,5.523649 -6.891892,5.523649 -3.806287,0 -6.891892,-2.473022 -6.891892,-5.523649 0,0 0,0 0,0 l 6.891892,0 z" transform="matrix(2.0000103,0,0,2.0000103,20.327072,64.784699)"/><path style="fill:green;fill-opacity:1;stroke:green;stroke-width:2;stroke-miterlimit:4;stroke-opacity:1;stroke-dasharray:none" id="path2991" d="m 46.722973,15.729943 c 0,1.203459 -0.907531,2.179054 -2.027027,2.179054 -1.119496,0 -2.027027,-0.975595 -2.027027,-2.179054 0,-1.203458 0.907531,-2.179054 2.027027,-2.179054 1.119496,0 2.027027,0.975596 2.027027,2.179054 z" transform="matrix(2.0000103,0,0,2.0000103,20.327072,64.784699)"/><path style="fill:green;fill-opacity:1;stroke:green;stroke-width:2;stroke-miterlimit:4;stroke-opacity:1;stroke-dasharray:none" id="path2991-1" d="m 46.722973,15.729943 c 0,1.203459 -0.907531,2.179054 -2.027027,2.179054 -1.119496,0 -2.027027,-0.975595 -2.027027,-2.179054 0,-1.203458 0.907531,-2.179054 2.027027,-2.179054 1.119496,0 2.027027,0.975596 2.027027,2.179054 z" transform="matrix(2.0000103,0,0,2.0000103,39.786632,64.784699)"/></g></svg>