<svg xmlns="http://www.w3.org/2000/svg" id="svg27352" width="26" height="26" version="1.1"><g id="layer1" transform="translate(0,10)"><path id="path3002" d="M 13,0 C 5.8202983,0 0,5.8202983 0,13 0,20.179702 5.8202983,26 13,26 20.179702,26 26,20.179702 26,13 26,5.8202983 20.179702,0 13,0 z m 0,1 C 19.627417,1 25,6.372583 25,13 25,19.627417 19.627417,25 13,25 6.372583,25 1,19.627417 1,13 1,6.372583 6.372583,1 13,1 z" transform="translate(0,-10)" style="color:#000;fill:gray;fill-opacity:1;stroke:none;stroke-width:.82332432;marker:none;visibility:visible;display:inline;overflow:visible;enable-background:accumulate"/><path id="path4079" d="m 11.276603,5.8201666 a 5.3516083,5.3516083 0 1 1 -10.70321633,0 5.3516083,5.3516083 0 1 1 10.70321633,0 z" transform="matrix(2.2423166,0,0,2.2423166,-0.28571452,-10.050656)" style="color:#000;fill:#fff;fill-opacity:1;stroke:none;stroke-width:.82325572;marker:none;visibility:visible;display:inline;overflow:visible;enable-background:accumulate"/><path id="path4754" d="m 14.100023,7.3515821 a 5.9129128,5.9129128 0 1 1 -11.8258259,0 5.9129128,5.9129128 0 1 1 11.8258259,0 z" transform="matrix(0.84560692,0,0,0.84560692,6.0769232,-3.2165487)" style="color:#000;fill:#000;fill-opacity:1;stroke:none;stroke-width:1.84599996;marker:none;visibility:visible;display:inline;overflow:visible;enable-background:accumulate"/></g></svg>