<svg xmlns="http://www.w3.org/2000/svg" xmlns:svg="http://www.w3.org/2000/svg" id="svg2" width="50.563" height="50.563" version="1.1"><g id="layer1" transform="translate(-34.71875,-34.71875)"><path style="fill:none;stroke:#010101;stoke-width:2;stroke-linecap:butt;stroke-linejoin:miter;stroke-opacity:1" id="path2985" d="M 60,60 60,35.206612 84.793388,60 60,60 z"/><path style="fill:#fff;stroke:#010101;stoke-width:2;stroke-linecap:butt;stroke-linejoin:miter;stroke-opacity:1" id="path2986" d="M 60,60 84.793388,60 60,84.793388 60,60 z"/><path style="fill:none;stroke:#010101;stoke-width:2;stroke-linecap:butt;stroke-linejoin:miter;stroke-opacity:1" id="path9" d="M 60,60 60,84.793388 35.206612,60 60,60 z"/><path style="fill:#fff;stroke:#010101;stoke-width:2;stroke-linecap:butt;stroke-linejoin:miter;stroke-opacity:1" id="path11" d="M 60,60 35.206612,60 60,35.206612 60,60 z"/><path style="fill:none;stroke:#010101;stoke-width:2;stroke-linecap:butt;stroke-linejoin:miter;stroke-opacity:1" id="path13" d="M 35.206612,35.206612 60,35.206612 35.206612,60 l 0,-24.793388 z"/><path style="fill:#fff;stroke:#010101;stoke-width:2;stroke-linecap:butt;stroke-linejoin:miter;stroke-opacity:1" id="path15" d="M 84.793388,35.206612 84.793388,60 60,35.206612 l 24.793388,0 z"/><path style="fill:none;stroke:#010101;stoke-width:2;stroke-linecap:butt;stroke-linejoin:miter;stroke-opacity:1" id="path17" d="M 84.793388,84.793388 60,84.793388 84.793388,60 l 0,24.793388 z"/><path style="fill:#fff;stroke:#010101;stoke-width:2;stroke-linecap:butt;stroke-linejoin:miter;stroke-opacity:1" id="path19" d="M 35.206612,84.793388 35.206612,60 60,84.793388 l -24.793388,0 z"/></g></svg>