<svg xmlns="http://www.w3.org/2000/svg" xmlns:svg="http://www.w3.org/2000/svg" id="svg2" width="100%" height="100%" x="0" y="0" enable-background="new 0 0 90 90" version="1.1" viewBox="0 0 55 55" xml:space="preserve"><metadata id="metadata34"/><path id="path4" d="M 9.944444,5.777778 H 6.611111 C 5.997778,5.777778 5.5,6.275556 5.5,6.888889 v 3.333333 c 0,0.613334 0.497778,1.111111 1.111111,1.111111 h 3.333333 c 0.613334,0 1.111112,-0.497777 1.111112,-1.111111 V 6.888889 c 0,-0.613333 -0.497778,-1.111111 -1.111112,-1.111111 z" style="fill:#999;stroke:#000"/><path id="path6" d="m 23.092778,5.777778 h -3.333334 c -0.613333,0 -1.111111,0.497778 -1.111111,1.111111 v 3.333333 c 0,0.613334 0.497778,1.111111 1.111111,1.111111 h 3.333334 c 0.613333,0 1.111111,-0.497777 1.111111,-1.111111 V 6.888889 c 0,-0.613333 -0.497778,-1.111111 -1.111111,-1.111111 z" style="fill:#999;stroke:#000"/><path id="path8" d="m 6.611111,50.222222 h 3.333333 c 0.613334,0 1.111112,-0.497778 1.111112,-1.111111 v -3.333333 c 0,-0.613334 -0.497778,-1.111111 -1.111112,-1.111111 H 6.611111 C 5.997778,44.666667 5.5,45.164444 5.5,45.777778 v 3.333333 c 0,0.613333 0.497778,1.111111 1.111111,1.111111 z" style="fill:#999;stroke:#000"/><path id="path10" d="m 36.241111,5.777778 h -3.333333 c -0.613334,0 -1.111111,0.497778 -1.111111,1.111111 v 3.333333 c 0,0.613334 0.497777,1.111111 1.111111,1.111111 h 3.333333 c 0.613889,0 1.111111,-0.497777 1.111111,-1.111111 V 6.888889 c 0,-0.613333 -0.497222,-1.111111 -1.111111,-1.111111 z" style="fill:#999;stroke:#000"/><path id="path12" d="m 32.907778,50.222222 h 3.333333 c 0.613889,0 1.111111,-0.497778 1.111111,-1.111111 v -3.333333 c 0,-0.613334 -0.497222,-1.111111 -1.111111,-1.111111 h -3.333333 c -0.613334,0 -1.111111,0.497777 -1.111111,1.111111 v 3.333333 c 0,0.613333 0.497777,1.111111 1.111111,1.111111 z" style="fill:#999;stroke:#000"/><path id="path14" d="m 19.759444,50.222222 h 3.333334 c 0.613333,0 1.111111,-0.497778 1.111111,-1.111111 v -3.333333 c 0,-0.613334 -0.497778,-1.111111 -1.111111,-1.111111 h -3.333334 c -0.613333,0 -1.111111,0.497777 -1.111111,1.111111 v 3.333333 c 0,0.613333 0.497223,1.111111 1.111111,1.111111 z" style="fill:#999;stroke:#000"/><path id="path16" d="m 49.388889,5.777778 h -3.333333 c -0.613334,0 -1.111112,0.497778 -1.111112,1.111111 v 3.333333 c 0,0.613334 0.497778,1.111111 1.111112,1.111111 h 3.333333 c 0.613889,0 1.111111,-0.497777 1.111111,-1.111111 V 6.888889 c 0,-0.613333 -0.497222,-1.111111 -1.111111,-1.111111 z" style="fill:#999;stroke:#000"/><path id="path18" d="m 46.055556,50.222222 h 3.333333 c 0.613889,0 1.111111,-0.497778 1.111111,-1.111111 v -3.333333 c 0,-0.613334 -0.497222,-1.111111 -1.111111,-1.111111 h -3.333333 c -0.613334,0 -1.111112,0.497777 -1.111112,1.111111 v 3.333333 c 0,0.613333 0.497778,1.111111 1.111112,1.111111 z" style="fill:#999;stroke:#000"/><path id="path20" d="M 3,50.222222 C 3,51.756667 4.243889,53 5.777778,53 H 50.222222 C 51.756667,53 53,51.756667 53,50.222222 V 40.870556 H 3 v 9.351666 z m 41.944444,-4.444444 c 0,-0.613334 0.497778,-1.111111 1.111112,-1.111111 h 3.333333 c 0.613889,0 1.111111,0.497777 1.111111,1.111111 v 3.333333 c 0,0.613333 -0.497222,1.111111 -1.111111,1.111111 h -3.333333 c -0.613334,0 -1.111112,-0.497778 -1.111112,-1.111111 v -3.333333 z m -13.147777,0 c 0,-0.613334 0.497777,-1.111111 1.111111,-1.111111 h 3.333333 c 0.613889,0 1.111111,0.497777 1.111111,1.111111 v 3.333333 c 0,0.613333 -0.497222,1.111111 -1.111111,1.111111 h -3.333333 c -0.613334,0 -1.111111,-0.497778 -1.111111,-1.111111 v -3.333333 z m -13.148334,0 c 0,-0.613334 0.497778,-1.111111 1.111111,-1.111111 h 3.333334 c 0.613333,0 1.111111,0.497777 1.111111,1.111111 v 3.333333 c 0,0.613333 -0.497778,1.111111 -1.111111,1.111111 h -3.333334 c -0.613333,0 -1.111111,-0.497778 -1.111111,-1.111111 v -3.333333 z m -13.148333,0 c 0,-0.613334 0.497778,-1.111111 1.111111,-1.111111 h 3.333333 c 0.613334,0 1.111112,0.497777 1.111112,1.111111 v 3.333333 c 0,0.613333 -0.497778,1.111111 -1.111112,1.111111 H 6.611111 C 5.997778,50.222222 5.5,49.724444 5.5,49.111111 v -3.333333 z"/><path id="path22" d="M 53,5.777778 C 53,4.243889 51.756667,3 50.222222,3 H 5.777778 C 4.243889,3 3,4.243889 3,5.777778 v 9.351666 H 53 V 5.777778 z m -41.944444,4.444444 c 0,0.613334 -0.497778,1.111111 -1.111112,1.111111 H 6.611111 C 5.997778,11.333333 5.5,10.835556 5.5,10.222222 V 6.888889 C 5.5,6.275556 5.997778,5.777778 6.611111,5.777778 h 3.333333 c 0.613334,0 1.111112,0.497778 1.111112,1.111111 v 3.333333 z m 13.148333,0 c 0,0.613334 -0.497778,1.111111 -1.111111,1.111111 h -3.333334 c -0.613333,0 -1.111111,-0.497777 -1.111111,-1.111111 V 6.888889 c 0,-0.613333 0.497778,-1.111111 1.111111,-1.111111 h 3.333334 c 0.613333,0 1.111111,0.497778 1.111111,1.111111 v 3.333333 z m 13.148333,0 c 0,0.613334 -0.497222,1.111111 -1.111111,1.111111 h -3.333333 c -0.613334,0 -1.111111,-0.497777 -1.111111,-1.111111 V 6.888889 c 0,-0.613333 0.497777,-1.111111 1.111111,-1.111111 h 3.333333 c 0.613889,0 1.111111,0.497778 1.111111,1.111111 v 3.333333 z m 13.147778,0 c 0,0.613334 -0.497222,1.111111 -1.111111,1.111111 h -3.333333 c -0.613334,0 -1.111112,-0.497777 -1.111112,-1.111111 V 6.888889 c 0,-0.613333 0.497778,-1.111111 1.111112,-1.111111 h 3.333333 c 0.613889,0 1.111111,0.497778 1.111111,1.111111 v 3.333333 z"/><path id="path24" d="M 3,16.148333 V 39.851667 H 53 V 16.148333 H 3 z m 20.370556,21.481111 v -20.185 L 35.963333,27.537222 23.370556,37.629444 z" style="fill:#999;stroke:#000"/></svg>