<svg xmlns="http://www.w3.org/2000/svg" xmlns:svg="http://www.w3.org/2000/svg" id="svg2" width="55" height="55" version="1.1"><metadata id="metadata9"/><g id="g3020" transform="matrix(0,-1,1,0,4.0000002,51)"><path id="path6" d="m 18.392857,27.49995 a 2.4107143,2.4107143 0 1 1 -6.1e-5,-0.0172" style="fill:#eee;fill-opacity:1;stroke:#eee;stroke-width:0;stroke-linecap:round;stroke-linejoin:miter;stroke-miterlimit:4;stroke-opacity:1;stroke-dasharray:none"/><path id="path8" d="m 24.151786,27.49995 a 2.4107143,2.4107143 0 1 1 -6.2e-5,-0.0172" style="fill:#eee;fill-opacity:1;stroke:#eee;stroke-width:0;stroke-linecap:round;stroke-linejoin:miter;stroke-miterlimit:4;stroke-opacity:1;stroke-dasharray:none"/><path id="path12" d="m 35.669643,27.49995 a 2.4107143,2.4107143 0 1 1 -6.2e-5,-0.0172" style="fill:#eee;fill-opacity:1;stroke:#eee;stroke-width:0;stroke-linecap:round;stroke-linejoin:miter;stroke-miterlimit:4;stroke-opacity:1;stroke-dasharray:none"/><path id="path14" d="m 12.633929,27.49995 a 2.4107143,2.4107143 0 1 1 -6.2e-5,-0.0172" style="fill:#eee;fill-opacity:1;stroke:#eee;stroke-width:0;stroke-linecap:round;stroke-linejoin:miter;stroke-miterlimit:4;stroke-opacity:1;stroke-dasharray:none"/><path id="path16" d="m 41.428572,27.49995 a 2.4107143,2.4107143 0 1 1 -6.2e-5,-0.0172" style="fill:#eee;fill-opacity:1;stroke:#eee;stroke-width:0;stroke-linecap:round;stroke-linejoin:miter;stroke-miterlimit:4;stroke-opacity:1;stroke-dasharray:none"/><path id="path18" d="m 47.1875,27.49995 a 2.4107143,2.4107143 0 1 1 -6.2e-5,-0.0172" style="fill:#eee;fill-opacity:1;stroke:#eee;stroke-width:0;stroke-linecap:round;stroke-linejoin:miter;stroke-miterlimit:4;stroke-opacity:1;stroke-dasharray:none"/><path id="path22" d="m 18.392857,39.821378 a 2.4107143,2.4107143 0 1 1 -6.1e-5,-0.0172" style="fill:#eee;fill-opacity:1;stroke:#eee;stroke-width:0;stroke-linecap:round;stroke-linejoin:miter;stroke-miterlimit:4;stroke-opacity:1;stroke-dasharray:none"/><path id="path24" d="m 24.151786,39.821378 a 2.4107143,2.4107143 0 1 1 -6.2e-5,-0.0172" style="fill:#eee;fill-opacity:1;stroke:#eee;stroke-width:0;stroke-linecap:round;stroke-linejoin:miter;stroke-miterlimit:4;stroke-opacity:1;stroke-dasharray:none"/><path id="path28" d="m 35.669643,39.821378 a 2.4107143,2.4107143 0 1 1 -6.2e-5,-0.0172" style="fill:#eee;fill-opacity:1;stroke:#eee;stroke-width:0;stroke-linecap:round;stroke-linejoin:miter;stroke-miterlimit:4;stroke-opacity:1;stroke-dasharray:none"/><path id="path30" d="m 12.633929,39.821378 a 2.4107143,2.4107143 0 1 1 -6.2e-5,-0.0172" style="fill:#eee;fill-opacity:1;stroke:#eee;stroke-width:0;stroke-linecap:round;stroke-linejoin:miter;stroke-miterlimit:4;stroke-opacity:1;stroke-dasharray:none"/><path id="path32" d="m 41.428572,39.821378 a 2.4107143,2.4107143 0 1 1 -6.2e-5,-0.0172" style="fill:#eee;fill-opacity:1;stroke:#eee;stroke-width:0;stroke-linecap:round;stroke-linejoin:miter;stroke-miterlimit:4;stroke-opacity:1;stroke-dasharray:none"/><path id="path34" d="m 47.1875,39.821378 a 2.4107143,2.4107143 0 1 1 -6.2e-5,-0.0172" style="fill:#eee;fill-opacity:1;stroke:#eee;stroke-width:0;stroke-linecap:round;stroke-linejoin:miter;stroke-miterlimit:4;stroke-opacity:1;stroke-dasharray:none"/><path id="path38" d="m 18.392857,9.0178068 a 2.4107143,2.4107143 0 1 1 -6.1e-5,-0.017197" style="fill:#eee;fill-opacity:1;stroke:#eee;stroke-width:0;stroke-linecap:round;stroke-linejoin:miter;stroke-miterlimit:4;stroke-opacity:1;stroke-dasharray:none"/><path id="path40" d="m 24.151786,9.0178068 a 2.4107143,2.4107143 0 1 1 -6.2e-5,-0.017197" style="fill:#eee;fill-opacity:1;stroke:#eee;stroke-width:0;stroke-linecap:round;stroke-linejoin:miter;stroke-miterlimit:4;stroke-opacity:1;stroke-dasharray:none"/><path id="path44" d="m 35.669643,9.0178068 a 2.4107143,2.4107143 0 1 1 -6.2e-5,-0.017197" style="fill:#eee;fill-opacity:1;stroke:#eee;stroke-width:0;stroke-linecap:round;stroke-linejoin:miter;stroke-miterlimit:4;stroke-opacity:1;stroke-dasharray:none"/><path id="path46" d="m 12.633929,9.0178068 a 2.4107143,2.4107143 0 1 1 -6.2e-5,-0.017197" style="fill:#eee;fill-opacity:1;stroke:#eee;stroke-width:0;stroke-linecap:round;stroke-linejoin:miter;stroke-miterlimit:4;stroke-opacity:1;stroke-dasharray:none"/><path id="path48" d="m 41.428572,9.0178068 a 2.4107143,2.4107143 0 1 1 -6.2e-5,-0.017197" style="fill:#eee;fill-opacity:1;stroke:#eee;stroke-width:0;stroke-linecap:round;stroke-linejoin:miter;stroke-miterlimit:4;stroke-opacity:1;stroke-dasharray:none"/><path id="path50" d="m 47.1875,9.0178068 a 2.4107143,2.4107143 0 1 1 -6.2e-5,-0.017197" style="fill:#eee;fill-opacity:1;stroke:#eee;stroke-width:0;stroke-linecap:round;stroke-linejoin:miter;stroke-miterlimit:4;stroke-opacity:1;stroke-dasharray:none"/><path id="path54" d="m 18.392857,15.178521 a 2.4107143,2.4107143 0 1 1 -6.1e-5,-0.0172" style="fill:#eee;fill-opacity:1;stroke:#eee;stroke-width:0;stroke-linecap:round;stroke-linejoin:miter;stroke-miterlimit:4;stroke-opacity:1;stroke-dasharray:none"/><path id="path56" d="m 24.151786,15.178521 a 2.4107143,2.4107143 0 1 1 -6.2e-5,-0.0172" style="fill:#eee;fill-opacity:1;stroke:#eee;stroke-width:0;stroke-linecap:round;stroke-linejoin:miter;stroke-miterlimit:4;stroke-opacity:1;stroke-dasharray:none"/><path id="path60" d="m 35.669643,15.178521 a 2.4107143,2.4107143 0 1 1 -6.2e-5,-0.0172" style="fill:#eee;fill-opacity:1;stroke:#eee;stroke-width:0;stroke-linecap:round;stroke-linejoin:miter;stroke-miterlimit:4;stroke-opacity:1;stroke-dasharray:none"/><path id="path62" d="m 12.633929,15.178521 a 2.4107143,2.4107143 0 1 1 -6.2e-5,-0.0172" style="fill:#eee;fill-opacity:1;stroke:#eee;stroke-width:0;stroke-linecap:round;stroke-linejoin:miter;stroke-miterlimit:4;stroke-opacity:1;stroke-dasharray:none"/><path id="path64" d="m 41.428572,15.178521 a 2.4107143,2.4107143 0 1 1 -6.2e-5,-0.0172" style="fill:#eee;fill-opacity:1;stroke:#eee;stroke-width:0;stroke-linecap:round;stroke-linejoin:miter;stroke-miterlimit:4;stroke-opacity:1;stroke-dasharray:none"/><path id="path66" d="m 47.1875,15.178521 a 2.4107143,2.4107143 0 1 1 -6.2e-5,-0.0172" style="fill:#eee;fill-opacity:1;stroke:#eee;stroke-width:0;stroke-linecap:round;stroke-linejoin:miter;stroke-miterlimit:4;stroke-opacity:1;stroke-dasharray:none"/><path id="path70" d="m 18.392857,21.339235 a 2.4107143,2.4107143 0 1 1 -6.1e-5,-0.0172" style="fill:#eee;fill-opacity:1;stroke:#eee;stroke-width:0;stroke-linecap:round;stroke-linejoin:miter;stroke-miterlimit:4;stroke-opacity:1;stroke-dasharray:none"/><path id="path72" d="m 24.151786,21.339235 a 2.4107143,2.4107143 0 1 1 -6.2e-5,-0.0172" style="fill:#eee;fill-opacity:1;stroke:#eee;stroke-width:0;stroke-linecap:round;stroke-linejoin:miter;stroke-miterlimit:4;stroke-opacity:1;stroke-dasharray:none"/><path id="path76" d="m 35.669643,21.339235 a 2.4107143,2.4107143 0 1 1 -6.2e-5,-0.0172" style="fill:#eee;fill-opacity:1;stroke:#eee;stroke-width:0;stroke-linecap:round;stroke-linejoin:miter;stroke-miterlimit:4;stroke-opacity:1;stroke-dasharray:none"/><path id="path78" d="m 12.633929,21.339235 a 2.4107143,2.4107143 0 1 1 -6.2e-5,-0.0172" style="fill:#eee;fill-opacity:1;stroke:#eee;stroke-width:0;stroke-linecap:round;stroke-linejoin:miter;stroke-miterlimit:4;stroke-opacity:1;stroke-dasharray:none"/><path id="path80" d="m 41.428572,21.339235 a 2.4107143,2.4107143 0 1 1 -6.2e-5,-0.0172" style="fill:#eee;fill-opacity:1;stroke:#eee;stroke-width:0;stroke-linecap:round;stroke-linejoin:miter;stroke-miterlimit:4;stroke-opacity:1;stroke-dasharray:none"/><path id="path82" d="m 47.1875,21.339235 a 2.4107143,2.4107143 0 1 1 -6.2e-5,-0.0172" style="fill:#eee;fill-opacity:1;stroke:#eee;stroke-width:0;stroke-linecap:round;stroke-linejoin:miter;stroke-miterlimit:4;stroke-opacity:1;stroke-dasharray:none"/><path id="path86" d="m 18.392857,33.660664 a 2.4107143,2.4107143 0 1 1 -6.1e-5,-0.0172" style="fill:#eee;fill-opacity:1;stroke:#eee;stroke-width:0;stroke-linecap:round;stroke-linejoin:miter;stroke-miterlimit:4;stroke-opacity:1;stroke-dasharray:none"/><path id="path88" d="m 24.151786,33.660664 a 2.4107143,2.4107143 0 1 1 -6.2e-5,-0.0172" style="fill:#eee;fill-opacity:1;stroke:#eee;stroke-width:0;stroke-linecap:round;stroke-linejoin:miter;stroke-miterlimit:4;stroke-opacity:1;stroke-dasharray:none"/><path id="path92" d="m 35.669643,33.660664 a 2.4107143,2.4107143 0 1 1 -6.2e-5,-0.0172" style="fill:#eee;fill-opacity:1;stroke:#eee;stroke-width:0;stroke-linecap:round;stroke-linejoin:miter;stroke-miterlimit:4;stroke-opacity:1;stroke-dasharray:none"/><path id="path94" d="m 12.633929,33.660664 a 2.4107143,2.4107143 0 1 1 -6.2e-5,-0.0172" style="fill:#eee;fill-opacity:1;stroke:#eee;stroke-width:0;stroke-linecap:round;stroke-linejoin:miter;stroke-miterlimit:4;stroke-opacity:1;stroke-dasharray:none"/><path id="path96" d="m 41.428572,33.660664 a 2.4107143,2.4107143 0 1 1 -6.2e-5,-0.0172" style="fill:#eee;fill-opacity:1;stroke:#eee;stroke-width:0;stroke-linecap:round;stroke-linejoin:miter;stroke-miterlimit:4;stroke-opacity:1;stroke-dasharray:none"/><path id="path98" d="m 47.1875,33.660664 a 2.4107143,2.4107143 0 1 1 -6.2e-5,-0.0172" style="fill:#eee;fill-opacity:1;stroke:#eee;stroke-width:0;stroke-linecap:round;stroke-linejoin:miter;stroke-miterlimit:4;stroke-opacity:1;stroke-dasharray:none"/><rect id="rect3174" width="3.983" height="44.183" x="25.509" y="1.409" rx="1.863" ry="0" style="fill:#000;fill-opacity:1;stroke:#fff;stroke-width:.81716114;stroke-miterlimit:4;stroke-opacity:1;stroke-dasharray:none"/></g><path id="rect3894" d="m 40.004296,28.657143 c -1.10877,0 -2.018763,0.909992 -2.018763,2.018761 l 0,4.629689 -3.283849,-3.283849 c -0.784855,-0.783184 -2.043082,-0.78485 -2.826264,0 -0.783183,0.784854 -0.784823,2.069998 0,2.85318 l 3.310766,3.28385 -4.683521,0 c -1.10877,0 -2.018762,0.909991 -2.018762,2.018762 0,1.108769 0.909992,1.991843 2.018762,1.991843 l 4.656605,0 -3.28385,3.283849 c -0.783181,0.784854 -0.784823,2.069999 0,2.85318 0.784855,0.783182 2.07,0.757938 2.85318,-0.02692 l 3.256933,-3.283849 0,4.683524 c 0,1.10877 0.909993,1.991844 2.018763,1.991844 1.108769,0 1.991843,-0.883074 1.991843,-1.991844 l 0,-4.71044 3.337683,3.310765 c 0.784853,0.783182 2.043082,0.784855 2.826262,0 0.783182,-0.784853 0.784858,-2.043082 0,-2.826262 l -3.310765,-3.28385 4.656607,0 c 1.10877,0 1.991844,-0.883074 1.991844,-1.991843 0,-1.108771 -0.883074,-2.018763 -1.991844,-2.018763 l -4.683523,0 3.310765,-3.337683 c 0.783182,-0.784854 0.784857,-2.016165 0,-2.799347 -0.784854,-0.78318 -2.043082,-0.811775 -2.826263,-0.02691 l -3.310766,3.337682 0,-4.656604 c 0,-1.10877 -0.883074,-2.018763 -1.991843,-2.018763 z" style="fill:#fff;fill-opacity:1;stroke:#282828;stroke-width:1.72267997;stroke-linecap:round;stroke-linejoin:round;stroke-miterlimit:4;stroke-opacity:1;stroke-dasharray:none"/></svg>