<svg xmlns="http://www.w3.org/2000/svg" xmlns:xlink="http://www.w3.org/1999/xlink" width="55" height="55" fill="#eee" stroke="#000" stroke-linecap="round" stroke-linejoin="round" stroke-width="3.5" viewBox="0 0 55 55"><path id="path6" d="m 18.392857,27.49995 a 2.4107143,2.4107143 0 1 1 -6.1e-5,-0.0172" style="fill:#eee;fill-opacity:1;stroke:#eee;stroke-width:0;stroke-linecap:round;stroke-linejoin:miter;stroke-miterlimit:4;stroke-opacity:1;stroke-dasharray:none"/><path id="path8" d="m 24.151786,27.49995 a 2.4107143,2.4107143 0 1 1 -6.2e-5,-0.0172" style="fill:#eee;fill-opacity:1;stroke:#eee;stroke-width:0;stroke-linecap:round;stroke-linejoin:miter;stroke-miterlimit:4;stroke-opacity:1;stroke-dasharray:none"/><path id="path12" d="m 35.669643,27.49995 a 2.4107143,2.4107143 0 1 1 -6.2e-5,-0.0172" style="fill:#eee;fill-opacity:1;stroke:#eee;stroke-width:0;stroke-linecap:round;stroke-linejoin:miter;stroke-miterlimit:4;stroke-opacity:1;stroke-dasharray:none"/><path id="path14" d="m 12.633929,27.49995 a 2.4107143,2.4107143 0 1 1 -6.2e-5,-0.0172" style="fill:#eee;fill-opacity:1;stroke:#eee;stroke-width:0;stroke-linecap:round;stroke-linejoin:miter;stroke-miterlimit:4;stroke-opacity:1;stroke-dasharray:none"/><path id="path16" d="m 41.428572,27.49995 a 2.4107143,2.4107143 0 1 1 -6.2e-5,-0.0172" style="fill:#eee;fill-opacity:1;stroke:#eee;stroke-width:0;stroke-linecap:round;stroke-linejoin:miter;stroke-miterlimit:4;stroke-opacity:1;stroke-dasharray:none"/><path id="path18" d="m 47.1875,27.49995 a 2.4107143,2.4107143 0 1 1 -6.2e-5,-0.0172" style="fill:#eee;fill-opacity:1;stroke:#eee;stroke-width:0;stroke-linecap:round;stroke-linejoin:miter;stroke-miterlimit:4;stroke-opacity:1;stroke-dasharray:none"/><path id="path22" d="m 18.392857,39.821378 a 2.4107143,2.4107143 0 1 1 -6.1e-5,-0.0172" style="fill:#eee;fill-opacity:1;stroke:#eee;stroke-width:0;stroke-linecap:round;stroke-linejoin:miter;stroke-miterlimit:4;stroke-opacity:1;stroke-dasharray:none"/><path id="path24" d="m 24.151786,39.821378 a 2.4107143,2.4107143 0 1 1 -6.2e-5,-0.0172" style="fill:#eee;fill-opacity:1;stroke:#eee;stroke-width:0;stroke-linecap:round;stroke-linejoin:miter;stroke-miterlimit:4;stroke-opacity:1;stroke-dasharray:none"/><path id="path28" d="m 35.669643,39.821378 a 2.4107143,2.4107143 0 1 1 -6.2e-5,-0.0172" style="fill:#eee;fill-opacity:1;stroke:#eee;stroke-width:0;stroke-linecap:round;stroke-linejoin:miter;stroke-miterlimit:4;stroke-opacity:1;stroke-dasharray:none"/><path id="path30" d="m 12.633929,39.821378 a 2.4107143,2.4107143 0 1 1 -6.2e-5,-0.0172" style="fill:#eee;fill-opacity:1;stroke:#eee;stroke-width:0;stroke-linecap:round;stroke-linejoin:miter;stroke-miterlimit:4;stroke-opacity:1;stroke-dasharray:none"/><path id="path32" d="m 41.428572,39.821378 a 2.4107143,2.4107143 0 1 1 -6.2e-5,-0.0172" style="fill:#eee;fill-opacity:1;stroke:#eee;stroke-width:0;stroke-linecap:round;stroke-linejoin:miter;stroke-miterlimit:4;stroke-opacity:1;stroke-dasharray:none"/><path id="path34" d="m 47.1875,39.821378 a 2.4107143,2.4107143 0 1 1 -6.2e-5,-0.0172" style="fill:#eee;fill-opacity:1;stroke:#eee;stroke-width:0;stroke-linecap:round;stroke-linejoin:miter;stroke-miterlimit:4;stroke-opacity:1;stroke-dasharray:none"/><path id="path38" d="m 18.392857,9.0178068 a 2.4107143,2.4107143 0 1 1 -6.1e-5,-0.017197" style="fill:#eee;fill-opacity:1;stroke:#eee;stroke-width:0;stroke-linecap:round;stroke-linejoin:miter;stroke-miterlimit:4;stroke-opacity:1;stroke-dasharray:none"/><path id="path40" d="m 24.151786,9.0178068 a 2.4107143,2.4107143 0 1 1 -6.2e-5,-0.017197" style="fill:#eee;fill-opacity:1;stroke:#eee;stroke-width:0;stroke-linecap:round;stroke-linejoin:miter;stroke-miterlimit:4;stroke-opacity:1;stroke-dasharray:none"/><path id="path44" d="m 35.669643,9.0178068 a 2.4107143,2.4107143 0 1 1 -6.2e-5,-0.017197" style="fill:#eee;fill-opacity:1;stroke:#eee;stroke-width:0;stroke-linecap:round;stroke-linejoin:miter;stroke-miterlimit:4;stroke-opacity:1;stroke-dasharray:none"/><path id="path46" d="m 12.633929,9.0178068 a 2.4107143,2.4107143 0 1 1 -6.2e-5,-0.017197" style="fill:#eee;fill-opacity:1;stroke:#eee;stroke-width:0;stroke-linecap:round;stroke-linejoin:miter;stroke-miterlimit:4;stroke-opacity:1;stroke-dasharray:none"/><path id="path48" d="m 41.428572,9.0178068 a 2.4107143,2.4107143 0 1 1 -6.2e-5,-0.017197" style="fill:#eee;fill-opacity:1;stroke:#eee;stroke-width:0;stroke-linecap:round;stroke-linejoin:miter;stroke-miterlimit:4;stroke-opacity:1;stroke-dasharray:none"/><path id="path50" d="m 47.1875,9.0178068 a 2.4107143,2.4107143 0 1 1 -6.2e-5,-0.017197" style="fill:#eee;fill-opacity:1;stroke:#eee;stroke-width:0;stroke-linecap:round;stroke-linejoin:miter;stroke-miterlimit:4;stroke-opacity:1;stroke-dasharray:none"/><path id="path54" d="m 18.392857,15.178521 a 2.4107143,2.4107143 0 1 1 -6.1e-5,-0.0172" style="fill:#eee;fill-opacity:1;stroke:#eee;stroke-width:0;stroke-linecap:round;stroke-linejoin:miter;stroke-miterlimit:4;stroke-opacity:1;stroke-dasharray:none"/><path id="path56" d="m 24.151786,15.178521 a 2.4107143,2.4107143 0 1 1 -6.2e-5,-0.0172" style="fill:#eee;fill-opacity:1;stroke:#eee;stroke-width:0;stroke-linecap:round;stroke-linejoin:miter;stroke-miterlimit:4;stroke-opacity:1;stroke-dasharray:none"/><path id="path60" d="m 35.669643,15.178521 a 2.4107143,2.4107143 0 1 1 -6.2e-5,-0.0172" style="fill:#eee;fill-opacity:1;stroke:#eee;stroke-width:0;stroke-linecap:round;stroke-linejoin:miter;stroke-miterlimit:4;stroke-opacity:1;stroke-dasharray:none"/><path id="path62" d="m 12.633929,15.178521 a 2.4107143,2.4107143 0 1 1 -6.2e-5,-0.0172" style="fill:#eee;fill-opacity:1;stroke:#eee;stroke-width:0;stroke-linecap:round;stroke-linejoin:miter;stroke-miterlimit:4;stroke-opacity:1;stroke-dasharray:none"/><path id="path64" d="m 41.428572,15.178521 a 2.4107143,2.4107143 0 1 1 -6.2e-5,-0.0172" style="fill:#eee;fill-opacity:1;stroke:#eee;stroke-width:0;stroke-linecap:round;stroke-linejoin:miter;stroke-miterlimit:4;stroke-opacity:1;stroke-dasharray:none"/><path id="path66" d="m 47.1875,15.178521 a 2.4107143,2.4107143 0 1 1 -6.2e-5,-0.0172" style="fill:#eee;fill-opacity:1;stroke:#eee;stroke-width:0;stroke-linecap:round;stroke-linejoin:miter;stroke-miterlimit:4;stroke-opacity:1;stroke-dasharray:none"/><path id="path70" d="m 18.392857,21.339235 a 2.4107143,2.4107143 0 1 1 -6.1e-5,-0.0172" style="fill:#eee;fill-opacity:1;stroke:#eee;stroke-width:0;stroke-linecap:round;stroke-linejoin:miter;stroke-miterlimit:4;stroke-opacity:1;stroke-dasharray:none"/><path id="path72" d="m 24.151786,21.339235 a 2.4107143,2.4107143 0 1 1 -6.2e-5,-0.0172" style="fill:#eee;fill-opacity:1;stroke:#eee;stroke-width:0;stroke-linecap:round;stroke-linejoin:miter;stroke-miterlimit:4;stroke-opacity:1;stroke-dasharray:none"/><path id="path76" d="m 35.669643,21.339235 a 2.4107143,2.4107143 0 1 1 -6.2e-5,-0.0172" style="fill:#eee;fill-opacity:1;stroke:#eee;stroke-width:0;stroke-linecap:round;stroke-linejoin:miter;stroke-miterlimit:4;stroke-opacity:1;stroke-dasharray:none"/><path id="path78" d="m 12.633929,21.339235 a 2.4107143,2.4107143 0 1 1 -6.2e-5,-0.0172" style="fill:#eee;fill-opacity:1;stroke:#eee;stroke-width:0;stroke-linecap:round;stroke-linejoin:miter;stroke-miterlimit:4;stroke-opacity:1;stroke-dasharray:none"/><path id="path80" d="m 41.428572,21.339235 a 2.4107143,2.4107143 0 1 1 -6.2e-5,-0.0172" style="fill:#eee;fill-opacity:1;stroke:#eee;stroke-width:0;stroke-linecap:round;stroke-linejoin:miter;stroke-miterlimit:4;stroke-opacity:1;stroke-dasharray:none"/><path id="path82" d="m 47.1875,21.339235 a 2.4107143,2.4107143 0 1 1 -6.2e-5,-0.0172" style="fill:#eee;fill-opacity:1;stroke:#eee;stroke-width:0;stroke-linecap:round;stroke-linejoin:miter;stroke-miterlimit:4;stroke-opacity:1;stroke-dasharray:none"/><path id="path86" d="m 18.392857,33.660664 a 2.4107143,2.4107143 0 1 1 -6.1e-5,-0.0172" style="fill:#eee;fill-opacity:1;stroke:#eee;stroke-width:0;stroke-linecap:round;stroke-linejoin:miter;stroke-miterlimit:4;stroke-opacity:1;stroke-dasharray:none"/><path id="path88" d="m 24.151786,33.660664 a 2.4107143,2.4107143 0 1 1 -6.2e-5,-0.0172" style="fill:#eee;fill-opacity:1;stroke:#eee;stroke-width:0;stroke-linecap:round;stroke-linejoin:miter;stroke-miterlimit:4;stroke-opacity:1;stroke-dasharray:none"/><path id="path92" d="m 35.669643,33.660664 a 2.4107143,2.4107143 0 1 1 -6.2e-5,-0.0172" style="fill:#eee;fill-opacity:1;stroke:#eee;stroke-width:0;stroke-linecap:round;stroke-linejoin:miter;stroke-miterlimit:4;stroke-opacity:1;stroke-dasharray:none"/><path id="path94" d="m 12.633929,33.660664 a 2.4107143,2.4107143 0 1 1 -6.2e-5,-0.0172" style="fill:#eee;fill-opacity:1;stroke:#eee;stroke-width:0;stroke-linecap:round;stroke-linejoin:miter;stroke-miterlimit:4;stroke-opacity:1;stroke-dasharray:none"/><path id="path96" d="m 41.428572,33.660664 a 2.4107143,2.4107143 0 1 1 -6.2e-5,-0.0172" style="fill:#eee;fill-opacity:1;stroke:#eee;stroke-width:0;stroke-linecap:round;stroke-linejoin:miter;stroke-miterlimit:4;stroke-opacity:1;stroke-dasharray:none"/><path id="path98" d="m 47.1875,33.660664 a 2.4107143,2.4107143 0 1 1 -6.2e-5,-0.0172" style="fill:#eee;fill-opacity:1;stroke:#eee;stroke-width:0;stroke-linecap:round;stroke-linejoin:miter;stroke-miterlimit:4;stroke-opacity:1;stroke-dasharray:none"/><rect id="rect3174" width="3.983" height="44.183" x="25.509" y="1.409" rx="1.863" ry="0" style="fill:#000;fill-opacity:1;stroke:#000;stroke-width:.81716114;stroke-miterlimit:4;stroke-opacity:1;stroke-dasharray:none"/></svg>