<svg xmlns="http://www.w3.org/2000/svg" xmlns:xlink="http://www.w3.org/1999/xlink" id="Layer_1" x="0" y="0" version="1.1" viewBox="0 0 66.1 24.7" xml:space="preserve" style="enable-background:new 0 0 66.1 24.7"><style type="text/css">.st0{fill:#fff}.st1{fill:#f9a83a}</style><switch><g><g><g><path d="M60.2,24.1c-0.8,0.1-1.3,0.1-1.5,0.2c-0.4,0.2-1.3,0.4-2.4,0.4c-1.4,0-2.7-0.5-3.8-1.3l-0.8,0 c-0.3,0-0.5,0-0.8-0.1c-1.1,0.4-2.1,0.4-2.7,0.4l-0.2,0c-1.4,0.1-2.8-0.2-4-0.8c-0.6,0.2-1.1,0.3-1.7,0.3l-3.7,0.1 c-1.7,0-3.2-0.6-4.4-1.7c-0.5,0-1-0.1-1.4-0.2c-0.6,0.7-1.4,1.3-2.4,1.8c-1.9,0.9-4,1-6,0.2c-0.2-0.1-0.5-0.2-0.7-0.3l-2.3,0.3 c0,0-0.1,0-0.1,0c-0.2,0-0.4,0-0.6,0c-0.3,0.1-0.5,0.3-0.7,0.4c-1.5,0.7-2.9,0.7-3.5,0.7l-0.2,0c-0.1,0-0.2,0-0.3,0 c-1.7,0-3.4-0.5-4.7-1.4c-0.4,0.1-0.9,0.2-1.3,0.2c-0.9,0.6-2,1-3.2,1.1c-0.1,0-0.2,0-0.4,0c-3.3,0-6-2.5-6.3-5.8v0 c0,0,0-0.1,0-0.1c0-0.5-0.1-1.6,0-2.8c0-0.6,0.1-1.5,0.1-1.7V14c0-0.8,0.2-1.6,0.5-2.4C0.5,10.8,0.6,10,0.7,9.2l0-0.3 c0.1-0.7,0.3-2.1,1-3.5C3,3,5.4,1.5,8.1,1.5C9,1,9.9,0.8,10.9,0.8c0.1,0,0.2,0,0.3,0c2,0.1,3.8,1.1,4.9,2.7 c0.9-0.8,2-1.3,3.2-1.5c2.4-0.3,4.4-0.4,6.1-0.1c0.9-0.8,2.1-1.4,3.3-1.5l2.6-0.4C31.6,0,31.9,0,32.1,0c1.5,0,3,0.6,4.2,1.6 c0.1,0,0.1,0,0.2,0l3.8-0.1c1.6,0,3-0.1,3.3-0.1c0.1,0,0.2,0,0.3,0c0.1,0,0.2,0,0.2,0c1.4,0,2.9,0.5,4,1.4 c1.1-0.8,2.4-1.2,3.8-1.2h1.3c1-0.6,2.1-1,3.3-1l3.2-0.1h0.1c3.4,0,6.2,2.8,6.3,6.2c0,1.6-0.5,3-1.5,4.2l0,2.9 c0.9,1,1.4,2.3,1.5,3.7C66.3,20.9,63.7,23.8,60.2,24.1z" class="st0"/></g><path d="M60,20.5c-1.3,0.1-2.1,0.2-2.3,0.3l-0.1,0.1c-0.3,0.1-0.7,0.3-1.2,0.3c-0.6,0-1.3-0.2-1.8-0.7 c-0.2-0.2-0.4-0.4-0.5-0.6l-2.3,0c-0.4,0-0.8-0.1-1.1-0.3c-0.1,0.1-0.3,0.1-0.4,0.2c-0.8,0.4-1.5,0.4-2,0.4l-0.3,0 c-0.1,0-0.1,0-0.2,0c-1.5,0-2.7-0.5-3.5-1.4l0,0c-0.5,0.5-1.2,0.8-1.9,0.8l-3.7,0.1c-1.3,0-2.5-1-2.7-2.2c-0.5,0.3-1,0.5-1.6,0.5 c-0.6,0-1.2-0.2-1.7-0.5c-0.1-0.1-0.2-0.2-0.3-0.2c-0.3,0.2-0.7,0.2-1.1,0.2H31c-0.4,1.2-1.1,2-2.2,2.5c-0.5,0.2-1.1,0.4-1.6,0.4 c-0.5,0-1.1-0.1-1.6-0.3c-0.5-0.2-0.9-0.5-1.2-0.8c-0.2,0.1-0.4,0.1-0.6,0.2l-2.9,0.4c-0.1,0-0.3,0-0.4,0c-0.3,0-0.5,0-0.8-0.1 c-0.4,0.4-0.9,0.6-1.3,0.8c-0.8,0.4-1.5,0.4-2,0.4l-0.3,0c-0.1,0-0.1,0-0.2,0c-1.8,0-3.2-0.8-4-1.9c-0.8,0.5-1.8,0.8-2.7,0.8 c-0.2,0-0.4,0-0.6,0c0,0.1-0.1,0.1-0.1,0.2c-0.5,0.5-1.2,0.9-1.9,0.9c0,0-0.1,0-0.2,0c-1.4,0-2.6-1.1-2.7-2.6l0-0.1 c0-0.5-0.1-1.4,0-2.4c0-0.7,0.1-1.8,0.1-1.8v0c0-0.7,0.3-1.3,0.7-1.8C4.1,11.5,4,10.6,4.2,9.6l0-0.2c0.1-0.6,0.2-1.5,0.6-2.4 C5.5,5.7,6.8,5,8.3,5c0.1,0,0.2,0,0.3,0C8.7,5,8.9,5,9,5c0.5-0.4,1.1-0.7,1.8-0.7l0,0c1.5,0,2.7,1.3,2.7,2.8v0c0,0,0,0.5,0,1.1 c0.5-0.2,1.1-0.3,1.7-0.3c0.3,0,0.5,0,0.8,0.1c0.4-0.5,1-0.8,1.6-0.9c0.1-0.2,0.2-0.3,0.3-0.5c0.4-0.6,1.1-1,1.8-1.1 c0.6-0.1,1.8-0.2,3.2-0.2c1.6,0,2.9,0.2,3.9,0.7c0.3-1.1,1.1-1.9,2.3-2.1l2.6-0.4c0.1,0,0.2,0,0.4,0c0.8,0,1.5,0.3,2,0.9 c0.2,0.2,0.5,0.6,0.6,0.9l0.1,0.3c0.5-0.3,1-0.5,1.6-0.5L40.3,5c1.9,0,3.6-0.1,3.6-0.2l0,0c0.1,0,0.1,0,0.2,0 c0.7,0,1.5,0.3,2,0.8c0.4,0.4,0.7,0.9,0.8,1.5c0.1,0,0.2,0,0.2,0c0.3,0,0.5,0,0.8,0.1c0.4-0.5,1-0.8,1.6-0.9 C50,5.6,50.9,5,51.9,5h2.6c0.5-0.6,1.2-1,2.1-1L59.8,4c1.5,0,2.7,1.2,2.8,2.7c0,1.1-0.6,2.1-1.5,2.5c0,3,0,4.9,0,6.1 c0.8,0.4,1.4,1.3,1.5,2.3C62.7,19.1,61.5,20.4,60,20.5z" class="st1"/><polygon points="32.3 8.5 31.6 12.1 33.6 11.8" class="st1"/><path d="M8.4,12c-0.7-0.1-1.1-0.6-0.9-2l0-0.2c0.2-1.2,0.3-1.5,0.9-1.5c0.2,0,0.4,0.1,0.6,0.3 c0.2,0.2,0.6,0.5,0.8,1.1c0.2,0.4,0.2,0.7,0.3,1l0,0.4v0c0,0.2,0.2,0.4,0.5,0.5c0.3,0.1,0.6-0.2,0.7-0.5c0,0,0.2-3.8,0.2-3.9 c0-0.3-0.3-0.6-0.6-0.6c-0.3,0-0.6,0.3-0.6,0.6c0,0,0,0.5,0,1.1c-0.5-0.5-1.1-1-1.8-1C6.6,7,6.4,8.7,6.3,9.7l0,0.2 c-0.2,1.9,0.4,3.1,1.9,3.4c1.6,0.3,2.7,0.6,2.7,1.6c0,0.4-0.2,0.8-0.6,1.1c-0.4,0.4-1,0.5-1.6,0.4c-0.2,0-0.3-0.1-0.5-0.1 c-0.2-0.1-0.8-0.4-1-0.8C7.1,15.1,7,14.6,7,14.3c0-0.1,0-0.2,0-0.2c0-0.3-0.3-0.6-0.6-0.6c-0.3,0-0.6,0.3-0.6,0.6 c0,0,0,1.2-0.1,1.9c-0.1,1.2,0,2.1,0,2.2c0,0.3,0.3,0.6,0.6,0.6c0.3,0,0.6-0.3,0.6-0.6c0,0,0-0.5,0-1.1c0.4,0.3,1,0.6,1.7,0.7 c0.9,0.2,1.8-0.1,2.5-0.7c0.6-0.5,1-1.3,1-2C12.1,12.6,9.6,12.2,8.4,12" class="st0"/><path d="M25.2,10.3c-0.1,0.1-0.2,0.2-0.4,0.3c-0.1,0.1-0.4,0.2-0.5,0.2L24,10.9c-0.4,0.2-1,0.3-1.6,0.4l0-2.8 c1.6,0,3,0.1,3.3,0.6c0,0,0,0.1,0,0.2C25.7,9.5,25.5,9.9,25.2,10.3 M28.7,15.7c-0.3-0.1-0.7,0.1-0.8,0.4 c-0.2,0.7-0.4,0.7-0.5,0.8c-0.1,0.1-0.3,0-0.6-0.1c0,0-0.1-0.2-0.2-0.3c-0.1-0.2-0.2-1-0.2-1.5c0-1.8-0.4-2.8-0.9-3.3 c0.3-0.2,0.6-0.5,0.6-0.5l0,0c0.7-1,0.9-1.8,0.5-2.5c-1-1.7-5.3-1.2-6.7-1c-0.3,0-0.6,0.4-0.5,0.7c0,0.3,0.4,0.6,0.7,0.5 c0.3,0,0.6-0.1,0.9-0.1l0,2.8c-0.1,0-0.2,0-0.3,0c-0.3,0-0.6,0.3-0.6,0.6c0,0.3,0.3,0.6,0.6,0.6c0.1,0,0.2,0,0.3,0l0,3.5 l-0.8,0.1c-0.3,0-0.6,0.4-0.5,0.7c0,0.3,0.4,0.6,0.7,0.5l2.9-0.4c0.3,0,0.6-0.4,0.5-0.7c0-0.3-0.4-0.6-0.7-0.5l-0.9,0.1l0-3.5 c0.6-0.1,1.1-0.2,1.6-0.4c0,0,0.1,0,0.2,0c0.2,0,0.4,0.1,0.5,0.3c0.2,0.3,0.4,0.9,0.5,2.4c0,0.3,0.1,1.5,0.3,2 c0.1,0.2,0.4,0.7,0.9,0.9c0.4,0.1,0.9,0.3,1.5,0c0.5-0.3,0.9-0.6,1.1-1.5C29.2,16.1,29,15.8,28.7,15.7" class="st0"/><path d="M50.5,13.8c-0.3,0-0.6,0.3-0.6,0.6l0,0.2c0,0,0,0.5,0,0.6c0,0.3-0.1,0.7-0.2,0.8c-0.1,0.2-0.2,0.3-0.4,0.5 c-0.1,0.1-0.3,0.2-0.5,0.3c-0.2,0.1-0.3,0.1-0.7,0.1l-0.4,0c-1.6,0.1-1.8-1.2-1.8-1.5l0-1l0-1.6c0.1-1,0.3-1.7,0.7-2 c0.3-0.2,0.7-0.1,1.4,0.1c0.8,0.3,1.3,1.2,1.4,1.2c0.1,0.2,0.4,0.3,0.7,0.3c0.3-0.1,0.4-0.3,0.4-0.6V9.1c0-0.3-0.3-0.6-0.6-0.6 c-0.3,0-0.6,0.3-0.6,0.6v1.1c-0.2-0.2-0.5-0.3-0.8-0.5C48.2,9.5,47,9,46.1,9.6c-0.7,0.5-1.2,1.4-1.3,2.9l0,1.7l0,1.1 c0.1,0.9,0.8,2.7,3,2.7l0.3,0c0.4,0,0.8,0,1.2-0.2c0.3-0.1,0.6-0.3,0.9-0.6c0.2-0.2,0.3-0.4,0.5-0.7c0.2-0.4,0.3-1.1,0.4-1.3 l0-0.7l0-0.3C51.1,14,50.8,13.8,50.5,13.8" class="st0"/><path d="M60.4,17.8c0-0.3-0.3-0.6-0.6-0.6c-0.2,0-0.5,0-0.8,0.1c0-1,0-3.1-0.1-9.9l0.9,0c0.3,0,0.6-0.3,0.6-0.6 c0-0.3-0.3-0.6-0.6-0.6l-3.2,0.1c-0.3,0-0.6,0.3-0.6,0.6c0,0.3,0.3,0.6,0.6,0.6l1,0c0,1.3,0,2.8,0,4.2l-3.6,0.6l0-3.8h1 c0.3,0,0.6-0.3,0.6-0.6c0-0.3-0.3-0.6-0.6-0.6h-3.2c-0.3,0-0.6,0.3-0.6,0.6c0,0.3,0.3,0.6,0.6,0.6h1l0,8.1l-1,0 c-0.3,0-0.6,0.3-0.6,0.6c0,0.3,0.3,0.6,0.6,0.6l3.3,0.1c0.3,0,0.6-0.3,0.6-0.6c0-0.3-0.3-0.6-0.6-0.6l-1,0l0-3.1l3.6-0.6 c0,2.3,0,3.8,0,4.6c-0.8,0.2-1.4,0.2-1.7,0.6c-0.2,0.2-0.2,0.6,0.1,0.8c0.2,0.2,0.5,0.1,0.9,0l0,0c0.3-0.2,1.5-0.3,2.9-0.4 C60.2,18.4,60.4,18.1,60.4,17.8" class="st0"/><path d="M31.6,12.1l0.7-3.6l1.3,3.3L31.6,12.1z M36.9,13.1c-0.2,0.1-0.5,0.2-1.1,0.5L35,11.7l-2.3-5.5 c0-0.1-0.1-0.3-0.2-0.3c-0.1-0.1-0.3-0.2-0.5-0.2L29.4,6c-0.3,0-0.6,0.3-0.5,0.7c0,0.3,0.3,0.6,0.7,0.5c0,0,1-0.1,1.8-0.2 c-0.2,1.1-1.1,5.6-1.4,7l-1.8-0.1c-0.3,0-0.6,0.2-0.6,0.6c0,0.3,0.2,0.6,0.6,0.6l3,0.1c0.3,0,0.6-0.2,0.6-0.6 c0-0.3-0.2-0.6-0.6-0.6l0.1-0.9l2.8-0.5l0.6,1.5c-0.5,0.3-0.7,0.4-1,0.7c-0.2,0.3-0.1,0.6,0.1,0.8c0.3,0.2,0.7,0.1,0.9-0.1 c0.3-0.4,1.4-0.9,2.5-1.3c0.3-0.1,0.5-0.5,0.4-0.8C37.5,13.2,37.2,13,36.9,13.1" class="st0"/><path d="M44.1,7c0,0-1.8,0.1-3.8,0.2l-3.9,0.1c-0.2,0-0.3,0.1-0.5,0.2c-0.1,0.1-0.2,0.3-0.1,0.5l0.5,3 c0,0.3,0.4,0.6,0.7,0.5c0.3,0,0.5-0.3,0.5-0.6c0,0-0.2-1.6-0.4-2.4c0.2,0,2.6,0,2.6,0l0,7.9l-1.3,0c-0.3,0-0.6,0.3-0.6,0.6 c0,0.3,0.3,0.6,0.6,0.6l3.7-0.1c0.3,0,0.6-0.3,0.6-0.6c0-0.3-0.3-0.6-0.6-0.6l-1.2,0l0-7.9c1,0,1.9-0.1,2.5-0.1 c0,0.5,0,0.9,0,1.2c0,0.6,0.1,0.8,0.1,0.9c0.2,0.3,0.5,0.4,0.8,0.2c0.2-0.1,0.3-0.4,0.3-0.6c0,0,0-1.4,0.1-2.2 c0-0.2,0-0.3-0.2-0.5C44.5,7.1,44.3,7,44.1,7" class="st0"/><path d="M18.6,14.4c-0.3,0-0.6,0.3-0.6,0.6l0,0.3c0,0,0,0.5,0,0.6c0,0.2-0.1,0.6-0.2,0.8c-0.1,0.2-0.2,0.3-0.4,0.5 c-0.1,0.1-0.3,0.2-0.5,0.3c-0.2,0.1-0.3,0.1-0.7,0.1l-0.4,0c-1.6,0-1.8-1.2-1.8-1.5l0-1l0-1.6c0.1-1,0.3-1.7,0.7-2 c0.3-0.2,0.7-0.1,1.4,0.1c0.8,0.3,1.4,1.2,1.4,1.2c0.1,0.2,0.4,0.3,0.7,0.3c0.3-0.1,0.4-0.3,0.4-0.6V9.8c0-0.3-0.3-0.6-0.6-0.6 c-0.3,0-0.6,0.3-0.6,0.6v1.1c-0.2-0.2-0.5-0.4-0.8-0.5c-0.4-0.2-1.5-0.6-2.5-0.1c-0.7,0.5-1.2,1.4-1.3,2.9l0,0l0,1.7v0l0,1.1l0,0 c0.1,0.9,0.8,2.7,3.1,2.7l0.3,0c0.4,0,0.8,0,1.2-0.2c0.3-0.1,0.6-0.3,0.9-0.6c0.2-0.2,0.3-0.4,0.5-0.7c0.2-0.4,0.3-1.1,0.4-1.3 l0-0.7l0-0.3C19.2,14.7,18.9,14.4,18.6,14.4" class="st0"/></g></g></switch></svg>