<svg xmlns="http://www.w3.org/2000/svg" xmlns:svg="http://www.w3.org/2000/svg" id="svg2" width="55" height="55" version="1.1" viewBox="0 0 55 55" xml:space="preserve"><metadata id="metadata25"/><g id="g4382" transform="matrix(0.55205508,0,0,0.55205508,44.618464,18.235971)"><g id="g4308" transform="translate(-80.093659,12.220029)" style="fill:none;stroke:#fff;stroke-opacity:1"><g id="g4310" style="fill:none;stroke:#fff;stroke-opacity:1"><path id="path4312" d="m 6.736,49.002 h 24.52 c 2.225,0 3.439,-1.447 3.439,-3.441 v -27.28 c 0,-1.73 -1.732,-3.441 -3.439,-3.441 h -4.389" style="fill:none;stroke:#fff;stroke-width:3.5;stroke-linecap:round;stroke-linejoin:round;stroke-opacity:1"/></g></g><g id="g4314" transform="translate(-80.093659,12.220029)" style="fill:none;stroke:#fff;stroke-opacity:1"><g id="g4316" style="fill:none;stroke:#fff;stroke-opacity:1"><path id="path4318" d="m 26.867,38.592 c 0,1.836 -1.345,3.201 -3.441,4.047 L 6.736,49.002 V 14.84 l 16.69,-8.599 c 2.228,-0.394 3.441,0.84 3.441,2.834 v 29.517 z" style="fill:none;stroke:#fff;stroke-width:3.5;stroke-linecap:round;stroke-linejoin:round;stroke-opacity:1"/></g></g><path id="path4320" d="m -70.669659,54.827029 c 0,0 -1.351,-0.543 -2.702,-0.543 -1.351,0 -2.703,0.543 -2.703,0.543" style="fill:none;stroke:#fff;stroke-width:2.25;stroke-linecap:round;stroke-linejoin:round;stroke-opacity:1"/><path id="path4322" d="m -70.669659,44.226029 c 0,0 -1.239,-0.543 -2.815,-0.543 -1.577,0 -2.59,0.543 -2.59,0.543" style="fill:none;stroke:#fff;stroke-width:2.25;stroke-linecap:round;stroke-linejoin:round;stroke-opacity:1"/><path id="path4324" d="m -70.669659,33.898029 c 0,0 -1.125,-0.544 -2.927,-0.544 -1.802,0 -2.478,0.544 -2.478,0.544" style="fill:none;stroke:#fff;stroke-width:2.25;stroke-linecap:round;stroke-linejoin:round;stroke-opacity:1"/><line style="fill:none;stroke:#fff;stroke-width:2.25;stroke-linecap:round;stroke-linejoin:round;stroke-opacity:1" id="line4326" x1="-66.885" x2="-66.885" y1="58.753" y2="23.725"/></g><g id="g3882" transform="matrix(1.1623273,0,0,1.1623273,1.5747266,-12.63995)" style="fill:none;stroke:#fff;stroke-width:2.15085721;stroke-miterlimit:4;stroke-opacity:1;stroke-dasharray:none;display:inline"><g id="g3884" style="fill:none;stroke:#fff;stroke-width:2.15085721;stroke-miterlimit:4;stroke-opacity:1;stroke-dasharray:none"><polygon id="polygon3886" points="15.204 35.189 43.041 35.189 43.041 21.577 35.281 13.812 15.204 13.812" style="fill:none;stroke:#fff;stroke-width:2.15085721;stroke-miterlimit:4;stroke-opacity:1;stroke-dasharray:none"/><polyline id="polyline3888" points="35.281 13.812 35.281 21.577 43.041 21.577" style="fill:none;stroke:#fff;stroke-width:2.15085721;stroke-miterlimit:4;stroke-opacity:1;stroke-dasharray:none"/></g></g><g id="g4770" transform="matrix(0,1,1,0,5.8287336,-30.080438)"><g id="g4772" transform="translate(34.0803,-1006.42)"><polyline style="fill:none;stroke:#fff;stroke-width:3.5;stroke-linecap:round;stroke-linejoin:round" id="polyline4774" points="51.562 15.306 41.17 16.188 42.053 5.794" transform="matrix(-0.469241,0.469241,-0.469241,-0.469241,66.2906,1019.03)"/><path id="path4776" d="m 39.363241,1033.1291 -0.05636,9.9115 -8.750608,0.067" style="fill:none;stroke:#fff;stroke-width:2.5;stroke-linecap:round;stroke-linejoin:round;stroke-miterlimit:4;stroke-opacity:1;stroke-dasharray:none"/></g></g><g id="g4381" transform="matrix(0.8,0,0,0.8,17.117797,-5.3855929)"><polygon id="polygon4363" points="10.932 6.088 10.932 6.088 31.874 6.088 43.818 18.027 43.818 45.914 10.932 45.914" transform="translate(-5.182,3.336)" style="fill:none"/><polyline id="polyline4365" points="43.818 18.027 31.874 18.027 31.874 6.088" transform="translate(-5.182,3.336)" style="fill:none"/><text id="text4367" x="8" y="36" font-size="12" font-weight="bold" style="font-weight:700;font-size:12px;font-family:'Bitstream Vera Sans';fill:#fff;stroke:none">PNG</text><g id="g4369" transform="translate(-0.25,-1.75)"><line id="line4371" x1="41" x2="52.5" y1="16" y2="5" style="fill:none"/><polyline id="polyline4373" points="51.5 15.5 41 16 42 5.75" style="fill:none"/></g></g></svg>