<svg xmlns="http://www.w3.org/2000/svg" width="45" height="45"><g id="g4257"><rect id="rect4" width="36.337" height="36.769" x="-40.668" y="4.116" transform="matrix(0, -1, 1, 0, 0, 0)" style="fill:#aaa;stroke:#333;stroke-width:3.5;stroke-linejoin:round;stroke-miterlimit:1.6;stroke-dasharray:none"/><line id="line10-4" x1="39.769" x2="4.153" y1="16.317" y2="16.317" style="fill:#aaa;stroke:#333;stroke-width:2.44068;stroke-miterlimit:1.6;stroke-dasharray:none"/><g id="g4243"><line style="fill:#aaa;stroke:#333;stroke-width:2.5;stroke-miterlimit:1.6;stroke-dasharray:none" id="line10" x1="22.31" x2="22.31" y1="39.687" y2="4.76"/><path id="path3633" d="m 26.777977,23.580047 a 4.4680964,3.0718163 0 1 1 -8.936192,0 4.4680964,3.0718163 0 1 1 8.936192,0 z" style="fill:#333;fill-opacity:1;fill-rule:nonzero;stroke:none"/><path id="path3633-7" d="m 26.777977,29.723792 a 4.4680964,3.0718163 0 1 1 -8.936192,0 4.4680964,3.0718163 0 1 1 8.936192,0 z" style="fill:#333;fill-opacity:1;fill-rule:nonzero;stroke:none"/><path id="path3633-5" d="m 26.777977,35.867536 a 4.4680964,3.0718163 0 1 1 -8.936192,0 4.4680964,3.0718163 0 1 1 8.936192,0 z" style="fill:#333;fill-opacity:1;fill-rule:nonzero;stroke:none"/><path id="path3633-4" d="m 26.777977,9.1787679 a 4.4680964,3.0718163 0 1 1 -8.936192,0 4.4680964,3.0718163 0 1 1 8.936192,0 z" style="fill:#333;fill-opacity:1;fill-rule:nonzero;stroke:none"/></g><g id="g4250"><line style="fill:#aaa;stroke:#333;stroke-width:2.5;stroke-miterlimit:1.6;stroke-dasharray:none" id="line10-2" x1="32.84" x2="32.84" y1="39.687" y2="4.76"/><path id="path3633-47" d="m 37.308212,23.580047 a 4.4680964,3.0718163 0 1 1 -8.936191,0 4.4680964,3.0718163 0 1 1 8.936191,0 z" style="fill:#333;fill-opacity:1;fill-rule:nonzero;stroke:none"/><path id="path3633-7-4" d="m 37.308212,29.723792 a 4.4680964,3.0718163 0 1 1 -8.936191,0 4.4680964,3.0718163 0 1 1 8.936191,0 z" style="fill:#333;fill-opacity:1;fill-rule:nonzero;stroke:none"/><path id="path3633-5-4" d="m 37.308212,35.867536 a 4.4680964,3.0718163 0 1 1 -8.936191,0 4.4680964,3.0718163 0 1 1 8.936191,0 z" style="fill:#333;fill-opacity:1;fill-rule:nonzero;stroke:none"/><path id="path3633-4-0" d="m 37.308212,9.1787679 a 4.4680964,3.0718163 0 1 1 -8.936191,0 4.4680964,3.0718163 0 1 1 8.936191,0 z" style="fill:#333;fill-opacity:1;fill-rule:nonzero;stroke:none"/></g><g id="g4236"><line style="fill:#aaa;stroke:#333;stroke-width:2.5;stroke-miterlimit:1.6;stroke-dasharray:none" id="line10-68" x1="11.78" x2="11.78" y1="39.687" y2="4.76"/><path id="path3633-2" d="m 16.247742,23.580047 a 4.4680964,3.0718163 0 1 1 -8.9361898,0 4.4680964,3.0718163 0 1 1 8.9361898,0 z" style="fill:#333;fill-opacity:1;fill-rule:nonzero;stroke:none"/><path id="path3633-7-6" d="m 16.247742,29.723792 a 4.4680964,3.0718163 0 1 1 -8.9361898,0 4.4680964,3.0718163 0 1 1 8.9361898,0 z" style="fill:#333;fill-opacity:1;fill-rule:nonzero;stroke:none"/><path id="path3633-5-6" d="m 16.247742,35.867536 a 4.4680964,3.0718163 0 1 1 -8.9361898,0 4.4680964,3.0718163 0 1 1 8.9361898,0 z" style="fill:#333;fill-opacity:1;fill-rule:nonzero;stroke:none"/><path id="path3633-4-5" d="m 16.247742,9.1787679 a 4.4680964,3.0718163 0 1 1 -8.9361898,0 4.4680964,3.0718163 0 1 1 8.9361898,0 z" style="fill:#333;fill-opacity:1;fill-rule:nonzero;stroke:none"/></g></g></svg>