<svg xmlns="http://www.w3.org/2000/svg" xmlns:xlink="http://www.w3.org/1999/xlink" id="Layer_1" width="55" height="55" x="0" y="0" enable-background="new 0 0 55 55" version="1.1" viewBox="0 0 55 55" xml:space="preserve"><g id="activity-journal" display="block"><path fill="#fff" stroke="#666" stroke-linecap="round" stroke-linejoin="round" stroke-width="3.5" d="M45.866,44.669 c0,2.511-1.528,4.331-4.332,4.331H12.077V6h29.458c2.15,0,4.332,2.154,4.332,4.33L45.866,44.669L45.866,44.669z"/><line x1="21.341" x2="21.341" y1="6.121" y2="48.881" fill="none" stroke="#666" stroke-linecap="round" stroke-linejoin="round" stroke-width="3.5"/><path fill="none" stroke="#666" stroke-linecap="round" stroke-linejoin="round" stroke-width="3.5" d="M7.384,14.464 c0,0,2.084,0.695,4.17,0.695c2.086,0,4.173-0.695,4.173-0.695"/><path fill="none" stroke="#666" stroke-linecap="round" stroke-linejoin="round" stroke-width="3.5" d="M7.384,28.021 c0,0,1.912,0.695,4.345,0.695s3.999-0.695,3.999-0.695"/><path fill="none" stroke="#666" stroke-linecap="round" stroke-linejoin="round" stroke-width="3.5" d="M7.384,41.232 c0,0,1.736,0.695,4.518,0.695c2.781,0,3.825-0.695,3.825-0.695"/></g></svg>