<svg xmlns="http://www.w3.org/2000/svg" xmlns:svg="http://www.w3.org/2000/svg" id="svg2" width="430" height="400" version="1.1"><metadata id="metadata100"/><path style="fill:#f0f;fill-opacity:1;stroke:#c700d3;stroke-width:2;stroke-linecap:round;stroke-opacity:1" id="path21" d="m 157,97 120,0 0,40 -120,0 0,-16 0,-2 -12,0 0,6 -4,0 0,-16 4,0 0,6 12,0 0,-2 z"/><text style="font-size:20px;text-anchor:start;fill:#000;font-family:Sans" id="text23" x="184" y="96"><tspan id="tspan25" x="204" y="122">2</tspan></text><g id="g3077" transform="translate(24,-1e-5)"><path style="fill:#f0f;fill-opacity:1;stroke:#c700d3;stroke-width:2;stroke-linecap:round;stroke-opacity:1" id="path21-7" d="m 151,223.00001 120.00001,0 0,40 -120.00001,0 0,-16 0,-2 -12,0 0,6 -4,0 0,-16 4,0 0,6 12,0 0,-2 z"/><text style="font-size:20px;text-anchor:start;fill:#000;font-family:Sans" id="text23-1" x="182.851" y="223.799"><tspan id="tspan25-0" x="202.851" y="249.799">0</tspan></text></g><path style="fill:#e37a00;fill-opacity:1;stroke:#a34600;stroke-width:2;stroke-linecap:round;stroke-opacity:1" id="path3035" d="m 19,155 0,-8 c 0,-4.18879 3.81121,-8 8,-8 l 8,0 0,4 20,0 0,-4 18,0 40,0 8,0 c 4.18879,0 8,3.81121 8,8 l 0,8 -8,0 0,-6 -8,0 0,20 8,0 0,-6 8,0 0,8 c 0,4.18879 -3.81121,8 -8,8 l -8,0 -40,0 -2,0 0,4 -16,0 0,-4 -2,0 -8,0 c -2.617994,0 -5.219867,1.07773 -7.071068,2.92893 C 36.077731,183.78013 35,186.38201 35,189 l 0,8 0,90 0,8 c 0,2.61799 1.077731,5.21987 2.928932,7.07107 1.851201,1.8512 4.53124,3.56389 7.071068,2.92893 l 8,0 0,4 20,0 0,-4 16,0 0,12 0,12 0,8 c 0,4.18879 -3.936277,9.01593 -8,8 l -8,0 -18,0 -2,0 0,4 -16,0 0,-4 -2,0 -8,0 c -4.18879,0 -8,-3.81121 -8,-8 l 0,-8 z"/><text style="font-size:20px;text-anchor:start;fill:#000;font-family:Sans" id="text3037" x="18" y="137.34"><tspan id="tspan3039" x="26" y="167.84">repetir</tspan></text><path style="fill:#f0f;fill-opacity:1;stroke:#c700d3;stroke-width:2;stroke-linecap:round;stroke-opacity:1" id="path21-8" d="m 131,139.00001 120,0 0,40 -120,0 0,-16 0,-2 -12,0 0,6 -4,0 0,-16 4,0 0,6 12,0 0,-2 z"/><text style="font-size:20px;text-anchor:start;fill:#000;font-family:Sans" id="text23-0" x="157" y="140"><tspan id="tspan25-7" x="177" y="166">11</tspan></text><g id="g3055"><g id="g4085"><path style="fill:#ffc000;fill-opacity:1;stroke:#c48d00;stroke-width:2;stroke-linecap:round;stroke-opacity:1" id="path3660" d="m 1,29 0,-8 c 0,-4.18879 3.8112098,-8 8,-8 l 8,0 10,-12 10,12 18,0 60,0 8,0 c 4.18879,0 8,3.81121 8,8 l 0,8 0,8 0,8 c 0,4.18879 -3.81121,8 -8,8 l -8,0 -60,0 -2,0 0,4 -16,0 0,-4 -2,0 -8,0 c -2.617994,0 -5.219867,1.077731 -7.071068,2.928932 C 18.077731,57.780133 17,60.382006 17,63 l 0,8 0,258 0,8 c 0,2.61799 1.077731,5.21987 2.928932,7.07107 1.851201,1.8512 4.53124,3.56389 7.071068,2.92893 l 8,0 0,4 20,0 0,-4 16,0 0,12 0,12 0,8 c 0,4.18879 -3.936277,9.01593 -8,8 l -8,0 -18,0 -10,12 -10,-12 -8,0 c -4.1887902,0 -8,-3.81121 -8,-8 l 0,-8 z"/><text style="font-size:20px;text-anchor:start;fill:#000;font-family:Sans" id="text3662"><tspan id="tspan3664" x="8" y="43">iniciar</tspan></text></g><g id="g3037"><path style="fill:#eee;stroke:red;stroke-width:1.75;stroke-linecap:round;stroke-linejoin:round;stroke-miterlimit:4;stroke-opacity:1;stroke-dasharray:none" id="path4206" d="m 111.37629,42.473009 c -0.24354,0 -0.48399,-0.01591 -0.72092,-0.04546 l 0.61126,1.067795 0.60246,-1.051431 c -0.16339,0.01364 -0.32633,0.02909 -0.4928,0.02909 z"/><g style="fill:#ff8080;fill-opacity:1;stroke:red;stroke-width:3.91126204;stroke-linecap:round;stroke-linejoin:round;stroke-miterlimit:4;stroke-opacity:1;stroke-dasharray:none" id="g4208" transform="matrix(0.44038997,0,0,0.45457429,99.266887,20.526617)"><path style="fill:#ff8080;fill-opacity:1;stroke:red;stroke-width:3.91126204;stroke-miterlimit:4;stroke-opacity:1;stroke-dasharray:none" id="path4210" d="m 40.16,11.726 c -2.164,0 -3.958,1.555 -4.343,3.607 1.859,1.345 3.457,3.115 4.675,5.208 2.285,-0.172 4.094,-2.061 4.094,-4.39 0,-2.444 -1.982,-4.425 -4.426,-4.425 z"/><path style="fill:#ff8080;fill-opacity:1;stroke:red;stroke-width:3.91126204;stroke-miterlimit:4;stroke-opacity:1;stroke-dasharray:none" id="path4212" d="m 40.713,39.887 c -1.224,2.232 -2.86,4.131 -4.797,5.556 0.521,1.864 2.213,3.239 4.244,3.239 2.443,0 4.426,-1.98 4.426,-4.424 0,-2.255 -1.693,-4.096 -3.873,-4.371 z"/><path style="fill:#ff8080;fill-opacity:1;stroke:red;stroke-width:3.91126204;stroke-miterlimit:4;stroke-opacity:1;stroke-dasharray:none" id="path4214" d="m 14.273,39.871 c -2.253,0.206 -4.024,2.079 -4.024,4.387 0,2.443 1.98,4.424 4.424,4.424 2.064,0 3.784,-1.42 4.272,-3.332 -1.883,-1.416 -3.475,-3.289 -4.672,-5.479 z"/><path style="fill:#ff8080;fill-opacity:1;stroke:red;stroke-width:3.91126204;stroke-miterlimit:4;stroke-opacity:1;stroke-dasharray:none" id="path4216" d="m 19.026,15.437 c -0.343,-2.103 -2.154,-3.711 -4.353,-3.711 -2.444,0 -4.424,1.981 -4.424,4.424 0,2.382 1.886,4.31 4.245,4.406 1.186,-2.043 2.732,-3.784 4.532,-5.119 z"/></g><path style="fill:#ff8080;fill-opacity:1;stroke:red;stroke-width:1.75;stroke-linecap:round;stroke-linejoin:round;stroke-miterlimit:4;stroke-opacity:1;stroke-dasharray:none" id="path4218" d="m 111.37629,26.237434 c 0.84026,0 1.64177,0.18683 2.38603,0.51276 0.32633,-0.489122 0.51878,-1.080523 0.51878,-1.719655 0,-1.676015 -1.31632,-3.035192 -2.94048,-3.035192 -1.62372,0 -2.94005,1.359177 -2.94005,3.035192 0,0.649132 0.19906,1.249625 0.53552,1.742838 0.75923,-0.340476 1.57968,-0.535943 2.4402,-0.535943 z"/><g style="fill:#ff8080;fill-opacity:1;stroke:red;stroke-width:3.91126204;stroke-linecap:round;stroke-linejoin:round;stroke-miterlimit:4;stroke-opacity:1;stroke-dasharray:none" id="g4220" transform="matrix(0.44038997,0,0,0.45457429,99.266887,20.526617)"><path style="fill:#ff8080;fill-opacity:1;stroke:red;stroke-width:3.91126204;stroke-miterlimit:4;stroke-opacity:1;stroke-dasharray:none" id="path4222" d="m 43.102,30.421 c 0,4.7344 -1.6452,9.2798 -4.5706,12.6275 -2.9254,3.3478 -6.8973,5.2305 -11.0344,5.2305 -4.1371,0 -8.109,-1.8827 -11.0344,-5.2305 -2.9254,-3.3477 -4.5706,-7.8931 -4.5706,-12.6275 0,-9.7966 7.0444,-17.858 15.605,-17.858 8.5606,0 15.605,8.0614 15.605,17.858 z"/></g><g style="fill:red;fill-opacity:1;stroke:none" id="g4224" transform="matrix(0.44038997,0,0,0.45457429,99.266887,20.526617)"><path style="fill:red;fill-opacity:1;stroke:none" id="path4226" d="m 25.875,33.75 -1.542,-4.625 3.164,-2.587 3.615,2.626 -1.487,4.669 z"/><path style="fill:red;fill-opacity:1;stroke:none" id="path4228" d="m 27.501,41.551 c -3.968,-0.16 -5.543,-2.009 -5.543,-2.009 l 3.57,-4.163 4.465,0.168 3.132,4.12 c 0,0 -2.89,1.994 -5.624,1.884 z"/><path style="fill:red;fill-opacity:1;stroke:none" id="path4230" d="m 18.453,33.843 c -0.849,-2.968 0.172,-6.884 0.172,-6.884 l 4,2.167 1.493,4.629 -3.582,4.233 c 0,-10e-4 -1.465,-1.99 -2.083,-4.145 z"/><path style="fill:red;fill-opacity:1;stroke:none" id="path4232" d="m 19.458,25.125 c 0,0 0.5,-1.958 3.039,-3.822 2.237,-1.643 4.465,-1.72 4.465,-1.72 l -0.037,4.981 -3.521,2.75 -3.946,-2.189 z"/><path style="fill:red;fill-opacity:1;stroke:none" id="path4234" d="M 32.084,27.834 28.625,24.959 29,19.75 c 0,0 1.834,-0.042 3.959,1.667 2.228,1.791 3.362,4.983 3.362,4.983 l -4.237,1.434 z"/><path style="fill:red;fill-opacity:1;stroke:none" id="path4236" d="m 31.292,34.042 1.313,-4.464 4.187,-1.536 c 0,0 0.677,2.663 -0.042,5.667 -0.54,2.256 -2.084,4.361 -2.084,4.361 l -3.374,-4.028 z"/></g></g></g><path style="fill:#fd6600;fill-opacity:1;stroke:#ac3d00;stroke-width:2;stroke-linecap:round;stroke-opacity:1" id="path3172" d="m 309,181 120,0 0,40 -120,0 0,-16 0,-2 -12,0 0,6 -4,0 0,-16 4,0 0,6 12,0 0,-2 z"/><text style="font-size:20px;text-anchor:start;fill:#000;font-family:Sans" id="text3174" x="310" y="180"><tspan id="tspan3176" x="330" y="206">posición</tspan></text><path style="fill:#fd6600;fill-opacity:1;stroke:#ac3d00;stroke-width:2;stroke-linecap:round;stroke-opacity:1" id="path21-1" d="m 19,71 0,-8 c 0,-4.18879 3.81121,-8 8,-8 l 8,0 0,4 20,0 0,-4 84,0 8,0 c 4.18879,0 9.01593,3.936277 8,8 l 0,8 -8,0 0,-6 -8,0 0,20 8,0 0,-6 8,0 0,34 -8,0 0,-6 -8,0 0,20 8,0 0,-6 8,0 0,8 c 0,4.18879 -3.81121,8 -8,8 l -8,0 -84,0 -2,0 0,4 -16,0 0,-4 -2,0 -8,0 c -4.18879,0 -8,-3.81121 -8,-8 l 0,-8 0,-42 z"/><text style="font-size:20px;text-anchor:end;fill:#000;font-family:Sans" id="text23-8" x="26" y="54"><tspan id="tspan25-1" x="136" y="103">guardar en</tspan></text><text style="font-size:13.33333302px;text-anchor:end;fill:#000;font-family:Sans" id="text27" x="26" y="54"><tspan id="tspan29" x="136" y="76.5">nom</tspan></text><text style="font-size:13.33333302px;text-anchor:end;fill:#000;font-family:Sans" id="text31" x="26" y="54"><tspan id="tspan33" x="136" y="118.5">valor</tspan></text><path style="fill:#7bbbb8;fill-opacity:1;stroke:#4c8585;stroke-width:2;stroke-linecap:round;stroke-opacity:1" id="path21-5" d="m 157,55 120,0 0,40 -120,0 0,-16 0,-2 -12,0 0,6 -4,0 0,-16 4,0 0,6 12,0 0,-2 z"/><text style="font-size:20px;text-anchor:start;fill:#000;font-family:Sans" id="text23-5" x="164" y="54"><tspan id="tspan25-9" x="184" y="80">posición</tspan></text><path style="fill:#fd6600;fill-opacity:1;stroke:#ac3d00;stroke-width:2;stroke-linecap:round;stroke-opacity:1" id="path21-1-7" d="m 37,197 0,-8 c 0,-4.18879 3.81121,-8 8,-8 l 8,0 0,4 20,0 0,-4 84,0 8,0 c 4.18879,0 9.01593,3.93628 8,8 l 0,8 -8,0 0,-6 -8,0 0,20 8,0 0,-6 8,0 0,34 -8,0 0,-6 -8,0 0,20 8,0 0,-6 8,0 0,8 c 0,4.18879 -3.81121,8 -8,8 l -8,0 -84,0 -2,0 0,4 -16,0 0,-4 -2,0 -8,0 c -4.18879,0 -8,-3.81121 -8,-8 l 0,-8 0,-42 z"/><text style="font-size:20px;text-anchor:end;fill:#000;font-family:Sans" id="text23-8-1" x="44" y="180"><tspan id="tspan25-1-9" x="154" y="229">guardar en</tspan></text><text style="font-size:13.33333302px;text-anchor:end;fill:#000;font-family:Sans" id="text27-4" x="44" y="180"><tspan id="tspan29-6" x="154" y="202.5">nom</tspan></text><text style="font-size:13.33333302px;text-anchor:end;fill:#000;font-family:Sans" id="text31-9" x="44" y="180"><tspan id="tspan33-6" x="154" y="244.5">valor</tspan></text><g id="g3141" transform="translate(158,180)"><path style="fill:#fd6600;fill-opacity:1;stroke:#ac3d00;stroke-width:2;stroke-linecap:round;stroke-opacity:1" id="path3137" d="m 17,17 0,-8 a 8,8 0 0 1 8,-8 l 8,0 20,0 80,0 8,0 a 8,8 0 0 1 8,8 l 0,8 -8,0 0,-6 -8,0 0,20 8,0 0,-6 8,0 0,8 a 8,8 0 0 1 -8,8 l -8,0 -80,0 -20,0 -8,0 a 8,8 0 0 1 -8,-8 l 0,-8 0,-2 -12,0 0,6 -4,0 0,-16 4,0 0,6 12,0 0,-2 z"/><text style="font-size:20px;text-anchor:end;fill:#000;font-family:Sans" id="text3139"><tspan id="tspan3141" x="130" y="26">caja</tspan></text></g><g id="g3212" transform="translate(36,262)"><path style="fill:#fd6600;fill-opacity:1;stroke:#ac3d00;stroke-width:2;stroke-linecap:round;stroke-opacity:1" id="path3089" d="M 1,17 1,9 A 8,8 0 0 1 9,1 l 8,0 0,4 20,0 0,-4 76,0 8,0 a 8,8 0 0 1 8,8 l 0,8 -8,0 0,-6 -8,0 0,20 8,0 0,-6 8,0 0,8 a 8,8 0 0 1 -8,8 l -8,0 -76,0 -2,0 0,4 -16,0 0,-4 -2,0 -8,0 A 8,8 0 0 1 1,33 l 0,-8 0,-8 z"/><text style="font-size:20px;text-anchor:end;fill:#000;font-family:Sans" id="text3091"><tspan id="tspan3093" x="110" y="28">sumar 1 a</tspan></text></g><path style="fill:#fd6600;fill-opacity:1;stroke:#ac3d00;stroke-width:2;stroke-linecap:round;stroke-opacity:1" id="path3172-4" d="m 167,263 120,0 0,40 -120,0 0,-16 0,-2 -12,0 0,6 -4,0 0,-16 4,0 0,6 12,0 0,-2 z"/><text style="font-size:20px;text-anchor:start;fill:#000;font-family:Sans" id="text3174-7" x="168" y="262"><tspan id="tspan3176-4" x="188" y="288">posición</tspan></text></svg>