<svg xmlns="http://www.w3.org/2000/svg" xmlns:svg="http://www.w3.org/2000/svg" id="svg2" width="55" height="55" version="1.0"><metadata id="metadata3031"/><g id="g4437" transform="matrix(1.25,0,0,1.25,-6.8749998,-6.875)"><rect id="rect3821" width="30.772" height="29.058" x="12.114" y="12.971" style="fill:#000;stroke:#000;stroke-width:3.89899993;stroke-linejoin:round;stroke-miterlimit:4;stroke-opacity:1;stroke-dasharray:none"/><path id="path3109" d="m 13,14.033 0,26.934 29,0 0,-26.934 z M 37.575,35.1 c 0.684,0.683 0.684,1.793 0,2.476 -0.341,0.342 -0.789,0.513 -1.237,0.513 -0.448,0 -0.896,-0.171 -1.238,-0.513 l -7.601,-7.602 -7.602,7.602 c -0.342,0.342 -0.79,0.513 -1.237,0.513 -0.447,0 -0.895,-0.171 -1.237,-0.513 -0.684,-0.683 -0.684,-1.793 0,-2.476 l 7.601,-7.601 -7.601,-7.602 c -0.684,-0.684 -0.684,-1.791 0,-2.474 0.683,-0.684 1.791,-0.684 2.474,0 l 7.602,7.601 7.601,-7.601 c 0.683,-0.684 1.793,-0.684 2.476,0 0.684,0.683 0.684,1.791 0,2.474 l -7.602,7.602 z" style="fill:#fff;fill-opacity:1;stroke:none"/></g></svg>