<svg xmlns="http://www.w3.org/2000/svg" xmlns:svg="http://www.w3.org/2000/svg" id="svg2" width="55" height="55" version="1.0"><metadata id="metadata9"/><path style="fill:#404040;fill-opacity:1;stroke:#404040;stroke-width:2.29357791;stroke-linecap:square;stroke-miterlimit:4;stroke-dasharray:none;stroke-opacity:1" id="path2882" d="m 3.646789,25.665138 0,-7.339449 c -2e-7,-4.053467 3.2859835,-7.339451 7.33945,-7.339451 l 2.895004,0 0,3.669726 18.348625,0 0,-3.669726 11.783893,0 c 4.053467,0 7.33945,3.285984 7.33945,7.339451 l 0,7.339449 0,7.33945 c 0,4.053466 -3.285983,7.33945 -7.33945,7.33945 l -11.783893,0 -1.834863,0 0,3.669724 -14.678899,0 0,-3.669724 -1.834863,0 -2.895004,0 c -4.0534665,0 -7.3394502,-3.285984 -7.33945,-7.33945 z"/><ellipse id="path5088" cx="-15.618" cy="27.069" rx="5.129" ry="5.129" transform="scale(-1,1)" style="fill:#000;fill-opacity:1;stroke:none;stroke-width:1.86012244;stroke-linecap:round;stroke-linejoin:round;stroke-miterlimit:4;stroke-dasharray:none;stroke-opacity:1"/><path id="path5028" d="m 15.586299,21.423874 c 5.773892,0 10.584428,5.758304 10.584428,5.758304 0,0 -4.809913,5.784491 -10.584428,5.781374 C 9.8124078,32.959146 5,27.174072 5,27.174072 c 0,0 4.8117836,-5.754562 10.586299,-5.750198 z m 0,9.819357 c 2.235357,0 4.047959,-1.814473 4.047959,-4.049206 0,-2.231616 -1.811979,-4.049207 -4.047959,-4.049207 -2.232862,0 -4.046713,1.817591 -4.046713,4.049207 0,2.234733 1.813851,4.049206 4.046713,4.049206 z" display="inline" style="display:inline;fill:#fff;fill-opacity:1"/><circle id="circle5030" cx="-15.586" cy="27.195" r="1.837" display="inline" transform="scale(-1,1)" style="display:inline;fill:#fff;fill-opacity:1"/><path id="path5028-4" d="m 39.420065,28.987578 c 2.362047,0 6.761342,-2.632244 8.15206,-3.720873 1.28352,1.239091 0.628902,0.563938 0.628902,0.563938 0,0 -3.935384,4.732766 -8.659987,4.730216 -4.724093,-0.0036 -8.661518,-4.736847 -8.661518,-4.736847 0,0 -0.715619,0.660603 0.64479,-0.653846 1.268526,0.921387 5.533451,3.815625 7.895753,3.817412 z" display="inline" style="display:inline;fill:#fff;fill-opacity:1;stroke:none;stroke-opacity:1"/><path id="path5115" d="M 47.732554,26.121544 49.4701,27.813365" style="fill:#f2f2f2;fill-rule:evenodd;stroke:#fff;stroke-width:1.5;stroke-linecap:round;stroke-linejoin:miter;stroke-opacity:1;stroke-miterlimit:4;stroke-dasharray:none"/><path id="path5115-1" d="M 31.287347,26.113779 29.5498,27.8056" style="fill:#f2f2f2;fill-rule:evenodd;stroke:#fff;stroke-width:1.5;stroke-linecap:round;stroke-linejoin:miter;stroke-opacity:1;stroke-miterlimit:4;stroke-dasharray:none"/><path id="path5132" d="m 39.411494,30.421635 c -0.04573,2.789217 -0.04573,2.789217 -0.04573,2.789217" style="fill:#f2f2f2;fill-rule:evenodd;stroke:#fff;stroke-width:1.5;stroke-linecap:round;stroke-linejoin:miter;stroke-opacity:1;stroke-miterlimit:4;stroke-dasharray:none"/><path id="path5136" d="m 34.791545,29.232572 c -1.371746,2.194793 -1.371746,2.194793 -1.371746,2.194793" style="fill:#f2f2f2;fill-rule:evenodd;stroke:#fff;stroke-width:1.5;stroke-linecap:round;stroke-linejoin:miter;stroke-opacity:1;stroke-miterlimit:4;stroke-dasharray:none"/><path id="path5136-5" d="m 43.921028,29.35512 c 1.371746,2.194794 1.371746,2.194794 1.371746,2.194794" style="fill:#f2f2f2;fill-rule:evenodd;stroke:#fff;stroke-width:1.5;stroke-linecap:round;stroke-linejoin:miter;stroke-opacity:1;stroke-miterlimit:4;stroke-dasharray:none"/></svg>