<svg xmlns="http://www.w3.org/2000/svg" xmlns:svg="http://www.w3.org/2000/svg" id="svg2" width="55" height="55" version="1.1" viewBox="0 0 55 55" xml:space="preserve"><metadata id="metadata25"/><g id="g5334" transform="matrix(2,0,0,2,3.5,3.5)"><path style="fill:none" id="path5324" d="M 0,0 24,0 24,24 0,24 Z"/><path style="fill:#fff" id="path5326" d="M 20,6 12,6 10,4 4,4 C 2.9,4 2.01,4.9 2.01,6 L 2,18 c 0,1.1 0.9,2 2,2 l 16,0 c 1.1,0 2,-0.9 2,-2 L 22,8 C 22,6.9 21.1,6 20,6 Z M 20,18 4,18 4,8 20,8 20,18 Z"/></g></svg>