<svg xmlns="http://www.w3.org/2000/svg" xmlns:svg="http://www.w3.org/2000/svg" xmlns:xlink="http://www.w3.org/1999/xlink" id="svg2" width="55" height="55" version="1.0"><metadata id="metadata11"/><defs id="defs5"><linearGradient id="linearGradient3689"><stop id="stop3691" offset="0" style="stop-color:#fff;stop-opacity:1"/><stop id="stop3693" offset="1" style="stop-color:#ff0;stop-opacity:1"/></linearGradient><linearGradient id="linearGradient3695" x1="0" x2="54" y1="19" y2="19" gradientTransform="translate(0.5,8.5)" gradientUnits="userSpaceOnUse" xlink:href="#linearGradient3689"/></defs><path id="path2882" d="m 5.8333331,25.833333 0,-6.666667 A 6.6666667,6.6666667 0 0 1 12.5,12.5 l 6.666667,0 0,3.333333 16.666666,0 0,-3.333333 6.666667,0 a 6.6666667,6.6666667 0 0 1 6.666667,6.666666 l 0,6.666667 0,6.666667 A 6.6666667,6.6666667 0 0 1 42.5,39.166666 l -6.666667,0 -1.666666,0 0,3.333334 -13.333334,0 0,-3.333334 -1.666666,0 -6.666667,0 A 6.6666667,6.6666667 0 0 1 5.8333331,32.5 l 0,-6.666667 z" style="fill-opacity:1;stroke:#fff;stroke-width:2.334;stroke-linecap:square;stroke-opacity:1;fill:none;stroke-miterlimit:4;stroke-dasharray:none"/></svg>