<svg xmlns="http://www.w3.org/2000/svg" xmlns:svg="http://www.w3.org/2000/svg" id="svg2" width="55" height="55" x="0" y="0" enable-background="new 0 0 55 55" version="1.1" viewBox="0 0 55 55" xml:space="preserve"><metadata id="metadata21"/><path id="path4702" d="m 19.476564,20.179195 18.968778,0 0,13.772953 -19.208889,-0.27546 z" style="fill:#000;fill-rule:evenodd;stroke:#000;stroke-width:1.56062651px;stroke-linecap:butt;stroke-linejoin:miter;stroke-opacity:1"/><g id="g5" display="inline" transform="matrix(0.71666055,0,0,0.66902224,7.8637335,9.036354)" style="display:inline"><g id="g7"><g id="g9"><g id="g11"><path id="path13" d="m 26.766833,0.676 c -12.46,0.019 -25.6689997,14.895667 -25.6909997,27.358667 0.022,12.462 14.7934997,26.400166 27.2534997,26.421166 C 40.794333,54.434833 54.524167,40.081 54.543167,27.619 54.524167,15.155 39.231833,0.695 26.766833,0.676 Z M 21.551,37.977 l 0,-20.31 17.961,10.155 z" style="fill:#fff"/></g></g><path id="path15" d="M 27.498,0 C 12.311,0 0,12.313 0,27.5 0,42.688 12.311,55 27.498,55 42.686,55 55,42.688 55,27.5 55,12.313 42.686,0 27.498,0 Z M 27.496,52.646 C 13.67,52.646 2.463,41.437 2.461,27.613 2.463,13.787 13.67,2.577 27.496,2.574 41.322,2.577 52.531,13.787 52.535,27.612 52.531,41.437 41.322,52.646 27.496,52.646 Z" style="fill:#fff"/></g></g></svg>