<svg xmlns="http://www.w3.org/2000/svg" xmlns:svg="http://www.w3.org/2000/svg" id="svg2" width="55" height="55" version="1.1" viewBox="0 0 55 55" xml:space="preserve"><metadata id="metadata25"/><g id="g3830"><g id="g4382" transform="matrix(0.55205508,0,0,0.55205508,75.618464,18.235971)"><g id="g4308" transform="translate(-80.093659,12.220029)" style="fill:none;stroke:#fff;stroke-opacity:1"><g id="g4310" style="fill:none;stroke:#fff;stroke-opacity:1"><path id="path4312" d="m 6.736,49.002 h 24.52 c 2.225,0 3.439,-1.447 3.439,-3.441 v -27.28 c 0,-1.73 -1.732,-3.441 -3.439,-3.441 h -4.389" style="fill:none;stroke:#fff;stroke-width:3.5;stroke-linecap:round;stroke-linejoin:round;stroke-opacity:1"/></g></g><g id="g4314" transform="translate(-80.093659,12.220029)" style="fill:none;stroke:#fff;stroke-opacity:1"><g id="g4316" style="fill:none;stroke:#fff;stroke-opacity:1"><path id="path4318" d="m 26.867,38.592 c 0,1.836 -1.345,3.201 -3.441,4.047 L 6.736,49.002 V 14.84 l 16.69,-8.599 c 2.228,-0.394 3.441,0.84 3.441,2.834 v 29.517 z" style="fill:none;stroke:#fff;stroke-width:3.5;stroke-linecap:round;stroke-linejoin:round;stroke-opacity:1"/></g></g><path id="path4320" d="m -70.669659,54.827029 c 0,0 -1.351,-0.543 -2.702,-0.543 -1.351,0 -2.703,0.543 -2.703,0.543" style="fill:none;stroke:#fff;stroke-width:2.25;stroke-linecap:round;stroke-linejoin:round;stroke-opacity:1"/><path id="path4322" d="m -70.669659,44.226029 c 0,0 -1.239,-0.543 -2.815,-0.543 -1.577,0 -2.59,0.543 -2.59,0.543" style="fill:none;stroke:#fff;stroke-width:2.25;stroke-linecap:round;stroke-linejoin:round;stroke-opacity:1"/><path id="path4324" d="m -70.669659,33.898029 c 0,0 -1.125,-0.544 -2.927,-0.544 -1.802,0 -2.478,0.544 -2.478,0.544" style="fill:none;stroke:#fff;stroke-width:2.25;stroke-linecap:round;stroke-linejoin:round;stroke-opacity:1"/><line id="line4326" x1="-66.885" x2="-66.885" y1="58.753" y2="23.725" style="fill:none;stroke:#fff;stroke-width:2.25;stroke-linecap:round;stroke-linejoin:round;stroke-opacity:1"/></g><g id="g4770" transform="matrix(1,0,0,-1,-30.386573,49.171266)"><g id="g4772" transform="translate(34.0803,-1006.42)"><polyline id="polyline4774" points="51.562 15.306 41.17 16.188 42.053 5.794" transform="matrix(-0.469241,0.469241,-0.469241,-0.469241,66.2906,1019.03)" style="fill:none;stroke:#fff;stroke-width:3.5;stroke-linecap:round;stroke-linejoin:round"/><path id="path4776" d="m 39.363241,1033.1291 -0.05636,9.9115 -8.750608,0.067" style="fill:none;stroke:#fff;stroke-width:2.5;stroke-linecap:round;stroke-linejoin:round;stroke-miterlimit:4;stroke-opacity:1;stroke-dasharray:none"/></g></g></g><g id="g3789" transform="matrix(0.80095119,0,0,0.80095119,-4.6564792,-5.9184549)"><path id="path2463" d="m 15.719636,31.331478 0.114372,5.261133 11.437247,6.290486 L 27.5,29.387146" style="fill:none;stroke:#fff;stroke-width:2;stroke-linecap:butt;stroke-linejoin:round;stroke-miterlimit:4;stroke-opacity:1;stroke-dasharray:none"/><path id="path2465" d="m 27.728744,29.501519 0.05719,13.381578 11.723178,-7.548583 0,-4.689272 -5.947368,3.545548" style="fill:none;stroke:#fff;stroke-width:2;stroke-linecap:butt;stroke-linejoin:round;stroke-miterlimit:4;stroke-opacity:1;stroke-dasharray:none"/><path id="path2459" d="m 10.001012,27.328441 5.604251,-5.146761 -5.832996,-2.973684 12.123482,-7.091093 5.718623,3.316801 5.489879,-3.088056 12.123482,7.319838 -5.832996,2.401822 5.489878,5.032388 -11.322874,7.205466 -5.947369,-5.261134 -6.290485,5.261134 -11.322875,-6.976721 z" style="fill:none;stroke:#fff;stroke-width:2;stroke-linecap:butt;stroke-linejoin:miter;stroke-miterlimit:4;stroke-opacity:1;stroke-dasharray:none"/><path id="path2461" d="M 16.40587,21.952935 27.156883,15.204959 38.937247,22.067308 27.614372,28.815283 16.40587,21.952935 z" style="fill:none;stroke:#fff;stroke-width:2;stroke-linecap:butt;stroke-linejoin:miter;stroke-miterlimit:4;stroke-opacity:1;stroke-dasharray:none"/></g></svg>