<svg xmlns="http://www.w3.org/2000/svg" xmlns:svg="http://www.w3.org/2000/svg" xmlns:xlink="http://www.w3.org/1999/xlink" id="svg2" width="55" height="55" version="1.1" viewBox="0 0 55 55" xml:space="preserve"><metadata id="metadata25"/><defs id="defs33"><linearGradient id="linearGradient3695" x1="0" x2="54" y1="19" y2="19" gradientTransform="translate(0.5,8.5)" gradientUnits="userSpaceOnUse" xlink:href="#linearGradient3689"/><linearGradient id="linearGradient3689"><stop id="stop3691" offset="0" style="stop-color:#fff;stop-opacity:1"/><stop id="stop3693" offset="1" style="stop-color:#ff0;stop-opacity:1"/></linearGradient></defs><g id="g93" transform="translate(3.650335,-3.150333)" style="stroke:#fff;stroke-opacity:1"><path id="path95" d="m 9.4052198,28.47892 0,-4.444445 A 4.444445,4.444445 0 0 1 13.84967,19.59003 l 4.44444,0 0,2.222223 11.11111,0 0,-2.222223 4.44445,0 a 4.444445,4.444445 0 0 1 4.44444,4.444445 l 0,4.444445 0,4.444446 a 4.444445,4.444445 0 0 1 -4.44444,4.44444 l -4.44445,0 -1.11111,0 0,2.22223 -8.88889,0 0,-2.22223 -1.11111,0 -4.44444,0 a 4.444445,4.444445 0 0 1 -4.4444502,-4.44444 l 0,-4.444446 z" style="fill:none;stroke:#fff;stroke-width:2;stroke-linecap:square;stroke-miterlimit:4;stroke-opacity:1;stroke-dasharray:none"/><g id="g97" transform="matrix(-1,0,0,1,97.306074,-14.8706)" style="fill:none;stroke:#fff;stroke-opacity:1"><g id="g99" transform="translate(34.0803,-1006.42)" style="fill:none;stroke:#fff;stroke-opacity:1"><polyline style="fill:none;stroke:#fff;stroke-width:3.5;stroke-linecap:round;stroke-linejoin:round;stroke-opacity:1" id="polyline101" points="51.562 15.306 41.17 16.188 42.053 5.794" transform="matrix(-0.469241,0.469241,-0.469241,-0.469241,66.2906,1019.03)"/><path id="path103" d="m 39.363241,1033.1291 -0.05636,9.9115" style="fill:none;stroke:#fff;stroke-width:2.5;stroke-linecap:round;stroke-linejoin:round;stroke-miterlimit:4;stroke-opacity:1;stroke-dasharray:none"/></g></g><g id="g105" transform="matrix(1,0,0,-1,-49.606744,76.171266)" style="fill:none;stroke:#fff;stroke-opacity:1"><g id="g107" transform="translate(34.0803,-1006.42)" style="fill:none;stroke:#fff;stroke-opacity:1"><polyline style="fill:none;stroke:#fff;stroke-width:3.5;stroke-linecap:round;stroke-linejoin:round;stroke-opacity:1" id="polyline109" points="51.562 15.306 41.17 16.188 42.053 5.794" transform="matrix(-0.469241,0.469241,-0.469241,-0.469241,66.2906,1019.03)"/><path id="path111" d="m 39.363241,1033.1291 -0.05636,9.9115" style="fill:none;stroke:#fff;stroke-width:2.5;stroke-linecap:round;stroke-linejoin:round;stroke-miterlimit:4;stroke-opacity:1;stroke-dasharray:none"/></g></g><g id="g113" transform="matrix(0,-1,1,0,-23.17127,103.04644)" style="fill:none;stroke:#fff;stroke-opacity:1"><g id="g115" transform="translate(34.0803,-1006.42)" style="fill:none;stroke:#fff;stroke-opacity:1"><polyline style="fill:none;stroke:#fff;stroke-width:3.5;stroke-linecap:round;stroke-linejoin:round;stroke-opacity:1" id="polyline117" points="51.562 15.306 41.17 16.188 42.053 5.794" transform="matrix(-0.469241,0.469241,-0.469241,-0.469241,66.2906,1019.03)"/><path id="path119" d="m 39.363241,1033.1291 -0.05636,9.9115" style="fill:none;stroke:#fff;stroke-width:2.5;stroke-linecap:round;stroke-linejoin:round;stroke-miterlimit:4;stroke-opacity:1;stroke-dasharray:none"/></g></g><g id="g121" transform="matrix(0,-1,-1,0,70.8706,103.04644)" style="fill:none;stroke:#fff;stroke-opacity:1"><g id="g123" transform="translate(34.0803,-1006.42)" style="fill:none;stroke:#fff;stroke-opacity:1"><polyline style="fill:none;stroke:#fff;stroke-width:3.5;stroke-linecap:round;stroke-linejoin:round;stroke-opacity:1" id="polyline125" points="51.562 15.306 41.17 16.188 42.053 5.794" transform="matrix(-0.469241,0.469241,-0.469241,-0.469241,66.2906,1019.03)"/><path id="path127" d="m 39.363241,1033.1291 -0.05636,9.9115" style="fill:none;stroke:#fff;stroke-width:2.5;stroke-linecap:round;stroke-linejoin:round;stroke-miterlimit:4;stroke-opacity:1;stroke-dasharray:none"/></g></g></g></svg>