<svg xmlns="http://www.w3.org/2000/svg" xmlns:svg="http://www.w3.org/2000/svg" id="svg2" x="0" y="0" enable-background="new 0 0 60 100" version="1.1" viewBox="0 0 60 125" xml:space="preserve"><metadata id="metadata16"/><path id="path4" d="m 52,50 0,14 c 0,9.757 -8.242,18 -18,18 l 0,0 -8,0 C 16.243,82 8,73.757 8,64 L 8,50 0,50 0,64 c 0,14.094 11.906,26 26,26 l 0,14 -17,0 0,8 42,0 0,-8 -17,0 0,-14 0,0 C 48.094,90 60,78.094 60,64 l 0,-14 -8,0 z" style="fill:#f9f9f9;stroke:#000"/><path style="fill:#fff;fill-rule:evenodd;stroke:#000;stroke-width:1px;stroke-linecap:butt;stroke-linejoin:miter;stroke-opacity:1" id="path4134" d="m 45.879545,22.098735 0,44.00691 -13.857495,3.183479 0.468158,-49.43755 12.640283,1.779002"/><path id="path6" d="m 26,76 8,0 c 5.714,0 10.788,-4.483 11.804,-10 l -11.887,0 0,-4 12.083,0 0,-4 -12.083,0 0,-4 12.083,0 0,-4 -12.083,0 0,-4 12.083,0 0,-4 -12.083,0 0,-4 12.083,0 0,-4 -12.083,0 0,-4 12.083,0 0,-4 -12.083,0 0,-4 11.887,0 C 44.788,16.483 39.714,12 34,12 l -8,0 c -6.393,0 -12,5.607 -12,12 l 0,40 c 0,6.393 5.607,12 12,12 z" style="fill:#f9f9f9;stroke:#000"/></svg>