<svg xmlns="http://www.w3.org/2000/svg" xmlns:svg="http://www.w3.org/2000/svg" id="svg2" x="0" y="0" enable-background="new 0 0 100 100" version="1.1" viewBox="0 0 100 125" xml:space="preserve"><metadata id="metadata18"/><rect style="fill:#fff;fill-opacity:1;stroke:#1a1a1a;stroke-width:1.0007385;stroke-opacity:1" id="rect4146" width="88.87" height="88.444" x="6.643" y="22.699"/><g id="g4" transform="matrix(1.0014775,0,0,1,-0.02563094,16.26032)"><path id="path6" d="m 83.904,100 -67.579,0 C 7.45,100 0.23,92.78 0.23,83.904 l 0,-67.577 C 0.23,7.452 7.45,0.232 16.325,0.232 l 67.579,0 c 8.875,0 16.096,7.22 16.096,16.095 l 0,67.577 C 100,92.78 92.779,100 83.904,100 Z M 16.325,9.514 c -3.757,0 -6.813,3.056 -6.813,6.813 l 0,67.577 c 0,3.758 3.056,6.814 6.813,6.814 l 67.579,0 c 3.757,0 6.814,-3.057 6.814,-6.814 l 0,-67.577 c 0,-3.757 -3.058,-6.813 -6.814,-6.813 l -67.579,0 z"/></g><polygon id="polygon8" points="30.48 79.806 20.424 69.751 40.059 50.115 20.424 30.483 30.48 20.427 50.113 40.061 69.749 20.427 79.802 30.483 60.171 50.115 79.802 69.751 69.749 79.806 50.113 60.172" transform="matrix(1.0014775,0,0,1,-0.02563094,16.26032)"/></svg>