<svg xmlns="http://www.w3.org/2000/svg" xmlns:xlink="http://www.w3.org/1999/xlink" width="55" height="55" x="0" y="0" enable-background="new 0 0 55 55" version="1.1" viewBox="0 0 55 55" xml:space="preserve"><g id="emblem-warning" display="block"><g display="inline"><polygon fill="#fff" stroke="#666" stroke-width="3.5" points="4 46.343 27.5 5.639 51 46.343"/><g><path fill="#666" d="M25.066,38.688c0-1.271,1.036-2.307,2.308-2.307s2.308,1.035,2.308,2.307c0,1.273-1.036,2.31-2.308,2.31 S25.066,39.962,25.066,38.688z M25.244,21.232c0-1.243,0.917-2.012,2.13-2.012c1.184,0,2.13,0.799,2.13,2.012v11.391 c0,1.214-0.946,2.014-2.13,2.014c-1.213,0-2.13-0.771-2.13-2.014V21.232z"/></g></g></g></svg>