<svg xmlns="http://www.w3.org/2000/svg" xmlns:svg="http://www.w3.org/2000/svg" id="svg2" x="0" y="0" enable-background="new 0 0 100 100" version="1.1" viewBox="0 0 100 125" xml:space="preserve"><metadata id="metadata24"/><g id="g4" transform="matrix(1.0823917,0,0,1.0823917,-3.0602637,11.240584)" style="fill:red"><g id="g6" style="fill:red"><path id="path8" d="M 50,5 C 25.147,5 5,25.147 5,50 5,74.852 25.147,95 50,95 74.852,95 95,74.852 95,50 95,25.147 74.852,5 50,5 Z m 0,85 C 27.908,90 10,72.091 10,50 10,27.908 27.908,10 50,10 72.091,10 90,27.908 90,50 90,72.091 72.091,90 50,90 Z" style="fill:red"/><path id="path10" d="m 67.333,72.5 -34.666,0 C 29.825,72.5 27.5,70.175 27.5,67.333 l 0,-34.666 c 0,-2.842 2.325,-5.167 5.167,-5.167 l 34.667,0 c 2.842,0 5.167,2.325 5.167,5.167 l 0,34.667 C 72.5,70.175 70.175,72.5 67.333,72.5 Z" style="fill:red"/></g></g><g id="g12" display="none"><path id="path14" d="M50,5C25.147,5,5,25.147,5,50c0,24.852,20.147,45,45,45c24.852,0,45-20.148,45-45 C95,25.147,74.852,5,50,5z M60.5,72.5h-21c-6.6,0-12-5.4-12-12v-21c0-6.6,5.4-12,12-12h21c6.6,0,12,5.4,12,12v21 C72.5,67.1,67.1,72.5,60.5,72.5z" display="inline"/></g></svg>