<svg xmlns="http://www.w3.org/2000/svg" xmlns:svg="http://www.w3.org/2000/svg" id="svg2" x="0" y="0" version="1.1" viewBox="0 0 96 120"><metadata id="metadata26"/><path style="fill:none;fill-rule:evenodd;stroke:#fff;stroke-width:1px;stroke-linecap:butt;stroke-linejoin:miter;stroke-opacity:1" id="path4156" d="M 9.6610169,48.305085 66.101695,48.813559 90.508475,40.677966 90,91.525424 67.118644,83.898305 6.6101695,84.915254 7.6271186,49.830508"/><path id="path6" d="m 90.5,94 c -0.212,0 -0.42,-0.036 -0.632,-0.1 l -24,-8 C 65.056,85.636 64.5,84.86 64.5,84 l 0,-36 c 0,-0.86 0.556,-1.624 1.368,-1.9 l 24,-8 c 0.612,-0.204 1.276,-0.092 1.8,0.268 0.524,0.38 0.832,0.976 0.832,1.612 l 0,52 c 0,0.648 -0.308,1.252 -0.832,1.62 C 91.324,93.872 90.916,94 90.5,94 Z m -22,-11.436 20,6.664 0,-46.448 -20,6.668 0,33.116 z" style="fill:#fff;stroke:#fff"/><path id="path8" d="m 21.5,48 c -9.92,0 -18,-8.08 -18,-18 0,-9.92 8.08,-18 18,-18 9.92,0 18,8.08 18,18 0,9.92 -8.08,18 -18,18 z m 0,-32 c -7.72,0 -14,6.28 -14,14 0,7.72 6.28,14 14,14 7.72,0 14,-6.28 14,-14 0,-7.72 -6.28,-14 -14,-14 z" style="fill:#fff;stroke:#fff"/><path id="path10" d="m 53.5,48 c -9.92,0 -18,-8.08 -18,-18 0,-9.92 8.08,-18 18,-18 9.92,0 18,8.08 18,18 0,9.92 -8.08,18 -18,18 z m 0,-32 c -7.72,0 -14,6.28 -14,14 0,7.72 6.28,14 14,14 7.72,0 14,-6.28 14,-14 0,-7.72 -6.28,-14 -14,-14 z" style="fill:#fff;stroke:#fff"/><path id="path12" d="m 8.252,108 c -0.584,0 -1.18,-0.264 -1.58,-0.764 -0.68,-0.88 -0.524,-2.132 0.348,-2.812 l 28.252,-22 c 0.872,-0.68 2.124,-0.524 2.804,0.352 0.68,0.876 0.524,2.124 -0.344,2.804 l -28.252,22 C 9.108,107.864 8.68,108 8.252,108 Z" style="fill:#fff;stroke:#fff"/><path id="path14" d="m 68.752,108 c -0.42,0 -0.86,-0.136 -1.232,-0.42 l -28.252,-22 C 38.4,84.9 38.244,83.656 38.924,82.776 c 0.68,-0.876 1.924,-1.032 2.804,-0.352 l 28.252,22 c 0.872,0.68 1.028,1.932 0.348,2.812 -0.4,0.5 -0.984,0.764 -1.576,0.764 z" style="fill:#fff;stroke:#fff"/><path id="path16" d="m 38.5,108 c -1.1,0 -2,-0.9 -2,-2 l 0,-20 c 0,-1.1 0.9,-2 2,-2 1.1,0 2,0.9 2,2 l 0,20 c 0,1.1 -0.9,2 -2,2 z" style="fill:#fff;stroke:#fff"/><path id="path4" d="m 66.5,86 -60,0 c -1.1,0 -2,-0.9 -2,-2 l 0,-36 c 0,-1.1 0.9,-2 2,-2 l 60,0 c 1.1,0 2,0.9 2,2 l 0,36 c 0,1.1 -0.9,2 -2,2 z m -58,-4 56,0 0,-32 -56,0 0,32 z" style="fill:#fff;stroke:#fff"/><ellipse style="fill:none;fill-opacity:1;stroke:#fff;stroke-width:1.03713727;stroke-opacity:1" id="path4158" cx="53.752" cy="29.548" rx="14.543" ry="13.797"/><ellipse style="fill:none;fill-opacity:1;stroke:#fff;stroke-width:1.03713727;stroke-opacity:1" id="path4158-6" cx="21.573" cy="29.394" rx="14.543" ry="13.797"/></svg>