<svg xmlns="http://www.w3.org/2000/svg" id="Icon" viewBox="0 0 40 40"><title>wait</title><rect width="5.6" height="3.29" x="17.29" y="1.22" fill="#cf8b17" rx="1.39" ry="1.39"/><rect width="2.8" height="1.79" x="18.64" y="4.1" fill="#cf8b17"/><ellipse cx="19.86" cy="19.99" fill="#fff" stroke="#cf8b17" stroke-miterlimit="10" rx="14.07" ry="14.1"/><path fill="#070707" d="M33.93,20A14.07,14.07,0,1,1,5.8,20a14.6,14.6,0,0,1,.14-2,14.06,14.06,0,0,0,27.85,0A14.6,14.6,0,0,1,33.93,20Z" opacity=".1"/><path fill="#cf8b17" d="M30.2,7h1.62a0.6,0.6,0,0,1,.6.6v1.8a1.19,1.19,0,0,1-1.19,1.19H30.79A1.19,1.19,0,0,1,29.6,9.38V7.58A0.6,0.6,0,0,1,30.2,7Z" transform="translate(15.24 -19.34) rotate(44.91)"/><path fill="#ffab19" d="M20,8.59V21.42L30.06,15S28,8.66,20,8.59Z" opacity=".5"/><rect width="13.2" height="1.98" x="18.43" y="16.5" fill="#cf8b17" rx=".88" ry=".88" transform="translate(-5.34 14.35) rotate(-29.05)"/><ellipse cx="19.86" cy="19.99" fill="none" stroke="#cf8b17" stroke-miterlimit="10" stroke-width="1.5" rx="14.07" ry="14.1"/><circle cx="20.39" cy="19.75" r="1.75" fill="#ffab19" stroke="#cf8b17" stroke-miterlimit="10"/></svg>