<svg xmlns="http://www.w3.org/2000/svg" xmlns:svg="http://www.w3.org/2000/svg" id="svg2" width="45" height="45" version="1.1"><rect id="rect4" width="37.959" height="43" x="-41.48" y="1" transform="matrix(0,-1,1,0,0,0)" style="fill:#fff;fill-opacity:1;stroke:#000;stroke-width:2"/><line style="fill:#aaa;stroke:#000;stroke-width:2;stroke-miterlimit:0;stroke-dasharray:none" id="line10-68" x1="22.5" x2="22.5" y1="37.5" y2="3.5"/><path id="path3633-2" d="m 26.5,28.065287 a 4,1.8542272 0 1 1 -7.999999,0 4,1.8542272 0 1 1 7.999999,0 z" style="fill:#000;fill-opacity:1;fill-rule:nonzero;stroke:none"/><path id="path3633-7-6" d="m 26.5,31.775467 a 4,1.8542272 0 1 1 -7.999999,0 4,1.8542272 0 1 1 7.999999,0 z" style="fill:#000;fill-opacity:1;fill-rule:nonzero;stroke:none"/><path id="path3633-5-6" d="m 26.5,35.485647 a 4,1.8542272 0 1 1 -7.999999,0 4,1.8542272 0 1 1 7.999999,0 z" style="fill:#000;fill-opacity:1;fill-rule:nonzero;stroke:none"/><path id="path3633-3-49" d="m 26.5,39.195828 a 4,1.8542272 0 1 1 -7.999999,0 4,1.8542272 0 1 1 7.999999,0 z" style="fill:#000;fill-opacity:1;fill-rule:nonzero;stroke:none"/><line style="fill:#aaa;stroke:#000;stroke-width:2;stroke-miterlimit:0;stroke-dasharray:none" id="line10-68-3" x1="9.725" x2="9.725" y1="37.5" y2="3.5"/><path id="path3633-7-6-5" d="m 13.724576,31.775467 a 4,1.8542272 0 1 1 -7.9999992,0 4,1.8542272 0 1 1 7.9999992,0 z" style="fill:#000;fill-opacity:1;fill-rule:nonzero;stroke:none"/><path id="path3633-5-6-4" d="m 13.724576,35.485647 a 4,1.8542272 0 1 1 -7.9999992,0 4,1.8542272 0 1 1 7.9999992,0 z" style="fill:#000;fill-opacity:1;fill-rule:nonzero;stroke:none"/><path id="path3633-3-49-7" d="m 13.724576,39.195828 a 4,1.8542272 0 1 1 -7.9999992,0 4,1.8542272 0 1 1 7.9999992,0 z" style="fill:#000;fill-opacity:1;fill-rule:nonzero;stroke:none"/><line style="fill:#aaa;stroke:#000;stroke-width:2;stroke-miterlimit:0;stroke-dasharray:none" id="line10-68-3-8" x1="35.085" x2="35.085" y1="37.5" y2="3.5"/><path id="path3633-2-2-3" d="m 39.084746,28.065287 a 4,1.8542272 0 1 1 -7.999999,0 4,1.8542272 0 1 1 7.999999,0 z" style="fill:#000;fill-opacity:1;fill-rule:nonzero;stroke:none"/><path id="path3633-7-6-5-1" d="m 39.084746,31.775467 a 4,1.8542272 0 1 1 -7.999999,0 4,1.8542272 0 1 1 7.999999,0 z" style="fill:#000;fill-opacity:1;fill-rule:nonzero;stroke:none"/><path id="path3633-5-6-4-4" d="m 39.084746,35.485647 a 4,1.8542272 0 1 1 -7.999999,0 4,1.8542272 0 1 1 7.999999,0 z" style="fill:#000;fill-opacity:1;fill-rule:nonzero;stroke:none"/><path id="path3633-3-49-7-9" d="m 39.084746,39.195828 a 4,1.8542272 0 1 1 -7.999999,0 4,1.8542272 0 1 1 7.999999,0 z" style="fill:#000;fill-opacity:1;fill-rule:nonzero;stroke:none"/><path id="path3633-4-5-4-2" d="m 39.084746,24.355106 a 4,1.8542272 0 1 1 -7.999999,0 4,1.8542272 0 1 1 7.999999,0 z" style="fill:#000;fill-opacity:1;fill-rule:nonzero;stroke:none"/></svg>