<svg xmlns="http://www.w3.org/2000/svg" xmlns:svg="http://www.w3.org/2000/svg" id="svg2" width="45" height="45" version="1.1"><rect id="rect4" width="37.959" height="43" x="-41.48" y="1" transform="matrix(0,-1,1,0,0,0)" style="fill:#fff;fill-opacity:1;stroke:#000;stroke-width:2"/><line style="fill:#aaa;stroke:#000;stroke-width:2;stroke-miterlimit:0;stroke-dasharray:none" id="line10-68" x1="6.739" x2="6.739" y1="40.672" y2="4.328"/><line style="fill:#aaa;stroke:#000;stroke-width:2;stroke-miterlimit:0;stroke-dasharray:none" id="line10-68-3" x1="17.188" x2="17.188" y1="40.672" y2="4.328"/><line style="fill:#aaa;stroke:#000;stroke-width:2;stroke-miterlimit:0;stroke-dasharray:none" id="line10-68-0" x1="27.637" x2="27.637" y1="40.672" y2="4.328"/><line style="fill:#aaa;stroke:#000;stroke-width:2;stroke-miterlimit:0;stroke-dasharray:none" id="line10-68-6" x1="38.085" x2="38.085" y1="40.672" y2="4.328"/><path id="path3633-2" d="m 10.73935,29.116803 a 4,1.6488042 0 0 1 -8,0 4,1.6488042 0 1 1 8,0 z" style="fill:#000;fill-opacity:1;fill-rule:nonzero;stroke:none"/><path id="path3633-7-6" d="m 10.73935,32.414511 a 4,1.6488042 0 0 1 -8,0 4,1.6488042 0 1 1 8,0 z" style="fill:#000;fill-opacity:1;fill-rule:nonzero;stroke:none"/><path id="path3633-5-6" d="m 10.73935,35.71222 a 4,1.6488042 0 0 1 -8,0 4,1.6488042 0 1 1 8,0 z" style="fill:#000;fill-opacity:1;fill-rule:nonzero;stroke:none"/><path id="path3633-3-49" d="m 10.73935,39.009928 a 4,1.6488042 0 0 1 -8,0 4,1.6488042 0 1 1 8,0 z" style="fill:#000;fill-opacity:1;fill-rule:nonzero;stroke:none"/><path id="path3633-7-6-6" d="m 10.73935,22.521386 a 4,1.6488042 0 0 1 -8,0 4,1.6488042 0 1 1 8,0 z" style="fill:#000;fill-opacity:1;fill-rule:nonzero;stroke:none"/><path id="path3633-3-49-6" d="m 10.73935,25.819095 a 4,1.6488042 0 0 1 -8,0 4,1.6488042 0 1 1 8,0 z" style="fill:#000;fill-opacity:1;fill-rule:nonzero;stroke:none"/><path id="path3633-2-74" d="m 21.188027,29.116877 a 4,1.6488042 0 0 1 -8,0 4,1.6488042 0 1 1 8,0 z" style="fill:#000;fill-opacity:1;fill-rule:nonzero;stroke:none"/><path id="path3633-7-6-5" d="m 21.188027,32.414585 a 4,1.6488042 0 0 1 -8,0 4,1.6488042 0 1 1 8,0 z" style="fill:#000;fill-opacity:1;fill-rule:nonzero;stroke:none"/><path id="path3633-5-6-2" d="m 21.188027,35.712293 a 4,1.6488042 0 0 1 -8,0 4,1.6488042 0 1 1 8,0 z" style="fill:#000;fill-opacity:1;fill-rule:nonzero;stroke:none"/><path id="path3633-3-49-5" d="m 21.188027,39.010002 a 4,1.6488042 0 0 1 -8,0 4,1.6488042 0 1 1 8,0 z" style="fill:#000;fill-opacity:1;fill-rule:nonzero;stroke:none"/><path id="path3633-7-6-6-7" d="m 21.188027,22.52146 a 4,1.6488042 0 0 1 -8,0 4,1.6488042 0 1 1 8,0 z" style="fill:#000;fill-opacity:1;fill-rule:nonzero;stroke:none"/><path id="path3633-3-49-6-4" d="m 21.188027,25.819168 a 4,1.6488042 0 0 1 -8,0 4,1.6488042 0 1 1 8,0 z" style="fill:#000;fill-opacity:1;fill-rule:nonzero;stroke:none"/><path id="path3633-2-78" d="m 31.636703,29.116877 a 4,1.6488042 0 0 1 -8,0 4,1.6488042 0 1 1 8,0 z" style="fill:#000;fill-opacity:1;fill-rule:nonzero;stroke:none"/><path id="path3633-7-6-68" d="m 31.636703,32.414585 a 4,1.6488042 0 0 1 -8,0 4,1.6488042 0 1 1 8,0 z" style="fill:#000;fill-opacity:1;fill-rule:nonzero;stroke:none"/><path id="path3633-5-6-8" d="m 31.636703,35.712293 a 4,1.6488042 0 0 1 -8,0 4,1.6488042 0 1 1 8,0 z" style="fill:#000;fill-opacity:1;fill-rule:nonzero;stroke:none"/><path id="path3633-3-49-4" d="m 31.636703,39.010002 a 4,1.6488042 0 0 1 -8,0 4,1.6488042 0 1 1 8,0 z" style="fill:#000;fill-opacity:1;fill-rule:nonzero;stroke:none"/><path id="path3633-7-6-6-1" d="m 31.636703,22.52146 a 4,1.6488042 0 0 1 -8,0 4,1.6488042 0 1 1 8,0 z" style="fill:#000;fill-opacity:1;fill-rule:nonzero;stroke:none"/><path id="path3633-3-49-6-49" d="m 31.636703,25.819168 a 4,1.6488042 0 0 1 -8,0 4,1.6488042 0 1 1 8,0 z" style="fill:#000;fill-opacity:1;fill-rule:nonzero;stroke:none"/><path id="path3633-2-8" d="m 42.085378,29.116877 a 4,1.6488042 0 0 1 -8,0 4,1.6488042 0 1 1 8,0 z" style="fill:#000;fill-opacity:1;fill-rule:nonzero;stroke:none"/><path id="path3633-7-6-9" d="m 42.085378,32.414585 a 4,1.6488042 0 0 1 -8,0 4,1.6488042 0 1 1 8,0 z" style="fill:#000;fill-opacity:1;fill-rule:nonzero;stroke:none"/><path id="path3633-5-6-26" d="m 42.085378,35.712293 a 4,1.6488042 0 0 1 -8,0 4,1.6488042 0 1 1 8,0 z" style="fill:#000;fill-opacity:1;fill-rule:nonzero;stroke:none"/><path id="path3633-3-49-64" d="m 42.085378,39.010002 a 4,1.6488042 0 0 1 -8,0 4,1.6488042 0 1 1 8,0 z" style="fill:#000;fill-opacity:1;fill-rule:nonzero;stroke:none"/><path id="path3633-7-6-6-5" d="m 42.085378,22.52146 a 4,1.6488042 0 0 1 -8,0 4,1.6488042 0 1 1 8,0 z" style="fill:#000;fill-opacity:1;fill-rule:nonzero;stroke:none"/><path id="path3633-3-49-6-0" d="m 42.085378,25.819168 a 4,1.6488042 0 0 1 -8,0 4,1.6488042 0 1 1 8,0 z" style="fill:#000;fill-opacity:1;fill-rule:nonzero;stroke:none"/><path id="path3633-7-6-6-2" d="m 10.636408,19.223678 a 4.0000001,1.6488043 0 0 1 -8.0000003,0 4.0000001,1.6488043 0 1 1 8.0000003,0 z" style="fill:#000;fill-opacity:1;fill-rule:nonzero;stroke:none"/><path id="path3633-7-6-6-7-5" d="m 21.085085,19.223751 a 4,1.6488042 0 0 1 -8,0 4,1.6488042 0 1 1 8,0 z" style="fill:#000;fill-opacity:1;fill-rule:nonzero;stroke:none"/><path id="path3633-7-6-6-1-4" d="m 31.533761,19.223751 a 4,1.6488042 0 0 1 -8,0 4,1.6488042 0 1 1 8,0 z" style="fill:#000;fill-opacity:1;fill-rule:nonzero;stroke:none"/><path id="path3633-7-6-6-5-7" d="m 41.982436,19.223751 a 4,1.6488042 0 0 1 -8,0 4,1.6488042 0 1 1 8,0 z" style="fill:#000;fill-opacity:1;fill-rule:nonzero;stroke:none"/><path id="path3633-2-7-2" d="m 10.878583,5.95149 a 4.0000002,1.6488043 0 0 1 -8.0000002,0 4.0000002,1.6488043 0 1 1 8.0000002,0 z" style="fill:#000;fill-opacity:1;fill-rule:nonzero;stroke:none"/><path id="path3633-2-7-4-5" d="m 21.327259,5.9511958 a 4,1.6488042 0 0 1 -8,0 4,1.6488042 0 1 1 8,0 z" style="fill:#000;fill-opacity:1;fill-rule:nonzero;stroke:none"/><path id="path3633-2-7-3-4" d="m 31.775935,5.9511958 a 4,1.6488042 0 0 1 -8,0 4,1.6488042 0 1 1 8,0 z" style="fill:#000;fill-opacity:1;fill-rule:nonzero;stroke:none"/><path id="path3633-2-7-9-7" d="m 42.22461,5.9511958 a 4,1.6488042 0 0 1 -8,0 4,1.6488042 0 1 1 8,0 z" style="fill:#000;fill-opacity:1;fill-rule:nonzero;stroke:none"/><line style="fill:#fff;fill-opacity:1;stroke:#000;stroke-width:2" id="line10-4" x1="43.966" x2="1.034" y1="12.587" y2="12.587"/></svg>