<svg xmlns="http://www.w3.org/2000/svg" xmlns:svg="http://www.w3.org/2000/svg" id="svg2" width="45" height="45" version="1.1"><metadata id="metadata3961"/><rect id="rect4" width="37.959" height="43" x="-41.48" y="1" transform="matrix(0,-1,1,0,0,0)" style="fill:#fff;stroke:#000;stroke-width:2;fill-opacity:1"/><line style="fill:#aaa;stroke:#000;stroke-width:2" id="line10-4" x1="44.187" x2="1.254" y1="18.45" y2="18.45"/><line style="fill:#aaa;stroke:#000;stroke-width:2;stroke-miterlimit:0;stroke-dasharray:none" id="line10-68" x1="6.739" x2="6.739" y1="40.672" y2="4.328"/><path id="path3633-2" d="m 10.73925,27.632694 a 4,1.8477082 0 0 1 -8,0 4,1.8477082 0 1 1 8,0 z" style="fill:#000;fill-opacity:1;fill-rule:nonzero;stroke:none"/><path id="path3633-7-6" d="m 10.73925,31.328178 a 4,1.8477082 0 0 1 -8,0 4,1.8477082 0 1 1 8,0 z" style="fill:#000;fill-opacity:1;fill-rule:nonzero;stroke:none"/><path id="path3633-5-6" d="m 10.73925,35.023662 a 4,1.8477082 0 0 1 -8,0 4,1.8477082 0 1 1 8,0 z" style="fill:#000;fill-opacity:1;fill-rule:nonzero;stroke:none"/><path id="path3633-3-49" d="m 10.73925,38.719146 a 4,1.8477082 0 0 1 -8,0 4,1.8477082 0 1 1 8,0 z" style="fill:#000;fill-opacity:1;fill-rule:nonzero;stroke:none"/><line style="fill:#aaa;stroke:#000;stroke-width:2;stroke-miterlimit:0;stroke-dasharray:none" id="line10-68-3" x1="17.188" x2="17.188" y1="40.672" y2="4.328"/><path id="path3633-2-74" d="m 21.187927,27.632694 a 4,1.8477082 0 0 1 -8,0 4,1.8477082 0 1 1 8,0 z" style="fill:#000;fill-opacity:1;fill-rule:nonzero;stroke:none"/><path id="path3633-7-6-5" d="m 21.187927,31.328178 a 4,1.8477082 0 0 1 -8,0 4,1.8477082 0 1 1 8,0 z" style="fill:#000;fill-opacity:1;fill-rule:nonzero;stroke:none"/><path id="path3633-5-6-2" d="m 21.187927,35.023662 a 4,1.8477082 0 0 1 -8,0 4,1.8477082 0 1 1 8,0 z" style="fill:#000;fill-opacity:1;fill-rule:nonzero;stroke:none"/><path id="path3633-3-49-5" d="m 21.187927,38.719146 a 4,1.8477082 0 0 1 -8,0 4,1.8477082 0 1 1 8,0 z" style="fill:#000;fill-opacity:1;fill-rule:nonzero;stroke:none"/><line style="fill:#aaa;stroke:#000;stroke-width:2;stroke-miterlimit:0;stroke-dasharray:none" id="line10-68-0" x1="27.637" x2="27.637" y1="40.672" y2="4.328"/><path id="path3633-2-78" d="m 31.636603,27.632694 a 4,1.8477082 0 0 1 -8,0 4,1.8477082 0 1 1 8,0 z" style="fill:#000;fill-opacity:1;fill-rule:nonzero;stroke:none"/><path id="path3633-7-6-68" d="m 31.636603,31.328178 a 4,1.8477082 0 0 1 -8,0 4,1.8477082 0 1 1 8,0 z" style="fill:#000;fill-opacity:1;fill-rule:nonzero;stroke:none"/><path id="path3633-5-6-8" d="m 31.636603,35.023662 a 4,1.8477082 0 0 1 -8,0 4,1.8477082 0 1 1 8,0 z" style="fill:#000;fill-opacity:1;fill-rule:nonzero;stroke:none"/><path id="path3633-3-49-4" d="m 31.636603,38.719146 a 4,1.8477082 0 0 1 -8,0 4,1.8477082 0 1 1 8,0 z" style="fill:#000;fill-opacity:1;fill-rule:nonzero;stroke:none"/><line style="fill:#aaa;stroke:#000;stroke-width:2;stroke-miterlimit:0;stroke-dasharray:none" id="line10-68-6" x1="38.085" x2="38.085" y1="40.672" y2="4.328"/><path id="path3633-2-8" d="m 42.085328,27.632694 a 4,1.8477082 0 0 1 -8,0 4,1.8477082 0 1 1 8,0 z" style="fill:#000;fill-opacity:1;fill-rule:nonzero;stroke:none"/><path id="path3633-7-6-9" d="m 42.085278,31.328178 a 4,1.8477082 0 0 1 -8,0 4,1.8477082 0 1 1 8,0 z" style="fill:#000;fill-opacity:1;fill-rule:nonzero;stroke:none"/><path id="path3633-5-6-26" d="m 42.085278,35.023662 a 4,1.8477082 0 0 1 -8,0 4,1.8477082 0 1 1 8,0 z" style="fill:#000;fill-opacity:1;fill-rule:nonzero;stroke:none"/><path id="path3633-3-49-64" d="m 42.085278,38.719146 a 4,1.8477082 0 0 1 -8,0 4,1.8477082 0 1 1 8,0 z" style="fill:#000;fill-opacity:1;fill-rule:nonzero;stroke:none"/><path style="fill:#000;fill-opacity:1;fill-rule:nonzero;stroke:none" id="path3633-2-7" d="m 10.7393,5.9654796 a 4,1.7536831 0 0 1 -8,0 4,1.7536831 0 1 1 8,0 z"/><path style="fill:#000;fill-opacity:1;fill-rule:nonzero;stroke:none" id="path3633-7-6-6" d="m 10.7393,9.4729351 a 4,1.7536831 0 0 1 -8,0 4,1.7536831 0 1 1 8,0 z"/><path style="fill:#000;fill-opacity:1;fill-rule:nonzero;stroke:none" id="path3633-3-49-6" d="m 10.7393,12.980391 a 4,1.7536831 0 0 1 -8,0 4,1.7536831 0 1 1 8,0 z"/><path style="fill:#000;fill-opacity:1;fill-rule:nonzero;stroke:none" id="path3633-2-7-4" d="m 21.187977,5.9654796 a 4,1.7536831 0 0 1 -8,0 4,1.7536831 0 1 1 8,0 z"/><path style="fill:#000;fill-opacity:1;fill-rule:nonzero;stroke:none" id="path3633-7-6-6-7" d="m 21.187977,9.4729351 a 4,1.7536831 0 0 1 -8,0 4,1.7536831 0 1 1 8,0 z"/><path style="fill:#000;fill-opacity:1;fill-rule:nonzero;stroke:none" id="path3633-3-49-6-4" d="m 21.187977,12.980391 a 4,1.7536831 0 0 1 -8,0 4,1.7536831 0 1 1 8,0 z"/><path style="fill:#000;fill-opacity:1;fill-rule:nonzero;stroke:none" id="path3633-2-7-3" d="m 31.636653,5.9654796 a 4,1.7536831 0 0 1 -8,0 4,1.7536831 0 1 1 8,0 z"/><path style="fill:#000;fill-opacity:1;fill-rule:nonzero;stroke:none" id="path3633-7-6-6-1" d="m 31.636653,9.4729351 a 4,1.7536831 0 0 1 -8,0 4,1.7536831 0 1 1 8,0 z"/><path style="fill:#000;fill-opacity:1;fill-rule:nonzero;stroke:none" id="path3633-3-49-6-49" d="m 31.636653,12.980391 a 4,1.7536831 0 0 1 -8,0 4,1.7536831 0 1 1 8,0 z"/><path style="fill:#000;fill-opacity:1;fill-rule:nonzero;stroke:none" id="path3633-2-7-9" d="m 42.085328,5.9654796 a 4,1.7536831 0 0 1 -8,0 4,1.7536831 0 1 1 8,0 z"/><path style="fill:#000;fill-opacity:1;fill-rule:nonzero;stroke:none" id="path3633-7-6-6-5" d="m 42.085328,9.4729351 a 4,1.7536831 0 0 1 -8,0 4,1.7536831 0 1 1 8,0 z"/><path style="fill:#000;fill-opacity:1;fill-rule:nonzero;stroke:none" id="path3633-3-49-6-0" d="m 42.085328,12.980391 a 4,1.7536831 0 0 1 -8,0 4,1.7536831 0 1 1 8,0 z"/><g id="g3996" transform="translate(-23.953929,-7.210274)"><path style="fill:#000;fill-opacity:1;fill-rule:nonzero;stroke:none" id="path3633-2-4" d="m 34.780965,31.129855 a 4,1.8477082 0 0 1 -8,0 4,1.8477082 0 1 1 8,0 z"/><path style="fill:#000;fill-opacity:1;fill-rule:nonzero;stroke:none" id="path3633-2-74-3" d="m 45.229642,31.129855 a 4,1.8477082 0 0 1 -8,0 4,1.8477082 0 1 1 8,0 z"/><path style="fill:#000;fill-opacity:1;fill-rule:nonzero;stroke:none" id="path3633-2-78-0" d="m 55.678318,31.129855 a 4,1.8477082 0 0 1 -8,0 4,1.8477082 0 1 1 8,0 z"/><path style="fill:#000;fill-opacity:1;fill-rule:nonzero;stroke:none" id="path3633-2-8-7" d="m 66.126993,31.129855 a 4,1.8477082 0 0 1 -8,0 4,1.8477082 0 1 1 8,0 z"/></g></svg>