<svg xmlns="http://www.w3.org/2000/svg" xmlns:svg="http://www.w3.org/2000/svg" id="svg2" width="45" height="45" version="1.1"><metadata id="metadata41"/><rect id="rect4" width="37.959" height="43" x="-41.479" y="1" transform="matrix(0,-1,1,0,0,0)" style="fill:#fff;stroke:#000;stroke-width:2;fill-opacity:1"/><line style="fill:#aaa;stroke:#000;stroke-width:2" id="line10-4" x1="43.966" x2="1.034" y1="12.576" y2="12.576"/><line style="fill:#aaa;stroke:#000;stroke-width:1.99999988;stroke-miterlimit:0;stroke-dasharray:none" id="line10" x1="17.288" x2="17.288" y1="39.59" y2="8.651"/><path id="path3633-4" d="m 21.288134,6.4963534 a 4,2.5023954 0 1 1 -7.999999,0 4,2.5023954 0 1 1 7.999999,0 z" style="fill:#000;fill-opacity:1;fill-rule:nonzero;stroke:none"/><line style="fill:#aaa;stroke:#000;stroke-width:1.99999988;stroke-miterlimit:0;stroke-dasharray:none" id="line10-2" x1="27.712" x2="27.712" y1="39.59" y2="8.651"/><path id="path3633-4-0" d="m 31.711862,6.4963534 a 4,2.5023954 0 1 1 -7.999999,0 4,2.5023954 0 1 1 7.999999,0 z" style="fill:#000;fill-opacity:1;fill-rule:nonzero;stroke:none"/><line style="fill:#aaa;stroke:#000;stroke-width:1.99999988;stroke-miterlimit:0;stroke-dasharray:none" id="line10-6" x1="38.136" x2="38.136" y1="39.59" y2="8.651"/><path id="path3633-4-9" d="m 42.135589,6.4963534 a 4,2.5023954 0 1 1 -7.999999,0 4,2.5023954 0 1 1 7.999999,0 z" style="fill:#000;fill-opacity:1;fill-rule:nonzero;stroke:none"/><line style="fill:#aaa;stroke:#000;stroke-width:1.99999988;stroke-miterlimit:0;stroke-dasharray:none" id="line10-68" x1="6.864" x2="6.864" y1="39.59" y2="8.651"/><g id="g2962" transform="translate(-0.1651689,0)"><path id="path3633" d="m 21.453305,23.66244 a 4,2.5023954 0 1 1 -7.999999,0 4,2.5023954 0 1 1 7.999999,0 z" style="fill:#000;fill-opacity:1;fill-rule:nonzero;stroke:none"/><path id="path3633-47" d="m 31.877033,23.66244 a 4,2.5023954 0 1 1 -7.999999,0 4,2.5023954 0 1 1 7.999999,0 z" style="fill:#000;fill-opacity:1;fill-rule:nonzero;stroke:none"/><path id="path3633-8" d="m 42.30076,23.66244 a 4,2.5023954 0 1 1 -7.999999,0 4,2.5023954 0 1 1 7.999999,0 z" style="fill:#000;fill-opacity:1;fill-rule:nonzero;stroke:none"/><path id="path3633-2" d="m 11.029577,23.664096 a 4,2.5023954 0 1 1 -7.9999994,0 4,2.5023954 0 1 1 7.9999994,0 z" style="fill:#000;fill-opacity:1;fill-rule:nonzero;stroke:none"/></g><g id="g2968" transform="translate(-0.22020965,0)"><path id="path3633-7" d="m 21.508346,28.669833 a 4,2.5023954 0 1 1 -7.999999,0 4,2.5023954 0 1 1 7.999999,0 z" style="fill:#000;fill-opacity:1;fill-rule:nonzero;stroke:none"/><path id="path3633-7-4" d="m 31.932074,28.669833 a 4,2.5023954 0 1 1 -7.999999,0 4,2.5023954 0 1 1 7.999999,0 z" style="fill:#000;fill-opacity:1;fill-rule:nonzero;stroke:none"/><path id="path3633-7-43" d="m 42.355801,28.669833 a 4,2.5023954 0 1 1 -7.999999,0 4,2.5023954 0 1 1 7.999999,0 z" style="fill:#000;fill-opacity:1;fill-rule:nonzero;stroke:none"/><path id="path3633-7-6" d="m 11.084618,28.669956 a 4.0000001,2.5023955 0 0 1 -8.0000002,0 4.0000001,2.5023955 0 1 1 8.0000002,0 z" style="fill:#000;fill-opacity:1;fill-rule:nonzero;stroke:none"/></g><g id="g2974" transform="translate(-0.11012882,0)"><path id="path3633-5" d="m 21.398265,33.677226 a 4,2.5023954 0 1 1 -7.999999,0 4,2.5023954 0 1 1 7.999999,0 z" style="fill:#000;fill-opacity:1;fill-rule:nonzero;stroke:none"/><path id="path3633-5-4" d="m 31.821993,33.677226 a 4,2.5023954 0 1 1 -7.999999,0 4,2.5023954 0 1 1 7.999999,0 z" style="fill:#000;fill-opacity:1;fill-rule:nonzero;stroke:none"/><path id="path3633-5-1" d="m 42.24572,33.677226 a 4,2.5023954 0 1 1 -7.999999,0 4,2.5023954 0 1 1 7.999999,0 z" style="fill:#000;fill-opacity:1;fill-rule:nonzero;stroke:none"/><path id="path3633-5-6" d="m 10.974537,33.675533 a 4,2.5023954 0 1 1 -7.9999997,0 4,2.5023954 0 1 1 7.9999997,0 z" style="fill:#000;fill-opacity:1;fill-rule:nonzero;stroke:none"/></g><g id="g2980" transform="translate(-4.795e-5,0)"><path id="path3633-3" d="m 21.288184,38.684619 a 4,2.5023954 0 1 1 -7.999999,0 4,2.5023954 0 1 1 7.999999,0 z" style="fill:#000;fill-opacity:1;fill-rule:nonzero;stroke:none"/><path id="path3633-3-3" d="m 31.711912,38.684619 a 4,2.5023954 0 1 1 -7.999999,0 4,2.5023954 0 1 1 7.999999,0 z" style="fill:#000;fill-opacity:1;fill-rule:nonzero;stroke:none"/><path id="path3633-3-4" d="m 42.135639,38.684619 a 4,2.5023954 0 1 1 -7.999999,0 4,2.5023954 0 1 1 7.999999,0 z" style="fill:#000;fill-opacity:1;fill-rule:nonzero;stroke:none"/><path id="path3633-3-49" d="m 10.864456,38.682228 a 4,2.5023954 0 1 1 -7.9999992,0 4,2.5023954 0 1 1 7.9999992,0 z" style="fill:#000;fill-opacity:1;fill-rule:nonzero;stroke:none"/></g><path id="path3633-4-5" d="m 10.864406,6.4963534 a 4,2.5023954 0 1 1 -7.9999992,0 4,2.5023954 0 1 1 7.9999992,0 z" style="fill:#000;fill-opacity:1;fill-rule:nonzero;stroke:none"/><g id="g2956" transform="translate(-0.12159687,0)"><path id="path3633-25" d="m 21.409733,18.655047 a 4,2.5023954 0 1 1 -7.999999,0 4,2.5023954 0 1 1 7.999999,0 z" style="fill:#000;fill-opacity:1;fill-rule:nonzero;stroke:none"/><path id="path3633-47-4" d="m 31.833461,18.655047 a 4,2.5023954 0 1 1 -7.999999,0 4,2.5023954 0 1 1 7.999999,0 z" style="fill:#000;fill-opacity:1;fill-rule:nonzero;stroke:none"/><path id="path3633-8-7" d="m 42.257188,18.655047 a 4,2.5023954 0 1 1 -7.999999,0 4,2.5023954 0 1 1 7.999999,0 z" style="fill:#000;fill-opacity:1;fill-rule:nonzero;stroke:none"/><path id="path3633-2-4" d="m 10.986005,18.657352 a 4,2.5023954 0 1 1 -7.9999995,0 4,2.5023954 0 1 1 7.9999995,0 z" style="fill:#000;fill-opacity:1;fill-rule:nonzero;stroke:none"/></g></svg>