<svg xmlns="http://www.w3.org/2000/svg" xmlns:svg="http://www.w3.org/2000/svg" id="svg2" width="100%" height="100%" x="0" y="0" version="1.1" viewBox="0 0 55 55"><metadata id="metadata14"/><path id="path4" d="M 32.496647,7.5017778 C 30.9364,7.8955058 29.308161,8.8216108 28.358059,9.9041408 27.408401,10.987116 26.724931,12.413158 26.41386,14.195155 17.300343,10.027237 8.4312414,16.958362 8.8742964,27.235287 9.3173514,37.513989 16.895506,51.938835 27.358185,46.037358 37.948848,52.103259 44.715994,37.913939 45.994943,28.872858 47.274782,19.831777 40.067247,9.5188568 28.788671,14.346692 29.05486,13.085518 29.470807,12.240735 30.163608,11.444391 30.85641,10.647603 32.023374,10.011239 33.41342,9.4721958 33.33921,8.5296478 32.982808,7.8648428 32.496647,7.4999998 M 37.496016,18.8599 c 0.685247,0.0089 1.400268,0.316849 1.930423,0.902552 0.942103,1.041202 0.953213,2.56501 0.028,3.402238 -0.925217,0.837227 -2.446358,0.679914 -3.388462,-0.361288 -0.942103,-1.041202 -0.953213,-2.56501 -0.028,-3.402237 0.404838,-0.366176 0.925217,-0.548375 1.458038,-0.54171" style="color:#000;fill:#fff"/></svg>