<svg xmlns="http://www.w3.org/2000/svg" xmlns:svg="http://www.w3.org/2000/svg" id="Layer_1" width="55" height="55" version="1.1" viewBox="0 0 55 55" xml:space="preserve"><metadata id="metadata36"/><g id="g26" transform="translate(-0.41999817,0.062)"><line id="line28" x1="41.17" x2="52.441" y1="16.188" y2="4.917" style="fill:none;stroke:#fff;stroke-width:3.5;stroke-linecap:round;stroke-linejoin:round"/><polyline id="polyline30" points="51.562 15.306 41.17 16.188 42.053 5.794" style="fill:none;stroke:#fff;stroke-width:3.5;stroke-linecap:round;stroke-linejoin:round"/></g><g id="stock-xo_1_" transform="matrix(0.8671392,0,0,0.8671392,-5.3229905,6.1528047)" style="fill:#000;fill-opacity:1;stroke:#fff;stroke-opacity:1;display:block"><path id="path3082" d="m 33.233,35.1 10.102,10.1 c 0.752,0.75 1.217,1.783 1.217,2.932 0,2.287 -1.855,4.143 -4.146,4.143 -1.145,0 -2.178,-0.463 -2.932,-1.211 l -10.102,-10.103 -10.1,10.1 c -0.75,0.75 -1.787,1.211 -2.934,1.211 -2.284,0 -4.143,-1.854 -4.143,-4.141 0,-1.146 0.465,-2.184 1.212,-2.934 L 21.511,35.095 11.409,24.995 c -0.747,-0.748 -1.212,-1.785 -1.212,-2.93 0,-2.289 1.854,-4.146 4.146,-4.146 1.143,0 2.18,0.465 2.93,1.214 L 27.372,29.235 37.474,19.132 c 0.754,-0.749 1.787,-1.214 2.934,-1.214 2.289,0 4.146,1.856 4.146,4.145 0,1.146 -0.467,2.18 -1.217,2.932 L 33.233,35.1 z" style="fill:#000;fill-opacity:1;stroke:#fff;stroke-width:3.5;stroke-opacity:1"/><circle id="circle3084" cx="27.371" cy="10.849" r="8.122" style="fill:#000;fill-opacity:1;stroke:#fff;stroke-width:3.5;stroke-opacity:1"/></g></svg>