<svg xmlns="http://www.w3.org/2000/svg" xmlns:cc="http://web.resource.org/cc/" xmlns:svg="http://www.w3.org/2000/svg" id="svg2" width="42" height="42" version="1.0"><metadata id="metadata7"/><g id="layer1"><g id="g6207" transform="matrix(1.1572772,0,0,1.1572772,-4.2605572,6.7107864)"><path id="path2327" d="M 5.211226,20.224521 C 16.756465,32.39809 27.826101,31.198735 38.711967,20.22452 C 34.369968,16.906754 27.814245,8.5157151 21.961596,13.896602 C 13.884782,9.0002916 10.160766,16.276986 5.211226,20.224521 z" style="fill:#404040;fill-rule:evenodd;stroke:#fff;stroke-width:2.59229163;stroke-linecap:round;stroke-linejoin:round;stroke-miterlimit:4;stroke-dasharray:none;stroke-opacity:1;fill-opacity:1"/><path id="path4267" d="M 5.4593796,20.224519 C 38.339735,20.224519 38.339735,20.472673 38.339735,20.472673" style="fill:none;fill-rule:evenodd;stroke:#fff;stroke-width:2.59229163;stroke-linecap:round;stroke-linejoin:round;stroke-miterlimit:4;stroke-dasharray:none;stroke-opacity:1"/><path style="fill:none;fill-rule:evenodd;stroke:#fff;stroke-width:2.59229159;stroke-linecap:round;stroke-linejoin:round;stroke-miterlimit:4;stroke-dasharray:none;stroke-opacity:1" id="path8177" d="M 21.479131,-4.0705774 C 21.479131,12.654873 21.479131,3.3232479 21.479131,9.1167959"/><path style="fill:none;fill-rule:evenodd;stroke:#fff;stroke-width:2.59229183;stroke-linecap:round;stroke-linejoin:round;stroke-miterlimit:4;stroke-dasharray:none;stroke-opacity:1" id="path9150" d="M 26.27629,4.3453376 C 20.432698,10.18893 23.693011,6.9286162 21.668843,8.9527852"/><path style="fill:none;fill-rule:evenodd;stroke:#fff;stroke-width:2.59229183;stroke-linecap:round;stroke-linejoin:round;stroke-miterlimit:4;stroke-dasharray:none;stroke-opacity:1" id="path9152" d="M 16.709475,4.3879849 C 22.553067,10.231577 19.292754,6.9712635 21.316922,8.9954325"/></g></g></svg>