<svg xmlns="http://www.w3.org/2000/svg" width="55" height="55" version="1.1" viewBox="0 0 55 55" xml:space="preserve"><g transform="matrix(0.58,0,0,0.58,24.53,0.11)"><rect width="10" height="10" x="7.291" y="7.833" fill="#fff" stroke="#fff" stroke-width="3.5" display="inline"/><rect width="10" height="10" x="22.625" y="7.833" fill="#010101" stroke="#fff" stroke-width="3.5" display="inline"/><rect width="10" height="10" x="37.375" y="7.833" fill="#fff" stroke="#fff" stroke-width="3.5" display="inline"/><rect width="10" height="10" x="7.291" y="22.75" fill="#fff" stroke="#fff" stroke-width="3.5" display="inline"/><rect width="10" height="10" x="22.625" y="22.75" fill="#fff" stroke="#fff" stroke-width="3.5" display="inline"/><rect width="10" height="10" x="37.375" y="22.75" fill="#010101" stroke="#fff" stroke-width="3.5" display="inline"/><rect width="10" height="10" x="7.291" y="37.625" fill="#010101" stroke="#fff" stroke-width="3.5" display="inline"/><rect width="10" height="10" x="22.625" y="37.625" fill="#010101" stroke="#fff" stroke-width="3.5" display="inline"/><rect width="10" height="10" x="37.375" y="37.625" fill="#010101" stroke="#fff" stroke-width="3.5" display="inline"/></g><g id="g3036"><path d="M 9.57,38.95 9.39,32.9 M 25.66,50.97 3.63,51.24 3.52,39.25 l 5.85,-6.36 21.26,0 -0.11,12.12 z M 3.63,39.38 l 21.48,0.27 0.33,10.92 m -0.31,-11.05 5.53,-6.64" transform="translate(-0.2743801,0.51351)" style="fill:none;stroke:#fff;stroke-width:2.5;stroke-linecap:butt;stroke-linejoin:miter;stroke-miterlimit:4;stroke-opacity:1;stroke-dasharray:none;stroke-dashoffset:0"/><g><g transform="translate(-0.2743801,0.51351) matrix(0,-1,-1,0,47.31,85.98) translate(34.08,-1006.42)"><polyline points="51.56 15.31 41.17 16.19 42.05 5.79" transform="matrix(-0.47,0.47,-0.47,-0.47,66.29,1019.03)" style="fill:none;stroke:#fff;stroke-width:3.5;stroke-linecap:round;stroke-linejoin:round"/><path d="m 39.36,1033.13 -0.06,9.91 -8.75,0.07" style="fill:none;stroke:#fff;stroke-width:2.5;stroke-linecap:round;stroke-linejoin:round;stroke-miterlimit:4;stroke-opacity:1;stroke-dasharray:none"/></g></g></g></svg>