<svg xmlns="http://www.w3.org/2000/svg" xmlns:cc="http://web.resource.org/cc/" xmlns:svg="http://www.w3.org/2000/svg" id="svg2" width="42" height="42" version="1.0"><metadata id="metadata7"/><g id="layer1"><rect style="fill:#4c4d4f;fill-opacity:1;fill-rule:evenodd;stroke:#fff;stroke-width:3.5;stroke-linecap:butt;stroke-linejoin:round;stroke-miterlimit:4;stroke-dasharray:none;stroke-opacity:1" id="rect7017" width="30.046" height="30.046" x="1.977" y="1.977" ry="4.53"/><rect style="fill:#4c4d4f;fill-opacity:1;fill-rule:evenodd;stroke:#fff;stroke-width:3.5;stroke-linecap:butt;stroke-linejoin:round;stroke-miterlimit:4;stroke-dasharray:none;stroke-opacity:1" id="rect3133" width="30.046" height="30.046" x="9.977" y="9.977" ry="4.53"/><g id="g8128" transform="matrix(1.1533304,0,0,1.1849266,64.979745,2.4656882)" style="stroke:#fff;stroke-opacity:1"><path id="path6167" d="M -27.423669,19.213102 L -34.384959,18.667751 L -41.332006,19.051133 L -34.303975,19.649604 L -27.488656,19.213102 L -34.44067,18.736178" style="fill:#fff;fill-rule:evenodd;stroke:#fff;stroke-width:1px;stroke-linecap:butt;stroke-linejoin:round;marker-start:none;stroke-opacity:1"/><path id="path6165" d="M -34.432262,26.112846 L -33.886911,19.151556 L -34.270293,12.204509 L -34.868764,19.23254 L -34.432262,26.047859 L -33.955338,19.095845" style="fill:#fff;fill-rule:evenodd;stroke:#fff;stroke-width:1px;stroke-linecap:butt;stroke-linejoin:round;marker-start:none;stroke-opacity:1"/><path id="path6169" d="M -29.517762,24.133282 L -34.054516,18.825285 L -39.237912,14.184073 L -34.691527,19.576825 L -29.563716,24.087329 L -34.142295,18.834277" style="fill:#fff;fill-rule:evenodd;stroke:#fff;stroke-width:1px;stroke-linecap:butt;stroke-linejoin:round;marker-start:none;stroke-opacity:1"/><path id="path6171" d="M -29.403233,14.298603 L -34.71123,18.835357 L -39.352442,24.018753 L -33.959691,19.472367 L -29.449186,14.344555 L -34.702238,18.923135" style="fill:#fff;fill-rule:evenodd;stroke:#fff;stroke-width:1px;stroke-linecap:butt;stroke-linejoin:round;marker-start:none;stroke-opacity:1"/></g></g></svg>