<svg xmlns="http://www.w3.org/2000/svg" xmlns:cc="http://web.resource.org/cc/" xmlns:svg="http://www.w3.org/2000/svg" id="svg2" width="42" height="42" version="1.0"><metadata id="metadata7"/><g id="layer1"><rect style="fill:#4c4d4f;fill-opacity:1;fill-rule:evenodd;stroke:#fff;stroke-width:3.5;stroke-linecap:butt;stroke-linejoin:round;stroke-miterlimit:4;stroke-dasharray:none;stroke-opacity:1" id="rect7017" width="30.046" height="30.046" x="1.977" y="1.977" ry="4.53"/><rect style="fill:#4c4d4f;fill-opacity:1;fill-rule:evenodd;stroke:#fff;stroke-width:3.5;stroke-linecap:butt;stroke-linejoin:round;stroke-miterlimit:4;stroke-dasharray:none;stroke-opacity:1" id="rect3133" width="30.046" height="30.046" x="9.977" y="9.977" ry="4.53"/><g id="g7384" transform="matrix(0.7398804,-0.1417707,0.1417707,0.7398804,3.1769353,8.481073)"><g id="g8361" transform="matrix(-0.9813845,-0.1920532,0.1920532,-0.9813845,45.325983,56.360102)" style="fill:none;fill-opacity:1;stroke:#fff;stroke-width:1.32742107;stroke-linecap:round;stroke-opacity:1"><path style="fill:none;fill-opacity:1;fill-rule:evenodd;stroke:#fff;stroke-width:2.65484214;stroke-linecap:round;stroke-linejoin:miter;stroke-miterlimit:4;stroke-dasharray:none;stroke-opacity:1" id="path8363" d="M 17.241246,23.778211 C 18.873784,13.334226 32.631006,13.66595 33.910507,23.614787"/><path style="fill:none;fill-opacity:1;fill-rule:evenodd;stroke:#fff;stroke-width:2.65484214;stroke-linecap:round;stroke-linejoin:round;stroke-miterlimit:4;stroke-dasharray:none;stroke-opacity:1" id="path8365" d="M 14.571628,18.545494 L 17.02506,23.922425 L 22.654737,22.143297 L 22.654737,22.143297"/></g></g><g id="g8380" transform="matrix(-0.7454146,0.108991,-0.108991,-0.7454146,47.363957,41.428291)"><g id="g8382" transform="matrix(-0.9813845,-0.1920532,0.1920532,-0.9813845,45.325983,56.360102)" style="fill:none;fill-opacity:1;stroke:#fff;stroke-width:1.32742107;stroke-linecap:round;stroke-opacity:1"><path style="fill:none;fill-opacity:1;fill-rule:evenodd;stroke:#fff;stroke-width:2.65484214;stroke-linecap:round;stroke-linejoin:miter;stroke-miterlimit:4;stroke-dasharray:none;stroke-opacity:1" id="path8384" d="M 17.241246,23.778211 C 18.873784,13.334226 32.631006,13.66595 33.910507,23.614787"/><path style="fill:none;fill-opacity:1;fill-rule:evenodd;stroke:#fff;stroke-width:2.65484214;stroke-linecap:round;stroke-linejoin:round;stroke-miterlimit:4;stroke-dasharray:none;stroke-opacity:1" id="path8386" d="M 14.571628,18.545494 L 17.02506,23.922425 L 22.654737,22.143297 L 22.654737,22.143297"/></g></g></g></svg>