<svg xmlns="http://www.w3.org/2000/svg" xmlns:svg="http://www.w3.org/2000/svg" id="svg2" width="55" height="55" version="1.1" viewBox="0 0 55 55" xml:space="preserve"><metadata id="metadata29"/><g id="camera-external" transform="matrix(0.919935,0,0,0.919935,2.4322312,5.0374876)" style="display:block"><g id="g5" style="display:inline"><g id="g7"><polygon id="polygon9" points="34.904 9.862 18.783 9.862 15.155 14.52 6.29 14.52 6.29 38.973 48.209 38.973 48.209 14.52 38.532 14.52" style="fill:#fff"/></g><g id="g11"><polygon id="polygon13" points="34.904 9.862 18.783 9.862 15.155 14.52 6.29 14.52 6.29 38.973 48.209 38.973 48.209 14.52 38.532 14.52" style="fill:none;stroke:#010101;stroke-width:3.5"/></g></g><path id="path15" d="m 20.601,26.441 c 0,3.67 2.979,6.648 6.65,6.648 3.667,0 6.646,-2.979 6.646,-6.648 0,-3.668 -2.979,-6.652 -6.646,-6.652 -3.67,0 -6.65,2.986 -6.65,6.652 z" style="fill:#fff;stroke:#010101;stroke-width:3.5;display:inline"/><rect id="rect17" width="6.287" height="4.193" x="38.099" y="18.418" style="fill:#010101;display:inline"/></g></svg>