<svg xmlns="http://www.w3.org/2000/svg" xmlns:svg="http://www.w3.org/2000/svg" width="767" height="38" version="1.0"><path d="M 15,37.5 C 11.5,37.5 8,35 5.5,32.5 3,30 0.5,26.5 0.5,23 l 0,-8 c 0,-3.25 2.5,-8.5 5,-10.5 2.5,-2 6,-4 9.5,-4 l 736.5,0 c 2.5,0 7,1 10.5,4 3.5,2.75 4.5,7.5 4.5,10.5 l 0,8 c 0,3.5 -2,7 -4.5,9.5 -2.5,2.5 -6.5,5 -10.5,5 L 15,37.5 z" style="fill:#ffd000;fill-opacity:1;fill-rule:evenodd;stroke:#e0a000;stroke-width:1px;stroke-linecap:butt;stroke-linejoin:miter;stroke-opacity:1"/><g><path d="m 79.5,438.5 c 0,4.5 -3.75,8 -8.5,8 -4.5,0 -8.25,-3.5 -8.25,-8 0,-4.5 3.75,-8.25 8.25,-8.25 4.75,0 8.5,3.75 8.5,8.25 l 0,0 z" transform="translate(656,65.625) translate(24,-485)" style="fill:#ff4040;fill-opacity:1;fill-rule:nonzero;stroke:#ff4040;stroke-width:1;stroke-linecap:square;stroke-linejoin:round;stroke-miterlimit:4;stroke-opacity:1;stroke-dasharray:none"/><text style="font-size:12px;font-weight:700;text-align:start;writing-mode:lr-tb;text-anchor:start;fill:#000;fill-opacity:1;stroke:none;font-family:Bitstream Vera Sans" transform="translate(656,65.625)"><tspan x="91" y="-42" style="font-size:12px">X</tspan></text></g><text x="-2.459" y="13.197" style="font-size:5.57584906px;font-style:normal;font-weight:400;fill:red;fill-opacity:1;stroke:none;font-family:Bitstream Vera Sans"><tspan x="76.532" y="26.208" style="font-size:11.15169811px">???</tspan></text><g><path d="M 44,15 10.5,15 27.5,-14 44,15 z" transform="translate(6,0) translate(-4,20)" style="fill:#404040;fill-opacity:1;fill-rule:nonzero;stroke:none"/><path d="M 44,15 10.5,15 27.5,-14 44,15 z" transform="translate(6,0) translate(1,17)" style="fill:#e0e0e0;fill-opacity:1;fill-rule:nonzero;stroke:none"/><path d="M 44,15 10.5,15 27.5,-14 44,15 z" transform="translate(6,0) translate(-1,18)" style="fill:#ffe000;fill-opacity:1;fill-rule:nonzero;stroke:none"/></g><text x="6" style="font-size:12px;font-style:normal;font-weight:400;fill:#000;fill-opacity:1;stroke:none;font-family:Bitstream Vera Sans"><tspan x="27" y="29" style="font-size:24px">!</tspan></text><g style="fill:#ff0;fill-opacity:1;stroke:#a0a000;stroke-opacity:1"><path d="m 0.5,14.5 0,-4 c 0,-2.0943951 1.9056049,-4 4,-4 l 4,0 5,-6 5,6 9,0 0.248538,0 4,0 c 2.094395,0 4,1.5342416 4,4 l 0,4 0,4 c 0,2.094395 -1.905605,4 -4,4 l -4,0 -0.248538,0 -1,0 0,2 -8,0 0,-2 -1,0 -4,0 c -2.617994,0 -5,2.382006 -5,5 l 0,4 0,4 c 0,2.617994 2.382006,5 5,5 l 4,0 0,2 10,0 0,-2 8,0 0,4 c 0,2.094395 -1.905605,4 -4,4 l -4,0 -9,0 -5,6 -5,-6 -4,0 c -2.0943951,0 -4,-1.905605 -4,-4 l 0,-4 z" transform="matrix(0.65454545,0,0,0.65454545,70,1.0000002)" style="fill:#ff0;fill-opacity:1;stroke:#a0a000;stroke-width:1;stroke-linecap:round;stroke-opacity:1"/></g></svg>