<svg xmlns="http://www.w3.org/2000/svg" xmlns:svg="http://www.w3.org/2000/svg" xmlns:xlink="http://www.w3.org/1999/xlink" id="svg2" width="767" height="38" version="1.0"><metadata id="metadata73"/><defs id="defs32"><linearGradient id="linearGradient2540" x1="0" x2="64" y1="0" y2="0" gradientTransform="translate(34.404412,58.027574)" gradientUnits="userSpaceOnUse" xlink:href="#linearGradient3166"/><linearGradient id="linearGradient2504"><stop id="stop2506" offset="0" style="stop-color:#fff;stop-opacity:1"/><stop id="stop2508" offset="1" style="stop-color:#ff0;stop-opacity:1"/></linearGradient><linearGradient id="linearGradient2510" x1="0" x2="64" y1="0" y2="0" gradientTransform="translate(0,4.96875)" gradientUnits="userSpaceOnUse" xlink:href="#linearGradient3166"/><linearGradient id="linearGradient2512" x1="210" x2="0" y1="10.5" y2="10.5" gradientUnits="userSpaceOnUse" xlink:href="#linearGradient3886"/><linearGradient id="linearGradient2514"><stop id="stop2516" offset="0" style="stop-color:#00f;stop-opacity:1"/><stop id="stop2518" offset="1" style="stop-color:#fff;stop-opacity:1"/></linearGradient><linearGradient id="linearGradient2520" x1="210" x2="0" y1="10.5" y2="10.5" gradientUnits="userSpaceOnUse" xlink:href="#linearGradient3886"/><linearGradient id="linearGradient2522" x1="0" x2="64" y1="0" y2="0" gradientTransform="translate(0,4.96875)" gradientUnits="userSpaceOnUse" xlink:href="#linearGradient3166"/><linearGradient id="linearGradient2524" x1="0" x2="104" y1="0" y2="21" gradientTransform="translate(0,5.4999997)" gradientUnits="userSpaceOnUse" xlink:href="#linearGradient3166"/><linearGradient id="linearGradient2492"><stop id="stop2494" offset="0" style="stop-color:#fff;stop-opacity:1"/><stop id="stop2496" offset="1" style="stop-color:#ff0;stop-opacity:1"/></linearGradient><linearGradient id="linearGradient2493" x1="0" x2="104" y1="0" y2="21" gradientUnits="userSpaceOnUse" xlink:href="#linearGradient3166"/><linearGradient id="linearGradient2486"><stop id="stop2488" offset="0" style="stop-color:#fff;stop-opacity:1"/><stop id="stop2490" offset="1" style="stop-color:#00f;stop-opacity:1"/></linearGradient><linearGradient id="linearGradient2509"><stop id="stop2511" offset="0" style="stop-color:#fff;stop-opacity:1"/><stop id="stop2513" offset="1" style="stop-color:#ff0;stop-opacity:1"/></linearGradient><linearGradient id="linearGradient2515" x1="0" x2="74" y1="22" y2="22" gradientUnits="userSpaceOnUse" xlink:href="#linearGradient3166"/><linearGradient id="linearGradient2608" x1="0" x2="128.684" y1="22" y2="22" gradientUnits="userSpaceOnUse" xlink:href="#linearGradient3166"/><linearGradient id="linearGradient2595"><stop id="stop2597" offset="0" style="stop-color:#fff;stop-opacity:1"/><stop id="stop2599" offset="1" style="stop-color:#ff0;stop-opacity:1"/></linearGradient><linearGradient id="linearGradient2601" x1="0" x2="74" y1="22" y2="22" gradientUnits="userSpaceOnUse" xlink:href="#linearGradient3166"/><linearGradient id="linearGradient2473"><stop id="stop2475" offset="0" style="stop-color:#fff;stop-opacity:1"/><stop id="stop2477" offset="1" style="stop-color:#ff0;stop-opacity:1"/></linearGradient><linearGradient id="linearGradient4238" x1="0" x2="64" y1="0" y2="0" gradientTransform="translate(0,4.96875)" gradientUnits="userSpaceOnUse" xlink:href="#linearGradient3166"/><linearGradient id="linearGradient4211" x1="210" x2="0" y1="10.5" y2="10.5" gradientUnits="userSpaceOnUse" xlink:href="#linearGradient3886"/><linearGradient id="linearGradient3886"><stop id="stop3888" offset="0" style="stop-color:#00f;stop-opacity:1"/><stop id="stop3890" offset="1" style="stop-color:#fff;stop-opacity:1"/></linearGradient><linearGradient id="linearGradient2496" x1="210" x2="0" y1="10.5" y2="10.5" gradientUnits="userSpaceOnUse" xlink:href="#linearGradient3886"/><linearGradient id="linearGradient2501" x1="0" x2="64" y1="0" y2="0" gradientTransform="translate(0,4.96875)" gradientUnits="userSpaceOnUse" xlink:href="#linearGradient3166"/><linearGradient id="linearGradient3172" x1="0" x2="128.684" y1="22" y2="22" gradientUnits="userSpaceOnUse" xlink:href="#linearGradient3166"/><linearGradient id="linearGradient3166"><stop id="stop3168" offset="0" style="stop-color:#fff;stop-opacity:1"/><stop id="stop3170" offset="1" style="stop-color:red;stop-opacity:1"/></linearGradient><linearGradient id="linearGradient2539" x1="0" x2="104" y1="0" y2="21" gradientUnits="userSpaceOnUse" xlink:href="#linearGradient3166"/><linearGradient id="linearGradient2533"><stop id="stop2535" offset="0" style="stop-color:#fff;stop-opacity:1"/><stop id="stop2537" offset="1" style="stop-color:#ff0;stop-opacity:1"/></linearGradient><linearGradient id="linearGradient2543" x1="0" x2="128.684" y1="22" y2="22" gradientTransform="matrix(0.75,0,0,0.75,79.98708,11.125)" gradientUnits="userSpaceOnUse" xlink:href="#linearGradient3166"/><linearGradient id="linearGradient2543-4" x1="0" x2="128.684" y1="22" y2="22" gradientTransform="matrix(0.75,0,0,0.75,160.75,11.125)" gradientUnits="userSpaceOnUse" xlink:href="#linearGradient3166-4"/><linearGradient id="linearGradient3166-4"><stop id="stop3168-3" offset="0" style="stop-color:#fff;stop-opacity:1"/><stop id="stop3170-0" offset="1" style="stop-color:red;stop-opacity:1"/></linearGradient><linearGradient id="linearGradient3833" x1="0" x2="128.684" y1="22" y2="22" gradientTransform="matrix(0.75,0,0,0.75,207.68104,11.125001)" gradientUnits="userSpaceOnUse" xlink:href="#linearGradient3166-4"/></defs><path id="path4" d="M 15,37.5 C 11.5,37.5 8,35 5.5,32.5 3,30 0.5,26.5 0.5,23 l 0,-8 c 0,-3.25 2.5,-8.5 5,-10.5 2.5,-2 6,-4 9.5,-4 l 736.5,0 c 2.5,0 7,1 10.5,4 3.5,2.75 4.5,7.5 4.5,10.5 l 0,8 c 0,3.5 -2,7 -4.5,9.5 -2.5,2.5 -6.5,5 -10.5,5 L 15,37.5 z" style="fill:#ffd000;fill-opacity:1;fill-rule:evenodd;stroke:#e0a000;stroke-width:1px;stroke-linecap:butt;stroke-linejoin:miter;stroke-opacity:1"/><g id="g6" transform="translate(656,65.625)"><path id="path8" d="m 79.5,438.5 c 0,4.5 -3.75,8 -8.5,8 -4.5,0 -8.25,-3.5 -8.25,-8 0,-4.5 3.75,-8.25 8.25,-8.25 4.75,0 8.5,3.75 8.5,8.25 l 0,0 z" transform="translate(24,-485)" style="fill:#ff4040;fill-opacity:1;fill-rule:nonzero;stroke:#ff4040;stroke-width:1;stroke-linecap:square;stroke-linejoin:round;stroke-miterlimit:4;stroke-opacity:1;stroke-dasharray:none"/><text id="text10" style="font-size:12px;font-weight:700;text-align:start;writing-mode:lr-tb;text-anchor:start;fill:#000;fill-opacity:1;stroke:none;font-family:Bitstream Vera Sans"><tspan id="tspan12" x="91" y="-42" style="font-size:12px">X</tspan></text></g><g id="g17" transform="translate(6,0)"><path id="path19" d="M 44,15 10.5,15 27.5,-14 44,15 z" transform="translate(-4,20)" style="fill:#404040;fill-opacity:1;fill-rule:nonzero;stroke:none"/><path id="path21" d="M 44,15 10.5,15 27.5,-14 44,15 z" transform="translate(1,17)" style="fill:#e0e0e0;fill-opacity:1;fill-rule:nonzero;stroke:none"/><path id="path23" d="M 44,15 10.5,15 27.5,-14 44,15 z" transform="translate(-1,18)" style="fill:#ffe000;fill-opacity:1;fill-rule:nonzero;stroke:none"/></g><text id="text25" x="6" style="font-size:12px;font-style:normal;font-weight:400;fill:#000;fill-opacity:1;stroke:none;font-family:Bitstream Vera Sans"><tspan id="tspan27" x="27" y="29" style="font-size:24px">!</tspan></text><text id="text2618" x="176.342" y="25.563" xml:space="preserve" style="font-size:40px;font-style:normal;font-weight:400;fill:#000;fill-opacity:1;stroke:none;font-family:Bitstream Vera Sans"><tspan id="tspan2620" x="176.342" y="25.563" style="font-size:24px;fill:red;fill-opacity:1">x</tspan></text><path id="path2541" d="m 80.73708,11.5 3.75,0 0,3 5.25,0 0,-3 68.625,0 0,15 -68.625,0 0,-3 -5.25,0 0,3 -3.75,0 0,-15 z" style="fill:url(#linearGradient2543);fill-opacity:1;stroke:red;stroke-width:2;stroke-opacity:1"/><path id="path2541-7" d="m 208.43104,11.500001 3.75,0 0,2.999999 5.25,0 0,-2.999999 68.625,0 0,14.999999 -68.625,0 0,-3 -5.25,0 0,3 -3.75,0 0,-14.999999 z" style="fill:url(#linearGradient3833);fill-opacity:1;stroke:red;stroke-width:2;stroke-opacity:1"/></svg>