<svg xmlns="http://www.w3.org/2000/svg" xmlns:svg="http://www.w3.org/2000/svg" xmlns:xlink="http://www.w3.org/1999/xlink" id="svg2467" width="767" height="38" version="1.0"><defs id="defs2493"><linearGradient id="linearGradient3172" x1=".943" x2="104.377" y1="-31.67" y2="20.434" gradientTransform="matrix(0.7083638,0,0,1.0012565,0.1338084,32.632067)" gradientUnits="userSpaceOnUse" xlink:href="#linearGradient3166"/><linearGradient id="linearGradient3166"><stop id="stop3168" offset="0" style="stop-color:#fff;stop-opacity:1"/><stop id="stop3170" offset="1" style="stop-color:#ff0;stop-opacity:1"/></linearGradient><linearGradient id="linearGradient3172-5" x1=".943" x2="104.377" y1="-31.67" y2="20.434" gradientTransform="matrix(0.7083638,0,0,1.0012565,0.1338084,32.632067)" gradientUnits="userSpaceOnUse" xlink:href="#linearGradient3166-4"/><linearGradient id="linearGradient3166-4"><stop id="stop3168-7" offset="0" style="stop-color:#fff;stop-opacity:1"/><stop id="stop3170-6" offset="1" style="stop-color:#ff0;stop-opacity:1"/></linearGradient></defs><path id="path4" d="M 15,37.5 C 11.5,37.5 8,35 5.5,32.5 3,30 0.5,26.5 0.5,23 l 0,-8 c 0,-3.25 2.5,-8.5 5,-10.5 2.5,-2 6,-4 9.5,-4 l 736.5,0 c 2.5,0 7,1 10.5,4 3.5,2.75 4.5,7.5 4.5,10.5 l 0,8 c 0,3.5 -2,7 -4.5,9.5 -2.5,2.5 -6.5,5 -10.5,5 L 15,37.5 z" style="fill:#ffd000;fill-opacity:1;fill-rule:evenodd;stroke:#e0a000;stroke-width:1px;stroke-linecap:butt;stroke-linejoin:miter;stroke-opacity:1"/><g id="g6" transform="translate(656,65.625)"><path id="path8" d="m 79.5,438.5 c 0,4.5 -3.75,8 -8.5,8 -4.5,0 -8.25,-3.5 -8.25,-8 0,-4.5 3.75,-8.25 8.25,-8.25 4.75,0 8.5,3.75 8.5,8.25 l 0,0 z" transform="translate(24,-485)" style="fill:#ff4040;fill-opacity:1;fill-rule:nonzero;stroke:#ff4040;stroke-width:1;stroke-linecap:square;stroke-linejoin:round;stroke-miterlimit:4;stroke-opacity:1;stroke-dasharray:none"/><text id="text10" style="font-size:12px;font-weight:700;text-align:start;writing-mode:lr-tb;text-anchor:start;fill:#000;fill-opacity:1;stroke:none;font-family:Bitstream Vera Sans"><tspan id="tspan12" x="91" y="-42" style="font-size:12px">X</tspan></text></g><text id="text2474" x="-48" style="font-size:12px;font-style:normal;font-weight:400;fill:red;fill-opacity:1;stroke:none;font-family:Bitstream Vera Sans"><tspan id="tspan2476" x="122" y="28" style="font-size:24px">???</tspan></text><g id="g2478" transform="translate(6,0)"><path id="path2480" d="M 44,15 10.5,15 27.5,-14 44,15 z" transform="translate(-4,20)" style="fill:#404040;fill-opacity:1;fill-rule:nonzero;stroke:none"/><path id="path2482" d="M 44,15 10.5,15 27.5,-14 44,15 z" transform="translate(1,17)" style="fill:#e0e0e0;fill-opacity:1;fill-rule:nonzero;stroke:none"/><path id="path2484" d="M 44,15 10.5,15 27.5,-14 44,15 z" transform="translate(-1,18)" style="fill:#ffe000;fill-opacity:1;fill-rule:nonzero;stroke:none"/></g><text id="text2486" x="6" style="font-size:12px;font-style:normal;font-weight:400;fill:#000;fill-opacity:1;stroke:none;font-family:Bitstream Vera Sans"><tspan id="tspan2488" x="27" y="29" style="font-size:24px">!</tspan></text><g id="activity-journal" transform="matrix(0.67,0,0,0.67,67.66091,0.575)" style="stroke:#000;stroke-opacity:1;display:block"><path id="path2458" d="M 45.866,44.669 C 45.866,47.18 44.338,49 41.534,49 l -29.457,0 0,-43 29.458,0 c 2.15,0 4.332,2.154 4.332,4.33 l -10e-4,34.339 0,0 z" style="fill:#fff;stroke:#000;stroke-width:3.5;stroke-linecap:round;stroke-linejoin:round;stroke-opacity:1"/><line style="fill:none;stroke:#000;stroke-width:3.5;stroke-linecap:round;stroke-linejoin:round;stroke-opacity:1" id="line2460" x1="21.341" x2="21.341" y1="6.121" y2="48.881"/><path id="path2462" d="m 7.384,14.464 c 0,0 2.084,0.695 4.17,0.695 2.086,0 4.173,-0.695 4.173,-0.695" style="fill:none;stroke:#000;stroke-width:3.5;stroke-linecap:round;stroke-linejoin:round;stroke-opacity:1"/><path id="path2464" d="m 7.384,28.021 c 0,0 1.912,0.695 4.345,0.695 2.433,0 3.999,-0.695 3.999,-0.695" style="fill:none;stroke:#000;stroke-width:3.5;stroke-linecap:round;stroke-linejoin:round;stroke-opacity:1"/><path id="path2466" d="m 7.384,41.232 c 0,0 1.736,0.695 4.518,0.695 2.781,0 3.825,-0.695 3.825,-0.695" style="fill:none;stroke:#000;stroke-width:3.5;stroke-linecap:round;stroke-linejoin:round;stroke-opacity:1"/></g></svg>