<svg xmlns="http://www.w3.org/2000/svg" xmlns:svg="http://www.w3.org/2000/svg" id="svg2" width="55" height="55" version="1.1" viewBox="0 0 55 55" xml:space="preserve"><metadata id="metadata29"/><g id="g3058" transform="matrix(1.6489859,0,0,1.6489859,-17.640989,-17.848761)"><g id="g5" transform="matrix(0.5,0,0,0.5,13.6875,13.7505)" style="stroke-width:3.5;stroke-miterlimit:4;stroke-dasharray:none;display:inline"><g id="g7" style="stroke-width:3.5;stroke-miterlimit:4;stroke-dasharray:none"><polygon id="polygon9" points="5.962 43.944 48.788 43.944 48.788 23.002 36.849 11.058 5.962 11.058" style="fill:#fff;stroke:#010101;stroke-width:3.5;stroke-miterlimit:4;stroke-dasharray:none"/><polyline id="polyline11" points="36.849 11.058 36.849 23.002 48.788 23.002" style="fill:none;stroke:#010101;stroke-width:3.5;stroke-miterlimit:4;stroke-dasharray:none"/></g></g><path id="path13" d="m 27.4395,26.1715 c -2.3785,0 -4.36,2.372 -4.36,2.372 0,0 1.9815,2.3835 4.36,2.382 2.3785,-0.002 4.361,-2.385 4.361,-2.385 0,0 -1.982,-2.3705 -4.361,-2.369 z m 0,4.045 c -0.921,0 -1.6675,-0.747 -1.6675,-1.668 0,-0.9195 0.7465,-1.668 1.6675,-1.668 0.9195,0 1.6665,0.7485 1.6665,1.668 5e-4,0.921 -0.7465,1.668 -1.6665,1.668 z" style="fill:#010101;display:inline"/><circle id="circle15" cx="27.505" cy="29.597" r="1.514" transform="matrix(0.5,0,0,0.5,13.6875,13.7505)" style="fill:#010101;display:inline"/><circle id="circle17" cx="14.875" cy="29.597" r="1.514" transform="matrix(0.5,0,0,0.5,13.6875,13.7505)" style="fill:#010101;display:inline"/><circle id="circle19" cx="10.375" cy="29.597" r="1.514" transform="matrix(0.5,0,0,0.5,13.6875,13.7505)" style="fill:#010101;display:inline"/><circle id="circle21" cx="43.875" cy="29.597" r="1.514" transform="matrix(0.5,0,0,0.5,13.6875,13.7505)" style="fill:#010101;display:inline"/><circle id="circle23" cx="39.375" cy="29.597" r="1.514" transform="matrix(0.5,0,0,0.5,13.6875,13.7505)" style="fill:#010101;display:inline"/></g></svg>