<svg xmlns="http://www.w3.org/2000/svg" xmlns:xlink="http://www.w3.org/1999/xlink" width="55" height="55" x="0" y="0" enable-background="new 0 0 55 55" version="1.1" viewBox="0 0 55 55" xml:space="preserve"><g id="edit-clear" display="block"><path fill="#FFF" d="M5,10.033v34.934h45V10.033H5z M37.575,35.1c0.684,0.683,0.684,1.793,0,2.476 c-0.341,0.342-0.789,0.513-1.237,0.513s-0.896-0.171-1.238-0.513l-7.601-7.602l-7.602,7.602c-0.342,0.342-0.79,0.513-1.237,0.513 s-0.895-0.171-1.237-0.513c-0.684-0.683-0.684-1.793,0-2.476l7.601-7.601l-7.601-7.602c-0.684-0.684-0.684-1.791,0-2.474 c0.683-0.684,1.791-0.684,2.474,0l7.602,7.601l7.601-7.601c0.683-0.684,1.793-0.684,2.476,0c0.684,0.683,0.684,1.791,0,2.474 l-7.602,7.602L37.575,35.1z"/></g></svg>