<svg xmlns="http://www.w3.org/2000/svg" xmlns:svg="http://www.w3.org/2000/svg" id="svg3039" width="134" height="46" version="1.1"><metadata id="metadata3068"/><defs id="defs3066"><filter id="dropshadow" height="1.3" color-interpolation-filters="sRGB"><feGaussianBlur id="feGaussianBlur3044" in="SourceAlpha" stdDeviation="3"/><feOffset id="feOffset3046" dx="2" dy="2" result="offsetblur"/><feComponentTransfer id="feComponentTransfer3048"><feFuncA id="feFuncA3050" slope=".2" type="linear"/></feComponentTransfer><feMerge id="feMerge3052"><feMergeNode id="feMergeNode3054"/><feMergeNode id="feMergeNode3056" in="SourceGraphic"/></feMerge></filter></defs><path id="path3058" d="M 1,17 1,9 A 8,8 0 0 1 9,1 l 8,0 0,4 20,0 0,-4 80,0 8,0 a 8,8 0 0 1 8,8 l 0,8 0,8 0,8 a 8,8 0 0 1 -8,8 l -8,0 -80,0 -2,0 0,4 -16,0 0,-4 -2,0 -8,0 A 8,8 0 0 1 1,33 l 0,-8 z" style="fill:#ffc000;fill-opacity:1;stroke:#c48d00;stroke-width:2;stroke-linecap:round;stroke-opacity:1"/><text id="text3060" style="font-size:20px;text-anchor:end;fill:#000;font-family:Sans"><tspan id="tspan3062" x="114" y="28">action</tspan></text></svg>