<svg xmlns="http://www.w3.org/2000/svg" xmlns:svg="http://www.w3.org/2000/svg" id="svg3008" width="142" height="151.125" version="1.1"><metadata id="metadata3037"/><defs id="defs3035"><filter id="dropshadow" height="1.3" color-interpolation-filters="sRGB"><feGaussianBlur id="feGaussianBlur3013" in="SourceAlpha" stdDeviation="3"/><feOffset id="feOffset3015" dx="2" dy="2" result="offsetblur"/><feComponentTransfer id="feComponentTransfer3017"><feFuncA id="feFuncA3019" slope=".2" type="linear"/></feComponentTransfer><feMerge id="feMerge3021"><feMergeNode id="feMergeNode3023"/><feMergeNode id="feMergeNode3025" in="SourceGraphic"/></feMerge></filter></defs><path id="path3027" d="m 1,29.5625 0,-8 a 8,8 0 0 1 8,-8 l 8,0 10,-12 10,12 18,0 70,0 8,0 a 8,8 0 0 1 8,8 l 0,8 -8,0 0,-6 -8,0 0,20 8,0 0,-6 8,0 0,8 a 8,8 0 0 1 -8,8 l -8,0 -70,0 -2,0 0,4 -16,0 0,-4 -2,0 -8,0 a 10,10 0 0 0 -10,10 l 0,8 0,8 0,8 a 10,10 0 0 0 10,10 l 8,0 0,4 20,0 0,-4 16,0 0,12 0,12 0,8 a 8,8 0 0 1 -8,8 l -8,0 -18,0 -10,12 -10,-12 -8,0 a 8,8 0 0 1 -8,-8 l 0,-8 z" style="fill:#ffc000;fill-opacity:1;stroke:#c48d00;stroke-width:2;stroke-linecap:round;stroke-opacity:1"/><text id="text3029" y=".563" style="font-size:20px;text-anchor:start;fill:#000;font-family:Sans"><tspan id="tspan3031" x="8" y="43.563">action</tspan></text></svg>