<svg xmlns="http://www.w3.org/2000/svg" xmlns:svg="http://www.w3.org/2000/svg" id="svg3070" width="130" height="46" version="1.1"><path style="fill:#fd6600;fill-opacity:1;stroke:#ac3d00;stroke-width:2;stroke-linecap:round;stroke-opacity:1" id="path3089" d="M 1,17 1,9 A 8,8 0 0 1 9,1 l 8,0 0,4 20,0 0,-4 76,0 8,0 a 8,8 0 0 1 8,8 l 0,8 -8,0 0,-6 -8,0 0,20 8,0 0,-6 8,0 0,8 a 8,8 0 0 1 -8,8 l -8,0 -76,0 -2,0 0,4 -16,0 0,-4 -2,0 -8,0 A 8,8 0 0 1 1,33 l 0,-8 0,-8 z"/><text style="font-size:20px;text-anchor:end;fill:#000;font-family:Sans" id="text3091"><tspan id="tspan3093" x="110" y="28">add 1 to</tspan></text></svg>