<svg xmlns="http://www.w3.org/2000/svg" xmlns:svg="http://www.w3.org/2000/svg" id="svg3008" width="154" height="42" version="1.1"><metadata id="metadata3041"/><defs id="defs3039"><filter id="dropshadow" height="1.3" color-interpolation-filters="sRGB"><feGaussianBlur id="feGaussianBlur3013" in="SourceAlpha" stdDeviation="3"/><feOffset id="feOffset3015" dx="2" dy="2" result="offsetblur"/><feComponentTransfer id="feComponentTransfer3017"><feFuncA id="feFuncA3019" slope=".2" type="linear"/></feComponentTransfer><feMerge id="feMerge3021"><feMergeNode id="feMergeNode3023"/><feMergeNode id="feMergeNode3025" in="SourceGraphic"/></feMerge></filter></defs><path id="path3027" d="m 17,17 0,-8 a 8,8 0 0 1 8,-8 l 8,0 20,0 84,0 8,0 a 8,8 0 0 1 8,8 l 0,8 -8,0 0,-6 -8,0 0,20 8,0 0,-6 8,0 0,8 a 8,8 0 0 1 -8,8 l -8,0 -84,0 -20,0 -8,0 a 8,8 0 0 1 -8,-8 l 0,-8 0,-2 -12,0 0,6 -4,0 0,-16 4,0 0,6 12,0 0,-2 z" style="fill:#ffc000;fill-opacity:1;stroke:#c48d00;stroke-width:2;stroke-linecap:round;stroke-opacity:1"/><text id="text3029" style="font-size:20px;text-anchor:end;fill:#000;font-family:sans-serif"><tspan id="tspan3031" x="134" y="26">arg</tspan></text></svg>