<svg xmlns="http://www.w3.org/2000/svg" xmlns:svg="http://www.w3.org/2000/svg" id="svg2" width="142" height="42" version="1.1"><metadata id="metadata35"/><g id="g4" transform="matrix(2,0,0,2,0,-10.75)"><filter id="dropshadow" height="1.3" color-interpolation-filters="sRGB"><feGaussianBlur id="feGaussianBlur7" in="SourceAlpha" stdDeviation="3"/><feOffset id="feOffset9" dx="2" dy="2" result="offsetblur"/><feComponentTransfer id="feComponentTransfer11"><feFuncA id="feFuncA13" slope=".2" type="linear"/></feComponentTransfer><feMerge id="feMerge15"><feMergeNode id="feMergeNode17"/><feMergeNode id="feMergeNode19" in="SourceGraphic"/></feMerge></filter><path style="fill:#ffc000;fill-opacity:1;stroke:#c48d00;stroke-width:1;stroke-linecap:round;stroke-opacity:1" id="path21" d="m 8.5,13.869157 0,-4 c 0,-2.0943951 1.905605,-4 4,-4 l 4,0 10,0 40,0 4,0 0,20 -4,0 -40,0 -10,0 -4,0 c -2.094395,0 -4,-1.905605 -4,-4 l 0,-4 0,-1 -6,0 0,3 -2,0 0,-8 2,0 0,3 6,0 z"/><text style="font-size:10px;text-anchor:end;fill:#000;font-family:Sans" id="text23" y="6"><tspan id="tspan25" x="65" y="19">arg 1</tspan></text></g></svg>