<svg xmlns="http://www.w3.org/2000/svg" xmlns:svg="http://www.w3.org/2000/svg" id="svg2" width="184" height="46" version="1.1"><path id="path21" d="M 1,17 1,9 C 1,4.8112098 4.8112098,1 9,1 l 8,0 0,4 20,0 0,-4 130,0 8,0 c 4.18879,0 8,3.8112098 8,8 l 0,8 0,8 0,8 c 0,4.18879 -3.81121,8 -8,8 l -8,0 -130,0 -2,0 0,4 -16,0 0,-4 -2,0 -8,0 C 4.8112098,41 1,37.18879 1,33 l 0,-8 z" style="fill:#1d8989;fill-opacity:1;stroke:#005459;stroke-width:2;stroke-linecap:round;stroke-opacity:1"/><text id="text23" x="66" y="0" style="font-size:20px;text-anchor:end;fill:#000;font-family:Sans"><tspan id="tspan25" x="176" y="28">begin hollow line</tspan></text></svg>