<svg xmlns="http://www.w3.org/2000/svg" xmlns:svg="http://www.w3.org/2000/svg" id="svg3184" width="138" height="46" version="1.1"><metadata id="metadata3217"/><defs id="defs3215"><filter id="dropshadow" height="1.3" color-interpolation-filters="sRGB"><feGaussianBlur id="feGaussianBlur3189" in="SourceAlpha" stdDeviation="3"/><feOffset id="feOffset3191" dx="2" dy="2" result="offsetblur"/><feComponentTransfer id="feComponentTransfer3193"><feFuncA id="feFuncA3195" slope=".2" type="linear"/></feComponentTransfer><feMerge id="feMerge3197"><feMergeNode id="feMergeNode3199"/><feMergeNode id="feMergeNode3201" in="SourceGraphic"/></feMerge></filter></defs><path style="fill:#ffc000;fill-opacity:1;stroke:#c48d00;stroke-width:2;stroke-linecap:round;stroke-opacity:1" id="path3203" d="M 1,17 1,9 A 8,8 0 0 1 9,1 l 8,0 0,4 20,0 0,-4 84,0 8,0 a 8,8 0 0 1 8,8 l 0,8 -8,0 0,-6 -8,0 0,20 8,0 0,-6 8,0 0,8 a 8,8 0 0 1 -8,8 l -8,0 -84,0 -2,0 0,4 -16,0 0,-4 -2,0 -8,0 A 8,8 0 0 1 1,33 l 0,-8 0,-8 z"/><text style="font-size:20px;text-anchor:end;fill:#000;font-family:Sans" id="text3205"><tspan id="tspan3207" x="118" y="28">broadcast</tspan></text></svg>