<svg xmlns="http://www.w3.org/2000/svg" xmlns:svg="http://www.w3.org/2000/svg" id="svg2" width="138" height="84" version="1.1" viewBox="0 0 138 84" xml:space="preserve"><metadata id="metadata29"/><defs id="defs27"><filter id="dropshadow" height="1.3" color-interpolation-filters="sRGB"><feGaussianBlur id="feGaussianBlur7" in="SourceAlpha" stdDeviation="3"/><feOffset id="feOffset9" dx="2" dy="2" result="offsetblur"/><feComponentTransfer id="feComponentTransfer11"><feFuncA id="feFuncA13" slope=".2" type="linear"/></feComponentTransfer><feMerge id="feMerge15"><feMergeNode id="feMergeNode17"/><feMergeNode id="feMergeNode19" in="SourceGraphic"/></feMerge></filter></defs><g id="g3105"><path id="path21" d="m 17,1 120,0 0,82.000001 -120,0 L 17,25 l 0,-2 -12,0 0,6 -4,0 0,-16 4,0 0,6 12,0 0,-2 z" style="fill:#7bbbb8;fill-opacity:1;stroke:#4c8585;stroke-width:2;stroke-linecap:round;stroke-opacity:1"/></g><g id="camera-external" transform="matrix(1.3799025,0,0,1.3799025,39.843979,7.8062309)" style="display:block"><g id="g5" style="display:inline"><g id="g7"><polygon id="polygon9" points="6.29 38.973 48.209 38.973 48.209 14.52 38.532 14.52 34.904 9.862 18.783 9.862 15.155 14.52 6.29 14.52" style="fill:#fff"/></g><g id="g11"><polygon id="polygon13" points="48.209 38.973 48.209 14.52 38.532 14.52 34.904 9.862 18.783 9.862 15.155 14.52 6.29 14.52 6.29 38.973" style="fill:none;stroke:#010101;stroke-width:2.33333325"/></g></g><path id="path15" d="m 20.601,26.441 c 0,3.67 2.979,6.648 6.65,6.648 3.667,0 6.646,-2.979 6.646,-6.648 0,-3.668 -2.979,-6.652 -6.646,-6.652 -3.67,0 -6.65,2.986 -6.65,6.652 z" style="fill:#fff;stroke:#010101;stroke-width:2.33333325;display:inline"/><rect id="rect17" width="6.287" height="4.193" x="38.099" y="18.418" style="fill:#010101;display:inline"/></g></svg>