<svg xmlns="http://www.w3.org/2000/svg" xmlns:svg="http://www.w3.org/2000/svg" id="svg3032" width="114" height="46" version="1.1"><metadata id="metadata3065"/><defs id="defs3063"><filter id="dropshadow" height="1.3" color-interpolation-filters="sRGB"><feGaussianBlur id="feGaussianBlur3037" in="SourceAlpha" stdDeviation="3"/><feOffset id="feOffset3039" dx="2" dy="2" result="offsetblur"/><feComponentTransfer id="feComponentTransfer3041"><feFuncA id="feFuncA3043" slope=".2" type="linear"/></feComponentTransfer><feMerge id="feMerge3045"><feMergeNode id="feMergeNode3047"/><feMergeNode id="feMergeNode3049" in="SourceGraphic"/></feMerge></filter></defs><path style="fill:#ffc000;fill-opacity:1;stroke:#c48d00;stroke-width:2;stroke-linecap:round;stroke-opacity:1" id="path3051" d="M 1,17 1,9 A 8,8 0 0 1 9,1 l 8,0 0,4 20,0 0,-4 60,0 8,0 a 8,8 0 0 1 8,8 l 0,8 -8,0 0,-6 -8,0 0,20 8,0 0,-6 8,0 0,8 a 8,8 0 0 1 -8,8 l -8,0 -60,0 -2,0 0,4 -16,0 0,-4 -2,0 -8,0 A 8,8 0 0 1 1,33 l 0,-8 0,-8 z"/><text style="font-size:20px;text-anchor:end;fill:#000;font-family:Sans" id="text3053"><tspan id="tspan3055" x="94" y="28">do</tspan></text></svg>