<svg xmlns="http://www.w3.org/2000/svg" xmlns:svg="http://www.w3.org/2000/svg" id="svg3043" width="112" height="130" version="1.1"><metadata id="metadata3072"/><defs id="defs3070"><filter id="dropshadow" height="1.3" color-interpolation-filters="sRGB"><feGaussianBlur id="feGaussianBlur3048" in="SourceAlpha" stdDeviation="3"/><feOffset id="feOffset3050" dx="2" dy="2" result="offsetblur"/><feComponentTransfer id="feComponentTransfer3052"><feFuncA id="feFuncA3054" slope=".2" type="linear"/></feComponentTransfer><feMerge id="feMerge3056"><feMergeNode id="feMergeNode3058"/><feMergeNode id="feMergeNode3060" in="SourceGraphic"/></feMerge></filter></defs><path id="path3062" d="M 1,17 1,9 A 8,8 0 0 1 9,1 l 8,0 0,4 20,0 0,-4 18,0 40,0 8,0 a 8,8 0 0 1 8,8 l 0,8 -8,0 0,-6 -8,0 0,20 8,0 0,-6 8,0 0,8 a 8,8 0 0 1 -8,8 l -8,0 -40,0 -8,0 A 10,10 0 0 0 37,51 l 0,8 -8,0 0,-6 -8,0 0,20 8,0 0,-6 8,0 0,8 a 10,10 0 0 0 10,10 l 8,0 16,0 0,12 0,12 0,8 a 8,8 0 0 1 -8,8 l -8,0 -18,0 -2,0 0,4 -16,0 0,-4 -2,0 -8,0 a 8,8 0 0 1 -8,-8 l 0,-8 z" style="fill:#ffc000;fill-opacity:1;stroke:#c48d00;stroke-width:2;stroke-linecap:round;stroke-opacity:1"/><text id="text3064" style="font-size:20px;text-anchor:start;fill:#000;font-family:sans-serif"><tspan id="tspan3066" x="8" y="30.5">do</tspan></text></svg>