<svg xmlns="http://www.w3.org/2000/svg" xmlns:svg="http://www.w3.org/2000/svg" id="svg3008" width="122" height="46" version="1.1"><metadata id="metadata3041"/><defs id="defs3039"><filter id="dropshadow" height="1.3" color-interpolation-filters="sRGB"><feGaussianBlur id="feGaussianBlur3013" in="SourceAlpha" stdDeviation="3"/><feOffset id="feOffset3015" dx="2" dy="2" result="offsetblur"/><feComponentTransfer id="feComponentTransfer3017"><feFuncA id="feFuncA3019" slope=".2" type="linear"/></feComponentTransfer><feMerge id="feMerge3021"><feMergeNode id="feMergeNode3023"/><feMergeNode id="feMergeNode3025" in="SourceGraphic"/></feMerge></filter></defs><path style="fill:#00b700;fill-opacity:1;stroke:#007b00;stroke-width:2;stroke-linecap:round;stroke-opacity:1" id="path3027" d="M 1,17 1,9 A 8,8 0 0 1 9,1 l 8,0 0,4 20,0 0,-4 68,0 8,0 a 8,8 0 0 1 8,8 l 0,8 -8,0 0,-6 -8,0 0,20 8,0 0,-6 8,0 0,8 a 8,8 0 0 1 -8,8 l -8,0 -68,0 -2,0 0,4 -16,0 0,-4 -2,0 -8,0 A 8,8 0 0 1 1,33 l 0,-8 0,-8 z"/><text style="font-size:20px;text-anchor:end;fill:#000;font-family:Sans" id="text3029"><tspan id="tspan3031" x="102" y="28">forward</tspan></text></svg>