<svg xmlns="http://www.w3.org/2000/svg" xmlns:svg="http://www.w3.org/2000/svg" id="svg2" width="122" height="130" version="1.1"><metadata id="metadata10"/><path id="path21" d="M 1,17 1,9 C 1,4.8112098 4.8112098,1 9,1 l 8,0 0,4 20,0 0,-4 18,0 50,0 8,0 c 4.18879,0 8,3.8112098 8,8 l 0,8 0,8 0,8 c 0,4.18879 -3.81121,8 -8,8 l -8,0 -50,0 -2,0 0,4 -16,0 0,-4 -2,0 -8,0 c -2.617994,0 -5.219867,1.077731 -7.071068,2.928932 C 18.077731,45.780133 17,48.382006 17,51 l 0,8 0,8 0,8 c 0,2.617994 1.077731,5.219867 2.928932,7.071068 C 21.780133,83.922269 24.382006,85 27,85 l 8,0 0,4 20,0 0,-4 16,0 0,12 0,12 0,8 c 0,4.18879 -3.81121,8 -8,8 l -8,0 -18,0 -2,0 0,4 -16,0 0,-4 -2,0 -8,0 c -4.1887902,0 -8,-3.81121 -8,-8 l 0,-8 z" style="fill:#1d8989;fill-opacity:1;stroke:#005459;stroke-width:2;stroke-linecap:round;stroke-opacity:1"/><text id="text23" style="font-size:20px;text-anchor:start;fill:#000;font-family:Sans"><tspan id="tspan25" x="8" y="30.5">hollow line</tspan></text></svg>