<svg xmlns="http://www.w3.org/2000/svg" xmlns:svg="http://www.w3.org/2000/svg" id="svg3016" width="72" height="172" version="1.1"><path id="path3035" d="M 1,17 1,9 A 8,8 0 0 1 9,1 l 8,0 0,4 20,0 0,-4 18,0 8,0 a 8,8 0 0 1 8,8 l 0,8 0,18 A 16,16 0 0 0 55,51 16,16 0 0 0 71,67 l 0,8 a 8,8 0 0 1 -8,8 l -8,0 -2,0 0,4 -16,0 0,-4 -2,0 -8,0 A 10,10 0 0 0 17,93 l 0,8 0,8 0,8 a 10,10 0 0 0 10,10 l 8,0 0,4 20,0 0,-4 16,0 0,12 0,12 0,8 a 8,8 0 0 1 -8,8 l -8,0 -18,0 -2,0 0,4 -16,0 0,-4 -2,0 -8,0 a 8,8 0 0 1 -8,-8 l 0,-8 z" style="fill:#e37a00;fill-opacity:1;stroke:#a34600;stroke-width:2;stroke-linecap:round;stroke-opacity:1"/><text id="text3037" style="font-size:20px;text-anchor:start;fill:#000;font-family:sans-serif"><tspan id="tspan3039" x="8" y="35.5">if</tspan></text><text id="text3041" style="font-size:13.33333302px;text-anchor:end;fill:#000;font-family:sans-serif"><tspan id="tspan3043" x="64" y="78">then</tspan></text></svg>