<svg xmlns="http://www.w3.org/2000/svg" xmlns:svg="http://www.w3.org/2000/svg" id="svg3095" width="130" height="84" version="1.1"><metadata id="metadata3132"/><defs id="defs3130"><filter id="dropshadow" height="1.3" color-interpolation-filters="sRGB"><feGaussianBlur id="feGaussianBlur3100" in="SourceAlpha" stdDeviation="3"/><feOffset id="feOffset3102" dx="2" dy="2" result="offsetblur"/><feComponentTransfer id="feComponentTransfer3104"><feFuncA id="feFuncA3106" slope=".2" type="linear"/></feComponentTransfer><feMerge id="feMerge3108"><feMergeNode id="feMergeNode3110"/><feMergeNode id="feMergeNode3112" in="SourceGraphic"/></feMerge></filter></defs><path style="fill:#f0f;fill-opacity:1;stroke:#c700d3;stroke-width:2;stroke-linecap:round;stroke-opacity:1" id="path3114" d="m 17,17 0,-8 a 8,8 0 0 1 8,-8 l 8,0 20,0 60,0 8,0 a 8,8 0 0 1 8,8 l 0,8 -8,0 0,-6 -8,0 0,20 8,0 0,-6 8,0 0,34 -8,0 0,-6 -8,0 0,20 8,0 0,-6 8,0 0,8 a 8,8 0 0 1 -8,8 l -8,0 -60,0 -20,0 -8,0 a 8,8 0 0 1 -8,-8 l 0,-8 0,-42 0,-2 -12,0 0,6 -4,0 0,-16 4,0 0,6 12,0 0,-2 z"/><text style="font-size:28px;text-anchor:end;fill:#000;font-family:sans-serif" id="text3116"><tspan id="tspan3118" x="110" y="49">×</tspan></text></svg>