<svg xmlns="http://www.w3.org/2000/svg" xmlns:svg="http://www.w3.org/2000/svg" id="svg3016" width="218" height="42" version="1.1"><metadata id="metadata3049"/><defs id="defs3047"><filter id="dropshadow" height="1.3" color-interpolation-filters="sRGB"><feGaussianBlur id="feGaussianBlur3021" in="SourceAlpha" stdDeviation="3"/><feOffset id="feOffset3023" dx="2" dy="2" result="offsetblur"/><feComponentTransfer id="feComponentTransfer3025"><feFuncA id="feFuncA3027" slope=".2" type="linear"/></feComponentTransfer><feMerge id="feMerge3029"><feMergeNode id="feMergeNode3031"/><feMergeNode id="feMergeNode3033" in="SourceGraphic"/></feMerge></filter></defs><path style="fill:#7bbbb8;fill-opacity:1;stroke:#4c8585;stroke-width:2;stroke-linecap:round;stroke-opacity:1" id="path3035" d="m 17,17 0,-8 a 8,8 0 0 1 8,-8 l 8,0 20,0 148,0 8,0 a 8,8 0 0 1 8,8 l 0,8 -8,0 0,-6 -8,0 0,20 8,0 0,-6 8,0 0,8 a 8,8 0 0 1 -8,8 l -8,0 -148,0 -20,0 -8,0 a 8,8 0 0 1 -8,-8 l 0,-8 0,-2 -12,0 0,6 -4,0 0,-16 4,0 0,6 12,0 0,-2 z"/><text style="font-size:20px;text-anchor:end;fill:#000;font-family:Sans" id="text3037"><tspan id="tspan3039" x="198" y="26">note to frequency</tspan></text></svg>