<svg xmlns="http://www.w3.org/2000/svg" xmlns:svg="http://www.w3.org/2000/svg" id="svg3241" width="122" height="46" version="1.1"><metadata id="metadata3274"/><defs id="defs3272"><filter id="dropshadow" height="1.3" color-interpolation-filters="sRGB"><feGaussianBlur id="feGaussianBlur3246" in="SourceAlpha" stdDeviation="3"/><feOffset id="feOffset3248" dx="2" dy="2" result="offsetblur"/><feComponentTransfer id="feComponentTransfer3250"><feFuncA id="feFuncA3252" slope=".2" type="linear"/></feComponentTransfer><feMerge id="feMerge3254"><feMergeNode id="feMergeNode3256"/><feMergeNode id="feMergeNode3258" in="SourceGraphic"/></feMerge></filter></defs><path style="fill:#dd7f00;fill-opacity:1;stroke:#955100;stroke-width:2;stroke-linecap:round;stroke-opacity:1" id="path3260" d="M 1,17 1,9 A 8,8 0 0 1 9,1 l 8,0 0,4 20,0 0,-4 68,0 8,0 a 8,8 0 0 1 8,8 l 0,8 -8,0 0,-6 -8,0 0,20 8,0 0,-6 8,0 0,8 a 8,8 0 0 1 -8,8 l -8,0 -68,0 -2,0 0,4 -16,0 0,-4 -2,0 -8,0 A 8,8 0 0 1 1,33 l 0,-8 0,-8 z"/><text style="font-size:20px;text-anchor:end;fill:#000;font-family:Sans" id="text3262"><tspan id="tspan3264" x="102" y="28">push</tspan></text></svg>