<svg xmlns="http://www.w3.org/2000/svg" xmlns:svg="http://www.w3.org/2000/svg" id="svg3082" width="114" height="46" version="1.1"><metadata id="metadata3115"/><defs id="defs3113"><filter id="dropshadow" height="1.3" color-interpolation-filters="sRGB"><feGaussianBlur id="feGaussianBlur3087" in="SourceAlpha" stdDeviation="3"/><feOffset id="feOffset3089" dx="2" dy="2" result="offsetblur"/><feComponentTransfer id="feComponentTransfer3091"><feFuncA id="feFuncA3093" slope=".2" type="linear"/></feComponentTransfer><feMerge id="feMerge3095"><feMergeNode id="feMergeNode3097"/><feMergeNode id="feMergeNode3099" in="SourceGraphic"/></feMerge></filter></defs><path style="fill:#00b700;fill-opacity:1;stroke:#007b00;stroke-width:2;stroke-linecap:round;stroke-opacity:1" id="path3101" d="M 1,17 1,9 A 8,8 0 0 1 9,1 l 8,0 0,4 20,0 0,-4 60,0 8,0 a 8,8 0 0 1 8,8 l 0,8 -8,0 0,-6 -8,0 0,20 8,0 0,-6 8,0 0,8 a 8,8 0 0 1 -8,8 l -8,0 -60,0 -2,0 0,4 -16,0 0,-4 -2,0 -8,0 A 8,8 0 0 1 1,33 l 0,-8 0,-8 z"/><text style="font-size:20px;text-anchor:end;fill:#000;font-family:Sans" id="text3103"><tspan id="tspan3105" x="94" y="28">right</tspan></text></svg>