<svg xmlns="http://www.w3.org/2000/svg" xmlns:svg="http://www.w3.org/2000/svg" id="svg2" width="130" height="46" version="1.1"><metadata id="metadata35"/><defs id="defs33"><filter id="dropshadow" height="1.3" color-interpolation-filters="sRGB"><feGaussianBlur id="feGaussianBlur7" in="SourceAlpha" stdDeviation="3"/><feOffset id="feOffset9" dx="2" dy="2" result="offsetblur"/><feComponentTransfer id="feComponentTransfer11"><feFuncA id="feFuncA13" slope=".2" type="linear"/></feComponentTransfer><feMerge id="feMerge15"><feMergeNode id="feMergeNode17"/><feMergeNode id="feMergeNode19" in="SourceGraphic"/></feMerge></filter></defs><path style="fill:#dd7f00;fill-opacity:1;stroke:#955100;stroke-width:2;stroke-linecap:round;stroke-opacity:1" id="path21" d="M 1,17 1,9 C 1,4.8112098 4.8112098,1 9,1 l 8,0 0,4 20,0 0,-4 76,0 8,0 c 4.18879,0 8,3.8112098 8,8 l 0,8 -8,0 0,-6 -8,0 0,20 8,0 0,-6 8,0 0,8 c 0,4.18879 -3.81121,8 -8,8 l -8,0 -76,0 -2,0 0,4 -16,0 0,-4 -2,0 -8,0 C 4.8112098,41 1,37.18879 1,33 l 0,-8 z"/><text style="font-size:20px;text-anchor:end;fill:#000;font-family:Sans" id="text23" x="8"><tspan id="tspan25" x="110" y="28">save heap</tspan></text></svg>