<svg xmlns="http://www.w3.org/2000/svg" xmlns:svg="http://www.w3.org/2000/svg" id="svg3218" width="114" height="88" version="1.1"><metadata id="metadata3255"/><g id="g3220" transform="scale(2,2)"><filter id="dropshadow" height="1.3" color-interpolation-filters="sRGB"><feGaussianBlur id="feGaussianBlur3223" in="SourceAlpha" stdDeviation="3"/><feOffset id="feOffset3225" dx="2" dy="2" result="offsetblur"/><feComponentTransfer id="feComponentTransfer3227"><feFuncA id="feFuncA3229" slope=".2" type="linear"/></feComponentTransfer><feMerge id="feMerge3231"><feMergeNode id="feMergeNode3233"/><feMergeNode id="feMergeNode3235" in="SourceGraphic"/></feMerge></filter><path id="path3237" d="m 0.5,8.5 0,-4 a 4,4 90 0 1 4,-4 l 4,0 0,2 10,0 0,-2 30,0 4,0 a 4,4 90 0 1 4,4 l 0,4 -4,0 0,-3 -4,0 0,10 4,0 0,-3 4,0 0,17 -4,0 0,-3 -4,0 0,10 4,0 0,-3 4,0 0,4 a 4,4 90 0 1 -4,4 l -4,0 -30,0 -1,0 0,2 -8,0 0,-2 -1,0 -4,0 a 4,4 90 0 1 -4,-4 l 0,-4 0,-21 0,-4 z" style="fill:#dd7f00;fill-opacity:1;stroke:#955100;stroke-width:1;stroke-linecap:round;stroke-opacity:1"/><text id="text3239" style="font-size:10px;text-anchor:end;fill:#000;font-family:Sans"><tspan id="tspan3241" x="47" y="24.5">set heap</tspan></text><text id="text3243" style="font-size:6.66666651px;text-anchor:end;fill:#000;font-family:Sans"><tspan id="tspan3245" x="47" y="11.25">index</tspan></text><text id="text3247" style="font-size:6.66666651px;text-anchor:end;fill:#000;font-family:Sans"><tspan id="tspan3249" x="47" y="32.25">value</tspan></text></g></svg>