<svg xmlns="http://www.w3.org/2000/svg" xmlns:svg="http://www.w3.org/2000/svg" id="svg3183" width="154" height="46" version="1.1"><metadata id="metadata3216"/><defs id="defs3214"><filter id="dropshadow" height="1.3" color-interpolation-filters="sRGB"><feGaussianBlur id="feGaussianBlur3188" in="SourceAlpha" stdDeviation="3"/><feOffset id="feOffset3190" dx="2" dy="2" result="offsetblur"/><feComponentTransfer id="feComponentTransfer3192"><feFuncA id="feFuncA3194" slope=".2" type="linear"/></feComponentTransfer><feMerge id="feMerge3196"><feMergeNode id="feMergeNode3198"/><feMergeNode id="feMergeNode3200" in="SourceGraphic"/></feMerge></filter></defs><path style="fill:#00b700;fill-opacity:1;stroke:#007b00;stroke-width:2;stroke-linecap:round;stroke-opacity:1" id="path3202" d="M 1,17 1,9 A 8,8 0 0 1 9,1 l 8,0 0,4 20,0 0,-4 100,0 8,0 a 8,8 0 0 1 8,8 l 0,8 -8,0 0,-6 -8,0 0,20 8,0 0,-6 8,0 0,8 a 8,8 0 0 1 -8,8 l -8,0 -100,0 -2,0 0,4 -16,0 0,-4 -2,0 -8,0 A 8,8 0 0 1 1,33 l 0,-8 0,-8 z"/><text style="font-size:20px;text-anchor:end;fill:#000;font-family:Sans" id="text3204"><tspan id="tspan3206" x="134" y="28">set heading</tspan></text></svg>