<svg xmlns="http://www.w3.org/2000/svg" xmlns:svg="http://www.w3.org/2000/svg" id="svg3432" width="154" height="46" version="1.1"><metadata id="metadata3461"/><defs id="defs3459"><filter id="dropshadow" height="1.3" color-interpolation-filters="sRGB"><feGaussianBlur id="feGaussianBlur3437" in="SourceAlpha" stdDeviation="3"/><feOffset id="feOffset3439" dx="2" dy="2" result="offsetblur"/><feComponentTransfer id="feComponentTransfer3441"><feFuncA id="feFuncA3443" slope=".2" type="linear"/></feComponentTransfer><feMerge id="feMerge3445"><feMergeNode id="feMergeNode3447"/><feMergeNode id="feMergeNode3449" in="SourceGraphic"/></feMerge></filter></defs><path id="path3451" d="M 1,17 1,9 A 8,8 0 0 1 9,1 l 8,0 0,4 20,0 0,-4 100,0 8,0 a 8,8 0 0 1 8,8 l 0,8 0,8 0,8 a 8,8 0 0 1 -8,8 l -8,0 -100,0 -2,0 0,4 -16,0 0,-4 -2,0 -8,0 A 8,8 0 0 1 1,33 l 0,-8 z" style="fill:#f06;fill-opacity:1;stroke:#ef003e;stroke-width:2;stroke-linecap:round;stroke-opacity:1"/><text id="text3453" style="font-size:20px;text-anchor:end;fill:#000;font-family:Sans"><tspan id="tspan3455" x="134" y="28">show blocks</tspan></text></svg>