<svg xmlns="http://www.w3.org/2000/svg" xmlns:svg="http://www.w3.org/2000/svg" id="svg3518" width="114" height="88" version="1.1"><metadata id="metadata3555"/><defs id="defs3553"><filter id="dropshadow" height="1.3" color-interpolation-filters="sRGB"><feGaussianBlur id="feGaussianBlur3523" in="SourceAlpha" stdDeviation="3"/><feOffset id="feOffset3525" dx="2" dy="2" result="offsetblur"/><feComponentTransfer id="feComponentTransfer3527"><feFuncA id="feFuncA3529" slope=".2" type="linear"/></feComponentTransfer><feMerge id="feMerge3531"><feMergeNode id="feMergeNode3533"/><feMergeNode id="feMergeNode3535" in="SourceGraphic"/></feMerge></filter></defs><path id="path3537" d="M 1,17 1,9 A 8,8 0 0 1 9,1 l 8,0 0,4 20,0 0,-4 60,0 8,0 a 8,8 0 0 1 8,8 l 0,8 -8,0 0,-6 -8,0 0,20 8,0 0,-6 8,0 0,34 -8,0 0,-6 -8,0 0,20 8,0 0,-6 8,0 0,8 a 8,8 0 0 1 -8,8 l -8,0 -60,0 -2,0 0,4 -16,0 0,-4 -2,0 -8,0 A 8,8 0 0 1 1,75 L 1,67 1,25 1,17 z" style="fill:#7bbbb8;fill-opacity:1;stroke:#4c8585;stroke-width:2;stroke-linecap:round;stroke-opacity:1"/><text id="text3539" style="font-size:20px;text-anchor:end;fill:#000;font-family:Sans"><tspan id="tspan3541" x="94" y="49">shell</tspan></text><text id="text3543" style="font-size:13.33333302px;text-anchor:end;fill:#000;font-family:Sans"><tspan id="tspan3545" x="94" y="22.5">size</tspan></text><text id="text3547" style="font-size:13.33333302px;text-anchor:end;fill:#000;font-family:Sans"><tspan id="tspan3549" x="94" y="64.5">image</tspan></text></svg>