<svg xmlns="http://www.w3.org/2000/svg" xmlns:svg="http://www.w3.org/2000/svg" id="svg3571" width="114" height="46" version="1.1"><metadata id="metadata3604"/><defs id="defs3602"><filter id="dropshadow" height="1.3" color-interpolation-filters="sRGB"><feGaussianBlur id="feGaussianBlur3576" in="SourceAlpha" stdDeviation="3"/><feOffset id="feOffset3578" dx="2" dy="2" result="offsetblur"/><feComponentTransfer id="feComponentTransfer3580"><feFuncA id="feFuncA3582" slope=".2" type="linear"/></feComponentTransfer><feMerge id="feMerge3584"><feMergeNode id="feMergeNode3586"/><feMergeNode id="feMergeNode3588" in="SourceGraphic"/></feMerge></filter></defs><path style="fill:#7bbbb8;fill-opacity:1;stroke:#4c8585;stroke-width:2;stroke-linecap:round;stroke-opacity:1" id="path3590" d="M 1,17 1,9 A 8,8 0 0 1 9,1 l 8,0 0,4 20,0 0,-4 60,0 8,0 a 8,8 0 0 1 8,8 l 0,8 -8,0 0,-6 -8,0 0,20 8,0 0,-6 8,0 0,8 a 8,8 0 0 1 -8,8 l -8,0 -60,0 -2,0 0,4 -16,0 0,-4 -2,0 -8,0 A 8,8 0 0 1 1,33 l 0,-8 0,-8 z"/><text style="font-size:20px;text-anchor:end;fill:#000;font-family:Sans" id="text3592"><tspan id="tspan3594" x="94" y="28">speak</tspan></text></svg>