<svg xmlns="http://www.w3.org/2000/svg" xmlns:svg="http://www.w3.org/2000/svg" id="svg3641" width="132" height="150" version="1.1"><metadata id="metadata3670"/><defs id="defs3668"><filter id="dropshadow" height="1.3" color-interpolation-filters="sRGB"><feGaussianBlur id="feGaussianBlur3646" in="SourceAlpha" stdDeviation="3"/><feOffset id="feOffset3648" dx="2" dy="2" result="offsetblur"/><feComponentTransfer id="feComponentTransfer3650"><feFuncA id="feFuncA3652" slope=".2" type="linear"/></feComponentTransfer><feMerge id="feMerge3654"><feMergeNode id="feMergeNode3656"/><feMergeNode id="feMergeNode3658" in="SourceGraphic"/></feMerge></filter></defs><path id="path3660" d="m 1,29 0,-8 a 8,8 0 0 1 8,-8 l 8,0 10,-12 10,12 18,0 60,0 8,0 a 8,8 0 0 1 8,8 l 0,8 0,8 0,8 a 8,8 0 0 1 -8,8 l -8,0 -60,0 -2,0 0,4 -16,0 0,-4 -2,0 -8,0 A 10,10 0 0 0 17,63 l 0,8 0,8 0,8 a 10,10 0 0 0 10,10 l 8,0 0,4 20,0 0,-4 16,0 0,12 0,12 0,8 a 8,8 0 0 1 -8,8 l -8,0 -18,0 -10,12 -10,-12 -8,0 a 8,8 0 0 1 -8,-8 l 0,-8 z" style="fill:#ffc000;fill-opacity:1;stroke:#c48d00;stroke-width:2;stroke-linecap:round;stroke-opacity:1"/><text id="text3662" style="font-size:20px;text-anchor:start;fill:#000;font-family:Sans"><tspan id="tspan3664" x="8" y="43">start</tspan></text></svg>