<svg xmlns="http://www.w3.org/2000/svg" xmlns:svg="http://www.w3.org/2000/svg" id="svg3686" width="146" height="46" version="1.1"><metadata id="metadata3715"/><defs id="defs3713"><filter id="dropshadow" height="1.3" color-interpolation-filters="sRGB"><feGaussianBlur id="feGaussianBlur3691" in="SourceAlpha" stdDeviation="3"/><feOffset id="feOffset3693" dx="2" dy="2" result="offsetblur"/><feComponentTransfer id="feComponentTransfer3695"><feFuncA id="feFuncA3697" slope=".2" type="linear"/></feComponentTransfer><feMerge id="feMerge3699"><feMergeNode id="feMergeNode3701"/><feMergeNode id="feMergeNode3703" in="SourceGraphic"/></feMerge></filter></defs><path id="path3705" d="M 1,17 1,9 A 8,8 0 0 1 9,1 l 8,0 0,4 20,0 0,-4 92,0 8,0 a 8,8 0 0 1 8,8 l 0,8 0,8 0,8 a 8,8 0 0 1 -8,8 l -8,0 -92,0 -2,0 0,4 -16,0 0,-4 -2,0 -8,0 A 8,8 0 0 1 1,33 l 0,-8 z" style="fill:#7bbbb8;fill-opacity:1;stroke:#4c8585;stroke-width:2;stroke-linecap:round;stroke-opacity:1"/><text id="text3707" style="font-size:20px;text-anchor:end;fill:#000;font-family:Sans"><tspan id="tspan3709" x="126" y="28">stop media</tspan></text></svg>