<svg xmlns="http://www.w3.org/2000/svg" xmlns:svg="http://www.w3.org/2000/svg" id="svg3748" width="114" height="54.563" version="1.1"><path id="path3767" d="M 1,17 1,9 A 8,8 0 0 1 9,1 l 8,0 0,4 20,0 0,-4 60,0 8,0 a 8,8 0 0 1 8,8 l 0,8 0,8 0,8 a 8,8 0 0 1 -8,8 L 97,41 37,41 27,53 17,41 9,41 A 8,8 0 0 1 1,33 l 0,-8 z" style="fill:#e37a00;fill-opacity:1;stroke:#a34600;stroke-width:2;stroke-linecap:round;stroke-opacity:1"/><text id="text3769" style="font-size:20px;text-anchor:end;fill:#000;font-family:Sans"><tspan id="tspan3771" x="94" y="32">stop</tspan></text></svg>