<svg xmlns="http://www.w3.org/2000/svg" xmlns:xlink="http://www.w3.org/1999/xlink" width="55" height="55" fill="#eee" stroke="#000" stroke-linecap="round" stroke-linejoin="round" stroke-width="3.5" viewBox="0 0 55 55"><path id="path6" d="m 26.862744,44.411727 a 4.4117648,4.4117648 0 1 1 -1.11e-4,-0.03148" style="fill:#eee;fill-opacity:1;stroke:#eee;stroke-width:0;stroke-linecap:round;stroke-linejoin:miter;stroke-miterlimit:4;stroke-opacity:1;stroke-dasharray:none"/><path id="path8" d="m 37.401961,44.411727 a 4.4117648,4.4117648 0 1 1 -1.13e-4,-0.03148" style="fill:#eee;fill-opacity:1;stroke:#eee;stroke-width:0;stroke-linecap:round;stroke-linejoin:miter;stroke-miterlimit:4;stroke-opacity:1;stroke-dasharray:none"/><path id="path12" d="m 47.5,44.411727 a 4.4117648,4.4117648 0 1 1 -1.13e-4,-0.03148" style="fill:#eee;fill-opacity:1;stroke:#eee;stroke-width:0;stroke-linecap:round;stroke-linejoin:miter;stroke-miterlimit:4;stroke-opacity:1;stroke-dasharray:none"/><path id="path14" d="m 16.323529,44.411727 a 4.4117648,4.4117648 0 1 1 -1.13e-4,-0.03148" style="fill:#eee;fill-opacity:1;stroke:#eee;stroke-width:0;stroke-linecap:round;stroke-linejoin:miter;stroke-miterlimit:4;stroke-opacity:1;stroke-dasharray:none"/><path id="path38" d="m 26.862744,10.588196 a 4.4117648,4.4117648 0 1 1 -1.11e-4,-0.03147" style="fill:#000;fill-opacity:1;stroke:#eee;stroke-width:0;stroke-linecap:round;stroke-linejoin:miter;stroke-miterlimit:4;stroke-opacity:1;stroke-dasharray:none"/><path id="path40" d="m 37.401961,10.588196 a 4.4117648,4.4117648 0 1 1 -1.13e-4,-0.03147" style="fill:#eee;fill-opacity:1;stroke:#eee;stroke-width:0;stroke-linecap:round;stroke-linejoin:miter;stroke-miterlimit:4;stroke-opacity:1;stroke-dasharray:none"/><path id="path44" d="m 47.5,10.588196 a 4.4117648,4.4117648 0 1 1 -1.13e-4,-0.03147" style="fill:#eee;fill-opacity:1;stroke:#eee;stroke-width:0;stroke-linecap:round;stroke-linejoin:miter;stroke-miterlimit:4;stroke-opacity:1;stroke-dasharray:none"/><path id="path46" d="m 16.323529,10.588196 a 4.4117648,4.4117648 0 1 1 -1.13e-4,-0.03147" style="fill:#eee;fill-opacity:1;stroke:#eee;stroke-width:0;stroke-linecap:round;stroke-linejoin:miter;stroke-miterlimit:4;stroke-opacity:1;stroke-dasharray:none"/><path id="path54" d="m 26.862744,21.862706 a 4.4117648,4.4117648 0 1 1 -1.11e-4,-0.03148" style="fill:#000;fill-opacity:1;stroke:#eee;stroke-width:0;stroke-linecap:round;stroke-linejoin:miter;stroke-miterlimit:4;stroke-opacity:1;stroke-dasharray:none"/><path id="path56" d="m 37.401961,21.862706 a 4.4117648,4.4117648 0 1 1 -1.13e-4,-0.03148" style="fill:#000;fill-opacity:1;stroke:#eee;stroke-width:0;stroke-linecap:round;stroke-linejoin:miter;stroke-miterlimit:4;stroke-opacity:1;stroke-dasharray:none"/><path id="path60" d="m 47.5,21.862706 a 4.4117648,4.4117648 0 1 1 -1.13e-4,-0.03148" style="fill:#eee;fill-opacity:1;stroke:#eee;stroke-width:0;stroke-linecap:round;stroke-linejoin:miter;stroke-miterlimit:4;stroke-opacity:1;stroke-dasharray:none"/><path id="path62" d="m 16.323529,21.862706 a 4.4117648,4.4117648 0 1 1 -1.13e-4,-0.03148" style="fill:#000;fill-opacity:1;stroke:#eee;stroke-width:0;stroke-linecap:round;stroke-linejoin:miter;stroke-miterlimit:4;stroke-opacity:1;stroke-dasharray:none"/><path id="path70" d="m 26.862744,33.137215 a 4.4117648,4.4117648 0 1 1 -1.11e-4,-0.03148" style="fill:#000;fill-opacity:1;stroke:#eee;stroke-width:0;stroke-linecap:round;stroke-linejoin:miter;stroke-miterlimit:4;stroke-opacity:1;stroke-dasharray:none"/><path id="path72" d="m 37.401961,33.137215 a 4.4117648,4.4117648 0 1 1 -1.13e-4,-0.03148" style="fill:#eee;fill-opacity:1;stroke:#eee;stroke-width:0;stroke-linecap:round;stroke-linejoin:miter;stroke-miterlimit:4;stroke-opacity:1;stroke-dasharray:none"/><path id="path76" d="m 47.5,33.137215 a 4.4117648,4.4117648 0 1 1 -1.13e-4,-0.03148" style="fill:#eee;fill-opacity:1;stroke:#eee;stroke-width:0;stroke-linecap:round;stroke-linejoin:miter;stroke-miterlimit:4;stroke-opacity:1;stroke-dasharray:none"/><path id="path78" d="m 16.323529,33.137215 a 4.4117648,4.4117648 0 1 1 -1.13e-4,-0.03148" style="fill:#eee;fill-opacity:1;stroke:#eee;stroke-width:0;stroke-linecap:round;stroke-linejoin:miter;stroke-miterlimit:4;stroke-opacity:1;stroke-dasharray:none"/></svg>