<svg xmlns="http://www.w3.org/2000/svg" xmlns:svg="http://www.w3.org/2000/svg" id="svg2" width="55" height="55" version="1.1" viewBox="0 0 55 55" xml:space="preserve"><metadata id="metadata21"/><g id="g854" transform="matrix(1.7058869,0,0,1.7058869,19.682502,-68.111413)"><rect id="rect835" width="5" height="5" x="29.809" y="20.721" style="fill:#000;fill-opacity:1;stroke:none;stroke-opacity:1"/><rect style="fill:#000;fill-opacity:1;stroke:none;stroke-opacity:1" id="rect837" width="5" height="5" x="19.809" y="25.721"/><rect id="rect839" width="5" height="5" x="24.809" y="25.721" style="fill:#000;fill-opacity:1;stroke:none;stroke-opacity:1"/><rect style="fill:#000;fill-opacity:1;stroke:none;stroke-opacity:1" id="rect845" width="5" height="5" x="24.809" y="30.721"/><rect id="rect847" width="5" height="5" x="29.809" y="30.721" style="fill:#000;fill-opacity:1;stroke:none;stroke-opacity:1"/></g><path style="fill:#fff;fill-opacity:1;stroke:none;stroke-width:1.04244614;stroke-opacity:1" id="path867" d="M 27.585938 5.0585938 A 22.5 22.5 0 0 0 5.0859375 27.558594 A 22.5 22.5 0 0 0 27.585938 50.058594 A 22.5 22.5 0 0 0 50.085938 27.558594 A 22.5 22.5 0 0 0 27.585938 5.0585938 z M 21.890625 15.457031 L 27.921875 21.488281 L 33.953125 15.457031 L 39.984375 21.488281 L 33.953125 27.517578 L 39.984375 33.548828 L 33.953125 39.580078 L 27.921875 33.548828 L 21.890625 39.580078 L 15.859375 33.548828 L 21.890625 27.517578 L 15.859375 21.488281 L 21.890625 15.457031 z"/></svg>