<svg xmlns="http://www.w3.org/2000/svg" xmlns:svg="http://www.w3.org/2000/svg" id="svg2" width="55" height="55" version="1.1" viewBox="0 0 55 55" xml:space="preserve"><metadata id="metadata21"/><g id="g854" transform="matrix(1.7058869,0,0,1.7058869,19.682502,-68.111413)"><rect id="rect835" width="5" height="5" x="29.809" y="20.721" style="fill:#000;fill-opacity:1;stroke:none;stroke-opacity:1"/><rect style="fill:#000;fill-opacity:1;stroke:none;stroke-opacity:1" id="rect837" width="5" height="5" x="19.809" y="25.721"/><rect id="rect839" width="5" height="5" x="24.809" y="25.721" style="fill:#000;fill-opacity:1;stroke:none;stroke-opacity:1"/><rect style="fill:#000;fill-opacity:1;stroke:none;stroke-opacity:1" id="rect845" width="5" height="5" x="24.809" y="30.721"/><rect id="rect847" width="5" height="5" x="29.809" y="30.721" style="fill:#000;fill-opacity:1;stroke:none;stroke-opacity:1"/></g><path style="fill:#fff;fill-opacity:1;stroke:none;stroke-width:1.04244614;stroke-opacity:1" id="path867" d="M 27.585938 5.1855469 A 22.5 22.5 0 0 0 5.0859375 27.685547 A 22.5 22.5 0 0 0 27.585938 50.185547 A 22.5 22.5 0 0 0 50.085938 27.685547 A 22.5 22.5 0 0 0 27.585938 5.1855469 z M 31.289062 14.601562 L 39.818359 14.601562 L 39.818359 23.130859 L 31.289062 23.130859 L 31.289062 31.660156 L 39.818359 31.660156 L 39.818359 40.189453 L 31.289062 40.189453 L 22.759766 40.189453 L 22.759766 31.660156 L 14.230469 31.660156 L 14.230469 23.130859 L 22.759766 23.130859 L 31.289062 23.130859 L 31.289062 14.601562 z"/></svg>