<svg xmlns="http://www.w3.org/2000/svg" xmlns:svg="http://www.w3.org/2000/svg" id="svg2" width="55" height="55" version="1.1" viewBox="0 0 55 55" xml:space="preserve"><metadata id="metadata21"/><g id="g9" transform="matrix(1,0,0,-1,0,55.236326)" style="fill:#fff"><g id="g11" style="fill:#fff"><path style="fill:#fff" id="path13" d="M 27.496094 5.0507812 C 15.036094 5.0717813 4.9516875 15.157141 4.9296875 27.619141 C 4.9516875 40.082141 15.036094 50.166547 27.496094 50.185547 C 39.961094 50.166547 50.045453 40.081187 50.064453 27.617188 C 50.045453 15.155187 39.961094 5.0717813 27.496094 5.0507812 z M 29.630859 17.498047 L 33.708984 17.498047 L 33.708984 38.939453 L 29.630859 38.939453 L 29.630859 17.498047 z M 20.214844 17.572266 L 24.722656 17.572266 L 24.722656 39.011719 L 20.214844 39.011719 L 20.214844 17.572266 z" transform="matrix(1,0,0,-1,0,55.236326)"/></g></g></svg>