<svg xmlns="http://www.w3.org/2000/svg" xmlns:svg="http://www.w3.org/2000/svg" id="svg2" width="55" height="55" version="1.1" viewBox="0 0 55 55" xml:space="preserve"><metadata id="metadata21"/><g id="g854" transform="matrix(1.7058869,0,0,1.7058869,19.682502,-68.111413)"><rect id="rect835" width="5" height="5" x="29.809" y="20.721" style="fill:#000;fill-opacity:1;stroke:none;stroke-opacity:1"/><rect style="fill:#000;fill-opacity:1;stroke:none;stroke-opacity:1" id="rect837" width="5" height="5" x="19.809" y="25.721"/><rect id="rect839" width="5" height="5" x="24.809" y="25.721" style="fill:#000;fill-opacity:1;stroke:none;stroke-opacity:1"/><rect style="fill:#000;fill-opacity:1;stroke:none;stroke-opacity:1" id="rect845" width="5" height="5" x="24.809" y="30.721"/><rect id="rect847" width="5" height="5" x="29.809" y="30.721" style="fill:#000;fill-opacity:1;stroke:none;stroke-opacity:1"/></g><path style="fill:#fff;fill-opacity:1;stroke:none;stroke-width:1.04244614;stroke-opacity:1" id="path867" d="M 27.585938 5.0585938 A 22.5 22.5 0 0 0 5.0859375 27.558594 A 22.5 22.5 0 0 0 27.585938 50.058594 A 22.5 22.5 0 0 0 50.085938 27.558594 A 22.5 22.5 0 0 0 27.585938 5.0585938 z M 15.814453 15.033203 L 24.34375 15.033203 L 24.34375 23.5625 L 32.873047 23.5625 L 32.873047 15.033203 L 41.402344 15.033203 L 41.402344 23.5625 L 32.873047 23.5625 L 32.873047 32.091797 L 41.402344 32.091797 L 41.402344 40.621094 L 32.873047 40.621094 L 32.873047 32.091797 L 24.34375 32.091797 L 15.814453 32.091797 L 15.814453 23.5625 L 15.814453 15.033203 z"/><rect id="rect4625" width="8.529" height="8.529" x="68.19" y="43.685" style="fill:#000;fill-opacity:1;stroke:none;stroke-width:1.70588684;stroke-opacity:1"/><g id="g4671" transform="translate(-6.3352056,-3.0236215)"><rect style="fill:#000;fill-opacity:1;stroke:none;stroke-width:1.70588684;stroke-opacity:1" id="rect4661" width="8.529" height="8.529" x="100.113" y="46.709"/><rect id="rect4663" width="8.529" height="8.529" x="83.054" y="55.238" style="fill:#000;fill-opacity:1;stroke:none;stroke-width:1.70588684;stroke-opacity:1"/><rect style="fill:#000;fill-opacity:1;stroke:none;stroke-width:1.70588684;stroke-opacity:1" id="rect4665" width="8.529" height="8.529" x="91.584" y="55.238"/><rect id="rect4667" width="8.529" height="8.529" x="91.584" y="63.768" style="fill:#000;fill-opacity:1;stroke:none;stroke-width:1.70588684;stroke-opacity:1"/><rect style="fill:#000;fill-opacity:1;stroke:none;stroke-width:1.70588684;stroke-opacity:1" id="rect4669" width="8.529" height="8.529" x="100.113" y="63.768"/></g></svg>