<svg xmlns="http://www.w3.org/2000/svg" xmlns:svg="http://www.w3.org/2000/svg" id="svg2" width="163" height="162" version="1.1"><metadata id="metadata7"/><g id="layer1" transform="translate(-211,-410.36218)"><path style="fill:#fff;stroke:red;stroke-width:14;stroke-miterlimit:4;stroke-opacity:1;stroke-dasharray:none" id="path2985" d="m 367,491.36218 c 0,40.86907 -33.35479,74 -74.5,74 -41.14521,0 -74.5,-33.13093 -74.5,-74 0,-40.86907 33.35479,-74 74.5,-74 41.14521,0 74.5,33.13093 74.5,74 z"/><rect style="fill:red;fill-opacity:1;stroke:red;stroke-width:1.37227559;stroke-miterlimit:4;stroke-opacity:1;stroke-dasharray:none" id="rect2987" width="28.628" height="27.628" x="279.686" y="474.548"/><rect style="fill:red;fill-opacity:1;stroke:red;stroke-width:1.37227559;stroke-miterlimit:4;stroke-opacity:1;stroke-dasharray:none" id="rect2987-1" width="28.628" height="27.628" x="318.186" y="474.548"/><rect style="fill:red;fill-opacity:1;stroke:red;stroke-width:1.37227559;stroke-miterlimit:4;stroke-opacity:1;stroke-dasharray:none" id="rect2987-7" width="28.628" height="27.628" x="241.186" y="474.548"/><path style="fill:red;fill-opacity:1;stroke:red;stroke-width:1;stroke-miterlimit:4;stroke-opacity:1;stroke-dasharray:none;stroke-dashoffset:0" id="path3017" d="m 274.5,454.36218 c -4.51639,0 -8.62454,1.58915 -11.78125,4.1875 l -4.09375,-3.0625 -1.75,14.75 13.625,-5.875 -3.46875,-2.59375 c 2.10861,-1.51743 4.68495,-2.40625 7.46875,-2.40625 5.35013,0 9.94293,3.29319 11.9375,8 l 5.53125,0 c -1.90399,-7.45957 -8.9858,-13 -17.46875,-13 z"/><path style="fill:red;fill-opacity:1;stroke:red;stroke-width:1.19693005;stroke-miterlimit:4;stroke-opacity:1;stroke-dasharray:none;stroke-dashoffset:0" id="path3875" d="m 334.28125,506.64343 -15.5625,3.4375 3.5,3.8125 c -5.66917,3.92396 -14.73039,6.46875 -24.96875,6.46875 -11.9147,0 -22.27225,-3.44292 -27.5,-8.5 l -7.03125,0 c 2.14595,7.61956 16.40877,13.5 33.71875,13.5 12.48982,0 23.342,-3.08899 29.25,-7.65625 l 3.8125,4.15625 4.78125,-15.21875 z"/></g></svg>