<svg xmlns="http://www.w3.org/2000/svg" xmlns:svg="http://www.w3.org/2000/svg" id="svg2" width="100%" height="100%" x="0" y="0" enable-background="new 0 0 100 100" version="1.1" viewBox="0 0 55 55" xml:space="preserve"><metadata id="metadata46"/><switch id="switch4" transform="matrix(0.51880307,0,0,0.51880307,2.0599635,0.0688752)" style="fill:#fff;stroke:#000"><g id="g8" style="fill:#fff;stroke:#000"><g id="g10" style="fill:#fff;stroke:#000"><path id="path12" d="M 18.375,89.321 H 31.649 V 24.891 H 18.375 v 64.43 z" style="fill:#fff;stroke:#000"/><path id="path14" d="m 31.651,16.417 c 0,-0.55 -0.45,-1 -1,-1 H 19.375 c -0.55,0 -1,0.45 -1,1 v 7.495 h 13.276 v -7.495 z" style="fill:#fff;stroke:#000"/><path id="path16" d="m 18.375,97.786 c 0,0.549 0.45,1 1,1 h 11.276 c 0.55,0 1,-0.451 1,-1 V 90.291 H 18.375 v 7.495 z" style="fill:#fff;stroke:#000"/><path id="path18" d="m 79.329,84.021 15.997,-2.99 -9.436,-50.494 -15.998,2.99 9.437,50.494 z" style="fill:#fff;stroke:#000"/><path id="path20" d="m 83.035,15.251 c -0.102,-0.541 -0.627,-0.9 -1.168,-0.799 l -14.032,2.623 c -0.542,0.101 -0.901,0.626 -0.801,1.166 l 2.678,14.323 15.999,-2.99 -2.676,-14.323 z" style="fill:#fff;stroke:#000"/><path id="path22" d="m 81.983,98.225 c 0.101,0.541 0.625,0.9 1.166,0.801 L 97.184,96.4 c 0.54,-0.101 0.9,-0.627 0.8,-1.166 l -2.477,-13.252 -16.001,2.992 2.477,13.251 z" style="fill:#fff;stroke:#000"/><path id="path24" d="M 48.667,20.155 H 35 c -0.55,0 -1,0.45 -1,1 v 1.737 26.608 23 14 0.821 2 8.465 c 0,0.549 0.45,1 1,1 h 13.667 c 0.55,0 1,-0.451 1,-1 V 87.321 86.5 49.5 22.892 21.155 c 0,-0.55 -0.45,-1 -1,-1 z M 47.542,72.5 H 36.125 v -23 h 11.417 v 23 z" style="fill:#fff;stroke:#000"/><path id="path26" d="M 1.626,83.405 H 15.499 V 20.645 H 1.626 v 62.76 z" style="fill:#fff;stroke:#000"/><path id="path28" d="m 15.5,7.567 c 0,-0.55 -0.45,-1 -1,-1 H 2.625 c -0.55,0 -1,0.45 -1,1 V 19.665 H 15.5 V 7.567 z" style="fill:#fff;stroke:#000"/><path id="path30" d="m 1.625,97.786 c 0,0.549 0.45,1 1,1 H 14.5 c 0.55,0 1,-0.451 1,-1 V 84.375 H 1.625 v 13.411 z" style="fill:#fff;stroke:#000"/><path id="path32" d="M 54.588,83.567 68.442,82.851 65.203,20.174 51.349,20.89 54.588,83.567 z" style="fill:#fff;stroke:#000"/><path id="path34" d="M 64.529,7.115 C 64.501,6.566 64.028,6.139 63.479,6.167 L 51.62,6.781 c -0.549,0.028 -0.976,0.501 -0.947,1.05 L 51.297,19.913 65.153,19.197 64.529,7.115 z" style="fill:#fff;stroke:#000"/><path id="path36" d="m 55.329,97.93 c 0.028,0.548 0.502,0.975 1.051,0.947 l 11.859,-0.613 c 0.549,-0.029 0.975,-0.502 0.946,-1.05 L 68.493,83.82 54.637,84.536 55.329,97.93 z" style="fill:#fff;stroke:#000"/></g></g></switch></svg>