<svg xmlns="http://www.w3.org/2000/svg" xmlns:svg="http://www.w3.org/2000/svg" id="svg2" width="78.074" height="78.074" x="0" y="0" enable-background="new 0 0 100 100" version="1.1" viewBox="5 -10 78.074 105.4" xml:space="preserve"><circle style="fill:none;stroke:#282828;stroke-width:6;stroke-miterlimit:10;opacity:1;stroke-opacity:1" id="circle12" cx="50" cy="49.998" r="47" stroke-miterlimit="10" d="m 97,49.998001 c 0,25.957383 -21.042617,47 -47,47 -25.957383,0 -47,-21.042617 -47,-47 C 3,24.040618 24.042617,2.9980011 50,2.9980011 c 25.957383,0 47,21.0426169 47,46.9999999 z" transform="translate(-5.262963,-7.3)"/><circle style="fill:none;stroke:#fff;stroke-width:.67500001;stroke-miterlimit:10;stroke-opacity:1;stroke-dasharray:none" id="circle12-7" cx="50" cy="49.998" r="47" stroke-miterlimit="10" d="m 97,49.998001 c 0,25.957383 -21.042617,47 -47,47 -25.957383,0 -47,-21.042617 -47,-47 C 3,24.040618 24.042617,2.9980011 50,2.9980011 c 25.957383,0 47,21.0426169 47,46.9999999 z" transform="matrix(1.0604081,0,0,1.0639729,-8.4842152,-10.305164)"/><polygon style="stroke:#fff;fill:#282828;stroke-width:1.0003500000000001;stroke-miterlimit:4;stroke-dasharray:none" id="polygon14" points="36 28 72 49.96 36 71.921" transform="translate(-5.262963,-7.3)"/><circle style="fill:none;stroke:#fff;stroke-width:.67500001;stroke-miterlimit:10;stroke-opacity:1;stroke-dasharray:none" id="circle12-7-4" cx="50" cy="49.998" r="47" stroke-miterlimit="10" d="m 97,49.998001 c 0,25.957383 -21.042617,47 -47,47 -25.957383,0 -47,-21.042617 -47,-47 C 3,24.040618 24.042617,2.9980011 50,2.9980011 c 25.957383,0 47,21.0426169 47,46.9999999 z" transform="matrix(0.93048623,0,0,0.93887621,-1.8451134,-4.371295)"/></svg>